solid OpenSCAD_Model
  facet normal -1 0 0
    outer loop
      vertex -9.75 9 -6.5
      vertex -9.75 5 -4.5
      vertex -9.75 9 6.5
    endloop
  endfacet
  facet normal -1 0 0
    outer loop
      vertex -9.75 9 -6.5
      vertex -9.75 -5 -4.5
      vertex -9.75 5 -4.5
    endloop
  endfacet
  facet normal -1 -0 0
    outer loop
      vertex -9.75 -5 -4.5
      vertex -9.75 -9 -6.5
      vertex -9.75 -5 4.5
    endloop
  endfacet
  facet normal -1 0 0
    outer loop
      vertex -9.75 -9 -6.5
      vertex -9.75 -5 -4.5
      vertex -9.75 9 -6.5
    endloop
  endfacet
  facet normal -1 0 0
    outer loop
      vertex -9.75 5 4.5
      vertex -9.75 9 6.5
      vertex -9.75 5 -4.5
    endloop
  endfacet
  facet normal -1 0 0
    outer loop
      vertex -9.75 -5 4.5
      vertex -9.75 9 6.5
      vertex -9.75 5 4.5
    endloop
  endfacet
  facet normal -1 0 0
    outer loop
      vertex -9.75 -5 4.5
      vertex -9.75 -9 6.5
      vertex -9.75 9 6.5
    endloop
  endfacet
  facet normal -1 0 0
    outer loop
      vertex -9.75 -9 6.5
      vertex -9.75 -5 4.5
      vertex -9.75 -9 -6.5
    endloop
  endfacet
  facet normal -0 0 1
    outer loop
      vertex -9.75 9 6.5
      vertex 9.75 -9 6.5
      vertex 9.75 9 6.5
    endloop
  endfacet
  facet normal 0 0 1
    outer loop
      vertex 9.75 -9 6.5
      vertex -9.75 9 6.5
      vertex -9.75 -9 6.5
    endloop
  endfacet
  facet normal 1 0 0
    outer loop
      vertex 9.75 9 6.5
      vertex 9.75 5 4.5
      vertex 9.75 9 -6.5
    endloop
  endfacet
  facet normal 1 0 0
    outer loop
      vertex 9.75 9 6.5
      vertex 9.75 -5 4.5
      vertex 9.75 5 4.5
    endloop
  endfacet
  facet normal 1 0 0
    outer loop
      vertex 9.75 -5 4.5
      vertex 9.75 -9 6.5
      vertex 9.75 -5 -4.5
    endloop
  endfacet
  facet normal 1 -0 0
    outer loop
      vertex 9.75 -9 6.5
      vertex 9.75 -5 4.5
      vertex 9.75 9 6.5
    endloop
  endfacet
  facet normal 1 -0 0
    outer loop
      vertex 9.75 5 -4.5
      vertex 9.75 9 -6.5
      vertex 9.75 5 4.5
    endloop
  endfacet
  facet normal 1 -0 0
    outer loop
      vertex 9.75 -5 -4.5
      vertex 9.75 9 -6.5
      vertex 9.75 5 -4.5
    endloop
  endfacet
  facet normal 1 0 0
    outer loop
      vertex 9.75 -5 -4.5
      vertex 9.75 -9 -6.5
      vertex 9.75 9 -6.5
    endloop
  endfacet
  facet normal 1 0 0
    outer loop
      vertex 9.75 -9 -6.5
      vertex 9.75 -5 -4.5
      vertex 9.75 -9 6.5
    endloop
  endfacet
  facet normal 0 0 -1
    outer loop
      vertex 9.75 -9 -6.5
      vertex 7.5 0.0999994 -6.5
      vertex 9.75 9 -6.5
    endloop
  endfacet
  facet normal 0 0 -1
    outer loop
      vertex 9.75 -9 -6.5
      vertex 7.34776 -0.665366 -6.5
      vertex 7.5 0.0999994 -6.5
    endloop
  endfacet
  facet normal 0 0 -1
    outer loop
      vertex 9.75 -9 -6.5
      vertex 6.91421 -1.31421 -6.5
      vertex 7.34776 -0.665366 -6.5
    endloop
  endfacet
  facet normal 0 0 -1
    outer loop
      vertex 9.75 -9 -6.5
      vertex 6.26537 -1.74776 -6.5
      vertex 6.91421 -1.31421 -6.5
    endloop
  endfacet
  facet normal 0 0 -1
    outer loop
      vertex 9.75 -9 -6.5
      vertex 5.5 -1.9 -6.5
      vertex 6.26537 -1.74776 -6.5
    endloop
  endfacet
  facet normal 0 0 -1
    outer loop
      vertex 9.75 -9 -6.5
      vertex 4.73463 -1.74776 -6.5
      vertex 5.5 -1.9 -6.5
    endloop
  endfacet
  facet normal 0 0 -1
    outer loop
      vertex -4.73463 -1.74776 -6.5
      vertex 4.73463 -1.74776 -6.5
      vertex 9.75 -9 -6.5
    endloop
  endfacet
  facet normal 0 0 -1
    outer loop
      vertex 3.65224 -0.665366 -6.5
      vertex -3.5 0.0999994 -6.5
      vertex 3.5 0.0999994 -6.5
    endloop
  endfacet
  facet normal 0 0 -1
    outer loop
      vertex -3.65224 -0.665366 -6.5
      vertex 3.65224 -0.665366 -6.5
      vertex 4.08579 -1.31421 -6.5
    endloop
  endfacet
  facet normal 0 0 -1
    outer loop
      vertex 4.73463 -1.74776 -6.5
      vertex -4.73463 -1.74776 -6.5
      vertex 4.08579 -1.31421 -6.5
    endloop
  endfacet
  facet normal 0 0 -1
    outer loop
      vertex 3.65224 -0.665366 -6.5
      vertex -3.65224 -0.665366 -6.5
      vertex -3.5 0.0999994 -6.5
    endloop
  endfacet
  facet normal 0 0 -1
    outer loop
      vertex 4.08579 -1.31421 -6.5
      vertex -4.08579 -1.31421 -6.5
      vertex -3.65224 -0.665366 -6.5
    endloop
  endfacet
  facet normal -0 0 -1
    outer loop
      vertex 4.08579 -1.31421 -6.5
      vertex -4.73463 -1.74776 -6.5
      vertex -4.08579 -1.31421 -6.5
    endloop
  endfacet
  facet normal 0 0 -1
    outer loop
      vertex -9.75 -9 -6.5
      vertex -4.73463 -1.74776 -6.5
      vertex 9.75 -9 -6.5
    endloop
  endfacet
  facet normal 0 0 -1
    outer loop
      vertex -4.73463 -1.74776 -6.5
      vertex -9.75 -9 -6.5
      vertex -5.5 -1.9 -6.5
    endloop
  endfacet
  facet normal -0 0 -1
    outer loop
      vertex -7.34776 -0.665366 -6.5
      vertex -9.75 -9 -6.5
      vertex -7.5 0.0999994 -6.5
    endloop
  endfacet
  facet normal -0 0 -1
    outer loop
      vertex -6.91421 -1.31421 -6.5
      vertex -9.75 -9 -6.5
      vertex -7.34776 -0.665366 -6.5
    endloop
  endfacet
  facet normal -0 0 -1
    outer loop
      vertex -6.26537 -1.74776 -6.5
      vertex -9.75 -9 -6.5
      vertex -6.91421 -1.31421 -6.5
    endloop
  endfacet
  facet normal -0 0 -1
    outer loop
      vertex -5.5 -1.9 -6.5
      vertex -9.75 -9 -6.5
      vertex -6.26537 -1.74776 -6.5
    endloop
  endfacet
  facet normal 0 0 -1
    outer loop
      vertex 7.34776 0.865366 -6.5
      vertex 9.75 9 -6.5
      vertex 7.5 0.0999994 -6.5
    endloop
  endfacet
  facet normal 0 0 -1
    outer loop
      vertex 6.91421 1.51421 -6.5
      vertex 9.75 9 -6.5
      vertex 7.34776 0.865366 -6.5
    endloop
  endfacet
  facet normal 0 0 -1
    outer loop
      vertex 6.26537 1.94776 -6.5
      vertex 9.75 9 -6.5
      vertex 6.91421 1.51421 -6.5
    endloop
  endfacet
  facet normal 0 0 -1
    outer loop
      vertex 5.5 2.1 -6.5
      vertex 9.75 9 -6.5
      vertex 6.26537 1.94776 -6.5
    endloop
  endfacet
  facet normal 0 0 -1
    outer loop
      vertex 4.73463 1.94776 -6.5
      vertex 9.75 9 -6.5
      vertex 5.5 2.1 -6.5
    endloop
  endfacet
  facet normal 0 0 -1
    outer loop
      vertex -4.73463 1.94776 -6.5
      vertex 4.73463 1.94776 -6.5
      vertex 4.08579 1.51421 -6.5
    endloop
  endfacet
  facet normal 0 0 -1
    outer loop
      vertex -3.5 0.0999994 -6.5
      vertex 3.65224 0.865366 -6.5
      vertex 3.5 0.0999994 -6.5
    endloop
  endfacet
  facet normal 0 0 -1
    outer loop
      vertex -3.65224 0.865366 -6.5
      vertex 3.65224 0.865366 -6.5
      vertex -3.5 0.0999994 -6.5
    endloop
  endfacet
  facet normal 0 0 -1
    outer loop
      vertex 3.65224 0.865366 -6.5
      vertex -3.65224 0.865366 -6.5
      vertex 4.08579 1.51421 -6.5
    endloop
  endfacet
  facet normal 0 0 -1
    outer loop
      vertex -4.08579 1.51421 -6.5
      vertex 4.08579 1.51421 -6.5
      vertex -3.65224 0.865366 -6.5
    endloop
  endfacet
  facet normal 0 0 -1
    outer loop
      vertex -4.73463 1.94776 -6.5
      vertex 4.08579 1.51421 -6.5
      vertex -4.08579 1.51421 -6.5
    endloop
  endfacet
  facet normal 0 0 -1
    outer loop
      vertex 4.73463 1.94776 -6.5
      vertex -4.73463 1.94776 -6.5
      vertex 9.75 9 -6.5
    endloop
  endfacet
  facet normal 0 0 -1
    outer loop
      vertex -9.75 9 -6.5
      vertex -4.73463 1.94776 -6.5
      vertex -5.5 2.1 -6.5
    endloop
  endfacet
  facet normal 0 0 -1
    outer loop
      vertex -9.75 9 -6.5
      vertex -5.5 2.1 -6.5
      vertex -6.26537 1.94776 -6.5
    endloop
  endfacet
  facet normal 0 0 -1
    outer loop
      vertex -9.75 9 -6.5
      vertex -7.5 0.0999994 -6.5
      vertex -9.75 -9 -6.5
    endloop
  endfacet
  facet normal 0 0 -1
    outer loop
      vertex -4.73463 1.94776 -6.5
      vertex -9.75 9 -6.5
      vertex 9.75 9 -6.5
    endloop
  endfacet
  facet normal 0 0 -1
    outer loop
      vertex -6.91421 1.51421 -6.5
      vertex -9.75 9 -6.5
      vertex -6.26537 1.94776 -6.5
    endloop
  endfacet
  facet normal 0 0 -1
    outer loop
      vertex -7.34776 0.865366 -6.5
      vertex -9.75 9 -6.5
      vertex -6.91421 1.51421 -6.5
    endloop
  endfacet
  facet normal 0 0 -1
    outer loop
      vertex -7.5 0.0999994 -6.5
      vertex -9.75 9 -6.5
      vertex -7.34776 0.865366 -6.5
    endloop
  endfacet
  facet normal 0 -1 0
    outer loop
      vertex -9.75 -9 6.5
      vertex -7.75 -9 4.5
      vertex 9.75 -9 6.5
    endloop
  endfacet
  facet normal 0 -1 0
    outer loop
      vertex -9.75 -9 6.5
      vertex -7.75 -9 -4.5
      vertex -7.75 -9 4.5
    endloop
  endfacet
  facet normal 0 -1 -0
    outer loop
      vertex -7.75 -9 -4.5
      vertex -9.75 -9 -6.5
      vertex 7.75 -9 -4.5
    endloop
  endfacet
  facet normal 0 -1 0
    outer loop
      vertex -9.75 -9 -6.5
      vertex -7.75 -9 -4.5
      vertex -9.75 -9 6.5
    endloop
  endfacet
  facet normal 0 -1 0
    outer loop
      vertex 7.75 -9 4.5
      vertex 9.75 -9 6.5
      vertex -7.75 -9 4.5
    endloop
  endfacet
  facet normal 0 -1 0
    outer loop
      vertex 7.75 -9 -4.5
      vertex 9.75 -9 6.5
      vertex 7.75 -9 4.5
    endloop
  endfacet
  facet normal 0 -1 0
    outer loop
      vertex 7.75 -9 -4.5
      vertex 9.75 -9 -6.5
      vertex 9.75 -9 6.5
    endloop
  endfacet
  facet normal 0 -1 0
    outer loop
      vertex 9.75 -9 -6.5
      vertex 7.75 -9 -4.5
      vertex -9.75 -9 -6.5
    endloop
  endfacet
  facet normal 0 1 0
    outer loop
      vertex 9.75 9 6.5
      vertex -0.499999 9 3.35
      vertex -9.75 9 6.5
    endloop
  endfacet
  facet normal 0 1 0
    outer loop
      vertex 9.75 9 6.5
      vertex 0.705452 9 3.11022
      vertex -0.499999 9 3.35
    endloop
  endfacet
  facet normal 0 1 0
    outer loop
      vertex 9.75 9 6.5
      vertex 1.72739 9 2.42739
      vertex 0.705452 9 3.11022
    endloop
  endfacet
  facet normal 0 1 0
    outer loop
      vertex 9.75 9 6.5
      vertex 2.41022 9 1.40545
      vertex 1.72739 9 2.42739
    endloop
  endfacet
  facet normal 0 1 0
    outer loop
      vertex 9.75 9 6.5
      vertex 2.65 9 0.2
      vertex 2.41022 9 1.40545
    endloop
  endfacet
  facet normal 0 1 -0
    outer loop
      vertex 9.75 9 -6.5
      vertex 2.65 9 0.2
      vertex 9.75 9 6.5
    endloop
  endfacet
  facet normal 0 1 0
    outer loop
      vertex 2.65 9 0.2
      vertex 9.75 9 -6.5
      vertex 2.41022 9 -1.00545
    endloop
  endfacet
  facet normal 0 1 0
    outer loop
      vertex 0.705452 9 -2.71022
      vertex 9.75 9 -6.5
      vertex -0.5 9 -2.95
    endloop
  endfacet
  facet normal 0 1 0
    outer loop
      vertex 1.72739 9 -2.02739
      vertex 9.75 9 -6.5
      vertex 0.705452 9 -2.71022
    endloop
  endfacet
  facet normal 0 1 0
    outer loop
      vertex 2.41022 9 -1.00545
      vertex 9.75 9 -6.5
      vertex 1.72739 9 -2.02739
    endloop
  endfacet
  facet normal 0 1 -0
    outer loop
      vertex -1.70545 9 3.11022
      vertex -9.75 9 6.5
      vertex -0.499999 9 3.35
    endloop
  endfacet
  facet normal 0 1 -0
    outer loop
      vertex -2.72739 9 2.42739
      vertex -9.75 9 6.5
      vertex -1.70545 9 3.11022
    endloop
  endfacet
  facet normal 0 1 -0
    outer loop
      vertex -3.41022 9 1.40545
      vertex -9.75 9 6.5
      vertex -2.72739 9 2.42739
    endloop
  endfacet
  facet normal 0 1 -0
    outer loop
      vertex -3.65 9 0.2
      vertex -9.75 9 6.5
      vertex -3.41022 9 1.40545
    endloop
  endfacet
  facet normal 0 1 0
    outer loop
      vertex -9.75 9 -6.5
      vertex -3.65 9 0.2
      vertex -3.41022 9 -1.00545
    endloop
  endfacet
  facet normal 0 1 0
    outer loop
      vertex -9.75 9 -6.5
      vertex -3.41022 9 -1.00545
      vertex -2.72739 9 -2.02739
    endloop
  endfacet
  facet normal 0 1 0
    outer loop
      vertex -9.75 9 -6.5
      vertex -0.5 9 -2.95
      vertex 9.75 9 -6.5
    endloop
  endfacet
  facet normal 0 1 0
    outer loop
      vertex -3.65 9 0.2
      vertex -9.75 9 -6.5
      vertex -9.75 9 6.5
    endloop
  endfacet
  facet normal 0 1 0
    outer loop
      vertex -1.70545 9 -2.71022
      vertex -9.75 9 -6.5
      vertex -2.72739 9 -2.02739
    endloop
  endfacet
  facet normal 0 1 0
    outer loop
      vertex -0.5 9 -2.95
      vertex -9.75 9 -6.5
      vertex -1.70545 9 -2.71022
    endloop
  endfacet
  facet normal 1 -0 0
    outer loop
      vertex -7.75 -9 4.5
      vertex -7.75 -5 -4.5
      vertex -7.75 -5 4.5
    endloop
  endfacet
  facet normal 1 0 0
    outer loop
      vertex -7.75 -5 -4.5
      vertex -7.75 -9 4.5
      vertex -7.75 -9 -4.5
    endloop
  endfacet
  facet normal 0 0 -1
    outer loop
      vertex 7.75 -9 4.5
      vertex -7.75 -9 4.5
      vertex 7.75 -5 4.5
    endloop
  endfacet
  facet normal 0 0 -1
    outer loop
      vertex 7.75 -5 4.5
      vertex 9.75 5 4.5
      vertex 9.75 -5 4.5
    endloop
  endfacet
  facet normal 0 0 -1
    outer loop
      vertex -7.75 -5 4.5
      vertex 7.75 -5 4.5
      vertex -7.75 -9 4.5
    endloop
  endfacet
  facet normal 0 0 -1
    outer loop
      vertex 7.75 -5 4.5
      vertex -7.75 -5 4.5
      vertex 9.75 5 4.5
    endloop
  endfacet
  facet normal 0 0 -1
    outer loop
      vertex -9.75 5 4.5
      vertex -7.75 -5 4.5
      vertex -9.75 -5 4.5
    endloop
  endfacet
  facet normal 0 0 -1
    outer loop
      vertex -7.75 -5 4.5
      vertex -9.75 5 4.5
      vertex 9.75 5 4.5
    endloop
  endfacet
  facet normal -1 0 0
    outer loop
      vertex 7.75 -9 -4.5
      vertex 7.75 -5 4.5
      vertex 7.75 -5 -4.5
    endloop
  endfacet
  facet normal -1 -0 0
    outer loop
      vertex 7.75 -5 4.5
      vertex 7.75 -9 -4.5
      vertex 7.75 -9 4.5
    endloop
  endfacet
  facet normal 0 -1 0
    outer loop
      vertex -9.75 5 4.5
      vertex -0.499999 5 3.35
      vertex 9.75 5 4.5
    endloop
  endfacet
  facet normal 0 -1 0
    outer loop
      vertex -9.75 5 4.5
      vertex -1.70545 5 3.11022
      vertex -0.499999 5 3.35
    endloop
  endfacet
  facet normal 0 -1 0
    outer loop
      vertex -9.75 5 4.5
      vertex -2.72739 5 2.42739
      vertex -1.70545 5 3.11022
    endloop
  endfacet
  facet normal 0 -1 0
    outer loop
      vertex -9.75 5 4.5
      vertex -3.41022 5 1.40545
      vertex -2.72739 5 2.42739
    endloop
  endfacet
  facet normal 0 -1 0
    outer loop
      vertex -9.75 5 4.5
      vertex -3.65 5 0.2
      vertex -3.41022 5 1.40545
    endloop
  endfacet
  facet normal 0 -1 0
    outer loop
      vertex -9.75 5 -4.5
      vertex -3.65 5 0.2
      vertex -9.75 5 4.5
    endloop
  endfacet
  facet normal 0 -1 -0
    outer loop
      vertex -3.65 5 0.2
      vertex -9.75 5 -4.5
      vertex -3.41022 5 -1.00545
    endloop
  endfacet
  facet normal 0 -1 -0
    outer loop
      vertex -1.70545 5 -2.71022
      vertex -9.75 5 -4.5
      vertex -0.5 5 -2.95
    endloop
  endfacet
  facet normal 0 -1 -0
    outer loop
      vertex -2.72739 5 -2.02739
      vertex -9.75 5 -4.5
      vertex -1.70545 5 -2.71022
    endloop
  endfacet
  facet normal 0 -1 -0
    outer loop
      vertex -3.41022 5 -1.00545
      vertex -9.75 5 -4.5
      vertex -2.72739 5 -2.02739
    endloop
  endfacet
  facet normal 0 -1 0
    outer loop
      vertex 0.705452 5 3.11022
      vertex 9.75 5 4.5
      vertex -0.499999 5 3.35
    endloop
  endfacet
  facet normal 0 -1 0
    outer loop
      vertex 1.72739 5 2.42739
      vertex 9.75 5 4.5
      vertex 0.705452 5 3.11022
    endloop
  endfacet
  facet normal 0 -1 0
    outer loop
      vertex 2.41022 5 1.40545
      vertex 9.75 5 4.5
      vertex 1.72739 5 2.42739
    endloop
  endfacet
  facet normal 0 -1 0
    outer loop
      vertex 2.65 5 0.2
      vertex 9.75 5 4.5
      vertex 2.41022 5 1.40545
    endloop
  endfacet
  facet normal 0 -1 0
    outer loop
      vertex 9.75 5 -4.5
      vertex 2.65 5 0.2
      vertex 2.41022 5 -1.00545
    endloop
  endfacet
  facet normal 0 -1 0
    outer loop
      vertex 9.75 5 -4.5
      vertex 2.41022 5 -1.00545
      vertex 1.72739 5 -2.02739
    endloop
  endfacet
  facet normal 0 -1 0
    outer loop
      vertex 2.65 5 0.2
      vertex 9.75 5 -4.5
      vertex 9.75 5 4.5
    endloop
  endfacet
  facet normal 0 -1 0
    outer loop
      vertex 0.705452 5 -2.71022
      vertex 9.75 5 -4.5
      vertex 1.72739 5 -2.02739
    endloop
  endfacet
  facet normal 0 -1 0
    outer loop
      vertex -0.5 5 -2.95
      vertex 9.75 5 -4.5
      vertex 0.705452 5 -2.71022
    endloop
  endfacet
  facet normal 0 -1 0
    outer loop
      vertex 9.75 5 -4.5
      vertex -0.5 5 -2.95
      vertex -9.75 5 -4.5
    endloop
  endfacet
  facet normal -0 0 1
    outer loop
      vertex 6.5 0.0999994 -4.5
      vertex 9.75 -5 -4.5
      vertex 9.75 5 -4.5
    endloop
  endfacet
  facet normal -0 0 1
    outer loop
      vertex 6.20711 -0.607106 -4.5
      vertex 9.75 -5 -4.5
      vertex 6.42388 -0.282683 -4.5
    endloop
  endfacet
  facet normal -0 0 1
    outer loop
      vertex 6.42388 -0.282683 -4.5
      vertex 9.75 -5 -4.5
      vertex 6.5 0.0999994 -4.5
    endloop
  endfacet
  facet normal 0 0 1
    outer loop
      vertex 9.75 5 -4.5
      vertex 6.42388 0.482683 -4.5
      vertex 6.5 0.0999994 -4.5
    endloop
  endfacet
  facet normal 0 0 1
    outer loop
      vertex 9.75 5 -4.5
      vertex 6.20711 0.807106 -4.5
      vertex 6.42388 0.482683 -4.5
    endloop
  endfacet
  facet normal 0 0 1
    outer loop
      vertex 9.75 5 -4.5
      vertex 5.88268 1.02388 -4.5
      vertex 6.20711 0.807106 -4.5
    endloop
  endfacet
  facet normal 0 0 1
    outer loop
      vertex 9.75 5 -4.5
      vertex 5.5 1.1 -4.5
      vertex 5.88268 1.02388 -4.5
    endloop
  endfacet
  facet normal 0 0 1
    outer loop
      vertex 9.75 5 -4.5
      vertex 5.11732 1.02388 -4.5
      vertex 5.5 1.1 -4.5
    endloop
  endfacet
  facet normal 0 0 1
    outer loop
      vertex -5.11732 1.02388 -4.5
      vertex 5.11732 1.02388 -4.5
      vertex 9.75 5 -4.5
    endloop
  endfacet
  facet normal 0 0 1
    outer loop
      vertex 4.57612 0.482683 -4.5
      vertex -4.5 0.0999994 -4.5
      vertex 4.5 0.0999994 -4.5
    endloop
  endfacet
  facet normal 0 0 1
    outer loop
      vertex -4.57612 0.482683 -4.5
      vertex 4.57612 0.482683 -4.5
      vertex 4.79289 0.807106 -4.5
    endloop
  endfacet
  facet normal 0 0 1
    outer loop
      vertex 5.11732 1.02388 -4.5
      vertex -5.11732 1.02388 -4.5
      vertex 4.79289 0.807106 -4.5
    endloop
  endfacet
  facet normal 0 0 1
    outer loop
      vertex 4.57612 0.482683 -4.5
      vertex -4.57612 0.482683 -4.5
      vertex -4.5 0.0999994 -4.5
    endloop
  endfacet
  facet normal 0 0 1
    outer loop
      vertex 4.79289 0.807106 -4.5
      vertex -4.79289 0.807106 -4.5
      vertex -4.57612 0.482683 -4.5
    endloop
  endfacet
  facet normal 0 0 1
    outer loop
      vertex 4.79289 0.807106 -4.5
      vertex -5.11732 1.02388 -4.5
      vertex -4.79289 0.807106 -4.5
    endloop
  endfacet
  facet normal -0 0 1
    outer loop
      vertex -9.75 5 -4.5
      vertex -5.11732 1.02388 -4.5
      vertex 9.75 5 -4.5
    endloop
  endfacet
  facet normal 0 0 1
    outer loop
      vertex -5.11732 1.02388 -4.5
      vertex -9.75 5 -4.5
      vertex -5.5 1.1 -4.5
    endloop
  endfacet
  facet normal 0 0 1
    outer loop
      vertex -9.75 5 -4.5
      vertex -6.5 0.0999994 -4.5
      vertex -6.42388 0.482683 -4.5
    endloop
  endfacet
  facet normal 0 0 1
    outer loop
      vertex -5.5 1.1 -4.5
      vertex -9.75 5 -4.5
      vertex -5.88268 1.02388 -4.5
    endloop
  endfacet
  facet normal 0 0 1
    outer loop
      vertex -9.75 5 -4.5
      vertex -6.20711 0.807106 -4.5
      vertex -5.88268 1.02388 -4.5
    endloop
  endfacet
  facet normal 0 0 1
    outer loop
      vertex -9.75 5 -4.5
      vertex -6.42388 0.482683 -4.5
      vertex -6.20711 0.807106 -4.5
    endloop
  endfacet
  facet normal 0 0 1
    outer loop
      vertex -6.5 0.0999994 -4.5
      vertex -9.75 5 -4.5
      vertex -9.75 -5 -4.5
    endloop
  endfacet
  facet normal 0 0 1
    outer loop
      vertex -6.5 0.0999994 -4.5
      vertex -9.75 -5 -4.5
      vertex -7.75 -5 -4.5
    endloop
  endfacet
  facet normal 0 0 1
    outer loop
      vertex 9.75 -5 -4.5
      vertex 6.20711 -0.607106 -4.5
      vertex 7.75 -5 -4.5
    endloop
  endfacet
  facet normal -0 0 1
    outer loop
      vertex 5.88268 -0.823879 -4.5
      vertex 7.75 -5 -4.5
      vertex 6.20711 -0.607106 -4.5
    endloop
  endfacet
  facet normal -0 0 1
    outer loop
      vertex 5.5 -0.9 -4.5
      vertex 7.75 -5 -4.5
      vertex 5.88268 -0.823879 -4.5
    endloop
  endfacet
  facet normal 0 0 1
    outer loop
      vertex 5.11732 -0.823879 -4.5
      vertex 7.75 -5 -4.5
      vertex 5.5 -0.9 -4.5
    endloop
  endfacet
  facet normal 0 0 1
    outer loop
      vertex 4.79289 -0.607106 -4.5
      vertex 7.75 -5 -4.5
      vertex 5.11732 -0.823879 -4.5
    endloop
  endfacet
  facet normal 0 0 1
    outer loop
      vertex 7.75 -5 -4.5
      vertex 4.79289 -0.607106 -4.5
      vertex 7.75 -9 -4.5
    endloop
  endfacet
  facet normal 0 0 1
    outer loop
      vertex -4.79289 -0.607106 -4.5
      vertex 4.79289 -0.607106 -4.5
      vertex 4.57612 -0.282683 -4.5
    endloop
  endfacet
  facet normal -0 0 1
    outer loop
      vertex -4.5 0.0999994 -4.5
      vertex 4.57612 -0.282683 -4.5
      vertex 4.5 0.0999994 -4.5
    endloop
  endfacet
  facet normal 0 0 1
    outer loop
      vertex -4.57612 -0.282683 -4.5
      vertex 4.57612 -0.282683 -4.5
      vertex -4.5 0.0999994 -4.5
    endloop
  endfacet
  facet normal 0 0 1
    outer loop
      vertex -4.79289 -0.607106 -4.5
      vertex 4.57612 -0.282683 -4.5
      vertex -4.57612 -0.282683 -4.5
    endloop
  endfacet
  facet normal 0 0 1
    outer loop
      vertex 4.79289 -0.607106 -4.5
      vertex -4.79289 -0.607106 -4.5
      vertex 7.75 -9 -4.5
    endloop
  endfacet
  facet normal 0 0 1
    outer loop
      vertex -7.75 -5 -4.5
      vertex -4.79289 -0.607106 -4.5
      vertex -5.11732 -0.823879 -4.5
    endloop
  endfacet
  facet normal 0 0 1
    outer loop
      vertex -7.75 -5 -4.5
      vertex -5.11732 -0.823879 -4.5
      vertex -5.5 -0.9 -4.5
    endloop
  endfacet
  facet normal 0 0 1
    outer loop
      vertex -7.75 -5 -4.5
      vertex -5.5 -0.9 -4.5
      vertex -5.88268 -0.823879 -4.5
    endloop
  endfacet
  facet normal 0 0 1
    outer loop
      vertex -7.75 -5 -4.5
      vertex -6.42388 -0.282683 -4.5
      vertex -6.5 0.0999994 -4.5
    endloop
  endfacet
  facet normal 0 0 1
    outer loop
      vertex -7.75 -5 -4.5
      vertex -6.20711 -0.607106 -4.5
      vertex -6.42388 -0.282683 -4.5
    endloop
  endfacet
  facet normal 0 0 1
    outer loop
      vertex -7.75 -5 -4.5
      vertex -5.88268 -0.823879 -4.5
      vertex -6.20711 -0.607106 -4.5
    endloop
  endfacet
  facet normal 0 0 1
    outer loop
      vertex -4.79289 -0.607106 -4.5
      vertex -7.75 -5 -4.5
      vertex 7.75 -9 -4.5
    endloop
  endfacet
  facet normal 0 0 1
    outer loop
      vertex 7.75 -9 -4.5
      vertex -7.75 -5 -4.5
      vertex -7.75 -9 -4.5
    endloop
  endfacet
  facet normal -0.980785 0 -0.19509
    outer loop
      vertex 2.65 5 0.2
      vertex 2.41022 9 1.40545
      vertex 2.65 9 0.2
    endloop
  endfacet
  facet normal -0.980785 -0 -0.19509
    outer loop
      vertex 2.41022 9 1.40545
      vertex 2.65 5 0.2
      vertex 2.41022 5 1.40545
    endloop
  endfacet
  facet normal -0.831469 0 -0.55557
    outer loop
      vertex 2.41022 5 1.40545
      vertex 1.72739 9 2.42739
      vertex 2.41022 9 1.40545
    endloop
  endfacet
  facet normal -0.831469 -0 -0.55557
    outer loop
      vertex 1.72739 9 2.42739
      vertex 2.41022 5 1.40545
      vertex 1.72739 5 2.42739
    endloop
  endfacet
  facet normal 0.980785 0 -0.19509
    outer loop
      vertex -3.41022 5 1.40545
      vertex -3.65 9 0.2
      vertex -3.41022 9 1.40545
    endloop
  endfacet
  facet normal 0.980785 0 -0.19509
    outer loop
      vertex -3.65 9 0.2
      vertex -3.41022 5 1.40545
      vertex -3.65 5 0.2
    endloop
  endfacet
  facet normal -0.55557 0 -0.83147
    outer loop
      vertex 0.705452 5 3.11022
      vertex 1.72739 9 2.42739
      vertex 1.72739 5 2.42739
    endloop
  endfacet
  facet normal -0.55557 0 -0.83147
    outer loop
      vertex 1.72739 9 2.42739
      vertex 0.705452 5 3.11022
      vertex 0.705452 9 3.11022
    endloop
  endfacet
  facet normal 0.19509 0 -0.980785
    outer loop
      vertex -1.70545 5 3.11022
      vertex -0.499999 9 3.35
      vertex -0.499999 5 3.35
    endloop
  endfacet
  facet normal 0.19509 0 -0.980785
    outer loop
      vertex -0.499999 9 3.35
      vertex -1.70545 5 3.11022
      vertex -1.70545 9 3.11022
    endloop
  endfacet
  facet normal 0.55557 0 -0.83147
    outer loop
      vertex -2.72739 5 2.42739
      vertex -1.70545 9 3.11022
      vertex -1.70545 5 3.11022
    endloop
  endfacet
  facet normal 0.55557 0 -0.83147
    outer loop
      vertex -1.70545 9 3.11022
      vertex -2.72739 5 2.42739
      vertex -2.72739 9 2.42739
    endloop
  endfacet
  facet normal -0.19509 0 0.980785
    outer loop
      vertex -0.5 9 -2.95
      vertex 0.705452 5 -2.71022
      vertex 0.705452 9 -2.71022
    endloop
  endfacet
  facet normal -0.19509 0 0.980785
    outer loop
      vertex 0.705452 5 -2.71022
      vertex -0.5 9 -2.95
      vertex -0.5 5 -2.95
    endloop
  endfacet
  facet normal 0.831469 0 -0.55557
    outer loop
      vertex -2.72739 5 2.42739
      vertex -3.41022 9 1.40545
      vertex -2.72739 9 2.42739
    endloop
  endfacet
  facet normal 0.831469 0 -0.55557
    outer loop
      vertex -3.41022 9 1.40545
      vertex -2.72739 5 2.42739
      vertex -3.41022 5 1.40545
    endloop
  endfacet
  facet normal -0.831469 0 0.55557
    outer loop
      vertex 1.72739 5 -2.02739
      vertex 2.41022 9 -1.00545
      vertex 1.72739 9 -2.02739
    endloop
  endfacet
  facet normal -0.831469 0 0.55557
    outer loop
      vertex 2.41022 9 -1.00545
      vertex 1.72739 5 -2.02739
      vertex 2.41022 5 -1.00545
    endloop
  endfacet
  facet normal 0.831469 -0 0.55557
    outer loop
      vertex -3.41022 5 -1.00545
      vertex -2.72739 9 -2.02739
      vertex -3.41022 9 -1.00545
    endloop
  endfacet
  facet normal 0.831469 0 0.55557
    outer loop
      vertex -2.72739 9 -2.02739
      vertex -3.41022 5 -1.00545
      vertex -2.72739 5 -2.02739
    endloop
  endfacet
  facet normal 0.980785 -0 0.19509
    outer loop
      vertex -3.65 5 0.2
      vertex -3.41022 9 -1.00545
      vertex -3.65 9 0.2
    endloop
  endfacet
  facet normal 0.980785 0 0.19509
    outer loop
      vertex -3.41022 9 -1.00545
      vertex -3.65 5 0.2
      vertex -3.41022 5 -1.00545
    endloop
  endfacet
  facet normal -0.195091 0 -0.980785
    outer loop
      vertex -0.499999 5 3.35
      vertex 0.705452 9 3.11022
      vertex 0.705452 5 3.11022
    endloop
  endfacet
  facet normal -0.195091 0 -0.980785
    outer loop
      vertex 0.705452 9 3.11022
      vertex -0.499999 5 3.35
      vertex -0.499999 9 3.35
    endloop
  endfacet
  facet normal -0.980785 0 0.19509
    outer loop
      vertex 2.41022 5 -1.00545
      vertex 2.65 9 0.2
      vertex 2.41022 9 -1.00545
    endloop
  endfacet
  facet normal -0.980785 0 0.19509
    outer loop
      vertex 2.65 9 0.2
      vertex 2.41022 5 -1.00545
      vertex 2.65 5 0.2
    endloop
  endfacet
  facet normal 0.55557 0 0.831469
    outer loop
      vertex -2.72739 9 -2.02739
      vertex -1.70545 5 -2.71022
      vertex -1.70545 9 -2.71022
    endloop
  endfacet
  facet normal 0.55557 0 0.831469
    outer loop
      vertex -1.70545 5 -2.71022
      vertex -2.72739 9 -2.02739
      vertex -2.72739 5 -2.02739
    endloop
  endfacet
  facet normal 0.19509 0 0.980785
    outer loop
      vertex -1.70545 9 -2.71022
      vertex -0.5 5 -2.95
      vertex -0.5 9 -2.95
    endloop
  endfacet
  facet normal 0.19509 0 0.980785
    outer loop
      vertex -0.5 5 -2.95
      vertex -1.70545 9 -2.71022
      vertex -1.70545 5 -2.71022
    endloop
  endfacet
  facet normal -0.55557 0 0.831469
    outer loop
      vertex 0.705452 9 -2.71022
      vertex 1.72739 5 -2.02739
      vertex 1.72739 9 -2.02739
    endloop
  endfacet
  facet normal -0.55557 0 0.831469
    outer loop
      vertex 1.72739 5 -2.02739
      vertex 0.705452 9 -2.71022
      vertex 0.705452 5 -2.71022
    endloop
  endfacet
  facet normal -0.980785 -0.195092 0
    outer loop
      vertex 6.5 0.0999994 -5.25
      vertex 6.42388 0.482683 -4.5
      vertex 6.42388 0.482683 -5.25
    endloop
  endfacet
  facet normal -0.980785 -0.195092 0
    outer loop
      vertex 6.42388 0.482683 -4.5
      vertex 6.5 0.0999994 -5.25
      vertex 6.5 0.0999994 -4.5
    endloop
  endfacet
  facet normal 0.19509 -0.980785 0
    outer loop
      vertex 5.11732 1.02388 -5.25
      vertex 5.5 1.1 -4.5
      vertex 5.11732 1.02388 -4.5
    endloop
  endfacet
  facet normal 0.19509 -0.980785 0
    outer loop
      vertex 5.5 1.1 -4.5
      vertex 5.11732 1.02388 -5.25
      vertex 5.5 1.1 -5.25
    endloop
  endfacet
  facet normal -0.19509 0.980785 0
    outer loop
      vertex 5.88268 -0.823879 -5.25
      vertex 5.5 -0.9 -4.5
      vertex 5.88268 -0.823879 -4.5
    endloop
  endfacet
  facet normal -0.19509 0.980785 0
    outer loop
      vertex 5.5 -0.9 -4.5
      vertex 5.88268 -0.823879 -5.25
      vertex 5.5 -0.9 -5.25
    endloop
  endfacet
  facet normal -0.55557 -0.83147 0
    outer loop
      vertex 5.88268 1.02388 -5.25
      vertex 6.20711 0.807106 -4.5
      vertex 5.88268 1.02388 -4.5
    endloop
  endfacet
  facet normal -0.55557 -0.83147 -0
    outer loop
      vertex 6.20711 0.807106 -4.5
      vertex 5.88268 1.02388 -5.25
      vertex 6.20711 0.807106 -5.25
    endloop
  endfacet
  facet normal -0.83147 -0.55557 0
    outer loop
      vertex 6.42388 0.482683 -5.25
      vertex 6.20711 0.807106 -4.5
      vertex 6.20711 0.807106 -5.25
    endloop
  endfacet
  facet normal -0.83147 -0.55557 0
    outer loop
      vertex 6.20711 0.807106 -4.5
      vertex 6.42388 0.482683 -5.25
      vertex 6.42388 0.482683 -4.5
    endloop
  endfacet
  facet normal -0.19509 -0.980785 0
    outer loop
      vertex 5.5 1.1 -5.25
      vertex 5.88268 1.02388 -4.5
      vertex 5.5 1.1 -4.5
    endloop
  endfacet
  facet normal -0.19509 -0.980785 -0
    outer loop
      vertex 5.88268 1.02388 -4.5
      vertex 5.5 1.1 -5.25
      vertex 5.88268 1.02388 -5.25
    endloop
  endfacet
  facet normal 0.83147 -0.55557 0
    outer loop
      vertex 4.57612 0.482683 -4.5
      vertex 4.79289 0.807106 -5.25
      vertex 4.79289 0.807106 -4.5
    endloop
  endfacet
  facet normal 0.83147 -0.55557 0
    outer loop
      vertex 4.79289 0.807106 -5.25
      vertex 4.57612 0.482683 -4.5
      vertex 4.57612 0.482683 -5.25
    endloop
  endfacet
  facet normal 0.980785 -0.19509 0
    outer loop
      vertex 4.5 0.0999994 -4.5
      vertex 4.57612 0.482683 -5.25
      vertex 4.57612 0.482683 -4.5
    endloop
  endfacet
  facet normal 0.980785 -0.19509 0
    outer loop
      vertex 4.57612 0.482683 -5.25
      vertex 4.5 0.0999994 -4.5
      vertex 4.5 0.0999994 -5.25
    endloop
  endfacet
  facet normal 0.55557 -0.83147 0
    outer loop
      vertex 4.79289 0.807106 -5.25
      vertex 5.11732 1.02388 -4.5
      vertex 4.79289 0.807106 -4.5
    endloop
  endfacet
  facet normal 0.55557 -0.83147 0
    outer loop
      vertex 5.11732 1.02388 -4.5
      vertex 4.79289 0.807106 -5.25
      vertex 5.11732 1.02388 -5.25
    endloop
  endfacet
  facet normal -0.980785 0.195093 0
    outer loop
      vertex 6.42388 -0.282683 -5.25
      vertex 6.5 0.0999994 -4.5
      vertex 6.5 0.0999994 -5.25
    endloop
  endfacet
  facet normal -0.980785 0.195093 0
    outer loop
      vertex 6.5 0.0999994 -4.5
      vertex 6.42388 -0.282683 -5.25
      vertex 6.42388 -0.282683 -4.5
    endloop
  endfacet
  facet normal 0.980785 0.19509 0
    outer loop
      vertex 4.57612 -0.282683 -4.5
      vertex 4.5 0.0999994 -5.25
      vertex 4.5 0.0999994 -4.5
    endloop
  endfacet
  facet normal 0.980785 0.19509 0
    outer loop
      vertex 4.5 0.0999994 -5.25
      vertex 4.57612 -0.282683 -4.5
      vertex 4.57612 -0.282683 -5.25
    endloop
  endfacet
  facet normal -0.55557 0.83147 0
    outer loop
      vertex 6.20711 -0.607106 -5.25
      vertex 5.88268 -0.823879 -4.5
      vertex 6.20711 -0.607106 -4.5
    endloop
  endfacet
  facet normal -0.55557 0.83147 0
    outer loop
      vertex 5.88268 -0.823879 -4.5
      vertex 6.20711 -0.607106 -5.25
      vertex 5.88268 -0.823879 -5.25
    endloop
  endfacet
  facet normal 0.19509 0.980785 -0
    outer loop
      vertex 5.5 -0.9 -5.25
      vertex 5.11732 -0.823879 -4.5
      vertex 5.5 -0.9 -4.5
    endloop
  endfacet
  facet normal 0.19509 0.980785 0
    outer loop
      vertex 5.11732 -0.823879 -4.5
      vertex 5.5 -0.9 -5.25
      vertex 5.11732 -0.823879 -5.25
    endloop
  endfacet
  facet normal -0.83147 0.55557 0
    outer loop
      vertex 6.20711 -0.607106 -5.25
      vertex 6.42388 -0.282683 -4.5
      vertex 6.42388 -0.282683 -5.25
    endloop
  endfacet
  facet normal -0.83147 0.55557 0
    outer loop
      vertex 6.42388 -0.282683 -4.5
      vertex 6.20711 -0.607106 -5.25
      vertex 6.20711 -0.607106 -4.5
    endloop
  endfacet
  facet normal 0.55557 0.83147 -0
    outer loop
      vertex 5.11732 -0.823879 -5.25
      vertex 4.79289 -0.607106 -4.5
      vertex 5.11732 -0.823879 -4.5
    endloop
  endfacet
  facet normal 0.55557 0.83147 0
    outer loop
      vertex 4.79289 -0.607106 -4.5
      vertex 5.11732 -0.823879 -5.25
      vertex 4.79289 -0.607106 -5.25
    endloop
  endfacet
  facet normal 0.83147 0.55557 0
    outer loop
      vertex 4.79289 -0.607106 -4.5
      vertex 4.57612 -0.282683 -5.25
      vertex 4.57612 -0.282683 -4.5
    endloop
  endfacet
  facet normal 0.83147 0.55557 0
    outer loop
      vertex 4.57612 -0.282683 -5.25
      vertex 4.79289 -0.607106 -4.5
      vertex 4.79289 -0.607106 -5.25
    endloop
  endfacet
  facet normal -0.980785 -0.19509 0
    outer loop
      vertex -4.5 0.0999994 -5.25
      vertex -4.57612 0.482683 -4.5
      vertex -4.57612 0.482683 -5.25
    endloop
  endfacet
  facet normal -0.980785 -0.19509 0
    outer loop
      vertex -4.57612 0.482683 -4.5
      vertex -4.5 0.0999994 -5.25
      vertex -4.5 0.0999994 -4.5
    endloop
  endfacet
  facet normal 0.980785 -0.195092 0
    outer loop
      vertex -6.5 0.0999994 -4.5
      vertex -6.42388 0.482683 -5.25
      vertex -6.42388 0.482683 -4.5
    endloop
  endfacet
  facet normal 0.980785 -0.195092 0
    outer loop
      vertex -6.42388 0.482683 -5.25
      vertex -6.5 0.0999994 -4.5
      vertex -6.5 0.0999994 -5.25
    endloop
  endfacet
  facet normal 0.19509 -0.980785 0
    outer loop
      vertex -5.88268 1.02388 -5.25
      vertex -5.5 1.1 -4.5
      vertex -5.88268 1.02388 -4.5
    endloop
  endfacet
  facet normal 0.19509 -0.980785 0
    outer loop
      vertex -5.5 1.1 -4.5
      vertex -5.88268 1.02388 -5.25
      vertex -5.5 1.1 -5.25
    endloop
  endfacet
  facet normal 0.55557 -0.83147 0
    outer loop
      vertex -6.20711 0.807106 -5.25
      vertex -5.88268 1.02388 -4.5
      vertex -6.20711 0.807106 -4.5
    endloop
  endfacet
  facet normal 0.55557 -0.83147 0
    outer loop
      vertex -5.88268 1.02388 -4.5
      vertex -6.20711 0.807106 -5.25
      vertex -5.88268 1.02388 -5.25
    endloop
  endfacet
  facet normal -0.19509 0.980785 0
    outer loop
      vertex -5.11732 -0.823879 -5.25
      vertex -5.5 -0.9 -4.5
      vertex -5.11732 -0.823879 -4.5
    endloop
  endfacet
  facet normal -0.19509 0.980785 0
    outer loop
      vertex -5.5 -0.9 -4.5
      vertex -5.11732 -0.823879 -5.25
      vertex -5.5 -0.9 -5.25
    endloop
  endfacet
  facet normal -0.55557 0.83147 0
    outer loop
      vertex -4.79289 -0.607106 -5.25
      vertex -5.11732 -0.823879 -4.5
      vertex -4.79289 -0.607106 -4.5
    endloop
  endfacet
  facet normal -0.55557 0.83147 0
    outer loop
      vertex -5.11732 -0.823879 -4.5
      vertex -4.79289 -0.607106 -5.25
      vertex -5.11732 -0.823879 -5.25
    endloop
  endfacet
  facet normal -0.55557 -0.83147 0
    outer loop
      vertex -5.11732 1.02388 -5.25
      vertex -4.79289 0.807106 -4.5
      vertex -5.11732 1.02388 -4.5
    endloop
  endfacet
  facet normal -0.55557 -0.83147 -0
    outer loop
      vertex -4.79289 0.807106 -4.5
      vertex -5.11732 1.02388 -5.25
      vertex -4.79289 0.807106 -5.25
    endloop
  endfacet
  facet normal -0.83147 -0.55557 0
    outer loop
      vertex -4.57612 0.482683 -5.25
      vertex -4.79289 0.807106 -4.5
      vertex -4.79289 0.807106 -5.25
    endloop
  endfacet
  facet normal -0.83147 -0.55557 0
    outer loop
      vertex -4.79289 0.807106 -4.5
      vertex -4.57612 0.482683 -5.25
      vertex -4.57612 0.482683 -4.5
    endloop
  endfacet
  facet normal -0.19509 -0.980785 0
    outer loop
      vertex -5.5 1.1 -5.25
      vertex -5.11732 1.02388 -4.5
      vertex -5.5 1.1 -4.5
    endloop
  endfacet
  facet normal -0.19509 -0.980785 -0
    outer loop
      vertex -5.11732 1.02388 -4.5
      vertex -5.5 1.1 -5.25
      vertex -5.11732 1.02388 -5.25
    endloop
  endfacet
  facet normal 0.83147 -0.55557 0
    outer loop
      vertex -6.42388 0.482683 -4.5
      vertex -6.20711 0.807106 -5.25
      vertex -6.20711 0.807106 -4.5
    endloop
  endfacet
  facet normal 0.83147 -0.55557 0
    outer loop
      vertex -6.20711 0.807106 -5.25
      vertex -6.42388 0.482683 -4.5
      vertex -6.42388 0.482683 -5.25
    endloop
  endfacet
  facet normal -0.980785 0.19509 0
    outer loop
      vertex -4.57612 -0.282683 -5.25
      vertex -4.5 0.0999994 -4.5
      vertex -4.5 0.0999994 -5.25
    endloop
  endfacet
  facet normal -0.980785 0.19509 0
    outer loop
      vertex -4.5 0.0999994 -4.5
      vertex -4.57612 -0.282683 -5.25
      vertex -4.57612 -0.282683 -4.5
    endloop
  endfacet
  facet normal 0.55557 0.83147 -0
    outer loop
      vertex -5.88268 -0.823879 -5.25
      vertex -6.20711 -0.607106 -4.5
      vertex -5.88268 -0.823879 -4.5
    endloop
  endfacet
  facet normal 0.55557 0.83147 0
    outer loop
      vertex -6.20711 -0.607106 -4.5
      vertex -5.88268 -0.823879 -5.25
      vertex -6.20711 -0.607106 -5.25
    endloop
  endfacet
  facet normal -0.83147 0.55557 0
    outer loop
      vertex -4.79289 -0.607106 -5.25
      vertex -4.57612 -0.282683 -4.5
      vertex -4.57612 -0.282683 -5.25
    endloop
  endfacet
  facet normal -0.83147 0.55557 0
    outer loop
      vertex -4.57612 -0.282683 -4.5
      vertex -4.79289 -0.607106 -5.25
      vertex -4.79289 -0.607106 -4.5
    endloop
  endfacet
  facet normal 0.19509 0.980785 -0
    outer loop
      vertex -5.5 -0.9 -5.25
      vertex -5.88268 -0.823879 -4.5
      vertex -5.5 -0.9 -4.5
    endloop
  endfacet
  facet normal 0.19509 0.980785 0
    outer loop
      vertex -5.88268 -0.823879 -4.5
      vertex -5.5 -0.9 -5.25
      vertex -5.88268 -0.823879 -5.25
    endloop
  endfacet
  facet normal 0.83147 0.55557 0
    outer loop
      vertex -6.20711 -0.607106 -4.5
      vertex -6.42388 -0.282683 -5.25
      vertex -6.42388 -0.282683 -4.5
    endloop
  endfacet
  facet normal 0.83147 0.55557 0
    outer loop
      vertex -6.42388 -0.282683 -5.25
      vertex -6.20711 -0.607106 -4.5
      vertex -6.20711 -0.607106 -5.25
    endloop
  endfacet
  facet normal 0.980785 0.195093 0
    outer loop
      vertex -6.42388 -0.282683 -4.5
      vertex -6.5 0.0999994 -5.25
      vertex -6.5 0.0999994 -4.5
    endloop
  endfacet
  facet normal 0.980785 0.195093 0
    outer loop
      vertex -6.5 0.0999994 -5.25
      vertex -6.42388 -0.282683 -4.5
      vertex -6.42388 -0.282683 -5.25
    endloop
  endfacet
  facet normal -0.980785 -0.195091 0
    outer loop
      vertex 7.5 0.0999994 -6.5
      vertex 7.34776 0.865366 -5.25
      vertex 7.34776 0.865366 -6.5
    endloop
  endfacet
  facet normal -0.980785 -0.195091 0
    outer loop
      vertex 7.34776 0.865366 -5.25
      vertex 7.5 0.0999994 -6.5
      vertex 7.5 0.0999994 -5.25
    endloop
  endfacet
  facet normal 0.19509 -0.980785 0
    outer loop
      vertex 4.73463 1.94776 -6.5
      vertex 5.5 2.1 -5.25
      vertex 4.73463 1.94776 -5.25
    endloop
  endfacet
  facet normal 0.19509 -0.980785 0
    outer loop
      vertex 5.5 2.1 -5.25
      vertex 4.73463 1.94776 -6.5
      vertex 5.5 2.1 -6.5
    endloop
  endfacet
  facet normal -0.19509 0.980785 0
    outer loop
      vertex 6.26537 -1.74776 -6.5
      vertex 5.5 -1.9 -5.25
      vertex 6.26537 -1.74776 -5.25
    endloop
  endfacet
  facet normal -0.19509 0.980785 0
    outer loop
      vertex 5.5 -1.9 -5.25
      vertex 6.26537 -1.74776 -6.5
      vertex 5.5 -1.9 -6.5
    endloop
  endfacet
  facet normal -0.83147 0.55557 0
    outer loop
      vertex 6.91421 -1.31421 -6.5
      vertex 7.34776 -0.665366 -5.25
      vertex 7.34776 -0.665366 -6.5
    endloop
  endfacet
  facet normal -0.83147 0.55557 0
    outer loop
      vertex 7.34776 -0.665366 -5.25
      vertex 6.91421 -1.31421 -6.5
      vertex 6.91421 -1.31421 -5.25
    endloop
  endfacet
  facet normal -0.55557 -0.83147 0
    outer loop
      vertex 6.26537 1.94776 -6.5
      vertex 6.91421 1.51421 -5.25
      vertex 6.26537 1.94776 -5.25
    endloop
  endfacet
  facet normal -0.55557 -0.83147 -0
    outer loop
      vertex 6.91421 1.51421 -5.25
      vertex 6.26537 1.94776 -6.5
      vertex 6.91421 1.51421 -6.5
    endloop
  endfacet
  facet normal -0.83147 -0.555569 0
    outer loop
      vertex 7.34776 0.865366 -6.5
      vertex 6.91421 1.51421 -5.25
      vertex 6.91421 1.51421 -6.5
    endloop
  endfacet
  facet normal -0.83147 -0.555569 0
    outer loop
      vertex 6.91421 1.51421 -5.25
      vertex 7.34776 0.865366 -6.5
      vertex 7.34776 0.865366 -5.25
    endloop
  endfacet
  facet normal -0.19509 -0.980785 0
    outer loop
      vertex 5.5 2.1 -6.5
      vertex 6.26537 1.94776 -5.25
      vertex 5.5 2.1 -5.25
    endloop
  endfacet
  facet normal -0.19509 -0.980785 -0
    outer loop
      vertex 6.26537 1.94776 -5.25
      vertex 5.5 2.1 -6.5
      vertex 6.26537 1.94776 -6.5
    endloop
  endfacet
  facet normal 0.83147 -0.555569 0
    outer loop
      vertex 3.65224 0.865366 -5.25
      vertex 4.08579 1.51421 -6.5
      vertex 4.08579 1.51421 -5.25
    endloop
  endfacet
  facet normal 0.83147 -0.555569 0
    outer loop
      vertex 4.08579 1.51421 -6.5
      vertex 3.65224 0.865366 -5.25
      vertex 3.65224 0.865366 -6.5
    endloop
  endfacet
  facet normal 0.980785 -0.19509 0
    outer loop
      vertex 3.5 0.0999994 -5.25
      vertex 3.65224 0.865366 -6.5
      vertex 3.65224 0.865366 -5.25
    endloop
  endfacet
  facet normal 0.980785 -0.19509 0
    outer loop
      vertex 3.65224 0.865366 -6.5
      vertex 3.5 0.0999994 -5.25
      vertex 3.5 0.0999994 -6.5
    endloop
  endfacet
  facet normal 0 0 -1
    outer loop
      vertex 6.5 0.0999994 -5.25
      vertex 7.5 0.0999994 -5.25
      vertex 7.34776 -0.665366 -5.25
    endloop
  endfacet
  facet normal 0 0 -1
    outer loop
      vertex 6.42388 -0.282683 -5.25
      vertex 7.34776 -0.665366 -5.25
      vertex 6.91421 -1.31421 -5.25
    endloop
  endfacet
  facet normal 0 0 -1
    outer loop
      vertex 7.5 0.0999994 -5.25
      vertex 6.5 0.0999994 -5.25
      vertex 7.34776 0.865366 -5.25
    endloop
  endfacet
  facet normal 0 0 -1
    outer loop
      vertex 6.42388 0.482683 -5.25
      vertex 7.34776 0.865366 -5.25
      vertex 6.5 0.0999994 -5.25
    endloop
  endfacet
  facet normal 0 0 -1
    outer loop
      vertex 7.34776 -0.665366 -5.25
      vertex 6.42388 -0.282683 -5.25
      vertex 6.5 0.0999994 -5.25
    endloop
  endfacet
  facet normal 0 0 -1
    outer loop
      vertex 6.20711 -0.607106 -5.25
      vertex 6.91421 -1.31421 -5.25
      vertex 6.26537 -1.74776 -5.25
    endloop
  endfacet
  facet normal 0 0 -1
    outer loop
      vertex 6.91421 -1.31421 -5.25
      vertex 6.20711 -0.607106 -5.25
      vertex 6.42388 -0.282683 -5.25
    endloop
  endfacet
  facet normal 0 0 -1
    outer loop
      vertex 6.26537 -1.74776 -5.25
      vertex 5.88268 -0.823879 -5.25
      vertex 6.20711 -0.607106 -5.25
    endloop
  endfacet
  facet normal 0 0 -1
    outer loop
      vertex 5.5 -1.9 -5.25
      vertex 5.88268 -0.823879 -5.25
      vertex 6.26537 -1.74776 -5.25
    endloop
  endfacet
  facet normal 0 0 -1
    outer loop
      vertex 5.5 -1.9 -5.25
      vertex 5.5 -0.9 -5.25
      vertex 5.88268 -0.823879 -5.25
    endloop
  endfacet
  facet normal 0 0 -1
    outer loop
      vertex 5.5 -1.9 -5.25
      vertex 5.11732 -0.823879 -5.25
      vertex 5.5 -0.9 -5.25
    endloop
  endfacet
  facet normal 0 0 -1
    outer loop
      vertex 4.73463 -1.74776 -5.25
      vertex 5.11732 -0.823879 -5.25
      vertex 5.5 -1.9 -5.25
    endloop
  endfacet
  facet normal -0 0 -1
    outer loop
      vertex 5.11732 -0.823879 -5.25
      vertex 4.73463 -1.74776 -5.25
      vertex 4.79289 -0.607106 -5.25
    endloop
  endfacet
  facet normal 0 0 -1
    outer loop
      vertex 4.08579 -1.31421 -5.25
      vertex 4.79289 -0.607106 -5.25
      vertex 4.73463 -1.74776 -5.25
    endloop
  endfacet
  facet normal -0 0 -1
    outer loop
      vertex 4.79289 -0.607106 -5.25
      vertex 4.08579 -1.31421 -5.25
      vertex 4.57612 -0.282683 -5.25
    endloop
  endfacet
  facet normal 0 0 -1
    outer loop
      vertex 3.65224 -0.665366 -5.25
      vertex 4.57612 -0.282683 -5.25
      vertex 4.08579 -1.31421 -5.25
    endloop
  endfacet
  facet normal -0 0 -1
    outer loop
      vertex 7.34776 0.865366 -5.25
      vertex 6.42388 0.482683 -5.25
      vertex 6.91421 1.51421 -5.25
    endloop
  endfacet
  facet normal 0 0 -1
    outer loop
      vertex 6.20711 0.807106 -5.25
      vertex 6.91421 1.51421 -5.25
      vertex 6.42388 0.482683 -5.25
    endloop
  endfacet
  facet normal -0 0 -1
    outer loop
      vertex 6.91421 1.51421 -5.25
      vertex 6.20711 0.807106 -5.25
      vertex 6.26537 1.94776 -5.25
    endloop
  endfacet
  facet normal 0 0 -1
    outer loop
      vertex 5.88268 1.02388 -5.25
      vertex 6.26537 1.94776 -5.25
      vertex 6.20711 0.807106 -5.25
    endloop
  endfacet
  facet normal 0 0 -1
    outer loop
      vertex 5.5 1.1 -5.25
      vertex 6.26537 1.94776 -5.25
      vertex 5.88268 1.02388 -5.25
    endloop
  endfacet
  facet normal 0 0 -1
    outer loop
      vertex 5.5 1.1 -5.25
      vertex 5.5 2.1 -5.25
      vertex 6.26537 1.94776 -5.25
    endloop
  endfacet
  facet normal 0 0 -1
    outer loop
      vertex 5.11732 1.02388 -5.25
      vertex 5.5 2.1 -5.25
      vertex 5.5 1.1 -5.25
    endloop
  endfacet
  facet normal 0 0 -1
    outer loop
      vertex 4.73463 1.94776 -5.25
      vertex 5.11732 1.02388 -5.25
      vertex 4.79289 0.807106 -5.25
    endloop
  endfacet
  facet normal 0 0 -1
    outer loop
      vertex 5.11732 1.02388 -5.25
      vertex 4.73463 1.94776 -5.25
      vertex 5.5 2.1 -5.25
    endloop
  endfacet
  facet normal 0 0 -1
    outer loop
      vertex 4.08579 1.51421 -5.25
      vertex 4.79289 0.807106 -5.25
      vertex 4.57612 0.482683 -5.25
    endloop
  endfacet
  facet normal 0 0 -1
    outer loop
      vertex 3.65224 0.865366 -5.25
      vertex 4.57612 0.482683 -5.25
      vertex 4.5 0.0999994 -5.25
    endloop
  endfacet
  facet normal -0 0 -1
    outer loop
      vertex 4.57612 -0.282683 -5.25
      vertex 3.65224 -0.665366 -5.25
      vertex 4.5 0.0999994 -5.25
    endloop
  endfacet
  facet normal 0 0 -1
    outer loop
      vertex 4.79289 0.807106 -5.25
      vertex 4.08579 1.51421 -5.25
      vertex 4.73463 1.94776 -5.25
    endloop
  endfacet
  facet normal 0 0 -1
    outer loop
      vertex 3.5 0.0999994 -5.25
      vertex 4.5 0.0999994 -5.25
      vertex 3.65224 -0.665366 -5.25
    endloop
  endfacet
  facet normal 0 0 -1
    outer loop
      vertex 4.57612 0.482683 -5.25
      vertex 3.65224 0.865366 -5.25
      vertex 4.08579 1.51421 -5.25
    endloop
  endfacet
  facet normal 0 0 -1
    outer loop
      vertex 4.5 0.0999994 -5.25
      vertex 3.5 0.0999994 -5.25
      vertex 3.65224 0.865366 -5.25
    endloop
  endfacet
  facet normal 0.55557 -0.83147 0
    outer loop
      vertex 4.08579 1.51421 -6.5
      vertex 4.73463 1.94776 -5.25
      vertex 4.08579 1.51421 -5.25
    endloop
  endfacet
  facet normal 0.55557 -0.83147 0
    outer loop
      vertex 4.73463 1.94776 -5.25
      vertex 4.08579 1.51421 -6.5
      vertex 4.73463 1.94776 -6.5
    endloop
  endfacet
  facet normal -0.980785 0.195092 0
    outer loop
      vertex 7.34776 -0.665366 -6.5
      vertex 7.5 0.0999994 -5.25
      vertex 7.5 0.0999994 -6.5
    endloop
  endfacet
  facet normal -0.980785 0.195092 0
    outer loop
      vertex 7.5 0.0999994 -5.25
      vertex 7.34776 -0.665366 -6.5
      vertex 7.34776 -0.665366 -5.25
    endloop
  endfacet
  facet normal 0.980785 0.19509 0
    outer loop
      vertex 3.65224 -0.665366 -5.25
      vertex 3.5 0.0999994 -6.5
      vertex 3.5 0.0999994 -5.25
    endloop
  endfacet
  facet normal 0.980785 0.19509 0
    outer loop
      vertex 3.5 0.0999994 -6.5
      vertex 3.65224 -0.665366 -5.25
      vertex 3.65224 -0.665366 -6.5
    endloop
  endfacet
  facet normal -0.555571 0.831469 0
    outer loop
      vertex 6.91421 -1.31421 -6.5
      vertex 6.26537 -1.74776 -5.25
      vertex 6.91421 -1.31421 -5.25
    endloop
  endfacet
  facet normal -0.555571 0.831469 0
    outer loop
      vertex 6.26537 -1.74776 -5.25
      vertex 6.91421 -1.31421 -6.5
      vertex 6.26537 -1.74776 -6.5
    endloop
  endfacet
  facet normal 0.19509 0.980785 -0
    outer loop
      vertex 5.5 -1.9 -6.5
      vertex 4.73463 -1.74776 -5.25
      vertex 5.5 -1.9 -5.25
    endloop
  endfacet
  facet normal 0.19509 0.980785 0
    outer loop
      vertex 4.73463 -1.74776 -5.25
      vertex 5.5 -1.9 -6.5
      vertex 4.73463 -1.74776 -6.5
    endloop
  endfacet
  facet normal 0.83147 0.55557 0
    outer loop
      vertex 4.08579 -1.31421 -5.25
      vertex 3.65224 -0.665366 -6.5
      vertex 3.65224 -0.665366 -5.25
    endloop
  endfacet
  facet normal 0.83147 0.55557 0
    outer loop
      vertex 3.65224 -0.665366 -6.5
      vertex 4.08579 -1.31421 -5.25
      vertex 4.08579 -1.31421 -6.5
    endloop
  endfacet
  facet normal 0.555571 0.831469 -0
    outer loop
      vertex 4.73463 -1.74776 -6.5
      vertex 4.08579 -1.31421 -5.25
      vertex 4.73463 -1.74776 -5.25
    endloop
  endfacet
  facet normal 0.555571 0.831469 0
    outer loop
      vertex 4.08579 -1.31421 -5.25
      vertex 4.73463 -1.74776 -6.5
      vertex 4.08579 -1.31421 -6.5
    endloop
  endfacet
  facet normal -0.980785 -0.19509 0
    outer loop
      vertex -3.5 0.0999994 -6.5
      vertex -3.65224 0.865366 -5.25
      vertex -3.65224 0.865366 -6.5
    endloop
  endfacet
  facet normal -0.980785 -0.19509 0
    outer loop
      vertex -3.65224 0.865366 -5.25
      vertex -3.5 0.0999994 -6.5
      vertex -3.5 0.0999994 -5.25
    endloop
  endfacet
  facet normal 0.980785 -0.195091 0
    outer loop
      vertex -7.5 0.0999994 -5.25
      vertex -7.34776 0.865366 -6.5
      vertex -7.34776 0.865366 -5.25
    endloop
  endfacet
  facet normal 0.980785 -0.195091 0
    outer loop
      vertex -7.34776 0.865366 -6.5
      vertex -7.5 0.0999994 -5.25
      vertex -7.5 0.0999994 -6.5
    endloop
  endfacet
  facet normal 0.19509 -0.980785 0
    outer loop
      vertex -6.26537 1.94776 -6.5
      vertex -5.5 2.1 -5.25
      vertex -6.26537 1.94776 -5.25
    endloop
  endfacet
  facet normal 0.19509 -0.980785 0
    outer loop
      vertex -5.5 2.1 -5.25
      vertex -6.26537 1.94776 -6.5
      vertex -5.5 2.1 -6.5
    endloop
  endfacet
  facet normal 0.55557 -0.83147 0
    outer loop
      vertex -6.91421 1.51421 -6.5
      vertex -6.26537 1.94776 -5.25
      vertex -6.91421 1.51421 -5.25
    endloop
  endfacet
  facet normal 0.55557 -0.83147 0
    outer loop
      vertex -6.26537 1.94776 -5.25
      vertex -6.91421 1.51421 -6.5
      vertex -6.26537 1.94776 -6.5
    endloop
  endfacet
  facet normal -0.19509 0.980785 0
    outer loop
      vertex -4.73463 -1.74776 -6.5
      vertex -5.5 -1.9 -5.25
      vertex -4.73463 -1.74776 -5.25
    endloop
  endfacet
  facet normal -0.19509 0.980785 0
    outer loop
      vertex -5.5 -1.9 -5.25
      vertex -4.73463 -1.74776 -6.5
      vertex -5.5 -1.9 -6.5
    endloop
  endfacet
  facet normal -0.555571 0.831469 0
    outer loop
      vertex -4.08579 -1.31421 -6.5
      vertex -4.73463 -1.74776 -5.25
      vertex -4.08579 -1.31421 -5.25
    endloop
  endfacet
  facet normal -0.555571 0.831469 0
    outer loop
      vertex -4.73463 -1.74776 -5.25
      vertex -4.08579 -1.31421 -6.5
      vertex -4.73463 -1.74776 -6.5
    endloop
  endfacet
  facet normal -0.55557 -0.83147 0
    outer loop
      vertex -4.73463 1.94776 -6.5
      vertex -4.08579 1.51421 -5.25
      vertex -4.73463 1.94776 -5.25
    endloop
  endfacet
  facet normal -0.55557 -0.83147 -0
    outer loop
      vertex -4.08579 1.51421 -5.25
      vertex -4.73463 1.94776 -6.5
      vertex -4.08579 1.51421 -6.5
    endloop
  endfacet
  facet normal -0.83147 -0.555569 0
    outer loop
      vertex -3.65224 0.865366 -6.5
      vertex -4.08579 1.51421 -5.25
      vertex -4.08579 1.51421 -6.5
    endloop
  endfacet
  facet normal -0.83147 -0.555569 0
    outer loop
      vertex -4.08579 1.51421 -5.25
      vertex -3.65224 0.865366 -6.5
      vertex -3.65224 0.865366 -5.25
    endloop
  endfacet
  facet normal -0.19509 -0.980785 0
    outer loop
      vertex -5.5 2.1 -6.5
      vertex -4.73463 1.94776 -5.25
      vertex -5.5 2.1 -5.25
    endloop
  endfacet
  facet normal -0.19509 -0.980785 -0
    outer loop
      vertex -4.73463 1.94776 -5.25
      vertex -5.5 2.1 -6.5
      vertex -4.73463 1.94776 -6.5
    endloop
  endfacet
  facet normal 0.83147 -0.555569 0
    outer loop
      vertex -7.34776 0.865366 -5.25
      vertex -6.91421 1.51421 -6.5
      vertex -6.91421 1.51421 -5.25
    endloop
  endfacet
  facet normal 0.83147 -0.555569 0
    outer loop
      vertex -6.91421 1.51421 -6.5
      vertex -7.34776 0.865366 -5.25
      vertex -7.34776 0.865366 -6.5
    endloop
  endfacet
  facet normal 0 0 -1
    outer loop
      vertex -4.5 0.0999994 -5.25
      vertex -3.5 0.0999994 -5.25
      vertex -3.65224 -0.665366 -5.25
    endloop
  endfacet
  facet normal 0 0 -1
    outer loop
      vertex -4.57612 -0.282683 -5.25
      vertex -3.65224 -0.665366 -5.25
      vertex -4.08579 -1.31421 -5.25
    endloop
  endfacet
  facet normal 0 0 -1
    outer loop
      vertex -3.5 0.0999994 -5.25
      vertex -4.5 0.0999994 -5.25
      vertex -3.65224 0.865366 -5.25
    endloop
  endfacet
  facet normal 0 0 -1
    outer loop
      vertex -4.57612 0.482683 -5.25
      vertex -3.65224 0.865366 -5.25
      vertex -4.5 0.0999994 -5.25
    endloop
  endfacet
  facet normal 0 0 -1
    outer loop
      vertex -3.65224 -0.665366 -5.25
      vertex -4.57612 -0.282683 -5.25
      vertex -4.5 0.0999994 -5.25
    endloop
  endfacet
  facet normal 0 0 -1
    outer loop
      vertex -4.79289 -0.607106 -5.25
      vertex -4.08579 -1.31421 -5.25
      vertex -4.73463 -1.74776 -5.25
    endloop
  endfacet
  facet normal 0 0 -1
    outer loop
      vertex -4.08579 -1.31421 -5.25
      vertex -4.79289 -0.607106 -5.25
      vertex -4.57612 -0.282683 -5.25
    endloop
  endfacet
  facet normal 0 0 -1
    outer loop
      vertex -4.73463 -1.74776 -5.25
      vertex -5.11732 -0.823879 -5.25
      vertex -4.79289 -0.607106 -5.25
    endloop
  endfacet
  facet normal 0 0 -1
    outer loop
      vertex -5.5 -1.9 -5.25
      vertex -5.11732 -0.823879 -5.25
      vertex -4.73463 -1.74776 -5.25
    endloop
  endfacet
  facet normal 0 0 -1
    outer loop
      vertex -5.5 -1.9 -5.25
      vertex -5.5 -0.9 -5.25
      vertex -5.11732 -0.823879 -5.25
    endloop
  endfacet
  facet normal 0 0 -1
    outer loop
      vertex -5.5 -1.9 -5.25
      vertex -5.88268 -0.823879 -5.25
      vertex -5.5 -0.9 -5.25
    endloop
  endfacet
  facet normal 0 0 -1
    outer loop
      vertex -6.26537 -1.74776 -5.25
      vertex -5.88268 -0.823879 -5.25
      vertex -5.5 -1.9 -5.25
    endloop
  endfacet
  facet normal -0 0 -1
    outer loop
      vertex -5.88268 -0.823879 -5.25
      vertex -6.26537 -1.74776 -5.25
      vertex -6.20711 -0.607106 -5.25
    endloop
  endfacet
  facet normal 0 0 -1
    outer loop
      vertex -6.91421 -1.31421 -5.25
      vertex -6.20711 -0.607106 -5.25
      vertex -6.26537 -1.74776 -5.25
    endloop
  endfacet
  facet normal -0 0 -1
    outer loop
      vertex -6.20711 -0.607106 -5.25
      vertex -6.91421 -1.31421 -5.25
      vertex -6.42388 -0.282683 -5.25
    endloop
  endfacet
  facet normal 0 0 -1
    outer loop
      vertex -7.34776 -0.665366 -5.25
      vertex -6.42388 -0.282683 -5.25
      vertex -6.91421 -1.31421 -5.25
    endloop
  endfacet
  facet normal -0 0 -1
    outer loop
      vertex -3.65224 0.865366 -5.25
      vertex -4.57612 0.482683 -5.25
      vertex -4.08579 1.51421 -5.25
    endloop
  endfacet
  facet normal 0 0 -1
    outer loop
      vertex -4.79289 0.807106 -5.25
      vertex -4.08579 1.51421 -5.25
      vertex -4.57612 0.482683 -5.25
    endloop
  endfacet
  facet normal -0 0 -1
    outer loop
      vertex -4.08579 1.51421 -5.25
      vertex -4.79289 0.807106 -5.25
      vertex -4.73463 1.94776 -5.25
    endloop
  endfacet
  facet normal 0 0 -1
    outer loop
      vertex -5.11732 1.02388 -5.25
      vertex -4.73463 1.94776 -5.25
      vertex -4.79289 0.807106 -5.25
    endloop
  endfacet
  facet normal 0 0 -1
    outer loop
      vertex -5.5 1.1 -5.25
      vertex -4.73463 1.94776 -5.25
      vertex -5.11732 1.02388 -5.25
    endloop
  endfacet
  facet normal 0 0 -1
    outer loop
      vertex -5.5 1.1 -5.25
      vertex -5.5 2.1 -5.25
      vertex -4.73463 1.94776 -5.25
    endloop
  endfacet
  facet normal 0 0 -1
    outer loop
      vertex -5.88268 1.02388 -5.25
      vertex -5.5 2.1 -5.25
      vertex -5.5 1.1 -5.25
    endloop
  endfacet
  facet normal 0 0 -1
    outer loop
      vertex -6.26537 1.94776 -5.25
      vertex -5.88268 1.02388 -5.25
      vertex -6.20711 0.807106 -5.25
    endloop
  endfacet
  facet normal 0 0 -1
    outer loop
      vertex -5.88268 1.02388 -5.25
      vertex -6.26537 1.94776 -5.25
      vertex -5.5 2.1 -5.25
    endloop
  endfacet
  facet normal 0 0 -1
    outer loop
      vertex -6.91421 1.51421 -5.25
      vertex -6.20711 0.807106 -5.25
      vertex -6.42388 0.482683 -5.25
    endloop
  endfacet
  facet normal 0 0 -1
    outer loop
      vertex -7.34776 0.865366 -5.25
      vertex -6.42388 0.482683 -5.25
      vertex -6.5 0.0999994 -5.25
    endloop
  endfacet
  facet normal -0 0 -1
    outer loop
      vertex -6.42388 -0.282683 -5.25
      vertex -7.34776 -0.665366 -5.25
      vertex -6.5 0.0999994 -5.25
    endloop
  endfacet
  facet normal 0 0 -1
    outer loop
      vertex -6.20711 0.807106 -5.25
      vertex -6.91421 1.51421 -5.25
      vertex -6.26537 1.94776 -5.25
    endloop
  endfacet
  facet normal 0 0 -1
    outer loop
      vertex -7.5 0.0999994 -5.25
      vertex -6.5 0.0999994 -5.25
      vertex -7.34776 -0.665366 -5.25
    endloop
  endfacet
  facet normal 0 0 -1
    outer loop
      vertex -6.42388 0.482683 -5.25
      vertex -7.34776 0.865366 -5.25
      vertex -6.91421 1.51421 -5.25
    endloop
  endfacet
  facet normal 0 0 -1
    outer loop
      vertex -6.5 0.0999994 -5.25
      vertex -7.5 0.0999994 -5.25
      vertex -7.34776 0.865366 -5.25
    endloop
  endfacet
  facet normal 0.555571 0.831469 -0
    outer loop
      vertex -6.26537 -1.74776 -6.5
      vertex -6.91421 -1.31421 -5.25
      vertex -6.26537 -1.74776 -5.25
    endloop
  endfacet
  facet normal 0.555571 0.831469 0
    outer loop
      vertex -6.91421 -1.31421 -5.25
      vertex -6.26537 -1.74776 -6.5
      vertex -6.91421 -1.31421 -6.5
    endloop
  endfacet
  facet normal -0.83147 0.55557 0
    outer loop
      vertex -4.08579 -1.31421 -6.5
      vertex -3.65224 -0.665366 -5.25
      vertex -3.65224 -0.665366 -6.5
    endloop
  endfacet
  facet normal -0.83147 0.55557 0
    outer loop
      vertex -3.65224 -0.665366 -5.25
      vertex -4.08579 -1.31421 -6.5
      vertex -4.08579 -1.31421 -5.25
    endloop
  endfacet
  facet normal -0.980785 0.19509 0
    outer loop
      vertex -3.65224 -0.665366 -6.5
      vertex -3.5 0.0999994 -5.25
      vertex -3.5 0.0999994 -6.5
    endloop
  endfacet
  facet normal -0.980785 0.19509 0
    outer loop
      vertex -3.5 0.0999994 -5.25
      vertex -3.65224 -0.665366 -6.5
      vertex -3.65224 -0.665366 -5.25
    endloop
  endfacet
  facet normal 0.19509 0.980785 -0
    outer loop
      vertex -5.5 -1.9 -6.5
      vertex -6.26537 -1.74776 -5.25
      vertex -5.5 -1.9 -5.25
    endloop
  endfacet
  facet normal 0.19509 0.980785 0
    outer loop
      vertex -6.26537 -1.74776 -5.25
      vertex -5.5 -1.9 -6.5
      vertex -6.26537 -1.74776 -6.5
    endloop
  endfacet
  facet normal 0.83147 0.55557 0
    outer loop
      vertex -6.91421 -1.31421 -5.25
      vertex -7.34776 -0.665366 -6.5
      vertex -7.34776 -0.665366 -5.25
    endloop
  endfacet
  facet normal 0.83147 0.55557 0
    outer loop
      vertex -7.34776 -0.665366 -6.5
      vertex -6.91421 -1.31421 -5.25
      vertex -6.91421 -1.31421 -6.5
    endloop
  endfacet
  facet normal 0.980785 0.195092 0
    outer loop
      vertex -7.34776 -0.665366 -5.25
      vertex -7.5 0.0999994 -6.5
      vertex -7.5 0.0999994 -5.25
    endloop
  endfacet
  facet normal 0.980785 0.195092 0
    outer loop
      vertex -7.5 0.0999994 -6.5
      vertex -7.34776 -0.665366 -5.25
      vertex -7.34776 -0.665366 -6.5
    endloop
  endfacet
  facet normal 0 1 -0
    outer loop
      vertex 9.75 -5 -4.5
      vertex 7.75 -5 4.5
      vertex 9.75 -5 4.5
    endloop
  endfacet
  facet normal 0 1 0
    outer loop
      vertex 7.75 -5 4.5
      vertex 9.75 -5 -4.5
      vertex 7.75 -5 -4.5
    endloop
  endfacet
  facet normal 0 1 -0
    outer loop
      vertex -7.75 -5 -4.5
      vertex -9.75 -5 4.5
      vertex -7.75 -5 4.5
    endloop
  endfacet
  facet normal 0 1 0
    outer loop
      vertex -9.75 -5 4.5
      vertex -7.75 -5 -4.5
      vertex -9.75 -5 -4.5
    endloop
  endfacet
endsolid OpenSCAD_Model
