solid OpenSCAD_Model
  facet normal -1 0 0
    outer loop
      vertex -92 -72 -77
      vertex -92 72 22.5882
      vertex -92 72 -77
    endloop
  endfacet
  facet normal -1 -0 0
    outer loop
      vertex -92 72 22.5882
      vertex -92 -72 -77
      vertex -92 -72 22.5882
    endloop
  endfacet
  facet normal 0 0 -1
    outer loop
      vertex 34 -72 -77
      vertex 36 72 -77
      vertex 36 -72 -77
    endloop
  endfacet
  facet normal -0 0 -1
    outer loop
      vertex 36 72 -77
      vertex 34 -72 -77
      vertex 34 72 -77
    endloop
  endfacet
  facet normal 0 0 -1
    outer loop
      vertex -92 -72 -77
      vertex -90 72 -77
      vertex -90 -72 -77
    endloop
  endfacet
  facet normal -0 0 -1
    outer loop
      vertex -90 72 -77
      vertex -92 -72 -77
      vertex -92 72 -77
    endloop
  endfacet
  facet normal 0 -1 0
    outer loop
      vertex -92 -72 -77
      vertex -90 -72 19.7319
      vertex -92 -72 22.5882
    endloop
  endfacet
  facet normal 0 -1 -0
    outer loop
      vertex -90 -72 19.7319
      vertex -92 -72 -77
      vertex -90 -72 -77
    endloop
  endfacet
  facet normal 0 -1 0
    outer loop
      vertex -90 -72 19.7319
      vertex -48.8954 -72 6.89938
      vertex -92 -72 22.5882
    endloop
  endfacet
  facet normal 0 -1 0
    outer loop
      vertex -90 -72 19.7319
      vertex -47.9347 -72 6.54972
      vertex -48.8954 -72 6.89938
    endloop
  endfacet
  facet normal 0 -1 0
    outer loop
      vertex -90 -72 19.7319
      vertex -12.3053 -72 -6.4183
      vertex -47.9347 -72 6.54972
    endloop
  endfacet
  facet normal 0 -1 0
    outer loop
      vertex 34 -72 -25.4004
      vertex -12.3053 -72 -6.4183
      vertex -90 -72 19.7319
    endloop
  endfacet
  facet normal 0 -1 0
    outer loop
      vertex -12.3053 -72 -6.4183
      vertex 34 -72 -25.4004
      vertex -11.3447 -72 -6.76796
    endloop
  endfacet
  facet normal 0 -1 0
    outer loop
      vertex -11.3447 -72 -6.76796
      vertex 34 -72 -25.4004
      vertex 36 -72 -24
    endloop
  endfacet
  facet normal 0 -1 0
    outer loop
      vertex 36 -72 -77
      vertex 34 -72 -25.4004
      vertex 34 -72 -77
    endloop
  endfacet
  facet normal 0 -1 0
    outer loop
      vertex 34 -72 -25.4004
      vertex 36 -72 -77
      vertex 36 -72 -24
    endloop
  endfacet
  facet normal 0 -1 0
    outer loop
      vertex -48.8954 -72 6.89938
      vertex -33.2278 -72 46.9565
      vertex -34.1885 -72 47.3062
    endloop
  endfacet
  facet normal 0 -1 0
    outer loop
      vertex -33.2278 -72 46.9565
      vertex -48.8954 -72 6.89938
      vertex -47.9347 -72 6.54972
    endloop
  endfacet
  facet normal 0 -1 0
    outer loop
      vertex -12.3053 -72 -6.4183
      vertex 3.36221 -72 33.6388
      vertex 2.40153 -72 33.9885
    endloop
  endfacet
  facet normal 0 -1 0
    outer loop
      vertex 3.36221 -72 33.6388
      vertex -12.3053 -72 -6.4183
      vertex -11.3447 -72 -6.76796
    endloop
  endfacet
  facet normal 0 1 0
    outer loop
      vertex 23.5949 72 26.2747
      vertex 7.9274 72 -13.7824
      vertex 22.6343 72 26.6244
    endloop
  endfacet
  facet normal -0 1 0
    outer loop
      vertex 7.9274 72 -13.7824
      vertex 23.5949 72 26.2747
      vertex 8.88808 72 -14.1321
    endloop
  endfacet
  facet normal 0 1 0
    outer loop
      vertex 7.9274 72 -13.7824
      vertex -90 72 19.7319
      vertex -92 72 22.5882
    endloop
  endfacet
  facet normal 0 1 0
    outer loop
      vertex 34 72 -25.4004
      vertex 7.9274 72 -13.7824
      vertex 8.88808 72 -14.1321
    endloop
  endfacet
  facet normal 0 1 -0
    outer loop
      vertex 34 72 -25.4004
      vertex 8.88808 72 -14.1321
      vertex 36 72 -24
    endloop
  endfacet
  facet normal 0 1 0
    outer loop
      vertex 7.9274 72 -13.7824
      vertex 34 72 -25.4004
      vertex -90 72 19.7319
    endloop
  endfacet
  facet normal 0 1 -0
    outer loop
      vertex 36 72 -77
      vertex 34 72 -25.4004
      vertex 36 72 -24
    endloop
  endfacet
  facet normal 0 1 0
    outer loop
      vertex 34 72 -25.4004
      vertex 36 72 -77
      vertex 34 72 -77
    endloop
  endfacet
  facet normal 0 1 0
    outer loop
      vertex -92 72 -77
      vertex -90 72 19.7319
      vertex -90 72 -77
    endloop
  endfacet
  facet normal 0 1 0
    outer loop
      vertex -90 72 19.7319
      vertex -92 72 -77
      vertex -92 72 22.5882
    endloop
  endfacet
  facet normal 0.919158 0.207912 -0.334546
    outer loop
      vertex 4.28137 -71.7921 33.3043
      vertex -29.2008 22.2079 -0.268832
      vertex -14.494 22.2079 40.138
    endloop
  endfacet
  facet normal 0.919158 0.207912 -0.334546
    outer loop
      vertex -29.2008 22.2079 -0.268832
      vertex 4.28137 -71.7921 33.3043
      vertex -10.4255 -71.7921 -7.1025
    endloop
  endfacet
  facet normal 0.342019 1.53736e-005 0.939693
    outer loop
      vertex 4.28137 -71.7921 33.3043
      vertex 2.40153 -72 33.9885
      vertex 3.36221 -72 33.6388
    endloop
  endfacet
  facet normal 0.34202 -1.03088e-007 0.939693
    outer loop
      vertex -15.4131 17.1903 40.4725
      vertex 4.28137 -71.7921 33.3043
      vertex -14.494 22.2079 40.138
    endloop
  endfacet
  facet normal 0.342019 -0 0.939693
    outer loop
      vertex -15.4131 17.1903 40.4725
      vertex -14.494 22.2079 40.138
      vertex -15.4131 22 40.4725
    endloop
  endfacet
  facet normal 0.34202 8.30672e-008 0.939693
    outer loop
      vertex 4.28137 -71.7921 33.3043
      vertex -15.4131 17.1903 40.4725
      vertex 2.40153 -72 33.9885
    endloop
  endfacet
  facet normal 0.342019 0 0.939693
    outer loop
      vertex -16.3323 22.2079 40.807
      vertex -15.4131 17.1903 40.4725
      vertex -15.4131 22 40.4725
    endloop
  endfacet
  facet normal 0.34202 1.02258e-007 0.939693
    outer loop
      vertex -35.1077 -71.7921 47.6407
      vertex -15.4131 17.1903 40.4725
      vertex -16.3323 22.2079 40.807
    endloop
  endfacet
  facet normal 0.34202 -4.73703e-008 0.939693
    outer loop
      vertex -15.4131 17.1903 40.4725
      vertex -35.1077 -71.7921 47.6407
      vertex -33.2278 -72 46.9565
    endloop
  endfacet
  facet normal 0.342023 2.60712e-005 0.939692
    outer loop
      vertex -33.2278 -72 46.9565
      vertex -35.1077 -71.7921 47.6407
      vertex -34.1885 -72 47.3062
    endloop
  endfacet
  facet normal -0.919158 -0.207912 0.334546
    outer loop
      vertex -13.9925 -22.0289 20.0021
      vertex -30.12 17.1903 0.0657141
      vertex -16.2156 -22.0289 13.8941
    endloop
  endfacet
  facet normal -0.919158 -0.207912 0.334546
    outer loop
      vertex -14.9457 -28.3869 13.4319
      vertex -16.2156 -22.0289 13.8941
      vertex -30.12 17.1903 0.0657141
    endloop
  endfacet
  facet normal -0.919158 -0.207912 0.334546
    outer loop
      vertex 2.40153 -72 33.9885
      vertex -14.9457 -28.3869 13.4319
      vertex -12.3053 -72 -6.4183
    endloop
  endfacet
  facet normal -0.919158 -0.207912 0.334546
    outer loop
      vertex -12.3053 -72 -6.4183
      vertex -14.9457 -28.3869 13.4319
      vertex -30.12 17.1903 0.0657141
    endloop
  endfacet
  facet normal -0.919158 -0.207912 0.334546
    outer loop
      vertex -30.12 17.1903 0.0657141
      vertex -13.9925 -22.0289 20.0021
      vertex -15.4131 17.1903 40.4725
    endloop
  endfacet
  facet normal -0.919158 -0.207912 0.334546
    outer loop
      vertex -12.7225 -28.3869 19.5399
      vertex -15.4131 17.1903 40.4725
      vertex -13.9925 -22.0289 20.0021
    endloop
  endfacet
  facet normal -0.919158 -0.207912 0.334546
    outer loop
      vertex -12.7225 -28.3869 19.5399
      vertex 2.40153 -72 33.9885
      vertex -15.4131 17.1903 40.4725
    endloop
  endfacet
  facet normal -0.919158 -0.207912 0.334546
    outer loop
      vertex -14.9457 -28.3869 13.4319
      vertex 2.40153 -72 33.9885
      vertex -12.7225 -28.3869 19.5399
    endloop
  endfacet
  facet normal 0.195377 -0.978147 -0.0711113
    outer loop
      vertex -11.3447 -72 -6.76796
      vertex 4.28137 -71.7921 33.3043
      vertex 3.36221 -72 33.6388
    endloop
  endfacet
  facet normal 0.195377 -0.978147 -0.0711113
    outer loop
      vertex 4.28137 -71.7921 33.3043
      vertex -11.3447 -72 -6.76796
      vertex -10.4255 -71.7921 -7.1025
    endloop
  endfacet
  facet normal -0.195374 0.978147 0.0711103
    outer loop
      vertex -14.494 22.2079 40.138
      vertex -30.12 22 0.0657141
      vertex -15.4131 22 40.4725
    endloop
  endfacet
  facet normal -0.195374 0.978147 0.0711102
    outer loop
      vertex -30.12 22 0.0657141
      vertex -14.494 22.2079 40.138
      vertex -29.2008 22.2079 -0.268832
    endloop
  endfacet
  facet normal -0.919158 -0.207912 0.334546
    outer loop
      vertex -10.8842 -27.9711 18.8708
      vertex -14.3773 -21.6131 13.225
      vertex -13.1074 -27.9711 12.7628
    endloop
  endfacet
  facet normal -0.919158 -0.207912 0.334546
    outer loop
      vertex -14.3773 -21.6131 13.225
      vertex -10.8842 -27.9711 18.8708
      vertex -12.1541 -21.6131 19.333
    endloop
  endfacet
  facet normal 0.34202 -6.28649e-008 0.939693
    outer loop
      vertex -30.4009 -25.7405 25.9743
      vertex -12.7225 -28.3869 19.5399
      vertex -13.9925 -22.0289 20.0021
    endloop
  endfacet
  facet normal 0.34202 -3.01882e-008 0.939693
    outer loop
      vertex -30.4009 -25.7405 25.9743
      vertex -31.2895 -32.5867 26.2977
      vertex -12.7225 -28.3869 19.5399
    endloop
  endfacet
  facet normal 0.342016 5.74102e-007 0.939694
    outer loop
      vertex -31.2895 -32.5867 26.2977
      vertex -30.4009 -25.7405 25.9743
      vertex -31.5289 -31.3881 26.3848
    endloop
  endfacet
  facet normal -0.34202 4.52202e-008 -0.939693
    outer loop
      vertex -13.9925 -22.0289 20.0021
      vertex -12.1541 -21.6131 19.333
      vertex -10.8842 -27.9711 18.8708
    endloop
  endfacet
  facet normal 0.34202 -1.28213e-007 0.939693
    outer loop
      vertex -13.9925 -22.0289 20.0021
      vertex -10.8842 -27.9711 18.8708
      vertex -12.1541 -21.6131 19.333
    endloop
  endfacet
  facet normal 0.342015 -3.67379e-006 0.939694
    outer loop
      vertex -32.4132 -26.1957 26.7067
      vertex -32.5595 -26.2287 26.7599
      vertex -32.4896 -26.5783 26.7345
    endloop
  endfacet
  facet normal -0.342015 1.02874e-007 -0.939695
    outer loop
      vertex -34.7128 -26.5783 20.6265
      vertex -34.7826 -26.2287 20.6519
      vertex -34.6363 -26.1957 20.5987
    endloop
  endfacet
  facet normal -0.34202 -5.39581e-008 -0.939693
    outer loop
      vertex -14.9457 -28.3869 13.4319
      vertex -32.624 -25.7405 19.8663
      vertex -16.2156 -22.0289 13.8941
    endloop
  endfacet
  facet normal -0.34202 -1.74359e-007 -0.939693
    outer loop
      vertex -33.5127 -32.5867 20.1897
      vertex -32.624 -25.7405 19.8663
      vertex -14.9457 -28.3869 13.4319
    endloop
  endfacet
  facet normal -0.342021 -1.00657e-007 -0.939692
    outer loop
      vertex -32.624 -25.7405 19.8663
      vertex -33.5127 -32.5867 20.1897
      vertex -33.7521 -31.3881 20.2768
    endloop
  endfacet
  facet normal 0.195373 -0.978148 -0.07111
    outer loop
      vertex -16.2156 -22.0289 13.8941
      vertex -12.1541 -21.6131 19.333
      vertex -13.9925 -22.0289 20.0021
    endloop
  endfacet
  facet normal 0.195373 -0.978148 -0.0711099
    outer loop
      vertex -12.1541 -21.6131 19.333
      vertex -16.2156 -22.0289 13.8941
      vertex -14.3773 -21.6131 13.225
    endloop
  endfacet
  facet normal 0.919164 0.207902 -0.334537
    outer loop
      vertex -15.5331 -22.941 16.697
      vertex -15.4659 -22.622 17.0798
      vertex -15.5117 -22.9272 16.7643
    endloop
  endfacet
  facet normal 0.919147 0.207936 -0.334562
    outer loop
      vertex -15.6017 -23.153 16.3767
      vertex -15.4659 -22.622 17.0798
      vertex -15.5331 -22.941 16.697
    endloop
  endfacet
  facet normal 0.91916 0.207908 -0.334543
    outer loop
      vertex -15.6017 -23.153 16.3767
      vertex -15.9735 -24.1905 14.7105
      vertex -15.4659 -22.622 17.0798
    endloop
  endfacet
  facet normal 0.919157 0.207916 -0.334547
    outer loop
      vertex -15.6125 -23.4703 16.15
      vertex -15.9735 -24.1905 14.7105
      vertex -15.6017 -23.153 16.3767
    endloop
  endfacet
  facet normal 0.919169 0.207884 -0.334534
    outer loop
      vertex -15.6096 -23.4924 16.1441
      vertex -15.9735 -24.1905 14.7105
      vertex -15.6125 -23.4703 16.15
    endloop
  endfacet
  facet normal 0.919155 0.20792 -0.334549
    outer loop
      vertex -15.6035 -23.5394 16.1317
      vertex -15.9735 -24.1905 14.7105
      vertex -15.6096 -23.4924 16.1441
    endloop
  endfacet
  facet normal 0.919158 0.207911 -0.334546
    outer loop
      vertex -15.9735 -24.1905 14.7105
      vertex -15.6035 -23.5394 16.1317
      vertex -15.8179 -24.9695 14.6539
    endloop
  endfacet
  facet normal -0.919158 -0.207913 0.334545
    outer loop
      vertex -12.2813 -23.7161 17.6766
      vertex -12.0339 -23.6708 18.3847
      vertex -12.4476 -23.0985 17.6035
    endloop
  endfacet
  facet normal -0.919158 -0.207912 0.334545
    outer loop
      vertex -12.0339 -23.6708 18.3847
      vertex -12.2813 -23.7161 17.6766
      vertex -11.8783 -24.4497 18.328
    endloop
  endfacet
  facet normal 0.258344 -0.959353 0.113582
    outer loop
      vertex -15.785 -22.8267 16.076
      vertex -13.168 -22.1022 16.2434
      vertex -15.4659 -22.622 17.0798
    endloop
  endfacet
  facet normal 0.258344 -0.959353 0.113582
    outer loop
      vertex -13.168 -22.1022 16.2434
      vertex -15.785 -22.8267 16.076
      vertex -13.4871 -22.3069 15.2396
    endloop
  endfacet
  facet normal 0.919159 0.207911 -0.334545
    outer loop
      vertex -15.9735 -24.1905 14.7105
      vertex -15.9736 -23.4098 15.1952
      vertex -15.4659 -22.622 17.0798
    endloop
  endfacet
  facet normal 0.919153 0.207918 -0.334556
    outer loop
      vertex -15.9736 -23.4098 15.1952
      vertex -15.9735 -24.1905 14.7105
      vertex -15.9962 -24.0766 14.7188
    endloop
  endfacet
  facet normal 0.919158 0.207912 -0.334547
    outer loop
      vertex -15.2713 -22.941 17.4162
      vertex -15.4659 -22.622 17.0798
      vertex -15.0651 -22.8267 18.0538
    endloop
  endfacet
  facet normal 0.919158 0.207913 -0.334546
    outer loop
      vertex -15.4659 -22.622 17.0798
      vertex -15.2713 -22.941 17.4162
      vertex -15.4171 -22.8665 17.062
    endloop
  endfacet
  facet normal 0.919158 0.207909 -0.334547
    outer loop
      vertex -15.0651 -22.8267 18.0538
      vertex -15.118 -23.153 17.7057
      vertex -15.2713 -22.941 17.4162
    endloop
  endfacet
  facet normal 0.919158 0.207911 -0.334546
    outer loop
      vertex -14.9805 -23.4703 17.8863
      vertex -15.0651 -22.8267 18.0538
      vertex -14.6435 -23.4098 18.8498
    endloop
  endfacet
  facet normal 0.919157 0.207911 -0.334548
    outer loop
      vertex -15.0651 -22.8267 18.0538
      vertex -14.9805 -23.4703 17.8863
      vertex -15.118 -23.153 17.7057
    endloop
  endfacet
  facet normal 0.919158 0.207911 -0.334546
    outer loop
      vertex -14.6435 -23.4098 18.8498
      vertex -14.8856 -23.8225 17.928
      vertex -14.9805 -23.4703 17.8863
    endloop
  endfacet
  facet normal 0.919157 0.207915 -0.334547
    outer loop
      vertex -14.6435 -23.4098 18.8498
      vertex -14.8797 -23.8446 17.9306
      vertex -14.8856 -23.8225 17.928
    endloop
  endfacet
  facet normal 0.919158 0.207912 -0.334546
    outer loop
      vertex -14.3545 -24.0766 19.2293
      vertex -14.8797 -23.8446 17.9306
      vertex -14.6435 -23.4098 18.8498
    endloop
  endfacet
  facet normal 0.919162 0.207887 -0.334552
    outer loop
      vertex -14.8797 -23.8446 17.9306
      vertex -14.3545 -24.0766 19.2293
      vertex -14.8768 -23.8668 17.9248
    endloop
  endfacet
  facet normal 0.919158 0.207913 -0.334546
    outer loop
      vertex -14.3545 -24.0766 19.2293
      vertex -14.831 -24.219 17.8319
      vertex -14.8768 -23.8668 17.9248
    endloop
  endfacet
  facet normal 0.919158 0.207912 -0.334546
    outer loop
      vertex -14.3545 -24.0766 19.2293
      vertex -14.8417 -24.5363 17.6051
      vertex -14.831 -24.219 17.8319
    endloop
  endfacet
  facet normal 0.919158 0.207912 -0.334546
    outer loop
      vertex -13.8611 -26.5472 19.0497
      vertex -14.8417 -24.5363 17.6051
      vertex -14.3545 -24.0766 19.2293
    endloop
  endfacet
  facet normal 0.919158 0.207912 -0.334547
    outer loop
      vertex -14.6852 -25.8754 17.2029
      vertex -15.0263 -24.8228 16.9198
      vertex -14.9103 -24.7483 17.2848
    endloop
  endfacet
  facet normal 0.919158 0.207912 -0.334545
    outer loop
      vertex -14.8417 -24.5363 17.6051
      vertex -14.5319 -26.0874 17.4923
      vertex -14.9103 -24.7483 17.2848
    endloop
  endfacet
  facet normal 0.919158 0.207912 -0.334546
    outer loop
      vertex -15.0263 -24.8228 16.9198
      vertex -14.6852 -25.8754 17.2029
      vertex -14.831 -25.8009 16.8487
    endloop
  endfacet
  facet normal 0.919158 0.207912 -0.334546
    outer loop
      vertex -14.9103 -24.7483 17.2848
      vertex -14.5319 -26.0874 17.4923
      vertex -14.6852 -25.8754 17.2029
    endloop
  endfacet
  facet normal 0.919158 0.207912 -0.334546
    outer loop
      vertex -14.8417 -24.5363 17.6051
      vertex -13.8611 -26.5472 19.0497
      vertex -14.5319 -26.0874 17.4923
    endloop
  endfacet
  facet normal 0.919158 0.207912 -0.334546
    outer loop
      vertex -14.5319 -26.0874 17.4923
      vertex -13.8611 -26.5472 19.0497
      vertex -14.3944 -26.4048 17.673
    endloop
  endfacet
  facet normal 0.919158 0.207911 -0.334546
    outer loop
      vertex -13.8611 -26.5472 19.0497
      vertex -14.2995 -26.757 17.7147
      vertex -14.3944 -26.4048 17.673
    endloop
  endfacet
  facet normal 0.919158 0.207912 -0.334546
    outer loop
      vertex -13.8837 -27.2139 18.5732
      vertex -14.2995 -26.757 17.7147
      vertex -13.8611 -26.5472 19.0497
    endloop
  endfacet
  facet normal 0.919157 0.207935 -0.334534
    outer loop
      vertex -14.2995 -26.757 17.7147
      vertex -13.8837 -27.2139 18.5732
      vertex -14.2936 -26.7791 17.7173
    endloop
  endfacet
  facet normal 0.919158 0.207923 -0.33454
    outer loop
      vertex -14.2936 -26.7791 17.7173
      vertex -13.8837 -27.2139 18.5732
      vertex -14.2907 -26.8012 17.7114
    endloop
  endfacet
  facet normal 0.919158 0.207908 -0.334548
    outer loop
      vertex -14.2907 -26.8012 17.7114
      vertex -13.8837 -27.2139 18.5732
      vertex -14.2448 -27.1534 17.6185
    endloop
  endfacet
  facet normal 0.919158 0.207913 -0.334547
    outer loop
      vertex -14.0723 -27.797 17.6925
      vertex -14.2448 -27.1534 17.6185
      vertex -13.8837 -27.2139 18.5732
    endloop
  endfacet
  facet normal 0.919158 0.207914 -0.334544
    outer loop
      vertex -14.2448 -27.1534 17.6185
      vertex -14.0723 -27.797 17.6925
      vertex -14.2556 -27.4707 17.3918
    endloop
  endfacet
  facet normal 0.919158 0.20791 -0.334548
    outer loop
      vertex -14.2556 -27.4707 17.3918
      vertex -14.0723 -27.797 17.6925
      vertex -14.3242 -27.6828 17.0715
    endloop
  endfacet
  facet normal 0.919157 0.207915 -0.334546
    outer loop
      vertex -14.3914 -28.0018 16.6887
      vertex -14.3242 -27.6828 17.0715
      vertex -14.0723 -27.797 17.6925
    endloop
  endfacet
  facet normal 0.919158 0.207913 -0.334545
    outer loop
      vertex -14.3242 -27.6828 17.0715
      vertex -14.3914 -28.0018 16.6887
      vertex -14.4402 -27.7572 16.7065
    endloop
  endfacet
  facet normal 0.919158 0.207913 -0.334546
    outer loop
      vertex -15.4659 -22.622 17.0798
      vertex -15.4171 -22.8665 17.062
      vertex -15.5117 -22.9272 16.7643
    endloop
  endfacet
  facet normal 0.919158 0.207913 -0.334545
    outer loop
      vertex -14.4402 -27.7572 16.7065
      vertex -14.3914 -28.0018 16.6887
      vertex -14.5591 -27.6965 16.4176
    endloop
  endfacet
  facet normal 0.91917 0.207881 -0.334532
    outer loop
      vertex -15.8179 -24.9695 14.6539
      vertex -15.4689 -24.1968 16.0929
      vertex -15.4629 -24.219 16.0955
    endloop
  endfacet
  facet normal 0.919159 0.20791 -0.334544
    outer loop
      vertex -15.5637 -23.8446 16.0512
      vertex -15.8179 -24.9695 14.6539
      vertex -15.6035 -23.5394 16.1317
    endloop
  endfacet
  facet normal 0.919158 0.207913 -0.334546
    outer loop
      vertex -15.4689 -24.1968 16.0929
      vertex -15.8179 -24.9695 14.6539
      vertex -15.5637 -23.8446 16.0512
    endloop
  endfacet
  facet normal 0.919158 0.207913 -0.334546
    outer loop
      vertex -15.3254 -24.5363 16.2762
      vertex -15.8179 -24.9695 14.6539
      vertex -15.4629 -24.219 16.0955
    endloop
  endfacet
  facet normal 0.919158 0.207912 -0.334546
    outer loop
      vertex -14.947 -25.8754 16.4837
      vertex -15.3254 -24.5363 16.2762
      vertex -15.1721 -24.7483 16.5656
    endloop
  endfacet
  facet normal 0.919158 0.207912 -0.334546
    outer loop
      vertex -14.831 -25.8009 16.8487
      vertex -15.1721 -24.7483 16.5656
      vertex -15.0263 -24.8228 16.9198
    endloop
  endfacet
  facet normal 0.919158 0.207912 -0.334545
    outer loop
      vertex -15.3254 -24.5363 16.2762
      vertex -14.947 -25.8754 16.4837
      vertex -15.0156 -26.0874 16.1634
    endloop
  endfacet
  facet normal 0.919158 0.207912 -0.334547
    outer loop
      vertex -15.1721 -24.7483 16.5656
      vertex -14.831 -25.8009 16.8487
      vertex -14.947 -25.8754 16.4837
    endloop
  endfacet
  facet normal 0.919158 0.207912 -0.334546
    outer loop
      vertex -15.3254 -24.5363 16.2762
      vertex -15.0156 -26.0874 16.1634
      vertex -15.8179 -24.9695 14.6539
    endloop
  endfacet
  facet normal 0.919158 0.207911 -0.334546
    outer loop
      vertex -15.8179 -24.9695 14.6539
      vertex -15.0156 -26.0874 16.1634
      vertex -15.6811 -25.6542 14.6041
    endloop
  endfacet
  facet normal 0.919158 0.207911 -0.334546
    outer loop
      vertex -15.0263 -26.4048 15.9366
      vertex -15.6811 -25.6542 14.6041
      vertex -15.0156 -26.0874 16.1634
    endloop
  endfacet
  facet normal 0.919158 0.207923 -0.334539
    outer loop
      vertex -15.0235 -26.4269 15.9308
      vertex -15.6811 -25.6542 14.6041
      vertex -15.0263 -26.4048 15.9366
    endloop
  endfacet
  facet normal 0.919158 0.207912 -0.334546
    outer loop
      vertex -14.9776 -26.7791 15.8379
      vertex -15.6811 -25.6542 14.6041
      vertex -15.0235 -26.4269 15.9308
    endloop
  endfacet
  facet normal 0.919158 0.207908 -0.33455
    outer loop
      vertex -15.6811 -25.6542 14.6041
      vertex -14.9776 -26.7791 15.8379
      vertex -14.8954 -27.0843 15.874
    endloop
  endfacet
  facet normal -0.919158 -0.207911 0.334546
    outer loop
      vertex -12.2813 -23.7161 17.6766
      vertex -11.7415 -25.1344 18.2783
      vertex -11.8783 -24.4497 18.328
    endloop
  endfacet
  facet normal -0.919158 -0.207911 0.334546
    outer loop
      vertex -11.7415 -25.1344 18.2783
      vertex -12.2813 -23.7161 17.6766
      vertex -11.8515 -25.8681 17.5201
    endloop
  endfacet
  facet normal 0.919159 0.207909 -0.334544
    outer loop
      vertex -15.785 -22.8267 16.076
      vertex -15.4659 -22.622 17.0798
      vertex -15.9736 -23.4098 15.1952
    endloop
  endfacet
  facet normal -0.919158 -0.207913 0.334544
    outer loop
      vertex -12.4476 -23.0985 17.6035
      vertex -12.3456 -22.89 18.0134
      vertex -12.6746 -22.5749 17.3054
    endloop
  endfacet
  facet normal -0.919158 -0.207913 0.334545
    outer loop
      vertex -12.4476 -23.0985 17.6035
      vertex -12.0566 -23.5568 18.3929
      vertex -12.3456 -22.89 18.0134
    endloop
  endfacet
  facet normal -0.919158 -0.207912 0.334545
    outer loop
      vertex -12.0566 -23.5568 18.3929
      vertex -12.4476 -23.0985 17.6035
      vertex -12.0339 -23.6708 18.3847
    endloop
  endfacet
  facet normal -0.124894 0.959353 0.253069
    outer loop
      vertex -12.4943 -27.2772 14.8783
      vertex -14.3914 -28.0018 16.6887
      vertex -12.0935 -27.482 15.8523
    endloop
  endfacet
  facet normal -0.124894 0.959353 0.253069
    outer loop
      vertex -14.3914 -28.0018 16.6887
      vertex -12.4943 -27.2772 14.8783
      vertex -14.7922 -27.797 15.7147
    endloop
  endfacet
  facet normal 0.392923 -0.543429 0.741819
    outer loop
      vertex -15.9736 -23.4098 15.1952
      vertex -13.6983 -23.5568 13.8824
      vertex -13.6757 -22.89 14.3589
    endloop
  endfacet
  facet normal 0.392923 -0.543429 0.741819
    outer loop
      vertex -13.6983 -23.5568 13.8824
      vertex -15.9736 -23.4098 15.1952
      vertex -15.9962 -24.0766 14.7188
    endloop
  endfacet
  facet normal 0.175835 0.54343 0.820832
    outer loop
      vertex -13.2049 -26.0274 13.7028
      vertex -15.2138 -27.2139 14.9187
      vertex -12.9159 -26.6941 14.0823
    endloop
  endfacet
  facet normal 0.175836 0.54343 0.820832
    outer loop
      vertex -15.2138 -27.2139 14.9187
      vertex -13.2049 -26.0274 13.7028
      vertex -15.5028 -26.5472 14.5392
    endloop
  endfacet
  facet normal -0.0275688 -0.813301 -0.58119
    outer loop
      vertex -12.7672 -22.3069 17.2175
      vertex -14.6435 -23.4098 18.8498
      vertex -15.0651 -22.8267 18.0538
    endloop
  endfacet
  facet normal -0.0275699 -0.8133 -0.581191
    outer loop
      vertex -14.6435 -23.4098 18.8498
      vertex -12.7672 -22.3069 17.2175
      vertex -12.3456 -22.89 18.0134
    endloop
  endfacet
  facet normal -0.175837 -0.543429 -0.820833
    outer loop
      vertex -14.3545 -24.0766 19.2293
      vertex -12.3456 -22.89 18.0134
      vertex -12.0566 -23.5568 18.3929
    endloop
  endfacet
  facet normal -0.175836 -0.54343 -0.820832
    outer loop
      vertex -12.3456 -22.89 18.0134
      vertex -14.3545 -24.0766 19.2293
      vertex -14.6435 -23.4098 18.8498
    endloop
  endfacet
  facet normal 0.124894 -0.959352 -0.25307
    outer loop
      vertex -12.9275 -22.225 16.8278
      vertex -15.0651 -22.8267 18.0538
      vertex -15.4659 -22.622 17.0798
    endloop
  endfacet
  facet normal 0.124894 -0.959352 -0.25307
    outer loop
      vertex -15.0651 -22.8267 18.0538
      vertex -12.9275 -22.225 16.8278
      vertex -12.7672 -22.3069 17.2175
    endloop
  endfacet
  facet normal 0.124894 -0.959353 -0.253069
    outer loop
      vertex -12.9275 -22.225 16.8278
      vertex -15.4659 -22.622 17.0798
      vertex -13.168 -22.1022 16.2434
    endloop
  endfacet
  facet normal -0.352463 0.8133 -0.46294
    outer loop
      vertex -11.5858 -26.6941 17.7369
      vertex -14.0723 -27.797 17.6925
      vertex -13.8837 -27.2139 18.5732
    endloop
  endfacet
  facet normal -0.352463 0.8133 -0.46294
    outer loop
      vertex -14.0723 -27.797 17.6925
      vertex -11.5858 -26.6941 17.7369
      vertex -11.7744 -27.2772 16.8561
    endloop
  endfacet
  facet normal 0.919158 0.207912 -0.334546
    outer loop
      vertex -14.3914 -28.0018 16.6887
      vertex -14.7922 -27.797 15.7147
      vertex -15.2138 -27.2139 14.9187
    endloop
  endfacet
  facet normal 0.352463 -0.8133 0.462939
    outer loop
      vertex -15.9736 -23.4098 15.1952
      vertex -13.4871 -22.3069 15.2396
      vertex -15.785 -22.8267 16.076
    endloop
  endfacet
  facet normal 0.352463 -0.8133 0.462939
    outer loop
      vertex -13.4871 -22.3069 15.2396
      vertex -15.9736 -23.4098 15.1952
      vertex -13.6757 -22.89 14.3589
    endloop
  endfacet
  facet normal -0.919158 -0.207914 0.334545
    outer loop
      vertex -12.6746 -22.5749 17.3054
      vertex -12.7672 -22.3069 17.2175
      vertex -12.9275 -22.225 16.8278
    endloop
  endfacet
  facet normal -0.919158 -0.207915 0.334544
    outer loop
      vertex -12.7672 -22.3069 17.2175
      vertex -12.6746 -22.5749 17.3054
      vertex -12.3456 -22.89 18.0134
    endloop
  endfacet
  facet normal -0.392923 0.543431 -0.741818
    outer loop
      vertex -11.5858 -26.6941 17.7369
      vertex -13.8611 -26.5472 19.0497
      vertex -11.5632 -26.0274 18.2133
    endloop
  endfacet
  facet normal -0.392923 0.543431 -0.741818
    outer loop
      vertex -13.8611 -26.5472 19.0497
      vertex -11.5858 -26.6941 17.7369
      vertex -13.8837 -27.2139 18.5732
    endloop
  endfacet
  facet normal -0.258345 0.959352 -0.113584
    outer loop
      vertex -11.902 -27.3591 16.4546
      vertex -14.0723 -27.797 17.6925
      vertex -11.7744 -27.2772 16.8561
    endloop
  endfacet
  facet normal -0.258344 0.959353 -0.113582
    outer loop
      vertex -14.0723 -27.797 17.6925
      vertex -11.902 -27.3591 16.4546
      vertex -14.3914 -28.0018 16.6887
    endloop
  endfacet
  facet normal -0.258344 0.959353 -0.113581
    outer loop
      vertex -14.3914 -28.0018 16.6887
      vertex -11.902 -27.3591 16.4546
      vertex -12.0935 -27.482 15.8523
    endloop
  endfacet
  facet normal -0.919157 -0.207913 0.334547
    outer loop
      vertex -11.7888 -27.0093 16.9831
      vertex -11.7744 -27.2772 16.8561
      vertex -11.5858 -26.6941 17.7369
    endloop
  endfacet
  facet normal -0.919158 -0.207913 0.334546
    outer loop
      vertex -11.7744 -27.2772 16.8561
      vertex -11.7888 -27.0093 16.9831
      vertex -11.902 -27.3591 16.4546
    endloop
  endfacet
  facet normal 0.919157 0.207908 -0.334553
    outer loop
      vertex -15.5255 -26.4332 14.5475
      vertex -15.2138 -27.2139 14.9187
      vertex -15.5028 -26.5472 14.5392
    endloop
  endfacet
  facet normal 0.919158 0.207911 -0.334546
    outer loop
      vertex -15.2138 -27.2139 14.9187
      vertex -15.5255 -26.4332 14.5475
      vertex -14.3914 -28.0018 16.6887
    endloop
  endfacet
  facet normal 0.919158 0.207912 -0.334545
    outer loop
      vertex -14.8954 -27.0843 15.874
      vertex -15.5255 -26.4332 14.5475
      vertex -15.6811 -25.6542 14.6041
    endloop
  endfacet
  facet normal 0.919158 0.207927 -0.334537
    outer loop
      vertex -14.8828 -27.1313 15.8796
      vertex -15.5255 -26.4332 14.5475
      vertex -14.8954 -27.0843 15.874
    endloop
  endfacet
  facet normal 0.919158 0.207916 -0.334543
    outer loop
      vertex -14.8768 -27.1534 15.8822
      vertex -15.5255 -26.4332 14.5475
      vertex -14.8828 -27.1313 15.8796
    endloop
  endfacet
  facet normal 0.919158 0.207909 -0.334547
    outer loop
      vertex -14.7393 -27.4707 16.0628
      vertex -15.5255 -26.4332 14.5475
      vertex -14.8768 -27.1534 15.8822
    endloop
  endfacet
  facet normal 0.919159 0.20793 -0.334532
    outer loop
      vertex -14.3914 -28.0018 16.6887
      vertex -14.7393 -27.4707 16.0628
      vertex -14.586 -27.6828 16.3523
    endloop
  endfacet
  facet normal 0.919159 0.207924 -0.334537
    outer loop
      vertex -14.7393 -27.4707 16.0628
      vertex -14.3914 -28.0018 16.6887
      vertex -15.5255 -26.4332 14.5475
    endloop
  endfacet
  facet normal 0.919156 0.207899 -0.33456
    outer loop
      vertex -14.3914 -28.0018 16.6887
      vertex -14.586 -27.6828 16.3523
      vertex -14.5591 -27.6965 16.4176
    endloop
  endfacet
  facet normal 0.0275695 0.8133 0.581192
    outer loop
      vertex -12.9159 -26.6941 14.0823
      vertex -14.7922 -27.797 15.7147
      vertex -12.4943 -27.2772 14.8783
    endloop
  endfacet
  facet normal 0.0275695 0.8133 0.581192
    outer loop
      vertex -14.7922 -27.797 15.7147
      vertex -12.9159 -26.6941 14.0823
      vertex -15.2138 -27.2139 14.9187
    endloop
  endfacet
  facet normal -0.919158 -0.207912 0.334546
    outer loop
      vertex -11.7711 -26.4857 17.3572
      vertex -11.5632 -26.0274 18.2133
      vertex -11.5859 -25.9134 18.2216
    endloop
  endfacet
  facet normal -0.919158 -0.207911 0.334546
    outer loop
      vertex -11.7711 -26.4857 17.3572
      vertex -11.5858 -26.6941 17.7369
      vertex -11.5632 -26.0274 18.2133
    endloop
  endfacet
  facet normal -0.919158 -0.207911 0.334546
    outer loop
      vertex -11.5858 -26.6941 17.7369
      vertex -11.7711 -26.4857 17.3572
      vertex -11.7888 -27.0093 16.9831
    endloop
  endfacet
  facet normal -0.919158 -0.207912 0.334546
    outer loop
      vertex -11.8515 -25.8681 17.5201
      vertex -11.5859 -25.9134 18.2216
      vertex -11.7415 -25.1344 18.2783
    endloop
  endfacet
  facet normal -0.919158 -0.207912 0.334546
    outer loop
      vertex -11.5859 -25.9134 18.2216
      vertex -11.8515 -25.8681 17.5201
      vertex -11.7711 -26.4857 17.3572
    endloop
  endfacet
  facet normal -0.342021 1.39784e-006 -0.939692
    outer loop
      vertex -13.8611 -26.5472 19.0497
      vertex -11.7415 -25.1344 18.2783
      vertex -11.5859 -25.9134 18.2216
    endloop
  endfacet
  facet normal -0.342021 1.46353e-006 -0.939692
    outer loop
      vertex -14.3545 -24.0766 19.2293
      vertex -12.0339 -23.6708 18.3847
      vertex -11.8783 -24.4497 18.328
    endloop
  endfacet
  facet normal -0.34202 3.67778e-007 -0.939693
    outer loop
      vertex -14.3545 -24.0766 19.2293
      vertex -11.7415 -25.1344 18.2783
      vertex -13.8611 -26.5472 19.0497
    endloop
  endfacet
  facet normal -0.342018 -1.0687e-005 -0.939693
    outer loop
      vertex -13.8611 -26.5472 19.0497
      vertex -11.5859 -25.9134 18.2216
      vertex -11.5632 -26.0274 18.2133
    endloop
  endfacet
  facet normal -0.342021 -1.68944e-006 -0.939692
    outer loop
      vertex -11.7415 -25.1344 18.2783
      vertex -14.3545 -24.0766 19.2293
      vertex -11.8783 -24.4497 18.328
    endloop
  endfacet
  facet normal -0.342019 -1.08632e-005 -0.939693
    outer loop
      vertex -12.0339 -23.6708 18.3847
      vertex -14.3545 -24.0766 19.2293
      vertex -12.0566 -23.5568 18.3929
    endloop
  endfacet
  facet normal 0.34202 -2.05409e-008 0.939693
    outer loop
      vertex -15.8179 -24.9695 14.6539
      vertex -13.2049 -26.0274 13.7028
      vertex -13.6983 -23.5568 13.8824
    endloop
  endfacet
  facet normal 0.34202 4.54202e-007 0.939693
    outer loop
      vertex -13.2049 -26.0274 13.7028
      vertex -15.5255 -26.4332 14.5475
      vertex -15.5028 -26.5472 14.5392
    endloop
  endfacet
  facet normal 0.34202 5.28952e-009 0.939693
    outer loop
      vertex -13.2049 -26.0274 13.7028
      vertex -15.6811 -25.6542 14.6041
      vertex -15.5255 -26.4332 14.5475
    endloop
  endfacet
  facet normal 0.34202 -3.0022e-007 0.939693
    outer loop
      vertex -13.2049 -26.0274 13.7028
      vertex -15.8179 -24.9695 14.6539
      vertex -15.6811 -25.6542 14.6041
    endloop
  endfacet
  facet normal 0.34202 6.59848e-007 0.939693
    outer loop
      vertex -13.6983 -23.5568 13.8824
      vertex -15.9735 -24.1905 14.7105
      vertex -15.8179 -24.9695 14.6539
    endloop
  endfacet
  facet normal 0.342021 -4.33008e-006 0.939692
    outer loop
      vertex -15.9735 -24.1905 14.7105
      vertex -13.6983 -23.5568 13.8824
      vertex -15.9962 -24.0766 14.7188
    endloop
  endfacet
  facet normal -0.919158 -0.207912 0.334545
    outer loop
      vertex -33.5127 -32.5867 20.1897
      vertex -32.9241 -31.3881 22.5518
      vertex -33.7521 -31.3881 20.2768
    endloop
  endfacet
  facet normal -0.919157 -0.207916 0.334547
    outer loop
      vertex -32.9241 -31.3881 22.5518
      vertex -33.5127 -32.5867 20.1897
      vertex -32.8467 -31.5666 22.6534
    endloop
  endfacet
  facet normal -0.91916 -0.207908 0.334544
    outer loop
      vertex -32.8467 -31.5666 22.6534
      vertex -33.5127 -32.5867 20.1897
      vertex -32.6934 -31.7786 22.9428
    endloop
  endfacet
  facet normal -0.919154 -0.207927 0.334548
    outer loop
      vertex -32.6934 -31.7786 22.9428
      vertex -33.5127 -32.5867 20.1897
      vertex -32.5476 -31.8531 23.297
    endloop
  endfacet
  facet normal -0.919158 -0.207903 0.33455
    outer loop
      vertex -31.2895 -32.5867 26.2977
      vertex -32.3569 -31.3881 24.1099
      vertex -32.363 -31.5666 23.9823
    endloop
  endfacet
  facet normal -0.919158 -0.207915 0.334545
    outer loop
      vertex -31.2895 -32.5867 26.2977
      vertex -32.363 -31.5666 23.9823
      vertex -32.4316 -31.7786 23.662
    endloop
  endfacet
  facet normal -0.919158 -0.207915 0.334545
    outer loop
      vertex -31.2895 -32.5867 26.2977
      vertex -32.4316 -31.7786 23.662
      vertex -32.5476 -31.8531 23.297
    endloop
  endfacet
  facet normal -0.919158 -0.207912 0.334546
    outer loop
      vertex -31.2895 -32.5867 26.2977
      vertex -32.5476 -31.8531 23.297
      vertex -33.5127 -32.5867 20.1897
    endloop
  endfacet
  facet normal -0.919158 -0.207912 0.334546
    outer loop
      vertex -32.3569 -31.3881 24.1099
      vertex -31.2895 -32.5867 26.2977
      vertex -31.5289 -31.3881 26.3848
    endloop
  endfacet
  facet normal -0.919157 -0.207917 0.334546
    outer loop
      vertex -32.4896 -26.5783 26.7345
      vertex -34.7826 -26.2287 20.6519
      vertex -34.7128 -26.5783 20.6265
    endloop
  endfacet
  facet normal -0.919159 -0.207907 0.334547
    outer loop
      vertex -34.7826 -26.2287 20.6519
      vertex -32.4896 -26.5783 26.7345
      vertex -32.5595 -26.2287 26.7599
    endloop
  endfacet
  facet normal 0.919158 0.20791 -0.334546
    outer loop
      vertex -12.1541 -21.6131 19.333
      vertex -13.168 -22.1022 16.2434
      vertex -14.3773 -21.6131 13.225
    endloop
  endfacet
  facet normal 0.919158 0.207912 -0.334546
    outer loop
      vertex -12.1541 -21.6131 19.333
      vertex -12.9275 -22.225 16.8278
      vertex -13.168 -22.1022 16.2434
    endloop
  endfacet
  facet normal 0.919158 0.207912 -0.334546
    outer loop
      vertex -12.1541 -21.6131 19.333
      vertex -12.6746 -22.5749 17.3054
      vertex -12.9275 -22.225 16.8278
    endloop
  endfacet
  facet normal 0.919158 0.207912 -0.334546
    outer loop
      vertex -12.1541 -21.6131 19.333
      vertex -12.4476 -23.0985 17.6035
      vertex -12.6746 -22.5749 17.3054
    endloop
  endfacet
  facet normal 0.919158 0.207912 -0.334547
    outer loop
      vertex -12.1541 -21.6131 19.333
      vertex -12.2813 -23.7161 17.6766
      vertex -12.4476 -23.0985 17.6035
    endloop
  endfacet
  facet normal 0.919158 0.207912 -0.334546
    outer loop
      vertex -10.8842 -27.9711 18.8708
      vertex -12.2813 -23.7161 17.6766
      vertex -12.1541 -21.6131 19.333
    endloop
  endfacet
  facet normal 0.919158 0.207911 -0.334547
    outer loop
      vertex -12.2813 -23.7161 17.6766
      vertex -10.8842 -27.9711 18.8708
      vertex -11.8515 -25.8681 17.5201
    endloop
  endfacet
  facet normal 0.919158 0.207912 -0.334546
    outer loop
      vertex -11.902 -27.3591 16.4546
      vertex -10.8842 -27.9711 18.8708
      vertex -12.0935 -27.482 15.8523
    endloop
  endfacet
  facet normal 0.919158 0.207913 -0.334546
    outer loop
      vertex -11.7888 -27.0093 16.9831
      vertex -10.8842 -27.9711 18.8708
      vertex -11.902 -27.3591 16.4546
    endloop
  endfacet
  facet normal 0.919158 0.207911 -0.334547
    outer loop
      vertex -11.7711 -26.4857 17.3572
      vertex -10.8842 -27.9711 18.8708
      vertex -11.7888 -27.0093 16.9831
    endloop
  endfacet
  facet normal 0.919158 0.207912 -0.334546
    outer loop
      vertex -11.8515 -25.8681 17.5201
      vertex -10.8842 -27.9711 18.8708
      vertex -11.7711 -26.4857 17.3572
    endloop
  endfacet
  facet normal 0.919158 0.207912 -0.334546
    outer loop
      vertex -13.4871 -22.3069 15.2396
      vertex -14.3773 -21.6131 13.225
      vertex -13.168 -22.1022 16.2434
    endloop
  endfacet
  facet normal 0.919158 0.207912 -0.334546
    outer loop
      vertex -13.6757 -22.89 14.3589
      vertex -14.3773 -21.6131 13.225
      vertex -13.4871 -22.3069 15.2396
    endloop
  endfacet
  facet normal 0.919158 0.207911 -0.334547
    outer loop
      vertex -13.6983 -23.5568 13.8824
      vertex -14.3773 -21.6131 13.225
      vertex -13.6757 -22.89 14.3589
    endloop
  endfacet
  facet normal 0.919158 0.207912 -0.334546
    outer loop
      vertex -13.2049 -26.0274 13.7028
      vertex -14.3773 -21.6131 13.225
      vertex -13.6983 -23.5568 13.8824
    endloop
  endfacet
  facet normal 0.919158 0.207912 -0.334545
    outer loop
      vertex -13.2049 -26.0274 13.7028
      vertex -13.1074 -27.9711 12.7628
      vertex -14.3773 -21.6131 13.225
    endloop
  endfacet
  facet normal 0.919158 0.207913 -0.334547
    outer loop
      vertex -12.9159 -26.6941 14.0823
      vertex -13.1074 -27.9711 12.7628
      vertex -13.2049 -26.0274 13.7028
    endloop
  endfacet
  facet normal 0.919158 0.207911 -0.334546
    outer loop
      vertex -12.4943 -27.2772 14.8783
      vertex -13.1074 -27.9711 12.7628
      vertex -12.9159 -26.6941 14.0823
    endloop
  endfacet
  facet normal 0.919158 0.207911 -0.334546
    outer loop
      vertex -12.0935 -27.482 15.8523
      vertex -13.1074 -27.9711 12.7628
      vertex -12.4943 -27.2772 14.8783
    endloop
  endfacet
  facet normal 0.919158 0.207912 -0.334546
    outer loop
      vertex -13.1074 -27.9711 12.7628
      vertex -12.0935 -27.482 15.8523
      vertex -10.8842 -27.9711 18.8708
    endloop
  endfacet
  facet normal 0.195373 -0.978148 -0.0711099
    outer loop
      vertex -33.5127 -32.5867 20.1897
      vertex -12.7225 -28.3869 19.5399
      vertex -31.2895 -32.5867 26.2977
    endloop
  endfacet
  facet normal 0.195373 -0.978148 -0.07111
    outer loop
      vertex -12.7225 -28.3869 19.5399
      vertex -33.5127 -32.5867 20.1897
      vertex -14.9457 -28.3869 13.4319
    endloop
  endfacet
  facet normal -0.195373 0.978148 0.07111
    outer loop
      vertex -13.9925 -22.0289 20.0021
      vertex -32.624 -25.7405 19.8663
      vertex -30.4009 -25.7405 25.9743
    endloop
  endfacet
  facet normal -0.195373 0.978148 0.0711099
    outer loop
      vertex -16.2156 -22.0289 13.8941
      vertex -13.9925 -22.0289 20.0021
      vertex -12.1541 -21.6131 19.333
    endloop
  endfacet
  facet normal -0.195373 0.978148 0.07111
    outer loop
      vertex -13.9925 -22.0289 20.0021
      vertex -16.2156 -22.0289 13.8941
      vertex -32.624 -25.7405 19.8663
    endloop
  endfacet
  facet normal -0.195373 0.978148 0.0711099
    outer loop
      vertex -16.2156 -22.0289 13.8941
      vertex -12.1541 -21.6131 19.333
      vertex -14.3773 -21.6131 13.225
    endloop
  endfacet
  facet normal -0.19538 0.978146 0.0711125
    outer loop
      vertex -32.4132 -26.1957 26.7067
      vertex -34.7826 -26.2287 20.6519
      vertex -32.5595 -26.2287 26.7599
    endloop
  endfacet
  facet normal -0.19538 0.978146 0.0711125
    outer loop
      vertex -34.7826 -26.2287 20.6519
      vertex -32.4132 -26.1957 26.7067
      vertex -34.6363 -26.1957 20.5987
    endloop
  endfacet
  facet normal 0.373563 -0.190822 0.907765
    outer loop
      vertex -32.1209 -27.2045 22.1585
      vertex -15.6096 -23.4924 16.1441
      vertex -15.6125 -23.4703 16.15
    endloop
  endfacet
  facet normal 0.373563 -0.190823 0.907765
    outer loop
      vertex -15.6096 -23.4924 16.1441
      vertex -32.1209 -27.2045 22.1585
      vertex -32.2161 -27.566 22.1217
    endloop
  endfacet
  facet normal 0.373561 -0.190808 0.907769
    outer loop
      vertex -32.2161 -27.566 22.1217
      vertex -15.6035 -23.5394 16.1317
      vertex -15.6096 -23.4924 16.1441
    endloop
  endfacet
  facet normal 0.373564 -0.190828 0.907763
    outer loop
      vertex -15.6035 -23.5394 16.1317
      vertex -32.2161 -27.566 22.1217
      vertex -15.5637 -23.8446 16.0512
    endloop
  endfacet
  facet normal 0.373567 -0.190856 0.907756
    outer loop
      vertex -15.5637 -23.8446 16.0512
      vertex -32.2161 -27.566 22.1217
      vertex -32.2288 -27.6142 22.1168
    endloop
  endfacet
  facet normal -0.373563 0.190822 -0.907765
    outer loop
      vertex -14.8768 -23.8668 17.9248
      vertex -31.5447 -27.6142 23.9962
      vertex -14.8797 -23.8446 17.9306
    endloop
  endfacet
  facet normal -0.373564 0.19083 -0.907763
    outer loop
      vertex -31.5447 -27.6142 23.9962
      vertex -14.8768 -23.8668 17.9248
      vertex -31.6407 -27.979 23.959
    endloop
  endfacet
  facet normal 0.392923 -0.543431 0.741818
    outer loop
      vertex -31.9774 -26.8571 22.337
      vertex -15.6125 -23.4703 16.15
      vertex -15.6017 -23.153 16.3767
    endloop
  endfacet
  facet normal 0.392923 -0.54343 0.741819
    outer loop
      vertex -15.6125 -23.4703 16.15
      vertex -31.9774 -26.8571 22.337
      vertex -32.1209 -27.2045 22.1585
    endloop
  endfacet
  facet normal 0.352462 -0.813302 0.462937
    outer loop
      vertex -15.6017 -23.153 16.3767
      vertex -31.82 -26.625 22.625
      vertex -31.9774 -26.8571 22.337
    endloop
  endfacet
  facet normal 0.352463 -0.8133 0.46294
    outer loop
      vertex -31.82 -26.625 22.625
      vertex -15.6017 -23.153 16.3767
      vertex -15.5331 -22.941 16.697
    endloop
  endfacet
  facet normal 0.175837 0.543428 0.820833
    outer loop
      vertex -32.2846 -28.024 22.2181
      vertex -15.3254 -24.5363 16.2762
      vertex -15.4629 -24.219 16.0955
    endloop
  endfacet
  facet normal 0.175837 0.543427 0.820834
    outer loop
      vertex -15.3254 -24.5363 16.2762
      vertex -32.2846 -28.024 22.2181
      vertex -32.2798 -28.3714 22.4471
    endloop
  endfacet
  facet normal -0.175836 -0.543429 -0.820833
    outer loop
      vertex -31.4937 -26.8571 23.6659
      vertex -14.9805 -23.4703 17.8863
      vertex -31.4889 -27.2045 23.8949
    endloop
  endfacet
  facet normal -0.175837 -0.543427 -0.820834
    outer loop
      vertex -14.9805 -23.4703 17.8863
      vertex -31.4937 -26.8571 23.6659
      vertex -15.118 -23.153 17.7057
    endloop
  endfacet
  facet normal 0.258345 -0.959352 0.113585
    outer loop
      vertex -31.82 -26.625 22.625
      vertex -15.4171 -22.8665 17.062
      vertex -31.6729 -26.5435 22.9786
    endloop
  endfacet
  facet normal 0.258345 -0.959352 0.113584
    outer loop
      vertex -31.82 -26.625 22.625
      vertex -15.5117 -22.9272 16.7643
      vertex -15.4171 -22.8665 17.062
    endloop
  endfacet
  facet normal 0.258341 -0.959354 0.113573
    outer loop
      vertex -15.5117 -22.9272 16.7643
      vertex -31.82 -26.625 22.625
      vertex -15.5331 -22.941 16.697
    endloop
  endfacet
  facet normal -0.258343 0.959353 -0.11358
    outer loop
      vertex -14.9103 -24.7483 17.2848
      vertex -32.1006 -28.685 23.1343
      vertex -31.9534 -28.6035 23.488
    endloop
  endfacet
  facet normal -0.258344 0.959353 -0.113582
    outer loop
      vertex -32.1006 -28.685 23.1343
      vertex -14.9103 -24.7483 17.2848
      vertex -15.0263 -24.8228 16.9198
    endloop
  endfacet
  facet normal -0.373564 0.19083 -0.907763
    outer loop
      vertex -14.831 -24.219 17.8319
      vertex -31.6407 -27.979 23.959
      vertex -14.8768 -23.8668 17.9248
    endloop
  endfacet
  facet normal -0.373564 0.190828 -0.907764
    outer loop
      vertex -31.6407 -27.979 23.959
      vertex -14.831 -24.219 17.8319
      vertex -31.6526 -28.024 23.9544
    endloop
  endfacet
  facet normal -0.124895 0.959353 0.253067
    outer loop
      vertex -15.0263 -24.8228 16.9198
      vertex -32.2152 -28.6035 22.7688
      vertex -32.1006 -28.685 23.1343
    endloop
  endfacet
  facet normal -0.124894 0.959353 0.253069
    outer loop
      vertex -32.2152 -28.6035 22.7688
      vertex -15.0263 -24.8228 16.9198
      vertex -15.1721 -24.7483 16.5656
    endloop
  endfacet
  facet normal 0.297336 0.190816 0.935511
    outer loop
      vertex -32.2352 -27.6617 22.1285
      vertex -15.4629 -24.219 16.0955
      vertex -15.4689 -24.1968 16.0929
    endloop
  endfacet
  facet normal 0.297333 0.190828 0.935509
    outer loop
      vertex -15.4629 -24.219 16.0955
      vertex -32.2352 -27.6617 22.1285
      vertex -32.2846 -28.024 22.2181
    endloop
  endfacet
  facet normal 0.297333 0.190828 0.93551
    outer loop
      vertex -32.2288 -27.6142 22.1168
      vertex -15.4689 -24.1968 16.0929
      vertex -15.5637 -23.8446 16.0512
    endloop
  endfacet
  facet normal 0.297329 0.190843 0.935508
    outer loop
      vertex -15.4689 -24.1968 16.0929
      vertex -32.2288 -27.6142 22.1168
      vertex -32.2352 -27.6617 22.1285
    endloop
  endfacet
  facet normal -0.297333 -0.190827 -0.93551
    outer loop
      vertex -14.8797 -23.8446 17.9306
      vertex -31.4958 -27.2551 23.9074
      vertex -14.8856 -23.8225 17.928
    endloop
  endfacet
  facet normal -0.297332 -0.190829 -0.935509
    outer loop
      vertex -31.4958 -27.2551 23.9074
      vertex -14.8797 -23.8446 17.9306
      vertex -31.5447 -27.6142 23.9962
    endloop
  endfacet
  facet normal -0.027569 -0.813301 -0.58119
    outer loop
      vertex -31.5583 -26.625 23.3442
      vertex -15.118 -23.153 17.7057
      vertex -31.4937 -26.8571 23.6659
    endloop
  endfacet
  facet normal -0.0275694 -0.8133 -0.581191
    outer loop
      vertex -15.118 -23.153 17.7057
      vertex -31.5583 -26.625 23.3442
      vertex -15.2713 -22.941 17.4162
    endloop
  endfacet
  facet normal 0.124893 -0.959352 -0.253072
    outer loop
      vertex -31.6729 -26.5435 22.9786
      vertex -15.2713 -22.941 17.4162
      vertex -31.5583 -26.625 23.3442
    endloop
  endfacet
  facet normal 0.124894 -0.959353 -0.253068
    outer loop
      vertex -15.2713 -22.941 17.4162
      vertex -31.6729 -26.5435 22.9786
      vertex -15.4171 -22.8665 17.062
    endloop
  endfacet
  facet normal -0.392923 0.543426 -0.741822
    outer loop
      vertex -14.8417 -24.5363 17.6051
      vertex -31.6526 -28.024 23.9544
      vertex -14.831 -24.219 17.8319
    endloop
  endfacet
  facet normal -0.392923 0.543427 -0.741821
    outer loop
      vertex -31.6526 -28.024 23.9544
      vertex -14.8417 -24.5363 17.6051
      vertex -31.7961 -28.3714 23.776
    endloop
  endfacet
  facet normal 0.0275689 0.813301 0.58119
    outer loop
      vertex -15.1721 -24.7483 16.5656
      vertex -32.2798 -28.3714 22.4471
      vertex -32.2152 -28.6035 22.7688
    endloop
  endfacet
  facet normal 0.0275679 0.813302 0.581188
    outer loop
      vertex -32.2798 -28.3714 22.4471
      vertex -15.1721 -24.7483 16.5656
      vertex -15.3254 -24.5363 16.2762
    endloop
  endfacet
  facet normal -0.297332 -0.190832 -0.935509
    outer loop
      vertex -14.8856 -23.8225 17.928
      vertex -31.4889 -27.2045 23.8949
      vertex -14.9805 -23.4703 17.8863
    endloop
  endfacet
  facet normal -0.297332 -0.190832 -0.935509
    outer loop
      vertex -31.4889 -27.2045 23.8949
      vertex -14.8856 -23.8225 17.928
      vertex -31.4958 -27.2551 23.9074
    endloop
  endfacet
  facet normal -0.352462 0.813303 -0.462935
    outer loop
      vertex -14.9103 -24.7483 17.2848
      vertex -31.7961 -28.3714 23.776
      vertex -14.8417 -24.5363 17.6051
    endloop
  endfacet
  facet normal -0.352463 0.8133 -0.462939
    outer loop
      vertex -31.7961 -28.3714 23.776
      vertex -14.9103 -24.7483 17.2848
      vertex -31.9534 -28.6035 23.488
    endloop
  endfacet
  facet normal 0.373561 -0.190807 0.907769
    outer loop
      vertex -32.7625 -30.4166 22.3921
      vertex -15.0235 -26.4269 15.9308
      vertex -15.0263 -26.4048 15.9366
    endloop
  endfacet
  facet normal 0.373563 -0.190825 0.907764
    outer loop
      vertex -15.0235 -26.4269 15.9308
      vertex -32.7625 -30.4166 22.3921
      vertex -32.8643 -30.8032 22.3527
    endloop
  endfacet
  facet normal 0.373564 -0.190828 0.907764
    outer loop
      vertex -32.8643 -30.8032 22.3527
      vertex -14.9776 -26.7791 15.8379
      vertex -15.0235 -26.4269 15.9308
    endloop
  endfacet
  facet normal 0.373568 -0.190857 0.907756
    outer loop
      vertex -14.9776 -26.7791 15.8379
      vertex -32.8643 -30.8032 22.3527
      vertex -32.8703 -30.8264 22.3503
    endloop
  endfacet
  facet normal 0.258345 -0.959352 0.113586
    outer loop
      vertex -32.4616 -29.8372 22.8585
      vertex -14.831 -25.8009 16.8487
      vertex -32.3145 -29.7557 23.2122
    endloop
  endfacet
  facet normal 0.258344 -0.959353 0.113582
    outer loop
      vertex -14.831 -25.8009 16.8487
      vertex -32.4616 -29.8372 22.8585
      vertex -14.947 -25.8754 16.4837
    endloop
  endfacet
  facet normal -0.373561 0.190807 -0.907769
    outer loop
      vertex -14.2907 -26.8012 17.7114
      vertex -32.1863 -30.8264 24.2297
      vertex -14.2936 -26.7791 17.7173
    endloop
  endfacet
  facet normal -0.373564 0.190828 -0.907764
    outer loop
      vertex -32.1863 -30.8264 24.2297
      vertex -14.2907 -26.8012 17.7114
      vertex -32.2889 -31.2162 24.19
    endloop
  endfacet
  facet normal 0.392923 -0.543426 0.741822
    outer loop
      vertex -32.6189 -30.0693 22.5705
      vertex -15.0263 -26.4048 15.9366
      vertex -15.0156 -26.0874 16.1634
    endloop
  endfacet
  facet normal 0.392923 -0.54343 0.741819
    outer loop
      vertex -15.0263 -26.4048 15.9366
      vertex -32.6189 -30.0693 22.5705
      vertex -32.7625 -30.4166 22.3921
    endloop
  endfacet
  facet normal 0.352463 -0.813302 0.462937
    outer loop
      vertex -15.0156 -26.0874 16.1634
      vertex -32.4616 -29.8372 22.8585
      vertex -32.6189 -30.0693 22.5705
    endloop
  endfacet
  facet normal 0.352462 -0.813303 0.462935
    outer loop
      vertex -32.4616 -29.8372 22.8585
      vertex -15.0156 -26.0874 16.1634
      vertex -14.947 -25.8754 16.4837
    endloop
  endfacet
  facet normal 0.175835 0.543431 0.820831
    outer loop
      vertex -14.8768 -27.1534 15.8822
      vertex -32.8467 -31.5666 22.6534
      vertex -14.7393 -27.4707 16.0628
    endloop
  endfacet
  facet normal 0.175837 0.543428 0.820834
    outer loop
      vertex -32.9262 -31.2361 22.4516
      vertex -32.8467 -31.5666 22.6534
      vertex -14.8768 -27.1534 15.8822
    endloop
  endfacet
  facet normal 0.175868 0.54343 0.820825
    outer loop
      vertex -32.8467 -31.5666 22.6534
      vertex -32.9262 -31.2361 22.4516
      vertex -32.9241 -31.3881 22.5518
    endloop
  endfacet
  facet normal -0.175836 -0.543429 -0.820833
    outer loop
      vertex -32.1353 -30.0693 23.8994
      vertex -14.3944 -26.4048 17.673
      vertex -32.1305 -30.4166 24.1284
    endloop
  endfacet
  facet normal -0.175837 -0.543428 -0.820833
    outer loop
      vertex -14.3944 -26.4048 17.673
      vertex -32.1353 -30.0693 23.8994
      vertex -14.5319 -26.0874 17.4923
    endloop
  endfacet
  facet normal -0.258344 0.959353 -0.113582
    outer loop
      vertex -14.3242 -27.6828 17.0715
      vertex -32.5476 -31.8531 23.297
      vertex -32.4316 -31.7786 23.662
    endloop
  endfacet
  facet normal -0.258344 0.959353 -0.113582
    outer loop
      vertex -32.5476 -31.8531 23.297
      vertex -14.3242 -27.6828 17.0715
      vertex -14.4402 -27.7572 16.7065
    endloop
  endfacet
  facet normal -0.373563 0.190826 -0.907764
    outer loop
      vertex -14.2448 -27.1534 17.6185
      vertex -32.2889 -31.2162 24.19
      vertex -14.2907 -26.8012 17.7114
    endloop
  endfacet
  facet normal -0.373562 0.190812 -0.907768
    outer loop
      vertex -32.2889 -31.2162 24.19
      vertex -14.2448 -27.1534 17.6185
      vertex -32.2942 -31.2361 24.188
    endloop
  endfacet
  facet normal -0.124893 0.959352 0.253071
    outer loop
      vertex -14.5591 -27.6965 16.4176
      vertex -32.5476 -31.8531 23.297
      vertex -14.4402 -27.7572 16.7065
    endloop
  endfacet
  facet normal -0.124896 0.959354 0.253064
    outer loop
      vertex -14.586 -27.6828 16.3523
      vertex -32.5476 -31.8531 23.297
      vertex -14.5591 -27.6965 16.4176
    endloop
  endfacet
  facet normal -0.124894 0.959352 0.25307
    outer loop
      vertex -32.5476 -31.8531 23.297
      vertex -14.586 -27.6828 16.3523
      vertex -32.6934 -31.7786 22.9428
    endloop
  endfacet
  facet normal 0.297333 0.190827 0.93551
    outer loop
      vertex -32.8735 -30.8492 22.3559
      vertex -14.8768 -27.1534 15.8822
      vertex -14.8828 -27.1313 15.8796
    endloop
  endfacet
  facet normal 0.297333 0.190829 0.935509
    outer loop
      vertex -14.8768 -27.1534 15.8822
      vertex -32.8735 -30.8492 22.3559
      vertex -32.9262 -31.2361 22.4516
    endloop
  endfacet
  facet normal 0.297332 0.190829 0.935509
    outer loop
      vertex -32.8703 -30.8264 22.3503
      vertex -14.8954 -27.0843 15.874
      vertex -14.9776 -26.7791 15.8379
    endloop
  endfacet
  facet normal 0.297336 0.190816 0.935511
    outer loop
      vertex -32.8703 -30.8264 22.3503
      vertex -14.8828 -27.1313 15.8796
      vertex -14.8954 -27.0843 15.874
    endloop
  endfacet
  facet normal 0.297326 0.190857 0.935506
    outer loop
      vertex -14.8828 -27.1313 15.8796
      vertex -32.8703 -30.8264 22.3503
      vertex -32.8735 -30.8492 22.3559
    endloop
  endfacet
  facet normal -0.297329 -0.190843 -0.935508
    outer loop
      vertex -14.2936 -26.7791 17.7173
      vertex -32.134 -30.4426 24.1348
      vertex -14.2995 -26.757 17.7147
    endloop
  endfacet
  facet normal -0.297333 -0.190828 -0.935509
    outer loop
      vertex -32.134 -30.4426 24.1348
      vertex -14.2936 -26.7791 17.7173
      vertex -32.1863 -30.8264 24.2297
    endloop
  endfacet
  facet normal -0.027569 -0.8133 -0.58119
    outer loop
      vertex -32.1999 -29.8372 23.5777
      vertex -14.5319 -26.0874 17.4923
      vertex -32.1353 -30.0693 23.8994
    endloop
  endfacet
  facet normal -0.0275679 -0.813302 -0.581188
    outer loop
      vertex -14.5319 -26.0874 17.4923
      vertex -32.1999 -29.8372 23.5777
      vertex -14.6852 -25.8754 17.2029
    endloop
  endfacet
  facet normal 0.124893 -0.959352 -0.253073
    outer loop
      vertex -32.3145 -29.7557 23.2122
      vertex -14.6852 -25.8754 17.2029
      vertex -32.1999 -29.8372 23.5777
    endloop
  endfacet
  facet normal 0.124894 -0.959353 -0.253069
    outer loop
      vertex -14.6852 -25.8754 17.2029
      vertex -32.3145 -29.7557 23.2122
      vertex -14.831 -25.8009 16.8487
    endloop
  endfacet
  facet normal -0.392923 0.543431 -0.741818
    outer loop
      vertex -14.2556 -27.4707 17.3918
      vertex -32.2942 -31.2361 24.188
      vertex -14.2448 -27.1534 17.6185
    endloop
  endfacet
  facet normal -0.392923 0.543427 -0.741821
    outer loop
      vertex -32.363 -31.5666 23.9823
      vertex -32.2942 -31.2361 24.188
      vertex -14.2556 -27.4707 17.3918
    endloop
  endfacet
  facet normal -0.392906 0.543428 -0.741829
    outer loop
      vertex -32.2942 -31.2361 24.188
      vertex -32.363 -31.5666 23.9823
      vertex -32.3569 -31.3881 24.1099
    endloop
  endfacet
  facet normal 0.0275695 0.8133 0.581191
    outer loop
      vertex -14.7393 -27.4707 16.0628
      vertex -32.6934 -31.7786 22.9428
      vertex -14.586 -27.6828 16.3523
    endloop
  endfacet
  facet normal 0.0275679 0.813302 0.581188
    outer loop
      vertex -32.6934 -31.7786 22.9428
      vertex -14.7393 -27.4707 16.0628
      vertex -32.8467 -31.5666 22.6534
    endloop
  endfacet
  facet normal -0.297333 -0.190827 -0.93551
    outer loop
      vertex -14.2995 -26.757 17.7147
      vertex -32.1305 -30.4166 24.1284
      vertex -14.3944 -26.4048 17.673
    endloop
  endfacet
  facet normal -0.297326 -0.190855 -0.935506
    outer loop
      vertex -32.1305 -30.4166 24.1284
      vertex -14.2995 -26.757 17.7147
      vertex -32.134 -30.4426 24.1348
    endloop
  endfacet
  facet normal -0.352462 0.813302 -0.462936
    outer loop
      vertex -14.2556 -27.4707 17.3918
      vertex -32.4316 -31.7786 23.662
      vertex -32.363 -31.5666 23.9823
    endloop
  endfacet
  facet normal -0.352463 0.8133 -0.46294
    outer loop
      vertex -32.4316 -31.7786 23.662
      vertex -14.2556 -27.4707 17.3918
      vertex -14.3242 -27.6828 17.0715
    endloop
  endfacet
  facet normal 0.34202 -6.34265e-009 0.939693
    outer loop
      vertex 25.7836 -22.2079 -20.2815
      vertex -29.2008 22.2079 -0.268832
      vertex -10.4255 -71.7921 -7.1025
    endloop
  endfacet
  facet normal 0.34202 -1.94519e-009 0.939693
    outer loop
      vertex -31.0392 22.2079 0.40026
      vertex -29.2008 22.2079 -0.268832
      vertex 7.00824 71.7921 -13.4479
    endloop
  endfacet
  facet normal 0.34202 -1.60249e-006 0.939693
    outer loop
      vertex -29.2008 22.2079 -0.268832
      vertex -31.0392 22.2079 0.40026
      vertex -30.12 22 0.0657141
    endloop
  endfacet
  facet normal 0.34202 -0 0.939693
    outer loop
      vertex -92 -72 22.5882
      vertex -31.0392 22.2079 0.40026
      vertex -92 72 22.5882
    endloop
  endfacet
  facet normal 0.34202 1.09437e-009 0.939693
    outer loop
      vertex 7.00824 71.7921 -13.4479
      vertex -92 72 22.5882
      vertex -31.0392 22.2079 0.40026
    endloop
  endfacet
  facet normal 0.34202 1.35119e-007 0.939693
    outer loop
      vertex -92 72 22.5882
      vertex 7.00824 71.7921 -13.4479
      vertex 7.9274 72 -13.7824
    endloop
  endfacet
  facet normal 0.34202 0 0.939693
    outer loop
      vertex 36 72 -24
      vertex 27.6219 -21.7921 -20.9506
      vertex 36 -72 -24
    endloop
  endfacet
  facet normal 0.34202 9.47422e-009 0.939693
    outer loop
      vertex 27.6219 -21.7921 -20.9506
      vertex 36 72 -24
      vertex 8.88808 72 -14.1321
    endloop
  endfacet
  facet normal 0.34202 -2.52641e-008 0.939693
    outer loop
      vertex 25.7836 -22.2079 -20.2815
      vertex 36 -72 -24
      vertex 27.6219 -21.7921 -20.9506
    endloop
  endfacet
  facet normal 0.34202 4.41911e-009 0.939693
    outer loop
      vertex -29.2008 22.2079 -0.268832
      vertex 25.7836 -22.2079 -20.2815
      vertex 7.00824 71.7921 -13.4479
    endloop
  endfacet
  facet normal 0.34202 -1.50571e-008 0.939693
    outer loop
      vertex -10.4255 -71.7921 -7.1025
      vertex 36 -72 -24
      vertex 25.7836 -22.2079 -20.2815
    endloop
  endfacet
  facet normal 0.34202 9.0915e-007 0.939693
    outer loop
      vertex 36 -72 -24
      vertex -10.4255 -71.7921 -7.1025
      vertex -11.3447 -72 -6.76796
    endloop
  endfacet
  facet normal 0.34202 -2.505e-006 0.939693
    outer loop
      vertex -49.8145 -71.7921 7.23393
      vertex -92 -72 22.5882
      vertex -48.8954 -72 6.89938
    endloop
  endfacet
  facet normal 0.34202 9.70506e-009 0.939693
    outer loop
      vertex -31.0392 22.2079 0.40026
      vertex -92 -72 22.5882
      vertex -49.8145 -71.7921 7.23393
    endloop
  endfacet
  facet normal 0.34202 -2.35494e-010 0.939693
    outer loop
      vertex -30.12 17.1903 0.0657141
      vertex -47.9347 -72 6.54972
      vertex -12.3053 -72 -6.4183
    endloop
  endfacet
  facet normal -0.34202 0 -0.939693
    outer loop
      vertex -90 -72 19.7319
      vertex 34 72 -25.4004
      vertex 34 -72 -25.4004
    endloop
  endfacet
  facet normal -0.34202 0 -0.939693
    outer loop
      vertex 34 72 -25.4004
      vertex -90 -72 19.7319
      vertex -90 72 19.7319
    endloop
  endfacet
  facet normal -0.919158 0.207912 0.334546
    outer loop
      vertex -31.0392 22.2079 0.40026
      vertex -34.6363 -26.1957 20.5987
      vertex -16.3323 22.2079 40.807
    endloop
  endfacet
  facet normal -0.919158 0.207912 0.334546
    outer loop
      vertex -49.8145 -71.7921 7.23393
      vertex -34.6363 -26.1957 20.5987
      vertex -31.0392 22.2079 0.40026
    endloop
  endfacet
  facet normal -0.919158 0.207912 0.334546
    outer loop
      vertex -34.7128 -26.5783 20.6265
      vertex -49.8145 -71.7921 7.23393
      vertex -32.4896 -26.5783 26.7345
    endloop
  endfacet
  facet normal -0.919153 0.207904 0.334565
    outer loop
      vertex -34.6363 -26.1957 20.5987
      vertex -49.8145 -71.7921 7.23393
      vertex -34.7128 -26.5783 20.6265
    endloop
  endfacet
  facet normal -0.919158 0.207912 0.334546
    outer loop
      vertex -32.4132 -26.1957 26.7067
      vertex -16.3323 22.2079 40.807
      vertex -34.6363 -26.1957 20.5987
    endloop
  endfacet
  facet normal -0.919159 0.207913 0.334543
    outer loop
      vertex -32.4896 -26.5783 26.7345
      vertex -16.3323 22.2079 40.807
      vertex -32.4132 -26.1957 26.7067
    endloop
  endfacet
  facet normal -0.919158 0.207912 0.334546
    outer loop
      vertex -32.4896 -26.5783 26.7345
      vertex -35.1077 -71.7921 47.6407
      vertex -16.3323 22.2079 40.807
    endloop
  endfacet
  facet normal -0.919158 0.207912 0.334546
    outer loop
      vertex -35.1077 -71.7921 47.6407
      vertex -32.4896 -26.5783 26.7345
      vertex -49.8145 -71.7921 7.23393
    endloop
  endfacet
  facet normal 0.919158 -0.207912 -0.334546
    outer loop
      vertex -32.624 -25.7405 19.8663
      vertex -15.4131 17.1903 40.4725
      vertex -30.4009 -25.7405 25.9743
    endloop
  endfacet
  facet normal 0.919158 -0.207912 -0.334546
    outer loop
      vertex -15.4131 17.1903 40.4725
      vertex -31.5289 -31.3881 26.3848
      vertex -30.4009 -25.7405 25.9743
    endloop
  endfacet
  facet normal 0.919158 -0.207912 -0.334546
    outer loop
      vertex -47.9347 -72 6.54972
      vertex -32.3569 -31.3881 24.1099
      vertex -31.5289 -31.3881 26.3848
    endloop
  endfacet
  facet normal 0.919158 -0.207911 -0.334547
    outer loop
      vertex -32.3569 -31.3881 24.1099
      vertex -47.9347 -72 6.54972
      vertex -32.9241 -31.3881 22.5518
    endloop
  endfacet
  facet normal 0.919158 -0.207912 -0.334546
    outer loop
      vertex -47.9347 -72 6.54972
      vertex -31.5289 -31.3881 26.3848
      vertex -33.2278 -72 46.9565
    endloop
  endfacet
  facet normal 0.919158 -0.207912 -0.334546
    outer loop
      vertex -33.2278 -72 46.9565
      vertex -31.5289 -31.3881 26.3848
      vertex -15.4131 17.1903 40.4725
    endloop
  endfacet
  facet normal 0.919158 -0.207912 -0.334546
    outer loop
      vertex -15.4131 17.1903 40.4725
      vertex -32.624 -25.7405 19.8663
      vertex -30.12 17.1903 0.0657141
    endloop
  endfacet
  facet normal 0.919158 -0.207911 -0.334547
    outer loop
      vertex -47.9347 -72 6.54972
      vertex -32.624 -25.7405 19.8663
      vertex -33.7521 -31.3881 20.2768
    endloop
  endfacet
  facet normal 0.919158 -0.207912 -0.334546
    outer loop
      vertex -32.624 -25.7405 19.8663
      vertex -47.9347 -72 6.54972
      vertex -30.12 17.1903 0.0657141
    endloop
  endfacet
  facet normal 0.919158 -0.207912 -0.334545
    outer loop
      vertex -32.9241 -31.3881 22.5518
      vertex -47.9347 -72 6.54972
      vertex -33.7521 -31.3881 20.2768
    endloop
  endfacet
  facet normal 0.919162 -0.20789 -0.33455
    outer loop
      vertex -32.1999 -29.8372 23.5777
      vertex -32.4616 -29.8372 22.8585
      vertex -32.3145 -29.7557 23.2122
    endloop
  endfacet
  facet normal 0.919157 -0.207917 -0.334545
    outer loop
      vertex -32.7625 -30.4166 22.3921
      vertex -32.1999 -29.8372 23.5777
      vertex -32.1353 -30.0693 23.8994
    endloop
  endfacet
  facet normal 0.919159 -0.207903 -0.334549
    outer loop
      vertex -32.1999 -29.8372 23.5777
      vertex -32.6189 -30.0693 22.5705
      vertex -32.4616 -29.8372 22.8585
    endloop
  endfacet
  facet normal 0.919219 -0.207836 -0.334425
    outer loop
      vertex -32.134 -30.4426 24.1348
      vertex -32.1353 -30.0693 23.8994
      vertex -32.1305 -30.4166 24.1284
    endloop
  endfacet
  facet normal 0.919157 -0.207917 -0.334545
    outer loop
      vertex -32.1999 -29.8372 23.5777
      vertex -32.7625 -30.4166 22.3921
      vertex -32.6189 -30.0693 22.5705
    endloop
  endfacet
  facet normal 0.919158 -0.207912 -0.334546
    outer loop
      vertex -32.8643 -30.8032 22.3527
      vertex -32.1353 -30.0693 23.8994
      vertex -32.134 -30.4426 24.1348
    endloop
  endfacet
  facet normal 0.919158 -0.20791 -0.334547
    outer loop
      vertex -32.1353 -30.0693 23.8994
      vertex -32.8643 -30.8032 22.3527
      vertex -32.7625 -30.4166 22.3921
    endloop
  endfacet
  facet normal 0.919158 -0.207912 -0.334546
    outer loop
      vertex -32.9241 -31.3881 22.5518
      vertex -32.134 -30.4426 24.1348
      vertex -32.1863 -30.8264 24.2297
    endloop
  endfacet
  facet normal 0.919158 -0.207915 -0.334545
    outer loop
      vertex -32.134 -30.4426 24.1348
      vertex -32.8735 -30.8492 22.3559
      vertex -32.8643 -30.8032 22.3527
    endloop
  endfacet
  facet normal 0.919171 -0.207916 -0.334507
    outer loop
      vertex -32.8643 -30.8032 22.3527
      vertex -32.8735 -30.8492 22.3559
      vertex -32.8703 -30.8264 22.3503
    endloop
  endfacet
  facet normal 0.919166 -0.207917 -0.334521
    outer loop
      vertex -32.3569 -31.3881 24.1099
      vertex -32.1863 -30.8264 24.2297
      vertex -32.2889 -31.2162 24.19
    endloop
  endfacet
  facet normal 0.919128 -0.207829 -0.33468
    outer loop
      vertex -32.3569 -31.3881 24.1099
      vertex -32.2889 -31.2162 24.19
      vertex -32.2942 -31.2361 24.188
    endloop
  endfacet
  facet normal 0.919158 -0.207913 -0.334546
    outer loop
      vertex -32.134 -30.4426 24.1348
      vertex -32.9241 -31.3881 22.5518
      vertex -32.8735 -30.8492 22.3559
    endloop
  endfacet
  facet normal 0.919158 -0.207909 -0.334547
    outer loop
      vertex -32.1863 -30.8264 24.2297
      vertex -32.3569 -31.3881 24.1099
      vertex -32.9241 -31.3881 22.5518
    endloop
  endfacet
  facet normal 0.919175 -0.2079 -0.334506
    outer loop
      vertex -32.8735 -30.8492 22.3559
      vertex -32.9241 -31.3881 22.5518
      vertex -32.9262 -31.2361 22.4516
    endloop
  endfacet
  facet normal 0.919157 -0.207911 -0.334548
    outer loop
      vertex -31.5583 -26.625 23.3442
      vertex -31.82 -26.625 22.625
      vertex -31.6729 -26.5435 22.9786
    endloop
  endfacet
  facet normal 0.919157 -0.207913 -0.334547
    outer loop
      vertex -32.1209 -27.2045 22.1585
      vertex -31.5583 -26.625 23.3442
      vertex -31.4937 -26.8571 23.6659
    endloop
  endfacet
  facet normal 0.919159 -0.207903 -0.334549
    outer loop
      vertex -31.5583 -26.625 23.3442
      vertex -31.9774 -26.8571 22.337
      vertex -31.82 -26.625 22.625
    endloop
  endfacet
  facet normal 0.919182 -0.207884 -0.334497
    outer loop
      vertex -31.4958 -27.2551 23.9074
      vertex -31.4937 -26.8571 23.6659
      vertex -31.4889 -27.2045 23.8949
    endloop
  endfacet
  facet normal 0.919157 -0.207917 -0.334545
    outer loop
      vertex -31.5583 -26.625 23.3442
      vertex -32.1209 -27.2045 22.1585
      vertex -31.9774 -26.8571 22.337
    endloop
  endfacet
  facet normal 0.919158 -0.207913 -0.334545
    outer loop
      vertex -32.2161 -27.566 22.1217
      vertex -31.4937 -26.8571 23.6659
      vertex -31.4958 -27.2551 23.9074
    endloop
  endfacet
  facet normal 0.919159 -0.207903 -0.33455
    outer loop
      vertex -31.4937 -26.8571 23.6659
      vertex -32.2161 -27.566 22.1217
      vertex -32.1209 -27.2045 22.1585
    endloop
  endfacet
  facet normal 0.919158 -0.20791 -0.334547
    outer loop
      vertex -32.2846 -28.024 22.2181
      vertex -31.4958 -27.2551 23.9074
      vertex -31.5447 -27.6142 23.9962
    endloop
  endfacet
  facet normal 0.919157 -0.207923 -0.334543
    outer loop
      vertex -31.4958 -27.2551 23.9074
      vertex -32.2352 -27.6617 22.1285
      vertex -32.2161 -27.566 22.1217
    endloop
  endfacet
  facet normal 0.919095 -0.207922 -0.334714
    outer loop
      vertex -32.2161 -27.566 22.1217
      vertex -32.2352 -27.6617 22.1285
      vertex -32.2288 -27.6142 22.1168
    endloop
  endfacet
  facet normal 0.919157 -0.207916 -0.334545
    outer loop
      vertex -32.2846 -28.024 22.2181
      vertex -31.5447 -27.6142 23.9962
      vertex -31.6407 -27.979 23.959
    endloop
  endfacet
  facet normal 0.919155 -0.207901 -0.334562
    outer loop
      vertex -31.7961 -28.3714 23.776
      vertex -31.6407 -27.979 23.959
      vertex -31.6526 -28.024 23.9544
    endloop
  endfacet
  facet normal 0.919158 -0.207911 -0.334546
    outer loop
      vertex -31.4958 -27.2551 23.9074
      vertex -32.2846 -28.024 22.2181
      vertex -32.2352 -27.6617 22.1285
    endloop
  endfacet
  facet normal 0.919159 -0.207911 -0.334545
    outer loop
      vertex -31.6407 -27.979 23.959
      vertex -31.7961 -28.3714 23.776
      vertex -32.2152 -28.6035 22.7688
    endloop
  endfacet
  facet normal 0.919158 -0.207915 -0.334545
    outer loop
      vertex -31.6407 -27.979 23.959
      vertex -32.2798 -28.3714 22.4471
      vertex -32.2846 -28.024 22.2181
    endloop
  endfacet
  facet normal 0.919159 -0.20791 -0.334546
    outer loop
      vertex -32.2152 -28.6035 22.7688
      vertex -31.7961 -28.3714 23.776
      vertex -31.9534 -28.6035 23.488
    endloop
  endfacet
  facet normal 0.919159 -0.207906 -0.334548
    outer loop
      vertex -31.6407 -27.979 23.959
      vertex -32.2152 -28.6035 22.7688
      vertex -32.2798 -28.3714 22.4471
    endloop
  endfacet
  facet normal 0.919156 -0.207922 -0.334545
    outer loop
      vertex -32.2152 -28.6035 22.7688
      vertex -31.9534 -28.6035 23.488
      vertex -32.1006 -28.685 23.1343
    endloop
  endfacet
  facet normal 0.195374 0.978147 -0.0711103
    outer loop
      vertex -15.4131 22 40.4725
      vertex -31.0392 22.2079 0.40026
      vertex -16.3323 22.2079 40.807
    endloop
  endfacet
  facet normal 0.195374 0.978147 -0.0711103
    outer loop
      vertex -31.0392 22.2079 0.40026
      vertex -15.4131 22 40.4725
      vertex -30.12 22 0.0657141
    endloop
  endfacet
  facet normal -0.195376 -0.978147 0.0711112
    outer loop
      vertex -49.8145 -71.7921 7.23393
      vertex -34.1885 -72 47.3062
      vertex -35.1077 -71.7921 47.6407
    endloop
  endfacet
  facet normal -0.195377 -0.978147 0.0711114
    outer loop
      vertex -34.1885 -72 47.3062
      vertex -49.8145 -71.7921 7.23393
      vertex -48.8954 -72 6.89938
    endloop
  endfacet
  facet normal 0.919158 0.207912 -0.334546
    outer loop
      vertex 42.3288 -21.7921 19.4562
      vertex 8.88808 72 -14.1321
      vertex 23.5949 72 26.2747
    endloop
  endfacet
  facet normal 0.919158 0.207912 -0.334546
    outer loop
      vertex 8.88808 72 -14.1321
      vertex 42.3288 -21.7921 19.4562
      vertex 27.6219 -21.7921 -20.9506
    endloop
  endfacet
  facet normal 0.34202 5.46549e-008 0.939693
    outer loop
      vertex 23.5949 72 26.2747
      vertex 40.4905 -22.2079 20.1252
      vertex 42.3288 -21.7921 19.4562
    endloop
  endfacet
  facet normal 0.342021 -3.06341e-006 0.939692
    outer loop
      vertex 21.7151 71.7921 26.9589
      vertex 23.5949 72 26.2747
      vertex 22.6343 72 26.6244
    endloop
  endfacet
  facet normal 0.34202 3.98782e-008 0.939693
    outer loop
      vertex 23.5949 72 26.2747
      vertex 21.7151 71.7921 26.9589
      vertex 40.4905 -22.2079 20.1252
    endloop
  endfacet
  facet normal -0.195377 0.978147 0.0711113
    outer loop
      vertex 22.6343 72 26.6244
      vertex 7.00824 71.7921 -13.4479
      vertex 21.7151 71.7921 26.9589
    endloop
  endfacet
  facet normal -0.195377 0.978147 0.0711113
    outer loop
      vertex 7.00824 71.7921 -13.4479
      vertex 22.6343 72 26.6244
      vertex 7.9274 72 -13.7824
    endloop
  endfacet
  facet normal -0.919158 -0.207912 0.334546
    outer loop
      vertex 40.4905 -22.2079 20.1252
      vertex 7.00824 71.7921 -13.4479
      vertex 25.7836 -22.2079 -20.2815
    endloop
  endfacet
  facet normal -0.919158 -0.207912 0.334546
    outer loop
      vertex 7.00824 71.7921 -13.4479
      vertex 40.4905 -22.2079 20.1252
      vertex 21.7151 71.7921 26.9589
    endloop
  endfacet
  facet normal 0.195374 -0.978147 -0.0711103
    outer loop
      vertex 25.7836 -22.2079 -20.2815
      vertex 42.3288 -21.7921 19.4562
      vertex 40.4905 -22.2079 20.1252
    endloop
  endfacet
  facet normal 0.195374 -0.978147 -0.0711102
    outer loop
      vertex 42.3288 -21.7921 19.4562
      vertex 25.7836 -22.2079 -20.2815
      vertex 27.6219 -21.7921 -20.9506
    endloop
  endfacet
  facet normal 1 -0 0
    outer loop
      vertex -90 -72 19.7319
      vertex -90 72 -77
      vertex -90 72 19.7319
    endloop
  endfacet
  facet normal 1 0 0
    outer loop
      vertex -90 72 -77
      vertex -90 -72 19.7319
      vertex -90 -72 -77
    endloop
  endfacet
  facet normal -1 0 0
    outer loop
      vertex 34 -72 -77
      vertex 34 72 -25.4004
      vertex 34 72 -77
    endloop
  endfacet
  facet normal -1 -0 0
    outer loop
      vertex 34 72 -25.4004
      vertex 34 -72 -77
      vertex 34 -72 -25.4004
    endloop
  endfacet
  facet normal 1 -0 0
    outer loop
      vertex 36 -72 -24
      vertex 36 72 -77
      vertex 36 72 -24
    endloop
  endfacet
  facet normal 1 0 0
    outer loop
      vertex 36 72 -77
      vertex 36 -72 -24
      vertex 36 -72 -77
    endloop
  endfacet
endsolid OpenSCAD_Model
