  0
SECTION
  2
BLOCKS
  0
ENDSEC
  0
SECTION
  2
ENTITIES
  0
LINE
  8
0
 10
127.5
 20
97.5
 11
-127.5
 21
97.5
  0
LINE
  8
0
 10
-127.5
 20
97.5
 11
-127.5
 21
-97.5
  0
LINE
  8
0
 10
-127.5
 20
-97.5
 11
127.5
 21
-97.5
  0
LINE
  8
0
 10
127.5
 20
-97.5
 11
127.5
 21
97.5
  0
LINE
  8
0
 10
-77.8316
 20
-4.16734
 11
-78.1506
 21
-4.0706
  0
LINE
  8
0
 10
-78.1506
 20
-4.0706
 11
-78.4445
 21
-3.91351
  0
LINE
  8
0
 10
-78.4445
 20
-3.91351
 11
-78.7021
 21
-3.70209
  0
LINE
  8
0
 10
-78.7021
 20
-3.70209
 11
-78.9135
 21
-3.44447
  0
LINE
  8
0
 10
-78.9135
 20
-3.44447
 11
-79.0706
 21
-3.15057
  0
LINE
  8
0
 10
-79.0706
 20
-3.15057
 11
-79.1673
 21
-2.83167
  0
LINE
  8
0
 10
-79.1673
 20
-2.83167
 11
-79.2
 21
-2.5
  0
LINE
  8
0
 10
-79.2
 20
-2.5
 11
-79.1673
 21
-2.16835
  0
LINE
  8
0
 10
-79.1673
 20
-2.16835
 11
-79.0706
 21
-1.84944
  0
LINE
  8
0
 10
-79.0706
 20
-1.84944
 11
-78.9135
 21
-1.55554
  0
LINE
  8
0
 10
-78.9135
 20
-1.55554
 11
-78.7021
 21
-1.29793
  0
LINE
  8
0
 10
-78.7021
 20
-1.29793
 11
-78.4445
 21
-1.0865
  0
LINE
  8
0
 10
-78.4445
 20
-1.0865
 11
-78.1506
 21
-0.929413
  0
LINE
  8
0
 10
-78.1506
 20
-0.929413
 11
-77.8316
 21
-0.832672
  0
LINE
  8
0
 10
-77.8316
 20
-0.832672
 11
-77.5
 21
-0.800003
  0
LINE
  8
0
 10
-77.5
 20
-0.800003
 11
-77.1684
 21
-0.832672
  0
LINE
  8
0
 10
-77.1684
 20
-0.832672
 11
-76.8494
 21
-0.929413
  0
LINE
  8
0
 10
-76.8494
 20
-0.929413
 11
-76.5555
 21
-1.0865
  0
LINE
  8
0
 10
-76.5555
 20
-1.0865
 11
-76.2979
 21
-1.29793
  0
LINE
  8
0
 10
-76.2979
 20
-1.29793
 11
-76.0865
 21
-1.55554
  0
LINE
  8
0
 10
-76.0865
 20
-1.55554
 11
-75.9294
 21
-1.84944
  0
LINE
  8
0
 10
-75.9294
 20
-1.84944
 11
-75.8327
 21
-2.16835
  0
LINE
  8
0
 10
-75.8327
 20
-2.16835
 11
-75.8
 21
-2.5
  0
LINE
  8
0
 10
-75.8
 20
-2.5
 11
-75.8327
 21
-2.83167
  0
LINE
  8
0
 10
-75.8327
 20
-2.83167
 11
-75.9294
 21
-3.15057
  0
LINE
  8
0
 10
-75.9294
 20
-3.15057
 11
-76.0865
 21
-3.44447
  0
LINE
  8
0
 10
-76.0865
 20
-3.44447
 11
-76.2979
 21
-3.70209
  0
LINE
  8
0
 10
-76.2979
 20
-3.70209
 11
-76.5555
 21
-3.91351
  0
LINE
  8
0
 10
-76.5555
 20
-3.91351
 11
-76.8494
 21
-4.0706
  0
LINE
  8
0
 10
-76.8494
 20
-4.0706
 11
-77.1684
 21
-4.16734
  0
LINE
  8
0
 10
-77.1684
 20
-4.16734
 11
-77.5
 21
-4.20001
  0
LINE
  8
0
 10
-77.5
 20
-4.20001
 11
-77.8316
 21
-4.16734
  0
LINE
  8
0
 10
-32.8317
 20
-49.1673
 11
-33.1506
 21
-49.0706
  0
LINE
  8
0
 10
-33.1506
 20
-49.0706
 11
-33.4445
 21
-48.9135
  0
LINE
  8
0
 10
-33.4445
 20
-48.9135
 11
-33.7021
 21
-48.7021
  0
LINE
  8
0
 10
-33.7021
 20
-48.7021
 11
-33.9135
 21
-48.4445
  0
LINE
  8
0
 10
-33.9135
 20
-48.4445
 11
-34.0706
 21
-48.1506
  0
LINE
  8
0
 10
-34.0706
 20
-48.1506
 11
-34.1673
 21
-47.8316
  0
LINE
  8
0
 10
-34.1673
 20
-47.8316
 11
-34.2
 21
-47.5
  0
LINE
  8
0
 10
-34.2
 20
-47.5
 11
-34.1673
 21
-47.1684
  0
LINE
  8
0
 10
-34.1673
 20
-47.1684
 11
-34.0706
 21
-46.8494
  0
LINE
  8
0
 10
-34.0706
 20
-46.8494
 11
-33.9135
 21
-46.5555
  0
LINE
  8
0
 10
-33.9135
 20
-46.5555
 11
-33.7021
 21
-46.2979
  0
LINE
  8
0
 10
-33.7021
 20
-46.2979
 11
-33.4445
 21
-46.0865
  0
LINE
  8
0
 10
-33.4445
 20
-46.0865
 11
-33.1506
 21
-45.9294
  0
LINE
  8
0
 10
-33.1506
 20
-45.9294
 11
-32.8317
 21
-45.8327
  0
LINE
  8
0
 10
-32.8317
 20
-45.8327
 11
-32.5
 21
-45.8
  0
LINE
  8
0
 10
-32.5
 20
-45.8
 11
-32.1684
 21
-45.8327
  0
LINE
  8
0
 10
-32.1684
 20
-45.8327
 11
-31.8494
 21
-45.9294
  0
LINE
  8
0
 10
-31.8494
 20
-45.9294
 11
-31.5555
 21
-46.0865
  0
LINE
  8
0
 10
-31.5555
 20
-46.0865
 11
-31.2979
 21
-46.2979
  0
LINE
  8
0
 10
-31.2979
 20
-46.2979
 11
-31.0865
 21
-46.5555
  0
LINE
  8
0
 10
-31.0865
 20
-46.5555
 11
-30.9294
 21
-46.8494
  0
LINE
  8
0
 10
-30.9294
 20
-46.8494
 11
-30.8327
 21
-47.1684
  0
LINE
  8
0
 10
-30.8327
 20
-47.1684
 11
-30.8
 21
-47.5
  0
LINE
  8
0
 10
-30.8
 20
-47.5
 11
-30.8327
 21
-47.8316
  0
LINE
  8
0
 10
-30.8327
 20
-47.8316
 11
-30.9294
 21
-48.1506
  0
LINE
  8
0
 10
-30.9294
 20
-48.1506
 11
-31.0865
 21
-48.4445
  0
LINE
  8
0
 10
-31.0865
 20
-48.4445
 11
-31.2979
 21
-48.7021
  0
LINE
  8
0
 10
-31.2979
 20
-48.7021
 11
-31.5555
 21
-48.9135
  0
LINE
  8
0
 10
-31.5555
 20
-48.9135
 11
-31.8494
 21
-49.0706
  0
LINE
  8
0
 10
-31.8494
 20
-49.0706
 11
-32.1684
 21
-49.1673
  0
LINE
  8
0
 10
-32.1684
 20
-49.1673
 11
-32.5
 21
-49.2
  0
LINE
  8
0
 10
-32.5
 20
-49.2
 11
-32.8317
 21
-49.1673
  0
LINE
  8
0
 10
-122.832
 20
-49.1673
 11
-123.151
 21
-49.0706
  0
LINE
  8
0
 10
-123.151
 20
-49.0706
 11
-123.444
 21
-48.9135
  0
LINE
  8
0
 10
-123.444
 20
-48.9135
 11
-123.702
 21
-48.7021
  0
LINE
  8
0
 10
-123.702
 20
-48.7021
 11
-123.913
 21
-48.4445
  0
LINE
  8
0
 10
-123.913
 20
-48.4445
 11
-124.071
 21
-48.1506
  0
LINE
  8
0
 10
-124.071
 20
-48.1506
 11
-124.167
 21
-47.8316
  0
LINE
  8
0
 10
-124.167
 20
-47.8316
 11
-124.2
 21
-47.5
  0
LINE
  8
0
 10
-124.2
 20
-47.5
 11
-124.167
 21
-47.1684
  0
LINE
  8
0
 10
-124.167
 20
-47.1684
 11
-124.071
 21
-46.8494
  0
LINE
  8
0
 10
-124.071
 20
-46.8494
 11
-123.913
 21
-46.5555
  0
LINE
  8
0
 10
-123.913
 20
-46.5555
 11
-123.702
 21
-46.2979
  0
LINE
  8
0
 10
-123.702
 20
-46.2979
 11
-123.444
 21
-46.0865
  0
LINE
  8
0
 10
-123.444
 20
-46.0865
 11
-123.151
 21
-45.9294
  0
LINE
  8
0
 10
-123.151
 20
-45.9294
 11
-122.832
 21
-45.8327
  0
LINE
  8
0
 10
-122.832
 20
-45.8327
 11
-122.5
 21
-45.8
  0
LINE
  8
0
 10
-122.5
 20
-45.8
 11
-122.168
 21
-45.8327
  0
LINE
  8
0
 10
-122.168
 20
-45.8327
 11
-121.849
 21
-45.9294
  0
LINE
  8
0
 10
-121.849
 20
-45.9294
 11
-121.556
 21
-46.0865
  0
LINE
  8
0
 10
-121.556
 20
-46.0865
 11
-121.298
 21
-46.2979
  0
LINE
  8
0
 10
-121.298
 20
-46.2979
 11
-121.086
 21
-46.5555
  0
LINE
  8
0
 10
-121.086
 20
-46.5555
 11
-120.929
 21
-46.8494
  0
LINE
  8
0
 10
-120.929
 20
-46.8494
 11
-120.833
 21
-47.1684
  0
LINE
  8
0
 10
-120.833
 20
-47.1684
 11
-120.8
 21
-47.5
  0
LINE
  8
0
 10
-120.8
 20
-47.5
 11
-120.833
 21
-47.8316
  0
LINE
  8
0
 10
-120.833
 20
-47.8316
 11
-120.929
 21
-48.1506
  0
LINE
  8
0
 10
-120.929
 20
-48.1506
 11
-121.086
 21
-48.4445
  0
LINE
  8
0
 10
-121.086
 20
-48.4445
 11
-121.298
 21
-48.7021
  0
LINE
  8
0
 10
-121.298
 20
-48.7021
 11
-121.556
 21
-48.9135
  0
LINE
  8
0
 10
-121.556
 20
-48.9135
 11
-121.849
 21
-49.0706
  0
LINE
  8
0
 10
-121.849
 20
-49.0706
 11
-122.168
 21
-49.1673
  0
LINE
  8
0
 10
-122.168
 20
-49.1673
 11
-122.5
 21
-49.2
  0
LINE
  8
0
 10
-122.5
 20
-49.2
 11
-122.832
 21
-49.1673
  0
LINE
  8
0
 10
23.6293
 20
-69.3635
 11
23.2729
 21
-69.2554
  0
LINE
  8
0
 10
23.2729
 20
-69.2554
 11
22.9444
 21
-69.0798
  0
LINE
  8
0
 10
22.9444
 20
-69.0798
 11
22.6565
 21
-68.8435
  0
LINE
  8
0
 10
22.6565
 20
-68.8435
 11
22.4202
 21
-68.5556
  0
LINE
  8
0
 10
22.4202
 20
-68.5556
 11
22.2446
 21
-68.2271
  0
LINE
  8
0
 10
22.2446
 20
-68.2271
 11
22.1365
 21
-67.8707
  0
LINE
  8
0
 10
22.1365
 20
-67.8707
 11
22.1
 21
-67.5
  0
LINE
  8
0
 10
22.1
 20
-67.5
 11
22.1365
 21
-67.1293
  0
LINE
  8
0
 10
22.1365
 20
-67.1293
 11
22.2446
 21
-66.7729
  0
LINE
  8
0
 10
22.2446
 20
-66.7729
 11
22.4202
 21
-66.4444
  0
LINE
  8
0
 10
22.4202
 20
-66.4444
 11
22.6565
 21
-66.1565
  0
LINE
  8
0
 10
22.6565
 20
-66.1565
 11
22.9444
 21
-65.9202
  0
LINE
  8
0
 10
22.9444
 20
-65.9202
 11
23.2729
 21
-65.7446
  0
LINE
  8
0
 10
23.2729
 20
-65.7446
 11
23.6293
 21
-65.6365
  0
LINE
  8
0
 10
23.6293
 20
-65.6365
 11
24
 21
-65.6
  0
LINE
  8
0
 10
24
 20
-65.6
 11
24.3707
 21
-65.6365
  0
LINE
  8
0
 10
24.3707
 20
-65.6365
 11
24.7271
 21
-65.7446
  0
LINE
  8
0
 10
24.7271
 20
-65.7446
 11
25.0556
 21
-65.9202
  0
LINE
  8
0
 10
25.0556
 20
-65.9202
 11
25.3435
 21
-66.1565
  0
LINE
  8
0
 10
25.3435
 20
-66.1565
 11
25.5798
 21
-66.4444
  0
LINE
  8
0
 10
25.5798
 20
-66.4444
 11
25.7554
 21
-66.7729
  0
LINE
  8
0
 10
25.7554
 20
-66.7729
 11
25.8635
 21
-67.1293
  0
LINE
  8
0
 10
25.8635
 20
-67.1293
 11
25.9
 21
-67.5
  0
LINE
  8
0
 10
25.9
 20
-67.5
 11
25.8635
 21
-67.8707
  0
LINE
  8
0
 10
25.8635
 20
-67.8707
 11
25.7554
 21
-68.2271
  0
LINE
  8
0
 10
25.7554
 20
-68.2271
 11
25.5798
 21
-68.5556
  0
LINE
  8
0
 10
25.5798
 20
-68.5556
 11
25.3435
 21
-68.8435
  0
LINE
  8
0
 10
25.3435
 20
-68.8435
 11
25.0556
 21
-69.0798
  0
LINE
  8
0
 10
25.0556
 20
-69.0798
 11
24.7271
 21
-69.2554
  0
LINE
  8
0
 10
24.7271
 20
-69.2554
 11
24.3707
 21
-69.3635
  0
LINE
  8
0
 10
24.3707
 20
-69.3635
 11
24
 21
-69.4
  0
LINE
  8
0
 10
24
 20
-69.4
 11
23.6293
 21
-69.3635
  0
LINE
  8
0
 10
110.629
 20
-69.3635
 11
110.273
 21
-69.2554
  0
LINE
  8
0
 10
110.273
 20
-69.2554
 11
109.944
 21
-69.0798
  0
LINE
  8
0
 10
109.944
 20
-69.0798
 11
109.656
 21
-68.8435
  0
LINE
  8
0
 10
109.656
 20
-68.8435
 11
109.42
 21
-68.5556
  0
LINE
  8
0
 10
109.42
 20
-68.5556
 11
109.245
 21
-68.2271
  0
LINE
  8
0
 10
109.245
 20
-68.2271
 11
109.137
 21
-67.8707
  0
LINE
  8
0
 10
109.137
 20
-67.8707
 11
109.1
 21
-67.5
  0
LINE
  8
0
 10
109.1
 20
-67.5
 11
109.137
 21
-67.1293
  0
LINE
  8
0
 10
109.137
 20
-67.1293
 11
109.245
 21
-66.7729
  0
LINE
  8
0
 10
109.245
 20
-66.7729
 11
109.42
 21
-66.4444
  0
LINE
  8
0
 10
109.42
 20
-66.4444
 11
109.656
 21
-66.1565
  0
LINE
  8
0
 10
109.656
 20
-66.1565
 11
109.944
 21
-65.9202
  0
LINE
  8
0
 10
109.944
 20
-65.9202
 11
110.273
 21
-65.7446
  0
LINE
  8
0
 10
110.273
 20
-65.7446
 11
110.629
 21
-65.6365
  0
LINE
  8
0
 10
110.629
 20
-65.6365
 11
111
 21
-65.6
  0
LINE
  8
0
 10
111
 20
-65.6
 11
111.371
 21
-65.6365
  0
LINE
  8
0
 10
111.371
 20
-65.6365
 11
111.727
 21
-65.7446
  0
LINE
  8
0
 10
111.727
 20
-65.7446
 11
112.056
 21
-65.9202
  0
LINE
  8
0
 10
112.056
 20
-65.9202
 11
112.343
 21
-66.1565
  0
LINE
  8
0
 10
112.343
 20
-66.1565
 11
112.58
 21
-66.4444
  0
LINE
  8
0
 10
112.58
 20
-66.4444
 11
112.755
 21
-66.7729
  0
LINE
  8
0
 10
112.755
 20
-66.7729
 11
112.863
 21
-67.1293
  0
LINE
  8
0
 10
112.863
 20
-67.1293
 11
112.9
 21
-67.5
  0
LINE
  8
0
 10
112.9
 20
-67.5
 11
112.863
 21
-67.8707
  0
LINE
  8
0
 10
112.863
 20
-67.8707
 11
112.755
 21
-68.2271
  0
LINE
  8
0
 10
112.755
 20
-68.2271
 11
112.58
 21
-68.5556
  0
LINE
  8
0
 10
112.58
 20
-68.5556
 11
112.343
 21
-68.8435
  0
LINE
  8
0
 10
112.343
 20
-68.8435
 11
112.056
 21
-69.0798
  0
LINE
  8
0
 10
112.056
 20
-69.0798
 11
111.727
 21
-69.2554
  0
LINE
  8
0
 10
111.727
 20
-69.2554
 11
111.371
 21
-69.3635
  0
LINE
  8
0
 10
111.371
 20
-69.3635
 11
111
 21
-69.4
  0
LINE
  8
0
 10
111
 20
-69.4
 11
110.629
 21
-69.3635
  0
LINE
  8
0
 10
-77.8316
 20
-94.1673
 11
-78.1506
 21
-94.0706
  0
LINE
  8
0
 10
-78.1506
 20
-94.0706
 11
-78.4445
 21
-93.9135
  0
LINE
  8
0
 10
-78.4445
 20
-93.9135
 11
-78.7021
 21
-93.7021
  0
LINE
  8
0
 10
-78.7021
 20
-93.7021
 11
-78.9135
 21
-93.4445
  0
LINE
  8
0
 10
-78.9135
 20
-93.4445
 11
-79.0706
 21
-93.1506
  0
LINE
  8
0
 10
-79.0706
 20
-93.1506
 11
-79.1673
 21
-92.8316
  0
LINE
  8
0
 10
-79.1673
 20
-92.8316
 11
-79.2
 21
-92.5
  0
LINE
  8
0
 10
-79.2
 20
-92.5
 11
-79.1673
 21
-92.1683
  0
LINE
  8
0
 10
-79.1673
 20
-92.1683
 11
-79.0706
 21
-91.8494
  0
LINE
  8
0
 10
-79.0706
 20
-91.8494
 11
-78.9135
 21
-91.5555
  0
LINE
  8
0
 10
-78.9135
 20
-91.5555
 11
-78.7021
 21
-91.2979
  0
LINE
  8
0
 10
-78.7021
 20
-91.2979
 11
-78.4445
 21
-91.0865
  0
LINE
  8
0
 10
-78.4445
 20
-91.0865
 11
-78.1506
 21
-90.9294
  0
LINE
  8
0
 10
-78.1506
 20
-90.9294
 11
-77.8316
 21
-90.8327
  0
LINE
  8
0
 10
-77.8316
 20
-90.8327
 11
-77.5
 21
-90.8
  0
LINE
  8
0
 10
-77.5
 20
-90.8
 11
-77.1684
 21
-90.8327
  0
LINE
  8
0
 10
-77.1684
 20
-90.8327
 11
-76.8494
 21
-90.9294
  0
LINE
  8
0
 10
-76.8494
 20
-90.9294
 11
-76.5555
 21
-91.0865
  0
LINE
  8
0
 10
-76.5555
 20
-91.0865
 11
-76.2979
 21
-91.2979
  0
LINE
  8
0
 10
-76.2979
 20
-91.2979
 11
-76.0865
 21
-91.5555
  0
LINE
  8
0
 10
-76.0865
 20
-91.5555
 11
-75.9294
 21
-91.8494
  0
LINE
  8
0
 10
-75.9294
 20
-91.8494
 11
-75.8327
 21
-92.1683
  0
LINE
  8
0
 10
-75.8327
 20
-92.1683
 11
-75.8
 21
-92.5
  0
LINE
  8
0
 10
-75.8
 20
-92.5
 11
-75.8327
 21
-92.8316
  0
LINE
  8
0
 10
-75.8327
 20
-92.8316
 11
-75.9294
 21
-93.1506
  0
LINE
  8
0
 10
-75.9294
 20
-93.1506
 11
-76.0865
 21
-93.4445
  0
LINE
  8
0
 10
-76.0865
 20
-93.4445
 11
-76.2979
 21
-93.7021
  0
LINE
  8
0
 10
-76.2979
 20
-93.7021
 11
-76.5555
 21
-93.9135
  0
LINE
  8
0
 10
-76.5555
 20
-93.9135
 11
-76.8494
 21
-94.0706
  0
LINE
  8
0
 10
-76.8494
 20
-94.0706
 11
-77.1684
 21
-94.1673
  0
LINE
  8
0
 10
-77.1684
 20
-94.1673
 11
-77.5
 21
-94.2
  0
LINE
  8
0
 10
-77.5
 20
-94.2
 11
-77.8316
 21
-94.1673
  0
ENDSEC
  0
SECTION
  2
OBJECTS
  0
DICTIONARY
  0
ENDSEC
  0
EOF
