  0
SECTION
  2
BLOCKS
  0
ENDSEC
  0
SECTION
  2
ENTITIES
  0
LINE
  8
0
 10
88.0118
 20
-40.9506
 11
90.0187
 21
-40.8026
  0
LINE
  8
0
 10
90.0187
 20
-40.8026
 11
92.0159
 21
-40.5562
  0
LINE
  8
0
 10
92.0159
 20
-40.5562
 11
93.9987
 21
-40.2122
  0
LINE
  8
0
 10
93.9987
 20
-40.2122
 11
95.9622
 21
-39.7713
  0
LINE
  8
0
 10
95.9622
 20
-39.7713
 11
97.9017
 21
-39.2345
  0
LINE
  8
0
 10
97.9017
 20
-39.2345
 11
99.8125
 21
-38.6033
  0
LINE
  8
0
 10
99.8125
 20
-38.6033
 11
101.69
 21
-37.8791
  0
LINE
  8
0
 10
101.69
 20
-37.8791
 11
103.53
 21
-37.0636
  0
LINE
  8
0
 10
103.53
 20
-37.0636
 11
105.327
 21
-36.1588
  0
LINE
  8
0
 10
105.327
 20
-36.1588
 11
107.078
 21
-35.1669
  0
LINE
  8
0
 10
107.078
 20
-35.1669
 11
108.778
 21
-34.0902
  0
LINE
  8
0
 10
108.778
 20
-34.0902
 11
110.424
 21
-32.9315
  0
LINE
  8
0
 10
110.424
 20
-32.9315
 11
112.01
 21
-31.6934
  0
LINE
  8
0
 10
112.01
 20
-31.6934
 11
113.534
 21
-30.379
  0
LINE
  8
0
 10
113.534
 20
-30.379
 11
114.991
 21
-28.9914
  0
LINE
  8
0
 10
114.991
 20
-28.9914
 11
116.379
 21
-27.5339
  0
LINE
  8
0
 10
116.379
 20
-27.5339
 11
117.693
 21
-26.0101
  0
LINE
  8
0
 10
117.693
 20
-26.0101
 11
118.932
 21
-24.4237
  0
LINE
  8
0
 10
118.932
 20
-24.4237
 11
120.09
 21
-22.7784
  0
LINE
  8
0
 10
120.09
 20
-22.7784
 11
121.167
 21
-21.0782
  0
LINE
  8
0
 10
121.167
 20
-21.0782
 11
122.159
 21
-19.3273
  0
LINE
  8
0
 10
122.159
 20
-19.3273
 11
123.064
 21
-17.5298
  0
LINE
  8
0
 10
123.064
 20
-17.5298
 11
123.879
 21
-15.69
  0
LINE
  8
0
 10
123.879
 20
-15.69
 11
124.603
 21
-13.8125
  0
LINE
  8
0
 10
124.603
 20
-13.8125
 11
125.235
 21
-11.9017
  0
LINE
  8
0
 10
125.235
 20
-11.9017
 11
125.771
 21
-9.96217
  0
LINE
  8
0
 10
125.771
 20
-9.96217
 11
126.212
 21
-7.9987
  0
LINE
  8
0
 10
126.212
 20
-7.9987
 11
126.556
 21
-6.01595
  0
LINE
  8
0
 10
126.556
 20
-6.01595
 11
126.803
 21
-4.01869
  0
LINE
  8
0
 10
126.803
 20
-4.01869
 11
126.951
 21
-2.01176
  0
LINE
  8
0
 10
126.951
 20
-2.01176
 11
127
 21
0
  0
LINE
  8
0
 10
127
 20
0
 11
126.951
 21
2.01176
  0
LINE
  8
0
 10
126.951
 20
2.01176
 11
126.803
 21
4.01869
  0
LINE
  8
0
 10
126.803
 20
4.01869
 11
126.556
 21
6.01595
  0
LINE
  8
0
 10
126.556
 20
6.01595
 11
126.212
 21
7.9987
  0
LINE
  8
0
 10
126.212
 20
7.9987
 11
125.771
 21
9.96217
  0
LINE
  8
0
 10
125.771
 20
9.96217
 11
125.235
 21
11.9017
  0
LINE
  8
0
 10
125.235
 20
11.9017
 11
124.603
 21
13.8125
  0
LINE
  8
0
 10
124.603
 20
13.8125
 11
123.879
 21
15.69
  0
LINE
  8
0
 10
123.879
 20
15.69
 11
123.064
 21
17.5298
  0
LINE
  8
0
 10
123.064
 20
17.5298
 11
122.159
 21
19.3273
  0
LINE
  8
0
 10
122.159
 20
19.3273
 11
121.167
 21
21.0782
  0
LINE
  8
0
 10
121.167
 20
21.0782
 11
120.09
 21
22.7784
  0
LINE
  8
0
 10
120.09
 20
22.7784
 11
118.932
 21
24.4237
  0
LINE
  8
0
 10
118.932
 20
24.4237
 11
117.693
 21
26.0101
  0
LINE
  8
0
 10
117.693
 20
26.0101
 11
116.379
 21
27.5339
  0
LINE
  8
0
 10
116.379
 20
27.5339
 11
114.991
 21
28.9914
  0
LINE
  8
0
 10
114.991
 20
28.9914
 11
113.534
 21
30.379
  0
LINE
  8
0
 10
113.534
 20
30.379
 11
112.01
 21
31.6934
  0
LINE
  8
0
 10
112.01
 20
31.6934
 11
110.424
 21
32.9315
  0
LINE
  8
0
 10
110.424
 20
32.9315
 11
108.778
 21
34.0902
  0
LINE
  8
0
 10
108.778
 20
34.0902
 11
107.078
 21
35.1669
  0
LINE
  8
0
 10
107.078
 20
35.1669
 11
105.327
 21
36.1588
  0
LINE
  8
0
 10
105.327
 20
36.1588
 11
103.53
 21
37.0636
  0
LINE
  8
0
 10
103.53
 20
37.0636
 11
101.69
 21
37.8791
  0
LINE
  8
0
 10
101.69
 20
37.8791
 11
99.8125
 21
38.6033
  0
LINE
  8
0
 10
99.8125
 20
38.6033
 11
97.9017
 21
39.2345
  0
LINE
  8
0
 10
97.9017
 20
39.2345
 11
95.9622
 21
39.7713
  0
LINE
  8
0
 10
95.9622
 20
39.7713
 11
93.9987
 21
40.2122
  0
LINE
  8
0
 10
93.9987
 20
40.2122
 11
92.0159
 21
40.5562
  0
LINE
  8
0
 10
92.0159
 20
40.5562
 11
90.0187
 21
40.8026
  0
LINE
  8
0
 10
90.0187
 20
40.8026
 11
88.0118
 21
40.9506
  0
LINE
  8
0
 10
88.0118
 20
40.9506
 11
86
 21
41
  0
LINE
  8
0
 10
86
 20
41
 11
83.9882
 21
40.9506
  0
LINE
  8
0
 10
83.9882
 20
40.9506
 11
81.9813
 21
40.8026
  0
LINE
  8
0
 10
81.9813
 20
40.8026
 11
79.984
 21
40.5562
  0
LINE
  8
0
 10
79.984
 20
40.5562
 11
78.0013
 21
40.2122
  0
LINE
  8
0
 10
78.0013
 20
40.2122
 11
76.0378
 21
39.7713
  0
LINE
  8
0
 10
76.0378
 20
39.7713
 11
74.0983
 21
39.2345
  0
LINE
  8
0
 10
74.0983
 20
39.2345
 11
72.1875
 21
38.6033
  0
LINE
  8
0
 10
72.1875
 20
38.6033
 11
70.31
 21
37.8791
  0
LINE
  8
0
 10
70.31
 20
37.8791
 11
68.4702
 21
37.0636
  0
LINE
  8
0
 10
68.4702
 20
37.0636
 11
66.6727
 21
36.1588
  0
LINE
  8
0
 10
66.6727
 20
36.1588
 11
64.9218
 21
35.1669
  0
LINE
  8
0
 10
64.9218
 20
35.1669
 11
63.2216
 21
34.0902
  0
LINE
  8
0
 10
63.2216
 20
34.0902
 11
61.5763
 21
32.9315
  0
LINE
  8
0
 10
61.5763
 20
32.9315
 11
59.9899
 21
31.6934
  0
LINE
  8
0
 10
59.9899
 20
31.6934
 11
58.4661
 21
30.379
  0
LINE
  8
0
 10
58.4661
 20
30.379
 11
57.0086
 21
28.9914
  0
LINE
  8
0
 10
57.0086
 20
28.9914
 11
55.621
 21
27.5339
  0
LINE
  8
0
 10
55.621
 20
27.5339
 11
54.3066
 21
26.0101
  0
LINE
  8
0
 10
54.3066
 20
26.0101
 11
53.0685
 21
24.4237
  0
LINE
  8
0
 10
53.0685
 20
24.4237
 11
51.9097
 21
22.7784
  0
LINE
  8
0
 10
51.9097
 20
22.7784
 11
50.8331
 21
21.0782
  0
LINE
  8
0
 10
50.8331
 20
21.0782
 11
49.8412
 21
19.3273
  0
LINE
  8
0
 10
49.8412
 20
19.3273
 11
48.9364
 21
17.5298
  0
LINE
  8
0
 10
48.9364
 20
17.5298
 11
48.1209
 21
15.69
  0
LINE
  8
0
 10
48.1209
 20
15.69
 11
47.3967
 21
13.8125
  0
LINE
  8
0
 10
47.3967
 20
13.8125
 11
46.7654
 21
11.9017
  0
LINE
  8
0
 10
46.7654
 20
11.9017
 11
46.2287
 21
9.96217
  0
LINE
  8
0
 10
46.2287
 20
9.96217
 11
45.7878
 21
7.9987
  0
LINE
  8
0
 10
45.7878
 20
7.9987
 11
45.4438
 21
6.01595
  0
LINE
  8
0
 10
45.4438
 20
6.01595
 11
45.1974
 21
4.01869
  0
LINE
  8
0
 10
45.1974
 20
4.01869
 11
45.0494
 21
2.01176
  0
LINE
  8
0
 10
45.0494
 20
2.01176
 11
45
 21
0
  0
LINE
  8
0
 10
45
 20
0
 11
45.0494
 21
-2.01176
  0
LINE
  8
0
 10
45.0494
 20
-2.01176
 11
45.1974
 21
-4.01869
  0
LINE
  8
0
 10
45.1974
 20
-4.01869
 11
45.4438
 21
-6.01595
  0
LINE
  8
0
 10
45.4438
 20
-6.01595
 11
45.7878
 21
-7.9987
  0
LINE
  8
0
 10
45.7878
 20
-7.9987
 11
46.2287
 21
-9.96217
  0
LINE
  8
0
 10
46.2287
 20
-9.96217
 11
46.7654
 21
-11.9017
  0
LINE
  8
0
 10
46.7654
 20
-11.9017
 11
47.3967
 21
-13.8125
  0
LINE
  8
0
 10
47.3967
 20
-13.8125
 11
48.1209
 21
-15.69
  0
LINE
  8
0
 10
48.1209
 20
-15.69
 11
48.9364
 21
-17.5298
  0
LINE
  8
0
 10
48.9364
 20
-17.5298
 11
49.8412
 21
-19.3273
  0
LINE
  8
0
 10
49.8412
 20
-19.3273
 11
50.8331
 21
-21.0782
  0
LINE
  8
0
 10
50.8331
 20
-21.0782
 11
51.9097
 21
-22.7784
  0
LINE
  8
0
 10
51.9097
 20
-22.7784
 11
53.0685
 21
-24.4237
  0
LINE
  8
0
 10
53.0685
 20
-24.4237
 11
54.3066
 21
-26.0101
  0
LINE
  8
0
 10
54.3066
 20
-26.0101
 11
55.621
 21
-27.5339
  0
LINE
  8
0
 10
55.621
 20
-27.5339
 11
57.0086
 21
-28.9914
  0
LINE
  8
0
 10
57.0086
 20
-28.9914
 11
58.4661
 21
-30.379
  0
LINE
  8
0
 10
58.4661
 20
-30.379
 11
59.9899
 21
-31.6934
  0
LINE
  8
0
 10
59.9899
 20
-31.6934
 11
61.5763
 21
-32.9315
  0
LINE
  8
0
 10
61.5763
 20
-32.9315
 11
63.2216
 21
-34.0902
  0
LINE
  8
0
 10
63.2216
 20
-34.0902
 11
64.9218
 21
-35.1669
  0
LINE
  8
0
 10
64.9218
 20
-35.1669
 11
66.6727
 21
-36.1588
  0
LINE
  8
0
 10
66.6727
 20
-36.1588
 11
68.4702
 21
-37.0636
  0
LINE
  8
0
 10
68.4702
 20
-37.0636
 11
70.31
 21
-37.8791
  0
LINE
  8
0
 10
70.31
 20
-37.8791
 11
72.1875
 21
-38.6033
  0
LINE
  8
0
 10
72.1875
 20
-38.6033
 11
74.0983
 21
-39.2345
  0
LINE
  8
0
 10
74.0983
 20
-39.2345
 11
76.0378
 21
-39.7713
  0
LINE
  8
0
 10
76.0378
 20
-39.7713
 11
78.0013
 21
-40.2122
  0
LINE
  8
0
 10
78.0013
 20
-40.2122
 11
79.984
 21
-40.5562
  0
LINE
  8
0
 10
79.984
 20
-40.5562
 11
81.9813
 21
-40.8026
  0
LINE
  8
0
 10
81.9813
 20
-40.8026
 11
83.9882
 21
-40.9506
  0
LINE
  8
0
 10
83.9882
 20
-40.9506
 11
86
 21
-41
  0
LINE
  8
0
 10
86
 20
-41
 11
88.0118
 21
-40.9506
  0
LINE
  8
0
 10
1.95044
 20
-39.7021
 11
3.89618
 21
-39.5586
  0
LINE
  8
0
 10
3.89618
 20
-39.5586
 11
5.83253
 21
-39.3198
  0
LINE
  8
0
 10
5.83253
 20
-39.3198
 11
7.75484
 21
-38.9862
  0
LINE
  8
0
 10
7.75484
 20
-38.9862
 11
9.65845
 21
-38.5587
  0
LINE
  8
0
 10
9.65845
 20
-38.5587
 11
11.5388
 21
-38.0384
  0
LINE
  8
0
 10
11.5388
 20
-38.0384
 11
13.3914
 21
-37.4264
  0
LINE
  8
0
 10
13.3914
 20
-37.4264
 11
15.2117
 21
-36.7242
  0
LINE
  8
0
 10
15.2117
 20
-36.7242
 11
16.9953
 21
-35.9336
  0
LINE
  8
0
 10
16.9953
 20
-35.9336
 11
18.738
 21
-35.0564
  0
LINE
  8
0
 10
18.738
 20
-35.0564
 11
20.4356
 21
-34.0947
  0
LINE
  8
0
 10
20.4356
 20
-34.0947
 11
22.0839
 21
-33.0509
  0
LINE
  8
0
 10
22.0839
 20
-33.0509
 11
23.679
 21
-31.9275
  0
LINE
  8
0
 10
23.679
 20
-31.9275
 11
25.2171
 21
-30.7272
  0
LINE
  8
0
 10
25.2171
 20
-30.7272
 11
26.6945
 21
-29.4528
  0
LINE
  8
0
 10
26.6945
 20
-29.4528
 11
28.1075
 21
-28.1075
  0
LINE
  8
0
 10
28.1075
 20
-28.1075
 11
29.4528
 21
-26.6945
  0
LINE
  8
0
 10
29.4528
 20
-26.6945
 11
30.7272
 21
-25.2171
  0
LINE
  8
0
 10
30.7272
 20
-25.2171
 11
31.9275
 21
-23.679
  0
LINE
  8
0
 10
31.9275
 20
-23.679
 11
33.0509
 21
-22.0839
  0
LINE
  8
0
 10
33.0509
 20
-22.0839
 11
34.0947
 21
-20.4356
  0
LINE
  8
0
 10
34.0947
 20
-20.4356
 11
35.0564
 21
-18.738
  0
LINE
  8
0
 10
35.0564
 20
-18.738
 11
35.9336
 21
-16.9953
  0
LINE
  8
0
 10
35.9336
 20
-16.9953
 11
36.7242
 21
-15.2117
  0
LINE
  8
0
 10
36.7242
 20
-15.2117
 11
37.4264
 21
-13.3914
  0
LINE
  8
0
 10
37.4264
 20
-13.3914
 11
38.0384
 21
-11.5388
  0
LINE
  8
0
 10
38.0384
 20
-11.5388
 11
38.5587
 21
-9.65845
  0
LINE
  8
0
 10
38.5587
 20
-9.65845
 11
38.9862
 21
-7.75484
  0
LINE
  8
0
 10
38.9862
 20
-7.75484
 11
39.3198
 21
-5.83253
  0
LINE
  8
0
 10
39.3198
 20
-5.83253
 11
39.5586
 21
-3.89618
  0
LINE
  8
0
 10
39.5586
 20
-3.89618
 11
39.7021
 21
-1.95044
  0
LINE
  8
0
 10
39.7021
 20
-1.95044
 11
39.75
 21
0
  0
LINE
  8
0
 10
39.75
 20
0
 11
39.7021
 21
1.95044
  0
LINE
  8
0
 10
39.7021
 20
1.95044
 11
39.5586
 21
3.89618
  0
LINE
  8
0
 10
39.5586
 20
3.89618
 11
39.3198
 21
5.83253
  0
LINE
  8
0
 10
39.3198
 20
5.83253
 11
38.9862
 21
7.75484
  0
LINE
  8
0
 10
38.9862
 20
7.75484
 11
38.5587
 21
9.65845
  0
LINE
  8
0
 10
38.5587
 20
9.65845
 11
38.0384
 21
11.5388
  0
LINE
  8
0
 10
38.0384
 20
11.5388
 11
37.4264
 21
13.3914
  0
LINE
  8
0
 10
37.4264
 20
13.3914
 11
36.7242
 21
15.2117
  0
LINE
  8
0
 10
36.7242
 20
15.2117
 11
35.9336
 21
16.9953
  0
LINE
  8
0
 10
35.9336
 20
16.9953
 11
35.0564
 21
18.738
  0
LINE
  8
0
 10
35.0564
 20
18.738
 11
34.0947
 21
20.4356
  0
LINE
  8
0
 10
34.0947
 20
20.4356
 11
33.0509
 21
22.0839
  0
LINE
  8
0
 10
33.0509
 20
22.0839
 11
31.9275
 21
23.679
  0
LINE
  8
0
 10
31.9275
 20
23.679
 11
30.7272
 21
25.2171
  0
LINE
  8
0
 10
30.7272
 20
25.2171
 11
29.4528
 21
26.6945
  0
LINE
  8
0
 10
29.4528
 20
26.6945
 11
28.1075
 21
28.1075
  0
LINE
  8
0
 10
28.1075
 20
28.1075
 11
26.6945
 21
29.4528
  0
LINE
  8
0
 10
26.6945
 20
29.4528
 11
25.2171
 21
30.7272
  0
LINE
  8
0
 10
25.2171
 20
30.7272
 11
23.679
 21
31.9275
  0
LINE
  8
0
 10
23.679
 20
31.9275
 11
22.0839
 21
33.0509
  0
LINE
  8
0
 10
22.0839
 20
33.0509
 11
20.4356
 21
34.0947
  0
LINE
  8
0
 10
20.4356
 20
34.0947
 11
18.738
 21
35.0564
  0
LINE
  8
0
 10
18.738
 20
35.0564
 11
16.9953
 21
35.9336
  0
LINE
  8
0
 10
16.9953
 20
35.9336
 11
15.2117
 21
36.7242
  0
LINE
  8
0
 10
15.2117
 20
36.7242
 11
13.3914
 21
37.4264
  0
LINE
  8
0
 10
13.3914
 20
37.4264
 11
11.5388
 21
38.0384
  0
LINE
  8
0
 10
11.5388
 20
38.0384
 11
9.65845
 21
38.5587
  0
LINE
  8
0
 10
9.65845
 20
38.5587
 11
7.75484
 21
38.9862
  0
LINE
  8
0
 10
7.75484
 20
38.9862
 11
5.83253
 21
39.3198
  0
LINE
  8
0
 10
5.83253
 20
39.3198
 11
3.89618
 21
39.5586
  0
LINE
  8
0
 10
3.89618
 20
39.5586
 11
1.95044
 21
39.7021
  0
LINE
  8
0
 10
1.95044
 20
39.7021
 11
0
 21
39.75
  0
LINE
  8
0
 10
0
 20
39.75
 11
-1.95044
 21
39.7021
  0
LINE
  8
0
 10
-1.95044
 20
39.7021
 11
-3.89618
 21
39.5586
  0
LINE
  8
0
 10
-3.89618
 20
39.5586
 11
-5.83253
 21
39.3198
  0
LINE
  8
0
 10
-5.83253
 20
39.3198
 11
-7.75484
 21
38.9862
  0
LINE
  8
0
 10
-7.75484
 20
38.9862
 11
-9.65845
 21
38.5587
  0
LINE
  8
0
 10
-9.65845
 20
38.5587
 11
-11.5388
 21
38.0384
  0
LINE
  8
0
 10
-11.5388
 20
38.0384
 11
-13.3914
 21
37.4264
  0
LINE
  8
0
 10
-13.3914
 20
37.4264
 11
-15.2117
 21
36.7242
  0
LINE
  8
0
 10
-15.2117
 20
36.7242
 11
-16.9953
 21
35.9336
  0
LINE
  8
0
 10
-16.9953
 20
35.9336
 11
-18.738
 21
35.0564
  0
LINE
  8
0
 10
-18.738
 20
35.0564
 11
-20.4356
 21
34.0947
  0
LINE
  8
0
 10
-20.4356
 20
34.0947
 11
-22.0839
 21
33.0509
  0
LINE
  8
0
 10
-22.0839
 20
33.0509
 11
-23.679
 21
31.9275
  0
LINE
  8
0
 10
-23.679
 20
31.9275
 11
-25.2171
 21
30.7272
  0
LINE
  8
0
 10
-25.2171
 20
30.7272
 11
-26.6945
 21
29.4528
  0
LINE
  8
0
 10
-26.6945
 20
29.4528
 11
-28.1075
 21
28.1075
  0
LINE
  8
0
 10
-28.1075
 20
28.1075
 11
-29.4528
 21
26.6945
  0
LINE
  8
0
 10
-29.4528
 20
26.6945
 11
-30.7272
 21
25.2171
  0
LINE
  8
0
 10
-30.7272
 20
25.2171
 11
-31.9275
 21
23.679
  0
LINE
  8
0
 10
-31.9275
 20
23.679
 11
-33.0509
 21
22.0839
  0
LINE
  8
0
 10
-33.0509
 20
22.0839
 11
-34.0947
 21
20.4356
  0
LINE
  8
0
 10
-34.0947
 20
20.4356
 11
-35.0564
 21
18.738
  0
LINE
  8
0
 10
-35.0564
 20
18.738
 11
-35.9336
 21
16.9953
  0
LINE
  8
0
 10
-35.9336
 20
16.9953
 11
-36.7242
 21
15.2117
  0
LINE
  8
0
 10
-36.7242
 20
15.2117
 11
-37.4264
 21
13.3914
  0
LINE
  8
0
 10
-37.4264
 20
13.3914
 11
-38.0384
 21
11.5388
  0
LINE
  8
0
 10
-38.0384
 20
11.5388
 11
-38.5587
 21
9.65845
  0
LINE
  8
0
 10
-38.5587
 20
9.65845
 11
-38.9862
 21
7.75484
  0
LINE
  8
0
 10
-38.9862
 20
7.75484
 11
-39.3198
 21
5.83253
  0
LINE
  8
0
 10
-39.3198
 20
5.83253
 11
-39.5586
 21
3.89618
  0
LINE
  8
0
 10
-39.5586
 20
3.89618
 11
-39.7021
 21
1.95044
  0
LINE
  8
0
 10
-39.7021
 20
1.95044
 11
-39.75
 21
0
  0
LINE
  8
0
 10
-39.75
 20
0
 11
-39.7021
 21
-1.95044
  0
LINE
  8
0
 10
-39.7021
 20
-1.95044
 11
-39.5586
 21
-3.89618
  0
LINE
  8
0
 10
-39.5586
 20
-3.89618
 11
-39.3198
 21
-5.83253
  0
LINE
  8
0
 10
-39.3198
 20
-5.83253
 11
-38.9862
 21
-7.75484
  0
LINE
  8
0
 10
-38.9862
 20
-7.75484
 11
-38.5587
 21
-9.65845
  0
LINE
  8
0
 10
-38.5587
 20
-9.65845
 11
-38.0384
 21
-11.5388
  0
LINE
  8
0
 10
-38.0384
 20
-11.5388
 11
-37.4264
 21
-13.3914
  0
LINE
  8
0
 10
-37.4264
 20
-13.3914
 11
-36.7242
 21
-15.2117
  0
LINE
  8
0
 10
-36.7242
 20
-15.2117
 11
-35.9336
 21
-16.9953
  0
LINE
  8
0
 10
-35.9336
 20
-16.9953
 11
-35.0564
 21
-18.738
  0
LINE
  8
0
 10
-35.0564
 20
-18.738
 11
-34.0947
 21
-20.4356
  0
LINE
  8
0
 10
-34.0947
 20
-20.4356
 11
-33.0509
 21
-22.0839
  0
LINE
  8
0
 10
-33.0509
 20
-22.0839
 11
-31.9275
 21
-23.679
  0
LINE
  8
0
 10
-31.9275
 20
-23.679
 11
-30.7272
 21
-25.2171
  0
LINE
  8
0
 10
-30.7272
 20
-25.2171
 11
-29.4528
 21
-26.6945
  0
LINE
  8
0
 10
-29.4528
 20
-26.6945
 11
-28.1075
 21
-28.1075
  0
LINE
  8
0
 10
-28.1075
 20
-28.1075
 11
-26.6945
 21
-29.4528
  0
LINE
  8
0
 10
-26.6945
 20
-29.4528
 11
-25.2171
 21
-30.7272
  0
LINE
  8
0
 10
-25.2171
 20
-30.7272
 11
-23.679
 21
-31.9275
  0
LINE
  8
0
 10
-23.679
 20
-31.9275
 11
-22.0839
 21
-33.0509
  0
LINE
  8
0
 10
-22.0839
 20
-33.0509
 11
-20.4356
 21
-34.0947
  0
LINE
  8
0
 10
-20.4356
 20
-34.0947
 11
-18.738
 21
-35.0564
  0
LINE
  8
0
 10
-18.738
 20
-35.0564
 11
-16.9953
 21
-35.9336
  0
LINE
  8
0
 10
-16.9953
 20
-35.9336
 11
-15.2117
 21
-36.7242
  0
LINE
  8
0
 10
-15.2117
 20
-36.7242
 11
-13.3914
 21
-37.4264
  0
LINE
  8
0
 10
-13.3914
 20
-37.4264
 11
-11.5388
 21
-38.0384
  0
LINE
  8
0
 10
-11.5388
 20
-38.0384
 11
-9.65845
 21
-38.5587
  0
LINE
  8
0
 10
-9.65845
 20
-38.5587
 11
-7.75484
 21
-38.9862
  0
LINE
  8
0
 10
-7.75484
 20
-38.9862
 11
-5.83253
 21
-39.3198
  0
LINE
  8
0
 10
-5.83253
 20
-39.3198
 11
-3.89618
 21
-39.5586
  0
LINE
  8
0
 10
-3.89618
 20
-39.5586
 11
-1.95044
 21
-39.7021
  0
LINE
  8
0
 10
-1.95044
 20
-39.7021
 11
0
 21
-39.75
  0
LINE
  8
0
 10
0
 20
-39.75
 11
1.95044
 21
-39.7021
  0
ENDSEC
  0
SECTION
  2
OBJECTS
  0
DICTIONARY
  0
ENDSEC
  0
EOF
