<?xml version="1.0" standalone="no"?>
<!DOCTYPE svg PUBLIC "-//W3C//DTD SVG 1.1//EN" "http://www.w3.org/Graphics/SVG/1.1/DTD/svg11.dtd">
<svg width="167" height="82" viewBox="-40 -41 167 82" xmlns="http://www.w3.org/2000/svg" version="1.1">
<title>OpenSCAD Model</title>
<path d="
M 88.0118,40.9506 L 90.0187,40.8026 L 92.0159,40.5562 L 93.9987,40.2122 L 95.9622,39.7713 L 97.9017,39.2345
 L 99.8125,38.6033 L 101.69,37.8791 L 103.53,37.0636 L 105.327,36.1588 L 107.078,35.1669 L 108.778,34.0902
 L 110.424,32.9315 L 112.01,31.6934 L 113.534,30.379 L 114.991,28.9914 L 116.379,27.5339 L 117.693,26.0101
 L 118.932,24.4237 L 120.09,22.7784 L 121.167,21.0782 L 122.159,19.3273 L 123.064,17.5298 L 123.879,15.69
 L 124.603,13.8125 L 125.235,11.9017 L 125.771,9.96217 L 126.212,7.9987 L 126.556,6.01595 L 126.803,4.01869
 L 126.951,2.01176 L 127,-0 L 126.951,-2.01176 L 126.803,-4.01869 L 126.556,-6.01595 L 126.212,-7.9987
 L 125.771,-9.96217 L 125.235,-11.9017 L 124.603,-13.8125 L 123.879,-15.69 L 123.064,-17.5298 L 122.159,-19.3273
 L 121.167,-21.0782 L 120.09,-22.7784 L 118.932,-24.4237 L 117.693,-26.0101 L 116.379,-27.5339 L 114.991,-28.9914
 L 113.534,-30.379 L 112.01,-31.6934 L 110.424,-32.9315 L 108.778,-34.0902 L 107.078,-35.1669 L 105.327,-36.1588
 L 103.53,-37.0636 L 101.69,-37.8791 L 99.8125,-38.6033 L 97.9017,-39.2345 L 95.9622,-39.7713 L 93.9987,-40.2122
 L 92.0159,-40.5562 L 90.0187,-40.8026 L 88.0118,-40.9506 L 86,-41 L 83.9882,-40.9506 L 81.9813,-40.8026
 L 79.984,-40.5562 L 78.0013,-40.2122 L 76.0378,-39.7713 L 74.0983,-39.2345 L 72.1875,-38.6033 L 70.31,-37.8791
 L 68.4702,-37.0636 L 66.6727,-36.1588 L 64.9218,-35.1669 L 63.2216,-34.0902 L 61.5763,-32.9315 L 59.9899,-31.6934
 L 58.4661,-30.379 L 57.0086,-28.9914 L 55.621,-27.5339 L 54.3066,-26.0101 L 53.0685,-24.4237 L 51.9097,-22.7784
 L 50.8331,-21.0782 L 49.8412,-19.3273 L 48.9364,-17.5298 L 48.1209,-15.69 L 47.3967,-13.8125 L 46.7654,-11.9017
 L 46.2287,-9.96217 L 45.7878,-7.9987 L 45.4438,-6.01595 L 45.1974,-4.01869 L 45.0494,-2.01176 L 45,-0
 L 45.0494,2.01176 L 45.1974,4.01869 L 45.4438,6.01595 L 45.7878,7.9987 L 46.2287,9.96217 L 46.7654,11.9017
 L 47.3967,13.8125 L 48.1209,15.69 L 48.9364,17.5298 L 49.8412,19.3273 L 50.8331,21.0782 L 51.9097,22.7784
 L 53.0685,24.4237 L 54.3066,26.0101 L 55.621,27.5339 L 57.0086,28.9914 L 58.4661,30.379 L 59.9899,31.6934
 L 61.5763,32.9315 L 63.2216,34.0902 L 64.9218,35.1669 L 66.6727,36.1588 L 68.4702,37.0636 L 70.31,37.8791
 L 72.1875,38.6033 L 74.0983,39.2345 L 76.0378,39.7713 L 78.0013,40.2122 L 79.984,40.5562 L 81.9813,40.8026
 L 83.9882,40.9506 L 86,41 z
M 1.95044,39.7021 L 3.89618,39.5586 L 5.83253,39.3198 L 7.75484,38.9862 L 9.65845,38.5587 L 11.5388,38.0384
 L 13.3914,37.4264 L 15.2117,36.7242 L 16.9953,35.9336 L 18.738,35.0564 L 20.4356,34.0947 L 22.0839,33.0509
 L 23.679,31.9275 L 25.2171,30.7272 L 26.6945,29.4528 L 28.1075,28.1075 L 29.4528,26.6945 L 30.7272,25.2171
 L 31.9275,23.679 L 33.0509,22.0839 L 34.0947,20.4356 L 35.0564,18.738 L 35.9336,16.9953 L 36.7242,15.2117
 L 37.4264,13.3914 L 38.0384,11.5388 L 38.5587,9.65845 L 38.9862,7.75484 L 39.3198,5.83253 L 39.5586,3.89618
 L 39.7021,1.95044 L 39.75,-0 L 39.7021,-1.95044 L 39.5586,-3.89618 L 39.3198,-5.83253 L 38.9862,-7.75484
 L 38.5587,-9.65845 L 38.0384,-11.5388 L 37.4264,-13.3914 L 36.7242,-15.2117 L 35.9336,-16.9953 L 35.0564,-18.738
 L 34.0947,-20.4356 L 33.0509,-22.0839 L 31.9275,-23.679 L 30.7272,-25.2171 L 29.4528,-26.6945 L 28.1075,-28.1075
 L 26.6945,-29.4528 L 25.2171,-30.7272 L 23.679,-31.9275 L 22.0839,-33.0509 L 20.4356,-34.0947 L 18.738,-35.0564
 L 16.9953,-35.9336 L 15.2117,-36.7242 L 13.3914,-37.4264 L 11.5388,-38.0384 L 9.65845,-38.5587 L 7.75484,-38.9862
 L 5.83253,-39.3198 L 3.89618,-39.5586 L 1.95044,-39.7021 L 0,-39.75 L -1.95044,-39.7021 L -3.89618,-39.5586
 L -5.83253,-39.3198 L -7.75484,-38.9862 L -9.65845,-38.5587 L -11.5388,-38.0384 L -13.3914,-37.4264 L -15.2117,-36.7242
 L -16.9953,-35.9336 L -18.738,-35.0564 L -20.4356,-34.0947 L -22.0839,-33.0509 L -23.679,-31.9275 L -25.2171,-30.7272
 L -26.6945,-29.4528 L -28.1075,-28.1075 L -29.4528,-26.6945 L -30.7272,-25.2171 L -31.9275,-23.679 L -33.0509,-22.0839
 L -34.0947,-20.4356 L -35.0564,-18.738 L -35.9336,-16.9953 L -36.7242,-15.2117 L -37.4264,-13.3914 L -38.0384,-11.5388
 L -38.5587,-9.65845 L -38.9862,-7.75484 L -39.3198,-5.83253 L -39.5586,-3.89618 L -39.7021,-1.95044 L -39.75,-0
 L -39.7021,1.95044 L -39.5586,3.89618 L -39.3198,5.83253 L -38.9862,7.75484 L -38.5587,9.65845 L -38.0384,11.5388
 L -37.4264,13.3914 L -36.7242,15.2117 L -35.9336,16.9953 L -35.0564,18.738 L -34.0947,20.4356 L -33.0509,22.0839
 L -31.9275,23.679 L -30.7272,25.2171 L -29.4528,26.6945 L -28.1075,28.1075 L -26.6945,29.4528 L -25.2171,30.7272
 L -23.679,31.9275 L -22.0839,33.0509 L -20.4356,34.0947 L -18.738,35.0564 L -16.9953,35.9336 L -15.2117,36.7242
 L -13.3914,37.4264 L -11.5388,38.0384 L -9.65845,38.5587 L -7.75484,38.9862 L -5.83253,39.3198 L -3.89618,39.5586
 L -1.95044,39.7021 L 0,39.75 z
" stroke="black" fill="lightgray" stroke-width="0.5"/></svg>
