solid OpenSCAD_Model
  facet normal -1 0 0
    outer loop
      vertex -12.5 -21.5 -2.75
      vertex -12.5 21.5 2.75
      vertex -12.5 21.5 -2.75
    endloop
  endfacet
  facet normal -1 -0 0
    outer loop
      vertex -12.5 21.5 2.75
      vertex -12.5 -21.5 -2.75
      vertex -12.5 -21.5 2.75
    endloop
  endfacet
  facet normal 0 0 1
    outer loop
      vertex 12.5 21.5 2.75
      vertex 11.5 20.5 2.75
      vertex 12.5 -21.5 2.75
    endloop
  endfacet
  facet normal 0 0 1
    outer loop
      vertex 12.5 21.5 2.75
      vertex -11.5 20.5 2.75
      vertex 11.5 20.5 2.75
    endloop
  endfacet
  facet normal 0 0 1
    outer loop
      vertex -11.5 20.5 2.75
      vertex -12.5 21.5 2.75
      vertex -11.5 -20.5 2.75
    endloop
  endfacet
  facet normal -0 0 1
    outer loop
      vertex -12.5 21.5 2.75
      vertex -11.5 20.5 2.75
      vertex 12.5 21.5 2.75
    endloop
  endfacet
  facet normal -0 0 1
    outer loop
      vertex 11.5 -20.5 2.75
      vertex 12.5 -21.5 2.75
      vertex 11.5 20.5 2.75
    endloop
  endfacet
  facet normal 0 0 1
    outer loop
      vertex 5 -21.5 2.75
      vertex 11.5 -20.5 2.75
      vertex 5 -20.5 2.75
    endloop
  endfacet
  facet normal 0 0 1
    outer loop
      vertex 11.5 -20.5 2.75
      vertex 5 -21.5 2.75
      vertex 12.5 -21.5 2.75
    endloop
  endfacet
  facet normal -0 0 1
    outer loop
      vertex -11.5 -20.5 2.75
      vertex -5 -21.5 2.75
      vertex -5 -20.5 2.75
    endloop
  endfacet
  facet normal 0 0 1
    outer loop
      vertex -11.5 -20.5 2.75
      vertex -12.5 -21.5 2.75
      vertex -5 -21.5 2.75
    endloop
  endfacet
  facet normal 0 0 1
    outer loop
      vertex -12.5 -21.5 2.75
      vertex -11.5 -20.5 2.75
      vertex -12.5 21.5 2.75
    endloop
  endfacet
  facet normal 1 -0 0
    outer loop
      vertex 12.5 -21.5 2.75
      vertex 12.5 21.5 -2.75
      vertex 12.5 21.5 2.75
    endloop
  endfacet
  facet normal 1 0 0
    outer loop
      vertex 12.5 21.5 -2.75
      vertex 12.5 -21.5 2.75
      vertex 12.5 -21.5 -2.75
    endloop
  endfacet
  facet normal 0 1 -0
    outer loop
      vertex 12.5 21.5 -2.75
      vertex -12.5 21.5 2.75
      vertex 12.5 21.5 2.75
    endloop
  endfacet
  facet normal 0 1 0
    outer loop
      vertex -12.5 21.5 2.75
      vertex 12.5 21.5 -2.75
      vertex -12.5 21.5 -2.75
    endloop
  endfacet
  facet normal 0 0 -1
    outer loop
      vertex -12.5 -21.5 -2.75
      vertex -5 -16.5 -2.75
      vertex -5 -21.5 -2.75
    endloop
  endfacet
  facet normal 0 0 -1
    outer loop
      vertex -12.5 21.5 -2.75
      vertex -8 -5.5 -2.75
      vertex -12.5 -21.5 -2.75
    endloop
  endfacet
  facet normal -0 0 -1
    outer loop
      vertex -5 -16.5 -2.75
      vertex -12.5 -21.5 -2.75
      vertex -8 -5.5 -2.75
    endloop
  endfacet
  facet normal 0 0 -1
    outer loop
      vertex 12.5 -21.5 -2.75
      vertex 8 -5.5 -2.75
      vertex 12.5 21.5 -2.75
    endloop
  endfacet
  facet normal 0 0 -1
    outer loop
      vertex 5 -16.5 -2.75
      vertex 12.5 -21.5 -2.75
      vertex 5 -21.5 -2.75
    endloop
  endfacet
  facet normal 0 0 -1
    outer loop
      vertex 12.5 -21.5 -2.75
      vertex 5 -16.5 -2.75
      vertex 8 -5.5 -2.75
    endloop
  endfacet
  facet normal 0 0 -1
    outer loop
      vertex -5 -16.5 -2.75
      vertex 8 -5.5 -2.75
      vertex 5 -16.5 -2.75
    endloop
  endfacet
  facet normal -0 0 -1
    outer loop
      vertex 8 -5.5 -2.75
      vertex -5 -16.5 -2.75
      vertex -8 -5.5 -2.75
    endloop
  endfacet
  facet normal 0 0 -1
    outer loop
      vertex 8 15 -2.75
      vertex 12.5 21.5 -2.75
      vertex 8 -5.5 -2.75
    endloop
  endfacet
  facet normal 0 0 -1
    outer loop
      vertex -8 15 -2.75
      vertex 12.5 21.5 -2.75
      vertex 8 15 -2.75
    endloop
  endfacet
  facet normal 0 0 -1
    outer loop
      vertex -8 15 -2.75
      vertex -12.5 21.5 -2.75
      vertex 12.5 21.5 -2.75
    endloop
  endfacet
  facet normal 0 0 -1
    outer loop
      vertex -8 -5.5 -2.75
      vertex -12.5 21.5 -2.75
      vertex -8 15 -2.75
    endloop
  endfacet
  facet normal 0 -1 0
    outer loop
      vertex 5 -21.5 -2.75
      vertex 12.5 -21.5 2.75
      vertex 5 -21.5 2.75
    endloop
  endfacet
  facet normal 0 -1 -0
    outer loop
      vertex 12.5 -21.5 2.75
      vertex 5 -21.5 -2.75
      vertex 12.5 -21.5 -2.75
    endloop
  endfacet
  facet normal 0 -1 0
    outer loop
      vertex -12.5 -21.5 -2.75
      vertex -5 -21.5 2.75
      vertex -12.5 -21.5 2.75
    endloop
  endfacet
  facet normal 0 -1 -0
    outer loop
      vertex -5 -21.5 2.75
      vertex -12.5 -21.5 -2.75
      vertex -5 -21.5 -2.75
    endloop
  endfacet
  facet normal 1 -0 0
    outer loop
      vertex -11.5 -20.5 2.75
      vertex -11.5 20.5 -1.75
      vertex -11.5 20.5 2.75
    endloop
  endfacet
  facet normal 1 0 0
    outer loop
      vertex -11.5 20.5 -1.75
      vertex -11.5 -20.5 2.75
      vertex -11.5 -20.5 -1.75
    endloop
  endfacet
  facet normal -1 0 0
    outer loop
      vertex 11.5 -20.5 -1.75
      vertex 11.5 20.5 2.75
      vertex 11.5 20.5 -1.75
    endloop
  endfacet
  facet normal -1 -0 0
    outer loop
      vertex 11.5 20.5 2.75
      vertex 11.5 -20.5 -1.75
      vertex 11.5 -20.5 2.75
    endloop
  endfacet
  facet normal 0 0 1
    outer loop
      vertex 8 -5.5 -1.75
      vertex -5 -16.5 -1.75
      vertex 5 -16.5 -1.75
    endloop
  endfacet
  facet normal -0 0 1
    outer loop
      vertex -8 -5.5 -1.75
      vertex -5 -16.5 -1.75
      vertex 8 -5.5 -1.75
    endloop
  endfacet
  facet normal 0 0 1
    outer loop
      vertex -11.5 -20.5 -1.75
      vertex -5 -16.5 -1.75
      vertex -8 -5.5 -1.75
    endloop
  endfacet
  facet normal 0 0 1
    outer loop
      vertex -5 -16.5 -1.75
      vertex -11.5 -20.5 -1.75
      vertex -5 -20.5 -1.75
    endloop
  endfacet
  facet normal 0 0 1
    outer loop
      vertex -11.5 -20.5 -1.75
      vertex -8 -5.5 -1.75
      vertex -11.5 20.5 -1.75
    endloop
  endfacet
  facet normal 0 0 1
    outer loop
      vertex 8 -5.5 -1.75
      vertex 11.5 20.5 -1.75
      vertex 8 15 -1.75
    endloop
  endfacet
  facet normal 0 0 1
    outer loop
      vertex 11.5 20.5 -1.75
      vertex -8 15 -1.75
      vertex 8 15 -1.75
    endloop
  endfacet
  facet normal 0 0 1
    outer loop
      vertex -8 15 -1.75
      vertex -11.5 20.5 -1.75
      vertex -8 -5.5 -1.75
    endloop
  endfacet
  facet normal -0 0 1
    outer loop
      vertex -11.5 20.5 -1.75
      vertex -8 15 -1.75
      vertex 11.5 20.5 -1.75
    endloop
  endfacet
  facet normal 0 0 1
    outer loop
      vertex 11.5 20.5 -1.75
      vertex 8 -5.5 -1.75
      vertex 11.5 -20.5 -1.75
    endloop
  endfacet
  facet normal -0 0 1
    outer loop
      vertex 5 -16.5 -1.75
      vertex 11.5 -20.5 -1.75
      vertex 8 -5.5 -1.75
    endloop
  endfacet
  facet normal 0 0 1
    outer loop
      vertex 11.5 -20.5 -1.75
      vertex 5 -16.5 -1.75
      vertex 5 -20.5 -1.75
    endloop
  endfacet
  facet normal 0 1 -0
    outer loop
      vertex 11.5 -20.5 -1.75
      vertex 5 -20.5 2.75
      vertex 11.5 -20.5 2.75
    endloop
  endfacet
  facet normal 0 1 0
    outer loop
      vertex 5 -20.5 2.75
      vertex 11.5 -20.5 -1.75
      vertex 5 -20.5 -1.75
    endloop
  endfacet
  facet normal 0 1 -0
    outer loop
      vertex -5 -20.5 -1.75
      vertex -11.5 -20.5 2.75
      vertex -5 -20.5 2.75
    endloop
  endfacet
  facet normal 0 1 0
    outer loop
      vertex -11.5 -20.5 2.75
      vertex -5 -20.5 -1.75
      vertex -11.5 -20.5 -1.75
    endloop
  endfacet
  facet normal 0 -1 0
    outer loop
      vertex -11.5 20.5 -1.75
      vertex 11.5 20.5 2.75
      vertex -11.5 20.5 2.75
    endloop
  endfacet
  facet normal 0 -1 -0
    outer loop
      vertex 11.5 20.5 2.75
      vertex -11.5 20.5 -1.75
      vertex 11.5 20.5 -1.75
    endloop
  endfacet
  facet normal 1 -0 0
    outer loop
      vertex -8 -5.5 -1.75
      vertex -8 15 -2.75
      vertex -8 15 -1.75
    endloop
  endfacet
  facet normal 1 0 0
    outer loop
      vertex -8 15 -2.75
      vertex -8 -5.5 -1.75
      vertex -8 -5.5 -2.75
    endloop
  endfacet
  facet normal -1 0 0
    outer loop
      vertex 8 -5.5 -2.75
      vertex 8 15 -1.75
      vertex 8 15 -2.75
    endloop
  endfacet
  facet normal -1 -0 0
    outer loop
      vertex 8 15 -1.75
      vertex 8 -5.5 -2.75
      vertex 8 -5.5 -1.75
    endloop
  endfacet
  facet normal 0 1 -0
    outer loop
      vertex 8 -5.5 -2.75
      vertex -8 -5.5 -1.75
      vertex 8 -5.5 -1.75
    endloop
  endfacet
  facet normal 0 1 0
    outer loop
      vertex -8 -5.5 -1.75
      vertex 8 -5.5 -2.75
      vertex -8 -5.5 -2.75
    endloop
  endfacet
  facet normal 0 -1 0
    outer loop
      vertex -8 15 -2.75
      vertex 8 15 -1.75
      vertex -8 15 -1.75
    endloop
  endfacet
  facet normal 0 -1 -0
    outer loop
      vertex 8 15 -1.75
      vertex -8 15 -2.75
      vertex 8 15 -2.75
    endloop
  endfacet
  facet normal 1 0 0
    outer loop
      vertex -5 -20.5 2.75
      vertex -5 -21.5 2.75
      vertex -5 -20.5 -1.75
    endloop
  endfacet
  facet normal 1 -0 0
    outer loop
      vertex -5 -20.5 -1.75
      vertex -5 -16.5 -2.75
      vertex -5 -16.5 -1.75
    endloop
  endfacet
  facet normal 1 0 0
    outer loop
      vertex -5 -20.5 -1.75
      vertex -5 -21.5 -2.75
      vertex -5 -16.5 -2.75
    endloop
  endfacet
  facet normal 1 0 0
    outer loop
      vertex -5 -21.5 -2.75
      vertex -5 -20.5 -1.75
      vertex -5 -21.5 2.75
    endloop
  endfacet
  facet normal -1 0 0
    outer loop
      vertex 5 -16.5 -2.75
      vertex 5 -20.5 -1.75
      vertex 5 -16.5 -1.75
    endloop
  endfacet
  facet normal -1 0 0
    outer loop
      vertex 5 -21.5 -2.75
      vertex 5 -20.5 -1.75
      vertex 5 -16.5 -2.75
    endloop
  endfacet
  facet normal -1 0 0
    outer loop
      vertex 5 -21.5 2.75
      vertex 5 -20.5 -1.75
      vertex 5 -21.5 -2.75
    endloop
  endfacet
  facet normal -1 0 0
    outer loop
      vertex 5 -20.5 -1.75
      vertex 5 -21.5 2.75
      vertex 5 -20.5 2.75
    endloop
  endfacet
  facet normal 0 -1 0
    outer loop
      vertex -5 -16.5 -2.75
      vertex 5 -16.5 -1.75
      vertex -5 -16.5 -1.75
    endloop
  endfacet
  facet normal 0 -1 -0
    outer loop
      vertex 5 -16.5 -1.75
      vertex -5 -16.5 -2.75
      vertex 5 -16.5 -2.75
    endloop
  endfacet
endsolid OpenSCAD_Model
