  0
SECTION
  2
BLOCKS
  0
ENDSEC
  0
SECTION
  2
ENTITIES
  0
LINE
  8
0
 10
38.9
 20
535
 11
76.7
 21
535
  0
LINE
  8
0
 10
76.7
 20
535
 11
76.7
 21
532
  0
LINE
  8
0
 10
76.7
 20
532
 11
96.7
 21
532
  0
LINE
  8
0
 10
96.7
 20
532
 11
96.7
 21
535
  0
LINE
  8
0
 10
96.7
 20
535
 11
134.5
 21
535
  0
LINE
  8
0
 10
134.5
 20
535
 11
134.5
 21
532
  0
LINE
  8
0
 10
134.5
 20
532
 11
154.5
 21
532
  0
LINE
  8
0
 10
154.5
 20
532
 11
154.5
 21
535
  0
LINE
  8
0
 10
154.5
 20
535
 11
192.3
 21
535
  0
LINE
  8
0
 10
192.3
 20
535
 11
192.3
 21
532
  0
LINE
  8
0
 10
192.3
 20
532
 11
212.3
 21
532
  0
LINE
  8
0
 10
212.3
 20
532
 11
212.3
 21
535
  0
LINE
  8
0
 10
212.3
 20
535
 11
250.1
 21
535
  0
LINE
  8
0
 10
250.1
 20
535
 11
250.1
 21
532
  0
LINE
  8
0
 10
250.1
 20
532
 11
270.1
 21
532
  0
LINE
  8
0
 10
270.1
 20
532
 11
270.1
 21
535
  0
LINE
  8
0
 10
270.1
 20
535
 11
295
 21
535
  0
LINE
  8
0
 10
295
 20
535
 11
295
 21
595
  0
LINE
  8
0
 10
295
 20
595
 11
0
 21
595
  0
LINE
  8
0
 10
0
 20
595
 11
0
 21
535
  0
LINE
  8
0
 10
0
 20
535
 11
18.9
 21
535
  0
LINE
  8
0
 10
18.9
 20
535
 11
18.9
 21
532
  0
LINE
  8
0
 10
18.9
 20
532
 11
38.9
 21
532
  0
LINE
  8
0
 10
38.9
 20
532
 11
38.9
 21
535
  0
LINE
  8
0
 10
289
 20
555
 11
289
 21
575
  0
LINE
  8
0
 10
289
 20
575
 11
292
 21
575
  0
LINE
  8
0
 10
292
 20
575
 11
292
 21
555
  0
LINE
  8
0
 10
292
 20
555
 11
289
 21
555
  0
LINE
  8
0
 10
231.8
 20
555
 11
231.8
 21
575
  0
LINE
  8
0
 10
231.8
 20
575
 11
234.8
 21
575
  0
LINE
  8
0
 10
234.8
 20
575
 11
234.8
 21
555
  0
LINE
  8
0
 10
234.8
 20
555
 11
231.8
 21
555
  0
LINE
  8
0
 10
174.6
 20
555
 11
174.6
 21
575
  0
LINE
  8
0
 10
174.6
 20
575
 11
177.6
 21
575
  0
LINE
  8
0
 10
177.6
 20
575
 11
177.6
 21
555
  0
LINE
  8
0
 10
177.6
 20
555
 11
174.6
 21
555
  0
LINE
  8
0
 10
117.4
 20
555
 11
117.4
 21
575
  0
LINE
  8
0
 10
117.4
 20
575
 11
120.4
 21
575
  0
LINE
  8
0
 10
120.4
 20
575
 11
120.4
 21
555
  0
LINE
  8
0
 10
120.4
 20
555
 11
117.4
 21
555
  0
LINE
  8
0
 10
60.2
 20
555
 11
60.2
 21
575
  0
LINE
  8
0
 10
60.2
 20
575
 11
63.2
 21
575
  0
LINE
  8
0
 10
63.2
 20
575
 11
63.2
 21
555
  0
LINE
  8
0
 10
63.2
 20
555
 11
60.2
 21
555
  0
LINE
  8
0
 10
3
 20
555
 11
3
 21
575
  0
LINE
  8
0
 10
3
 20
575
 11
6
 21
575
  0
LINE
  8
0
 10
6
 20
575
 11
6
 21
555
  0
LINE
  8
0
 10
6
 20
555
 11
3
 21
555
  0
LINE
  8
0
 10
597.1
 20
470
 11
614.2
 21
470
  0
LINE
  8
0
 10
614.2
 20
470
 11
614.2
 21
490
  0
LINE
  8
0
 10
614.2
 20
490
 11
615.7
 21
490
  0
LINE
  8
0
 10
615.7
 20
490
 11
615.7
 21
510
  0
LINE
  8
0
 10
615.7
 20
510
 11
614.2
 21
510
  0
LINE
  8
0
 10
614.2
 20
510
 11
614.2
 21
530
  0
LINE
  8
0
 10
614.2
 20
530
 11
560
 21
530
  0
LINE
  8
0
 10
560
 20
530
 11
560
 21
510
  0
LINE
  8
0
 10
560
 20
510
 11
558.5
 21
510
  0
LINE
  8
0
 10
558.5
 20
510
 11
558.5
 21
490
  0
LINE
  8
0
 10
558.5
 20
490
 11
560
 21
490
  0
LINE
  8
0
 10
560
 20
490
 11
560
 21
470
  0
LINE
  8
0
 10
560
 20
470
 11
577.1
 21
470
  0
LINE
  8
0
 10
577.1
 20
470
 11
577.1
 21
467
  0
LINE
  8
0
 10
577.1
 20
467
 11
597.1
 21
467
  0
LINE
  8
0
 10
597.1
 20
467
 11
597.1
 21
470
  0
LINE
  8
0
 10
38.9
 20
470
 11
76.7
 21
470
  0
LINE
  8
0
 10
76.7
 20
470
 11
76.7
 21
467
  0
LINE
  8
0
 10
76.7
 20
467
 11
96.7
 21
467
  0
LINE
  8
0
 10
96.7
 20
467
 11
96.7
 21
470
  0
LINE
  8
0
 10
96.7
 20
470
 11
134.5
 21
470
  0
LINE
  8
0
 10
134.5
 20
470
 11
134.5
 21
467
  0
LINE
  8
0
 10
134.5
 20
467
 11
154.5
 21
467
  0
LINE
  8
0
 10
154.5
 20
467
 11
154.5
 21
470
  0
LINE
  8
0
 10
154.5
 20
470
 11
192.3
 21
470
  0
LINE
  8
0
 10
192.3
 20
470
 11
192.3
 21
467
  0
LINE
  8
0
 10
192.3
 20
467
 11
212.3
 21
467
  0
LINE
  8
0
 10
212.3
 20
467
 11
212.3
 21
470
  0
LINE
  8
0
 10
212.3
 20
470
 11
250.1
 21
470
  0
LINE
  8
0
 10
250.1
 20
470
 11
250.1
 21
467
  0
LINE
  8
0
 10
250.1
 20
467
 11
270.1
 21
467
  0
LINE
  8
0
 10
270.1
 20
467
 11
270.1
 21
470
  0
LINE
  8
0
 10
270.1
 20
470
 11
295
 21
470
  0
LINE
  8
0
 10
295
 20
470
 11
295
 21
530
  0
LINE
  8
0
 10
295
 20
530
 11
0
 21
530
  0
LINE
  8
0
 10
0
 20
530
 11
0
 21
470
  0
LINE
  8
0
 10
0
 20
470
 11
18.9
 21
470
  0
LINE
  8
0
 10
18.9
 20
470
 11
18.9
 21
467
  0
LINE
  8
0
 10
18.9
 20
467
 11
38.9
 21
467
  0
LINE
  8
0
 10
38.9
 20
467
 11
38.9
 21
470
  0
LINE
  8
0
 10
289
 20
490
 11
289
 21
510
  0
LINE
  8
0
 10
289
 20
510
 11
292
 21
510
  0
LINE
  8
0
 10
292
 20
510
 11
292
 21
490
  0
LINE
  8
0
 10
292
 20
490
 11
289
 21
490
  0
LINE
  8
0
 10
3
 20
490
 11
3
 21
510
  0
LINE
  8
0
 10
3
 20
510
 11
6
 21
510
  0
LINE
  8
0
 10
6
 20
510
 11
6
 21
490
  0
LINE
  8
0
 10
6
 20
490
 11
3
 21
490
  0
LINE
  8
0
 10
60.2
 20
490
 11
60.2
 21
510
  0
LINE
  8
0
 10
60.2
 20
510
 11
63.2
 21
510
  0
LINE
  8
0
 10
63.2
 20
510
 11
63.2
 21
490
  0
LINE
  8
0
 10
63.2
 20
490
 11
60.2
 21
490
  0
LINE
  8
0
 10
117.4
 20
490
 11
117.4
 21
510
  0
LINE
  8
0
 10
117.4
 20
510
 11
120.4
 21
510
  0
LINE
  8
0
 10
120.4
 20
510
 11
120.4
 21
490
  0
LINE
  8
0
 10
120.4
 20
490
 11
117.4
 21
490
  0
LINE
  8
0
 10
174.6
 20
490
 11
174.6
 21
510
  0
LINE
  8
0
 10
174.6
 20
510
 11
177.6
 21
510
  0
LINE
  8
0
 10
177.6
 20
510
 11
177.6
 21
490
  0
LINE
  8
0
 10
177.6
 20
490
 11
174.6
 21
490
  0
LINE
  8
0
 10
231.8
 20
490
 11
231.8
 21
510
  0
LINE
  8
0
 10
231.8
 20
510
 11
234.8
 21
510
  0
LINE
  8
0
 10
234.8
 20
510
 11
234.8
 21
490
  0
LINE
  8
0
 10
234.8
 20
490
 11
231.8
 21
490
  0
LINE
  8
0
 10
532.1
 20
470
 11
549.2
 21
470
  0
LINE
  8
0
 10
549.2
 20
470
 11
549.2
 21
490
  0
LINE
  8
0
 10
549.2
 20
490
 11
550.7
 21
490
  0
LINE
  8
0
 10
550.7
 20
490
 11
550.7
 21
510
  0
LINE
  8
0
 10
550.7
 20
510
 11
549.2
 21
510
  0
LINE
  8
0
 10
549.2
 20
510
 11
549.2
 21
530
  0
LINE
  8
0
 10
549.2
 20
530
 11
495
 21
530
  0
LINE
  8
0
 10
495
 20
530
 11
495
 21
510
  0
LINE
  8
0
 10
495
 20
510
 11
493.5
 21
510
  0
LINE
  8
0
 10
493.5
 20
510
 11
493.5
 21
490
  0
LINE
  8
0
 10
493.5
 20
490
 11
495
 21
490
  0
LINE
  8
0
 10
495
 20
490
 11
495
 21
470
  0
LINE
  8
0
 10
495
 20
470
 11
512.1
 21
470
  0
LINE
  8
0
 10
512.1
 20
470
 11
512.1
 21
467
  0
LINE
  8
0
 10
512.1
 20
467
 11
532.1
 21
467
  0
LINE
  8
0
 10
532.1
 20
467
 11
532.1
 21
470
  0
LINE
  8
0
 10
467.1
 20
470
 11
484.2
 21
470
  0
LINE
  8
0
 10
484.2
 20
470
 11
484.2
 21
490
  0
LINE
  8
0
 10
484.2
 20
490
 11
485.7
 21
490
  0
LINE
  8
0
 10
485.7
 20
490
 11
485.7
 21
510
  0
LINE
  8
0
 10
485.7
 20
510
 11
484.2
 21
510
  0
LINE
  8
0
 10
484.2
 20
510
 11
484.2
 21
530
  0
LINE
  8
0
 10
484.2
 20
530
 11
430
 21
530
  0
LINE
  8
0
 10
430
 20
530
 11
430
 21
510
  0
LINE
  8
0
 10
430
 20
510
 11
428.5
 21
510
  0
LINE
  8
0
 10
428.5
 20
510
 11
428.5
 21
490
  0
LINE
  8
0
 10
428.5
 20
490
 11
430
 21
490
  0
LINE
  8
0
 10
430
 20
490
 11
430
 21
470
  0
LINE
  8
0
 10
430
 20
470
 11
447.1
 21
470
  0
LINE
  8
0
 10
447.1
 20
470
 11
447.1
 21
467
  0
LINE
  8
0
 10
447.1
 20
467
 11
467.1
 21
467
  0
LINE
  8
0
 10
467.1
 20
467
 11
467.1
 21
470
  0
LINE
  8
0
 10
402.1
 20
470
 11
419.2
 21
470
  0
LINE
  8
0
 10
419.2
 20
470
 11
419.2
 21
490
  0
LINE
  8
0
 10
419.2
 20
490
 11
420.7
 21
490
  0
LINE
  8
0
 10
420.7
 20
490
 11
420.7
 21
510
  0
LINE
  8
0
 10
420.7
 20
510
 11
419.2
 21
510
  0
LINE
  8
0
 10
419.2
 20
510
 11
419.2
 21
530
  0
LINE
  8
0
 10
419.2
 20
530
 11
365
 21
530
  0
LINE
  8
0
 10
365
 20
530
 11
365
 21
510
  0
LINE
  8
0
 10
365
 20
510
 11
363.5
 21
510
  0
LINE
  8
0
 10
363.5
 20
510
 11
363.5
 21
490
  0
LINE
  8
0
 10
363.5
 20
490
 11
365
 21
490
  0
LINE
  8
0
 10
365
 20
490
 11
365
 21
470
  0
LINE
  8
0
 10
365
 20
470
 11
382.1
 21
470
  0
LINE
  8
0
 10
382.1
 20
470
 11
382.1
 21
467
  0
LINE
  8
0
 10
382.1
 20
467
 11
402.1
 21
467
  0
LINE
  8
0
 10
402.1
 20
467
 11
402.1
 21
470
  0
LINE
  8
0
 10
337.1
 20
470
 11
354.2
 21
470
  0
LINE
  8
0
 10
354.2
 20
470
 11
354.2
 21
490
  0
LINE
  8
0
 10
354.2
 20
490
 11
355.7
 21
490
  0
LINE
  8
0
 10
355.7
 20
490
 11
355.7
 21
510
  0
LINE
  8
0
 10
355.7
 20
510
 11
354.2
 21
510
  0
LINE
  8
0
 10
354.2
 20
510
 11
354.2
 21
530
  0
LINE
  8
0
 10
354.2
 20
530
 11
300
 21
530
  0
LINE
  8
0
 10
300
 20
530
 11
300
 21
510
  0
LINE
  8
0
 10
300
 20
510
 11
298.5
 21
510
  0
LINE
  8
0
 10
298.5
 20
510
 11
298.5
 21
490
  0
LINE
  8
0
 10
298.5
 20
490
 11
300
 21
490
  0
LINE
  8
0
 10
300
 20
490
 11
300
 21
470
  0
LINE
  8
0
 10
300
 20
470
 11
317.1
 21
470
  0
LINE
  8
0
 10
317.1
 20
470
 11
317.1
 21
467
  0
LINE
  8
0
 10
317.1
 20
467
 11
337.1
 21
467
  0
LINE
  8
0
 10
337.1
 20
467
 11
337.1
 21
470
  0
LINE
  8
0
 10
295
 20
465
 11
0
 21
465
  0
LINE
  8
0
 10
0
 20
465
 11
0
 21
0
  0
LINE
  8
0
 10
0
 20
0
 11
295
 21
0
  0
LINE
  8
0
 10
295
 20
0
 11
295
 21
465
  0
LINE
  8
0
 10
18.9
 20
459
 11
18.9
 21
462
  0
LINE
  8
0
 10
18.9
 20
462
 11
38.9
 21
462
  0
LINE
  8
0
 10
38.9
 20
462
 11
38.9
 21
459
  0
LINE
  8
0
 10
38.9
 20
459
 11
18.9
 21
459
  0
LINE
  8
0
 10
76.7
 20
459
 11
76.7
 21
462
  0
LINE
  8
0
 10
76.7
 20
462
 11
96.7
 21
462
  0
LINE
  8
0
 10
96.7
 20
462
 11
96.7
 21
459
  0
LINE
  8
0
 10
96.7
 20
459
 11
76.7
 21
459
  0
LINE
  8
0
 10
134.5
 20
459
 11
134.5
 21
462
  0
LINE
  8
0
 10
134.5
 20
462
 11
154.5
 21
462
  0
LINE
  8
0
 10
154.5
 20
462
 11
154.5
 21
459
  0
LINE
  8
0
 10
154.5
 20
459
 11
134.5
 21
459
  0
LINE
  8
0
 10
192.3
 20
459
 11
192.3
 21
462
  0
LINE
  8
0
 10
192.3
 20
462
 11
212.3
 21
462
  0
LINE
  8
0
 10
212.3
 20
462
 11
212.3
 21
459
  0
LINE
  8
0
 10
212.3
 20
459
 11
192.3
 21
459
  0
LINE
  8
0
 10
250.1
 20
459
 11
250.1
 21
462
  0
LINE
  8
0
 10
250.1
 20
462
 11
270.1
 21
462
  0
LINE
  8
0
 10
270.1
 20
462
 11
270.1
 21
459
  0
LINE
  8
0
 10
270.1
 20
459
 11
250.1
 21
459
  0
LINE
  8
0
 10
3
 20
439
 11
3
 21
459
  0
LINE
  8
0
 10
3
 20
459
 11
6
 21
459
  0
LINE
  8
0
 10
6
 20
459
 11
6
 21
439
  0
LINE
  8
0
 10
6
 20
439
 11
3
 21
439
  0
LINE
  8
0
 10
60.2
 20
439
 11
60.2
 21
459
  0
LINE
  8
0
 10
60.2
 20
459
 11
63.2
 21
459
  0
LINE
  8
0
 10
63.2
 20
459
 11
63.2
 21
439
  0
LINE
  8
0
 10
63.2
 20
439
 11
60.2
 21
439
  0
LINE
  8
0
 10
117.4
 20
439
 11
117.4
 21
459
  0
LINE
  8
0
 10
117.4
 20
459
 11
120.4
 21
459
  0
LINE
  8
0
 10
120.4
 20
459
 11
120.4
 21
439
  0
LINE
  8
0
 10
120.4
 20
439
 11
117.4
 21
439
  0
LINE
  8
0
 10
174.6
 20
439
 11
174.6
 21
459
  0
LINE
  8
0
 10
174.6
 20
459
 11
177.6
 21
459
  0
LINE
  8
0
 10
177.6
 20
459
 11
177.6
 21
439
  0
LINE
  8
0
 10
177.6
 20
439
 11
174.6
 21
439
  0
LINE
  8
0
 10
231.8
 20
439
 11
231.8
 21
459
  0
LINE
  8
0
 10
231.8
 20
459
 11
234.8
 21
459
  0
LINE
  8
0
 10
234.8
 20
459
 11
234.8
 21
439
  0
LINE
  8
0
 10
234.8
 20
439
 11
231.8
 21
439
  0
LINE
  8
0
 10
289
 20
439
 11
289
 21
459
  0
LINE
  8
0
 10
289
 20
459
 11
292
 21
459
  0
LINE
  8
0
 10
292
 20
459
 11
292
 21
439
  0
LINE
  8
0
 10
292
 20
439
 11
289
 21
439
  0
LINE
  8
0
 10
60.2
 20
395.7
 11
60.2
 21
415.7
  0
LINE
  8
0
 10
60.2
 20
415.7
 11
63.2
 21
415.7
  0
LINE
  8
0
 10
63.2
 20
415.7
 11
63.2
 21
395.7
  0
LINE
  8
0
 10
63.2
 20
395.7
 11
60.2
 21
395.7
  0
LINE
  8
0
 10
117.4
 20
395.7
 11
117.4
 21
415.7
  0
LINE
  8
0
 10
117.4
 20
415.7
 11
120.4
 21
415.7
  0
LINE
  8
0
 10
120.4
 20
415.7
 11
120.4
 21
395.7
  0
LINE
  8
0
 10
120.4
 20
395.7
 11
117.4
 21
395.7
  0
LINE
  8
0
 10
174.6
 20
395.7
 11
174.6
 21
415.7
  0
LINE
  8
0
 10
174.6
 20
415.7
 11
177.6
 21
415.7
  0
LINE
  8
0
 10
177.6
 20
415.7
 11
177.6
 21
395.7
  0
LINE
  8
0
 10
177.6
 20
395.7
 11
174.6
 21
395.7
  0
LINE
  8
0
 10
231.8
 20
395.7
 11
231.8
 21
415.7
  0
LINE
  8
0
 10
231.8
 20
415.7
 11
234.8
 21
415.7
  0
LINE
  8
0
 10
234.8
 20
415.7
 11
234.8
 21
395.7
  0
LINE
  8
0
 10
234.8
 20
395.7
 11
231.8
 21
395.7
  0
LINE
  8
0
 10
3
 20
395.7
 11
3
 21
415.7
  0
LINE
  8
0
 10
3
 20
415.7
 11
6
 21
415.7
  0
LINE
  8
0
 10
6
 20
415.7
 11
6
 21
395.7
  0
LINE
  8
0
 10
6
 20
395.7
 11
3
 21
395.7
  0
LINE
  8
0
 10
289
 20
395.7
 11
289
 21
415.7
  0
LINE
  8
0
 10
289
 20
415.7
 11
292
 21
415.7
  0
LINE
  8
0
 10
292
 20
415.7
 11
292
 21
395.7
  0
LINE
  8
0
 10
292
 20
395.7
 11
289
 21
395.7
  0
LINE
  8
0
 10
60.2
 20
352.4
 11
60.2
 21
372.4
  0
LINE
  8
0
 10
60.2
 20
372.4
 11
63.2
 21
372.4
  0
LINE
  8
0
 10
63.2
 20
372.4
 11
63.2
 21
352.4
  0
LINE
  8
0
 10
63.2
 20
352.4
 11
60.2
 21
352.4
  0
LINE
  8
0
 10
3
 20
352.4
 11
3
 21
372.4
  0
LINE
  8
0
 10
3
 20
372.4
 11
6
 21
372.4
  0
LINE
  8
0
 10
6
 20
372.4
 11
6
 21
352.4
  0
LINE
  8
0
 10
6
 20
352.4
 11
3
 21
352.4
  0
LINE
  8
0
 10
289
 20
352.4
 11
289
 21
372.4
  0
LINE
  8
0
 10
289
 20
372.4
 11
292
 21
372.4
  0
LINE
  8
0
 10
292
 20
372.4
 11
292
 21
352.4
  0
LINE
  8
0
 10
292
 20
352.4
 11
289
 21
352.4
  0
LINE
  8
0
 10
174.6
 20
352.4
 11
174.6
 21
372.4
  0
LINE
  8
0
 10
174.6
 20
372.4
 11
177.6
 21
372.4
  0
LINE
  8
0
 10
177.6
 20
372.4
 11
177.6
 21
352.4
  0
LINE
  8
0
 10
177.6
 20
352.4
 11
174.6
 21
352.4
  0
LINE
  8
0
 10
117.4
 20
352.4
 11
117.4
 21
372.4
  0
LINE
  8
0
 10
117.4
 20
372.4
 11
120.4
 21
372.4
  0
LINE
  8
0
 10
120.4
 20
372.4
 11
120.4
 21
352.4
  0
LINE
  8
0
 10
120.4
 20
352.4
 11
117.4
 21
352.4
  0
LINE
  8
0
 10
231.8
 20
352.4
 11
231.8
 21
372.4
  0
LINE
  8
0
 10
231.8
 20
372.4
 11
234.8
 21
372.4
  0
LINE
  8
0
 10
234.8
 20
372.4
 11
234.8
 21
352.4
  0
LINE
  8
0
 10
234.8
 20
352.4
 11
231.8
 21
352.4
  0
LINE
  8
0
 10
117.4
 20
309.1
 11
117.4
 21
329.1
  0
LINE
  8
0
 10
117.4
 20
329.1
 11
120.4
 21
329.1
  0
LINE
  8
0
 10
120.4
 20
329.1
 11
120.4
 21
309.1
  0
LINE
  8
0
 10
120.4
 20
309.1
 11
117.4
 21
309.1
  0
LINE
  8
0
 10
289
 20
309.1
 11
289
 21
329.1
  0
LINE
  8
0
 10
289
 20
329.1
 11
292
 21
329.1
  0
LINE
  8
0
 10
292
 20
329.1
 11
292
 21
309.1
  0
LINE
  8
0
 10
292
 20
309.1
 11
289
 21
309.1
  0
LINE
  8
0
 10
231.8
 20
309.1
 11
231.8
 21
329.1
  0
LINE
  8
0
 10
231.8
 20
329.1
 11
234.8
 21
329.1
  0
LINE
  8
0
 10
234.8
 20
329.1
 11
234.8
 21
309.1
  0
LINE
  8
0
 10
234.8
 20
309.1
 11
231.8
 21
309.1
  0
LINE
  8
0
 10
174.6
 20
309.1
 11
174.6
 21
329.1
  0
LINE
  8
0
 10
174.6
 20
329.1
 11
177.6
 21
329.1
  0
LINE
  8
0
 10
177.6
 20
329.1
 11
177.6
 21
309.1
  0
LINE
  8
0
 10
177.6
 20
309.1
 11
174.6
 21
309.1
  0
LINE
  8
0
 10
60.2
 20
309.1
 11
60.2
 21
329.1
  0
LINE
  8
0
 10
60.2
 20
329.1
 11
63.2
 21
329.1
  0
LINE
  8
0
 10
63.2
 20
329.1
 11
63.2
 21
309.1
  0
LINE
  8
0
 10
63.2
 20
309.1
 11
60.2
 21
309.1
  0
LINE
  8
0
 10
3
 20
309.1
 11
3
 21
329.1
  0
LINE
  8
0
 10
3
 20
329.1
 11
6
 21
329.1
  0
LINE
  8
0
 10
6
 20
329.1
 11
6
 21
309.1
  0
LINE
  8
0
 10
6
 20
309.1
 11
3
 21
309.1
  0
LINE
  8
0
 10
60.2
 20
265.8
 11
60.2
 21
285.8
  0
LINE
  8
0
 10
60.2
 20
285.8
 11
63.2
 21
285.8
  0
LINE
  8
0
 10
63.2
 20
285.8
 11
63.2
 21
265.8
  0
LINE
  8
0
 10
63.2
 20
265.8
 11
60.2
 21
265.8
  0
LINE
  8
0
 10
231.8
 20
265.8
 11
231.8
 21
285.8
  0
LINE
  8
0
 10
231.8
 20
285.8
 11
234.8
 21
285.8
  0
LINE
  8
0
 10
234.8
 20
285.8
 11
234.8
 21
265.8
  0
LINE
  8
0
 10
234.8
 20
265.8
 11
231.8
 21
265.8
  0
LINE
  8
0
 10
3
 20
265.8
 11
3
 21
285.8
  0
LINE
  8
0
 10
3
 20
285.8
 11
6
 21
285.8
  0
LINE
  8
0
 10
6
 20
285.8
 11
6
 21
265.8
  0
LINE
  8
0
 10
6
 20
265.8
 11
3
 21
265.8
  0
LINE
  8
0
 10
117.4
 20
265.8
 11
117.4
 21
285.8
  0
LINE
  8
0
 10
117.4
 20
285.8
 11
120.4
 21
285.8
  0
LINE
  8
0
 10
120.4
 20
285.8
 11
120.4
 21
265.8
  0
LINE
  8
0
 10
120.4
 20
265.8
 11
117.4
 21
265.8
  0
LINE
  8
0
 10
174.6
 20
265.8
 11
174.6
 21
285.8
  0
LINE
  8
0
 10
174.6
 20
285.8
 11
177.6
 21
285.8
  0
LINE
  8
0
 10
177.6
 20
285.8
 11
177.6
 21
265.8
  0
LINE
  8
0
 10
177.6
 20
265.8
 11
174.6
 21
265.8
  0
LINE
  8
0
 10
289
 20
265.8
 11
289
 21
285.8
  0
LINE
  8
0
 10
289
 20
285.8
 11
292
 21
285.8
  0
LINE
  8
0
 10
292
 20
285.8
 11
292
 21
265.8
  0
LINE
  8
0
 10
292
 20
265.8
 11
289
 21
265.8
  0
LINE
  8
0
 10
231.8
 20
222.5
 11
231.8
 21
242.5
  0
LINE
  8
0
 10
231.8
 20
242.5
 11
234.8
 21
242.5
  0
LINE
  8
0
 10
234.8
 20
242.5
 11
234.8
 21
222.5
  0
LINE
  8
0
 10
234.8
 20
222.5
 11
231.8
 21
222.5
  0
LINE
  8
0
 10
60.2
 20
222.5
 11
60.2
 21
242.5
  0
LINE
  8
0
 10
60.2
 20
242.5
 11
63.2
 21
242.5
  0
LINE
  8
0
 10
63.2
 20
242.5
 11
63.2
 21
222.5
  0
LINE
  8
0
 10
63.2
 20
222.5
 11
60.2
 21
222.5
  0
LINE
  8
0
 10
117.4
 20
222.5
 11
117.4
 21
242.5
  0
LINE
  8
0
 10
117.4
 20
242.5
 11
120.4
 21
242.5
  0
LINE
  8
0
 10
120.4
 20
242.5
 11
120.4
 21
222.5
  0
LINE
  8
0
 10
120.4
 20
222.5
 11
117.4
 21
222.5
  0
LINE
  8
0
 10
3
 20
222.5
 11
3
 21
242.5
  0
LINE
  8
0
 10
3
 20
242.5
 11
6
 21
242.5
  0
LINE
  8
0
 10
6
 20
242.5
 11
6
 21
222.5
  0
LINE
  8
0
 10
6
 20
222.5
 11
3
 21
222.5
  0
LINE
  8
0
 10
289
 20
222.5
 11
289
 21
242.5
  0
LINE
  8
0
 10
289
 20
242.5
 11
292
 21
242.5
  0
LINE
  8
0
 10
292
 20
242.5
 11
292
 21
222.5
  0
LINE
  8
0
 10
292
 20
222.5
 11
289
 21
222.5
  0
LINE
  8
0
 10
174.6
 20
222.5
 11
174.6
 21
242.5
  0
LINE
  8
0
 10
174.6
 20
242.5
 11
177.6
 21
242.5
  0
LINE
  8
0
 10
177.6
 20
242.5
 11
177.6
 21
222.5
  0
LINE
  8
0
 10
177.6
 20
222.5
 11
174.6
 21
222.5
  0
LINE
  8
0
 10
251.9
 20
236
 11
251.9
 21
239
  0
LINE
  8
0
 10
251.9
 20
239
 11
271.9
 21
239
  0
LINE
  8
0
 10
271.9
 20
239
 11
271.9
 21
236
  0
LINE
  8
0
 10
271.9
 20
236
 11
251.9
 21
236
  0
LINE
  8
0
 10
137.5
 20
236
 11
137.5
 21
239
  0
LINE
  8
0
 10
137.5
 20
239
 11
157.5
 21
239
  0
LINE
  8
0
 10
157.5
 20
239
 11
157.5
 21
236
  0
LINE
  8
0
 10
157.5
 20
236
 11
137.5
 21
236
  0
LINE
  8
0
 10
194.7
 20
236
 11
194.7
 21
239
  0
LINE
  8
0
 10
194.7
 20
239
 11
214.7
 21
239
  0
LINE
  8
0
 10
214.7
 20
239
 11
214.7
 21
236
  0
LINE
  8
0
 10
214.7
 20
236
 11
194.7
 21
236
  0
LINE
  8
0
 10
231.8
 20
179.2
 11
231.8
 21
199.2
  0
LINE
  8
0
 10
231.8
 20
199.2
 11
234.8
 21
199.2
  0
LINE
  8
0
 10
234.8
 20
199.2
 11
234.8
 21
179.2
  0
LINE
  8
0
 10
234.8
 20
179.2
 11
231.8
 21
179.2
  0
LINE
  8
0
 10
289
 20
179.2
 11
289
 21
199.2
  0
LINE
  8
0
 10
289
 20
199.2
 11
292
 21
199.2
  0
LINE
  8
0
 10
292
 20
199.2
 11
292
 21
179.2
  0
LINE
  8
0
 10
292
 20
179.2
 11
289
 21
179.2
  0
LINE
  8
0
 10
174.6
 20
179.2
 11
174.6
 21
199.2
  0
LINE
  8
0
 10
174.6
 20
199.2
 11
177.6
 21
199.2
  0
LINE
  8
0
 10
177.6
 20
199.2
 11
177.6
 21
179.2
  0
LINE
  8
0
 10
177.6
 20
179.2
 11
174.6
 21
179.2
  0
LINE
  8
0
 10
60.2
 20
179.2
 11
60.2
 21
199.2
  0
LINE
  8
0
 10
60.2
 20
199.2
 11
63.2
 21
199.2
  0
LINE
  8
0
 10
63.2
 20
199.2
 11
63.2
 21
179.2
  0
LINE
  8
0
 10
63.2
 20
179.2
 11
60.2
 21
179.2
  0
LINE
  8
0
 10
3
 20
179.2
 11
3
 21
199.2
  0
LINE
  8
0
 10
3
 20
199.2
 11
6
 21
199.2
  0
LINE
  8
0
 10
6
 20
199.2
 11
6
 21
179.2
  0
LINE
  8
0
 10
6
 20
179.2
 11
3
 21
179.2
  0
LINE
  8
0
 10
117.4
 20
179.2
 11
117.4
 21
199.2
  0
LINE
  8
0
 10
117.4
 20
199.2
 11
120.4
 21
199.2
  0
LINE
  8
0
 10
120.4
 20
199.2
 11
120.4
 21
179.2
  0
LINE
  8
0
 10
120.4
 20
179.2
 11
117.4
 21
179.2
  0
LINE
  8
0
 10
23.1
 20
171
 11
23.1
 21
174
  0
LINE
  8
0
 10
23.1
 20
174
 11
43.1
 21
174
  0
LINE
  8
0
 10
43.1
 20
174
 11
43.1
 21
171
  0
LINE
  8
0
 10
43.1
 20
171
 11
23.1
 21
171
  0
LINE
  8
0
 10
80.3
 20
171
 11
80.3
 21
174
  0
LINE
  8
0
 10
80.3
 20
174
 11
100.3
 21
174
  0
LINE
  8
0
 10
100.3
 20
174
 11
100.3
 21
171
  0
LINE
  8
0
 10
100.3
 20
171
 11
80.3
 21
171
  0
LINE
  8
0
 10
60.2
 20
135.9
 11
60.2
 21
155.9
  0
LINE
  8
0
 10
60.2
 20
155.9
 11
63.2
 21
155.9
  0
LINE
  8
0
 10
63.2
 20
155.9
 11
63.2
 21
135.9
  0
LINE
  8
0
 10
63.2
 20
135.9
 11
60.2
 21
135.9
  0
LINE
  8
0
 10
174.6
 20
135.9
 11
174.6
 21
155.9
  0
LINE
  8
0
 10
174.6
 20
155.9
 11
177.6
 21
155.9
  0
LINE
  8
0
 10
177.6
 20
155.9
 11
177.6
 21
135.9
  0
LINE
  8
0
 10
177.6
 20
135.9
 11
174.6
 21
135.9
  0
LINE
  8
0
 10
289
 20
135.9
 11
289
 21
155.9
  0
LINE
  8
0
 10
289
 20
155.9
 11
292
 21
155.9
  0
LINE
  8
0
 10
292
 20
155.9
 11
292
 21
135.9
  0
LINE
  8
0
 10
292
 20
135.9
 11
289
 21
135.9
  0
LINE
  8
0
 10
3
 20
135.9
 11
3
 21
155.9
  0
LINE
  8
0
 10
3
 20
155.9
 11
6
 21
155.9
  0
LINE
  8
0
 10
6
 20
155.9
 11
6
 21
135.9
  0
LINE
  8
0
 10
6
 20
135.9
 11
3
 21
135.9
  0
LINE
  8
0
 10
117.4
 20
135.9
 11
117.4
 21
155.9
  0
LINE
  8
0
 10
117.4
 20
155.9
 11
120.4
 21
155.9
  0
LINE
  8
0
 10
120.4
 20
155.9
 11
120.4
 21
135.9
  0
LINE
  8
0
 10
120.4
 20
135.9
 11
117.4
 21
135.9
  0
LINE
  8
0
 10
231.8
 20
135.9
 11
231.8
 21
155.9
  0
LINE
  8
0
 10
231.8
 20
155.9
 11
234.8
 21
155.9
  0
LINE
  8
0
 10
234.8
 20
155.9
 11
234.8
 21
135.9
  0
LINE
  8
0
 10
234.8
 20
135.9
 11
231.8
 21
135.9
  0
LINE
  8
0
 10
60.2
 20
92.6
 11
60.2
 21
112.6
  0
LINE
  8
0
 10
60.2
 20
112.6
 11
63.2
 21
112.6
  0
LINE
  8
0
 10
63.2
 20
112.6
 11
63.2
 21
92.6
  0
LINE
  8
0
 10
63.2
 20
92.6
 11
60.2
 21
92.6
  0
LINE
  8
0
 10
231.8
 20
92.6
 11
231.8
 21
112.6
  0
LINE
  8
0
 10
231.8
 20
112.6
 11
234.8
 21
112.6
  0
LINE
  8
0
 10
234.8
 20
112.6
 11
234.8
 21
92.6
  0
LINE
  8
0
 10
234.8
 20
92.6
 11
231.8
 21
92.6
  0
LINE
  8
0
 10
289
 20
92.6
 11
289
 21
112.6
  0
LINE
  8
0
 10
289
 20
112.6
 11
292
 21
112.6
  0
LINE
  8
0
 10
292
 20
112.6
 11
292
 21
92.6
  0
LINE
  8
0
 10
292
 20
92.6
 11
289
 21
92.6
  0
LINE
  8
0
 10
3
 20
92.6
 11
3
 21
112.6
  0
LINE
  8
0
 10
3
 20
112.6
 11
6
 21
112.6
  0
LINE
  8
0
 10
6
 20
112.6
 11
6
 21
92.6
  0
LINE
  8
0
 10
6
 20
92.6
 11
3
 21
92.6
  0
LINE
  8
0
 10
174.6
 20
92.6
 11
174.6
 21
112.6
  0
LINE
  8
0
 10
174.6
 20
112.6
 11
177.6
 21
112.6
  0
LINE
  8
0
 10
177.6
 20
112.6
 11
177.6
 21
92.6
  0
LINE
  8
0
 10
177.6
 20
92.6
 11
174.6
 21
92.6
  0
LINE
  8
0
 10
117.4
 20
92.6
 11
117.4
 21
112.6
  0
LINE
  8
0
 10
117.4
 20
112.6
 11
120.4
 21
112.6
  0
LINE
  8
0
 10
120.4
 20
112.6
 11
120.4
 21
92.6
  0
LINE
  8
0
 10
120.4
 20
92.6
 11
117.4
 21
92.6
  0
LINE
  8
0
 10
289
 20
49.3
 11
289
 21
69.3
  0
LINE
  8
0
 10
289
 20
69.3
 11
292
 21
69.3
  0
LINE
  8
0
 10
292
 20
69.3
 11
292
 21
49.3
  0
LINE
  8
0
 10
292
 20
49.3
 11
289
 21
49.3
  0
LINE
  8
0
 10
60.2
 20
49.3
 11
60.2
 21
69.3
  0
LINE
  8
0
 10
60.2
 20
69.3
 11
63.2
 21
69.3
  0
LINE
  8
0
 10
63.2
 20
69.3
 11
63.2
 21
49.3
  0
LINE
  8
0
 10
63.2
 20
49.3
 11
60.2
 21
49.3
  0
LINE
  8
0
 10
231.8
 20
49.3
 11
231.8
 21
69.3
  0
LINE
  8
0
 10
231.8
 20
69.3
 11
234.8
 21
69.3
  0
LINE
  8
0
 10
234.8
 20
69.3
 11
234.8
 21
49.3
  0
LINE
  8
0
 10
234.8
 20
49.3
 11
231.8
 21
49.3
  0
LINE
  8
0
 10
117.4
 20
49.3
 11
117.4
 21
69.3
  0
LINE
  8
0
 10
117.4
 20
69.3
 11
120.4
 21
69.3
  0
LINE
  8
0
 10
120.4
 20
69.3
 11
120.4
 21
49.3
  0
LINE
  8
0
 10
120.4
 20
49.3
 11
117.4
 21
49.3
  0
LINE
  8
0
 10
3
 20
49.3
 11
3
 21
69.3
  0
LINE
  8
0
 10
3
 20
69.3
 11
6
 21
69.3
  0
LINE
  8
0
 10
6
 20
69.3
 11
6
 21
49.3
  0
LINE
  8
0
 10
6
 20
49.3
 11
3
 21
49.3
  0
LINE
  8
0
 10
174.6
 20
49.3
 11
174.6
 21
69.3
  0
LINE
  8
0
 10
174.6
 20
69.3
 11
177.6
 21
69.3
  0
LINE
  8
0
 10
177.6
 20
69.3
 11
177.6
 21
49.3
  0
LINE
  8
0
 10
177.6
 20
49.3
 11
174.6
 21
49.3
  0
LINE
  8
0
 10
289
 20
6
 11
289
 21
26
  0
LINE
  8
0
 10
289
 20
26
 11
292
 21
26
  0
LINE
  8
0
 10
292
 20
26
 11
292
 21
6
  0
LINE
  8
0
 10
292
 20
6
 11
289
 21
6
  0
LINE
  8
0
 10
3
 20
6
 11
3
 21
26
  0
LINE
  8
0
 10
3
 20
26
 11
6
 21
26
  0
LINE
  8
0
 10
6
 20
26
 11
6
 21
6
  0
LINE
  8
0
 10
6
 20
6
 11
3
 21
6
  0
LINE
  8
0
 10
231.8
 20
6
 11
231.8
 21
26
  0
LINE
  8
0
 10
231.8
 20
26
 11
234.8
 21
26
  0
LINE
  8
0
 10
234.8
 20
26
 11
234.8
 21
6
  0
LINE
  8
0
 10
234.8
 20
6
 11
231.8
 21
6
  0
LINE
  8
0
 10
60.2
 20
6
 11
60.2
 21
26
  0
LINE
  8
0
 10
60.2
 20
26
 11
63.2
 21
26
  0
LINE
  8
0
 10
63.2
 20
26
 11
63.2
 21
6
  0
LINE
  8
0
 10
63.2
 20
6
 11
60.2
 21
6
  0
LINE
  8
0
 10
117.4
 20
6
 11
117.4
 21
26
  0
LINE
  8
0
 10
117.4
 20
26
 11
120.4
 21
26
  0
LINE
  8
0
 10
120.4
 20
26
 11
120.4
 21
6
  0
LINE
  8
0
 10
120.4
 20
6
 11
117.4
 21
6
  0
LINE
  8
0
 10
174.6
 20
6
 11
174.6
 21
26
  0
LINE
  8
0
 10
174.6
 20
26
 11
177.6
 21
26
  0
LINE
  8
0
 10
177.6
 20
26
 11
177.6
 21
6
  0
LINE
  8
0
 10
177.6
 20
6
 11
174.6
 21
6
  0
LINE
  8
0
 10
76.7
 20
3
 11
76.7
 21
6
  0
LINE
  8
0
 10
76.7
 20
6
 11
96.7
 21
6
  0
LINE
  8
0
 10
96.7
 20
6
 11
96.7
 21
3
  0
LINE
  8
0
 10
96.7
 20
3
 11
76.7
 21
3
  0
LINE
  8
0
 10
134.5
 20
3
 11
134.5
 21
6
  0
LINE
  8
0
 10
134.5
 20
6
 11
154.5
 21
6
  0
LINE
  8
0
 10
154.5
 20
6
 11
154.5
 21
3
  0
LINE
  8
0
 10
154.5
 20
3
 11
134.5
 21
3
  0
LINE
  8
0
 10
192.3
 20
3
 11
192.3
 21
6
  0
LINE
  8
0
 10
192.3
 20
6
 11
212.3
 21
6
  0
LINE
  8
0
 10
212.3
 20
6
 11
212.3
 21
3
  0
LINE
  8
0
 10
212.3
 20
3
 11
192.3
 21
3
  0
LINE
  8
0
 10
250.1
 20
3
 11
250.1
 21
6
  0
LINE
  8
0
 10
250.1
 20
6
 11
270.1
 21
6
  0
LINE
  8
0
 10
270.1
 20
6
 11
270.1
 21
3
  0
LINE
  8
0
 10
270.1
 20
3
 11
250.1
 21
3
  0
LINE
  8
0
 10
18.9
 20
3
 11
18.9
 21
6
  0
LINE
  8
0
 10
18.9
 20
6
 11
38.9
 21
6
  0
LINE
  8
0
 10
38.9
 20
6
 11
38.9
 21
3
  0
LINE
  8
0
 10
38.9
 20
3
 11
18.9
 21
3
  0
LINE
  8
0
 10
665
 20
6
 11
685
 21
6
  0
LINE
  8
0
 10
685
 20
6
 11
685
 21
459
  0
LINE
  8
0
 10
685
 20
459
 11
665
 21
459
  0
LINE
  8
0
 10
665
 20
459
 11
665
 21
462
  0
LINE
  8
0
 10
665
 20
462
 11
645
 21
462
  0
LINE
  8
0
 10
645
 20
462
 11
645
 21
459
  0
LINE
  8
0
 10
645
 20
459
 11
622
 21
459
  0
LINE
  8
0
 10
622
 20
459
 11
622
 21
439
  0
LINE
  8
0
 10
622
 20
439
 11
625
 21
439
  0
LINE
  8
0
 10
625
 20
439
 11
625
 21
415.7
  0
LINE
  8
0
 10
625
 20
415.7
 11
622
 21
415.7
  0
LINE
  8
0
 10
622
 20
415.7
 11
622
 21
395.7
  0
LINE
  8
0
 10
622
 20
395.7
 11
625
 21
395.7
  0
LINE
  8
0
 10
625
 20
395.7
 11
625
 21
372.4
  0
LINE
  8
0
 10
625
 20
372.4
 11
622
 21
372.4
  0
LINE
  8
0
 10
622
 20
372.4
 11
622
 21
352.4
  0
LINE
  8
0
 10
622
 20
352.4
 11
625
 21
352.4
  0
LINE
  8
0
 10
625
 20
352.4
 11
625
 21
329.1
  0
LINE
  8
0
 10
625
 20
329.1
 11
622
 21
329.1
  0
LINE
  8
0
 10
622
 20
329.1
 11
622
 21
309.1
  0
LINE
  8
0
 10
622
 20
309.1
 11
625
 21
309.1
  0
LINE
  8
0
 10
625
 20
309.1
 11
625
 21
285.8
  0
LINE
  8
0
 10
625
 20
285.8
 11
622
 21
285.8
  0
LINE
  8
0
 10
622
 20
285.8
 11
622
 21
265.8
  0
LINE
  8
0
 10
622
 20
265.8
 11
625
 21
265.8
  0
LINE
  8
0
 10
625
 20
265.8
 11
625
 21
242.5
  0
LINE
  8
0
 10
625
 20
242.5
 11
622
 21
242.5
  0
LINE
  8
0
 10
622
 20
242.5
 11
622
 21
222.5
  0
LINE
  8
0
 10
622
 20
222.5
 11
625
 21
222.5
  0
LINE
  8
0
 10
625
 20
222.5
 11
625
 21
199.2
  0
LINE
  8
0
 10
625
 20
199.2
 11
622
 21
199.2
  0
LINE
  8
0
 10
622
 20
199.2
 11
622
 21
179.2
  0
LINE
  8
0
 10
622
 20
179.2
 11
625
 21
179.2
  0
LINE
  8
0
 10
625
 20
179.2
 11
625
 21
155.9
  0
LINE
  8
0
 10
625
 20
155.9
 11
622
 21
155.9
  0
LINE
  8
0
 10
622
 20
155.9
 11
622
 21
135.9
  0
LINE
  8
0
 10
622
 20
135.9
 11
625
 21
135.9
  0
LINE
  8
0
 10
625
 20
135.9
 11
625
 21
112.6
  0
LINE
  8
0
 10
625
 20
112.6
 11
622
 21
112.6
  0
LINE
  8
0
 10
622
 20
112.6
 11
622
 21
92.6
  0
LINE
  8
0
 10
622
 20
92.6
 11
625
 21
92.6
  0
LINE
  8
0
 10
625
 20
92.6
 11
625
 21
69.3
  0
LINE
  8
0
 10
625
 20
69.3
 11
622
 21
69.3
  0
LINE
  8
0
 10
622
 20
69.3
 11
622
 21
49.3
  0
LINE
  8
0
 10
622
 20
49.3
 11
625
 21
49.3
  0
LINE
  8
0
 10
625
 20
49.3
 11
625
 21
26
  0
LINE
  8
0
 10
625
 20
26
 11
622
 21
26
  0
LINE
  8
0
 10
622
 20
26
 11
622
 21
6
  0
LINE
  8
0
 10
622
 20
6
 11
645
 21
6
  0
LINE
  8
0
 10
645
 20
6
 11
645
 21
3
  0
LINE
  8
0
 10
645
 20
3
 11
665
 21
3
  0
LINE
  8
0
 10
665
 20
3
 11
665
 21
6
  0
LINE
  8
0
 10
643.9
 20
236
 11
643.9
 21
239
  0
LINE
  8
0
 10
643.9
 20
239
 11
663.9
 21
239
  0
LINE
  8
0
 10
663.9
 20
239
 11
663.9
 21
236
  0
LINE
  8
0
 10
663.9
 20
236
 11
643.9
 21
236
  0
LINE
  8
0
 10
600
 20
6
 11
620
 21
6
  0
LINE
  8
0
 10
620
 20
6
 11
620
 21
459
  0
LINE
  8
0
 10
620
 20
459
 11
600
 21
459
  0
LINE
  8
0
 10
600
 20
459
 11
600
 21
462
  0
LINE
  8
0
 10
600
 20
462
 11
580
 21
462
  0
LINE
  8
0
 10
580
 20
462
 11
580
 21
459
  0
LINE
  8
0
 10
580
 20
459
 11
557
 21
459
  0
LINE
  8
0
 10
557
 20
459
 11
557
 21
439
  0
LINE
  8
0
 10
557
 20
439
 11
560
 21
439
  0
LINE
  8
0
 10
560
 20
439
 11
560
 21
415.7
  0
LINE
  8
0
 10
560
 20
415.7
 11
557
 21
415.7
  0
LINE
  8
0
 10
557
 20
415.7
 11
557
 21
395.7
  0
LINE
  8
0
 10
557
 20
395.7
 11
560
 21
395.7
  0
LINE
  8
0
 10
560
 20
395.7
 11
560
 21
372.4
  0
LINE
  8
0
 10
560
 20
372.4
 11
557
 21
372.4
  0
LINE
  8
0
 10
557
 20
372.4
 11
557
 21
352.4
  0
LINE
  8
0
 10
557
 20
352.4
 11
560
 21
352.4
  0
LINE
  8
0
 10
560
 20
352.4
 11
560
 21
329.1
  0
LINE
  8
0
 10
560
 20
329.1
 11
557
 21
329.1
  0
LINE
  8
0
 10
557
 20
329.1
 11
557
 21
309.1
  0
LINE
  8
0
 10
557
 20
309.1
 11
560
 21
309.1
  0
LINE
  8
0
 10
560
 20
309.1
 11
560
 21
285.8
  0
LINE
  8
0
 10
560
 20
285.8
 11
557
 21
285.8
  0
LINE
  8
0
 10
557
 20
285.8
 11
557
 21
265.8
  0
LINE
  8
0
 10
557
 20
265.8
 11
560
 21
265.8
  0
LINE
  8
0
 10
560
 20
265.8
 11
560
 21
242.5
  0
LINE
  8
0
 10
560
 20
242.5
 11
557
 21
242.5
  0
LINE
  8
0
 10
557
 20
242.5
 11
557
 21
222.5
  0
LINE
  8
0
 10
557
 20
222.5
 11
560
 21
222.5
  0
LINE
  8
0
 10
560
 20
222.5
 11
560
 21
199.2
  0
LINE
  8
0
 10
560
 20
199.2
 11
557
 21
199.2
  0
LINE
  8
0
 10
557
 20
199.2
 11
557
 21
179.2
  0
LINE
  8
0
 10
557
 20
179.2
 11
560
 21
179.2
  0
LINE
  8
0
 10
560
 20
179.2
 11
560
 21
155.9
  0
LINE
  8
0
 10
560
 20
155.9
 11
557
 21
155.9
  0
LINE
  8
0
 10
557
 20
155.9
 11
557
 21
135.9
  0
LINE
  8
0
 10
557
 20
135.9
 11
560
 21
135.9
  0
LINE
  8
0
 10
560
 20
135.9
 11
560
 21
112.6
  0
LINE
  8
0
 10
560
 20
112.6
 11
557
 21
112.6
  0
LINE
  8
0
 10
557
 20
112.6
 11
557
 21
92.6
  0
LINE
  8
0
 10
557
 20
92.6
 11
560
 21
92.6
  0
LINE
  8
0
 10
560
 20
92.6
 11
560
 21
69.3
  0
LINE
  8
0
 10
560
 20
69.3
 11
557
 21
69.3
  0
LINE
  8
0
 10
557
 20
69.3
 11
557
 21
49.3
  0
LINE
  8
0
 10
557
 20
49.3
 11
560
 21
49.3
  0
LINE
  8
0
 10
560
 20
49.3
 11
560
 21
26
  0
LINE
  8
0
 10
560
 20
26
 11
557
 21
26
  0
LINE
  8
0
 10
557
 20
26
 11
557
 21
6
  0
LINE
  8
0
 10
557
 20
6
 11
580
 21
6
  0
LINE
  8
0
 10
580
 20
6
 11
580
 21
3
  0
LINE
  8
0
 10
580
 20
3
 11
600
 21
3
  0
LINE
  8
0
 10
600
 20
3
 11
600
 21
6
  0
LINE
  8
0
 10
578.9
 20
236
 11
578.9
 21
239
  0
LINE
  8
0
 10
578.9
 20
239
 11
598.9
 21
239
  0
LINE
  8
0
 10
598.9
 20
239
 11
598.9
 21
236
  0
LINE
  8
0
 10
598.9
 20
236
 11
578.9
 21
236
  0
LINE
  8
0
 10
535
 20
6
 11
555
 21
6
  0
LINE
  8
0
 10
555
 20
6
 11
555
 21
459
  0
LINE
  8
0
 10
555
 20
459
 11
535
 21
459
  0
LINE
  8
0
 10
535
 20
459
 11
535
 21
462
  0
LINE
  8
0
 10
535
 20
462
 11
515
 21
462
  0
LINE
  8
0
 10
515
 20
462
 11
515
 21
459
  0
LINE
  8
0
 10
515
 20
459
 11
492
 21
459
  0
LINE
  8
0
 10
492
 20
459
 11
492
 21
439
  0
LINE
  8
0
 10
492
 20
439
 11
495
 21
439
  0
LINE
  8
0
 10
495
 20
439
 11
495
 21
415.7
  0
LINE
  8
0
 10
495
 20
415.7
 11
492
 21
415.7
  0
LINE
  8
0
 10
492
 20
415.7
 11
492
 21
395.7
  0
LINE
  8
0
 10
492
 20
395.7
 11
495
 21
395.7
  0
LINE
  8
0
 10
495
 20
395.7
 11
495
 21
372.4
  0
LINE
  8
0
 10
495
 20
372.4
 11
492
 21
372.4
  0
LINE
  8
0
 10
492
 20
372.4
 11
492
 21
352.4
  0
LINE
  8
0
 10
492
 20
352.4
 11
495
 21
352.4
  0
LINE
  8
0
 10
495
 20
352.4
 11
495
 21
329.1
  0
LINE
  8
0
 10
495
 20
329.1
 11
492
 21
329.1
  0
LINE
  8
0
 10
492
 20
329.1
 11
492
 21
309.1
  0
LINE
  8
0
 10
492
 20
309.1
 11
495
 21
309.1
  0
LINE
  8
0
 10
495
 20
309.1
 11
495
 21
285.8
  0
LINE
  8
0
 10
495
 20
285.8
 11
492
 21
285.8
  0
LINE
  8
0
 10
492
 20
285.8
 11
492
 21
265.8
  0
LINE
  8
0
 10
492
 20
265.8
 11
495
 21
265.8
  0
LINE
  8
0
 10
495
 20
265.8
 11
495
 21
242.5
  0
LINE
  8
0
 10
495
 20
242.5
 11
492
 21
242.5
  0
LINE
  8
0
 10
492
 20
242.5
 11
492
 21
222.5
  0
LINE
  8
0
 10
492
 20
222.5
 11
495
 21
222.5
  0
LINE
  8
0
 10
495
 20
222.5
 11
495
 21
199.2
  0
LINE
  8
0
 10
495
 20
199.2
 11
492
 21
199.2
  0
LINE
  8
0
 10
492
 20
199.2
 11
492
 21
179.2
  0
LINE
  8
0
 10
492
 20
179.2
 11
495
 21
179.2
  0
LINE
  8
0
 10
495
 20
179.2
 11
495
 21
155.9
  0
LINE
  8
0
 10
495
 20
155.9
 11
492
 21
155.9
  0
LINE
  8
0
 10
492
 20
155.9
 11
492
 21
135.9
  0
LINE
  8
0
 10
492
 20
135.9
 11
495
 21
135.9
  0
LINE
  8
0
 10
495
 20
135.9
 11
495
 21
112.6
  0
LINE
  8
0
 10
495
 20
112.6
 11
492
 21
112.6
  0
LINE
  8
0
 10
492
 20
112.6
 11
492
 21
92.6
  0
LINE
  8
0
 10
492
 20
92.6
 11
495
 21
92.6
  0
LINE
  8
0
 10
495
 20
92.6
 11
495
 21
69.3
  0
LINE
  8
0
 10
495
 20
69.3
 11
492
 21
69.3
  0
LINE
  8
0
 10
492
 20
69.3
 11
492
 21
49.3
  0
LINE
  8
0
 10
492
 20
49.3
 11
495
 21
49.3
  0
LINE
  8
0
 10
495
 20
49.3
 11
495
 21
26
  0
LINE
  8
0
 10
495
 20
26
 11
492
 21
26
  0
LINE
  8
0
 10
492
 20
26
 11
492
 21
6
  0
LINE
  8
0
 10
492
 20
6
 11
515
 21
6
  0
LINE
  8
0
 10
515
 20
6
 11
515
 21
3
  0
LINE
  8
0
 10
515
 20
3
 11
535
 21
3
  0
LINE
  8
0
 10
535
 20
3
 11
535
 21
6
  0
LINE
  8
0
 10
513.9
 20
236
 11
513.9
 21
239
  0
LINE
  8
0
 10
513.9
 20
239
 11
533.9
 21
239
  0
LINE
  8
0
 10
533.9
 20
239
 11
533.9
 21
236
  0
LINE
  8
0
 10
533.9
 20
236
 11
513.9
 21
236
  0
LINE
  8
0
 10
470
 20
6
 11
490
 21
6
  0
LINE
  8
0
 10
490
 20
6
 11
490
 21
459
  0
LINE
  8
0
 10
490
 20
459
 11
470
 21
459
  0
LINE
  8
0
 10
470
 20
459
 11
470
 21
462
  0
LINE
  8
0
 10
470
 20
462
 11
450
 21
462
  0
LINE
  8
0
 10
450
 20
462
 11
450
 21
459
  0
LINE
  8
0
 10
450
 20
459
 11
427
 21
459
  0
LINE
  8
0
 10
427
 20
459
 11
427
 21
439
  0
LINE
  8
0
 10
427
 20
439
 11
430
 21
439
  0
LINE
  8
0
 10
430
 20
439
 11
430
 21
415.7
  0
LINE
  8
0
 10
430
 20
415.7
 11
427
 21
415.7
  0
LINE
  8
0
 10
427
 20
415.7
 11
427
 21
395.7
  0
LINE
  8
0
 10
427
 20
395.7
 11
430
 21
395.7
  0
LINE
  8
0
 10
430
 20
395.7
 11
430
 21
372.4
  0
LINE
  8
0
 10
430
 20
372.4
 11
427
 21
372.4
  0
LINE
  8
0
 10
427
 20
372.4
 11
427
 21
352.4
  0
LINE
  8
0
 10
427
 20
352.4
 11
430
 21
352.4
  0
LINE
  8
0
 10
430
 20
352.4
 11
430
 21
329.1
  0
LINE
  8
0
 10
430
 20
329.1
 11
427
 21
329.1
  0
LINE
  8
0
 10
427
 20
329.1
 11
427
 21
309.1
  0
LINE
  8
0
 10
427
 20
309.1
 11
430
 21
309.1
  0
LINE
  8
0
 10
430
 20
309.1
 11
430
 21
285.8
  0
LINE
  8
0
 10
430
 20
285.8
 11
427
 21
285.8
  0
LINE
  8
0
 10
427
 20
285.8
 11
427
 21
265.8
  0
LINE
  8
0
 10
427
 20
265.8
 11
430
 21
265.8
  0
LINE
  8
0
 10
430
 20
265.8
 11
430
 21
242.5
  0
LINE
  8
0
 10
430
 20
242.5
 11
427
 21
242.5
  0
LINE
  8
0
 10
427
 20
242.5
 11
427
 21
222.5
  0
LINE
  8
0
 10
427
 20
222.5
 11
430
 21
222.5
  0
LINE
  8
0
 10
430
 20
222.5
 11
430
 21
199.2
  0
LINE
  8
0
 10
430
 20
199.2
 11
427
 21
199.2
  0
LINE
  8
0
 10
427
 20
199.2
 11
427
 21
179.2
  0
LINE
  8
0
 10
427
 20
179.2
 11
430
 21
179.2
  0
LINE
  8
0
 10
430
 20
179.2
 11
430
 21
155.9
  0
LINE
  8
0
 10
430
 20
155.9
 11
427
 21
155.9
  0
LINE
  8
0
 10
427
 20
155.9
 11
427
 21
135.9
  0
LINE
  8
0
 10
427
 20
135.9
 11
430
 21
135.9
  0
LINE
  8
0
 10
430
 20
135.9
 11
430
 21
112.6
  0
LINE
  8
0
 10
430
 20
112.6
 11
427
 21
112.6
  0
LINE
  8
0
 10
427
 20
112.6
 11
427
 21
92.6
  0
LINE
  8
0
 10
427
 20
92.6
 11
430
 21
92.6
  0
LINE
  8
0
 10
430
 20
92.6
 11
430
 21
69.3
  0
LINE
  8
0
 10
430
 20
69.3
 11
427
 21
69.3
  0
LINE
  8
0
 10
427
 20
69.3
 11
427
 21
49.3
  0
LINE
  8
0
 10
427
 20
49.3
 11
430
 21
49.3
  0
LINE
  8
0
 10
430
 20
49.3
 11
430
 21
26
  0
LINE
  8
0
 10
430
 20
26
 11
427
 21
26
  0
LINE
  8
0
 10
427
 20
26
 11
427
 21
6
  0
LINE
  8
0
 10
427
 20
6
 11
450
 21
6
  0
LINE
  8
0
 10
450
 20
6
 11
450
 21
3
  0
LINE
  8
0
 10
450
 20
3
 11
470
 21
3
  0
LINE
  8
0
 10
470
 20
3
 11
470
 21
6
  0
LINE
  8
0
 10
448.9
 20
236
 11
448.9
 21
239
  0
LINE
  8
0
 10
448.9
 20
239
 11
468.9
 21
239
  0
LINE
  8
0
 10
468.9
 20
239
 11
468.9
 21
236
  0
LINE
  8
0
 10
468.9
 20
236
 11
448.9
 21
236
  0
LINE
  8
0
 10
448.9
 20
171
 11
448.9
 21
174
  0
LINE
  8
0
 10
448.9
 20
174
 11
468.9
 21
174
  0
LINE
  8
0
 10
468.9
 20
174
 11
468.9
 21
171
  0
LINE
  8
0
 10
468.9
 20
171
 11
448.9
 21
171
  0
LINE
  8
0
 10
405
 20
6
 11
425
 21
6
  0
LINE
  8
0
 10
425
 20
6
 11
425
 21
459
  0
LINE
  8
0
 10
425
 20
459
 11
405
 21
459
  0
LINE
  8
0
 10
405
 20
459
 11
405
 21
462
  0
LINE
  8
0
 10
405
 20
462
 11
385
 21
462
  0
LINE
  8
0
 10
385
 20
462
 11
385
 21
459
  0
LINE
  8
0
 10
385
 20
459
 11
362
 21
459
  0
LINE
  8
0
 10
362
 20
459
 11
362
 21
439
  0
LINE
  8
0
 10
362
 20
439
 11
365
 21
439
  0
LINE
  8
0
 10
365
 20
439
 11
365
 21
415.7
  0
LINE
  8
0
 10
365
 20
415.7
 11
362
 21
415.7
  0
LINE
  8
0
 10
362
 20
415.7
 11
362
 21
395.7
  0
LINE
  8
0
 10
362
 20
395.7
 11
365
 21
395.7
  0
LINE
  8
0
 10
365
 20
395.7
 11
365
 21
372.4
  0
LINE
  8
0
 10
365
 20
372.4
 11
362
 21
372.4
  0
LINE
  8
0
 10
362
 20
372.4
 11
362
 21
352.4
  0
LINE
  8
0
 10
362
 20
352.4
 11
365
 21
352.4
  0
LINE
  8
0
 10
365
 20
352.4
 11
365
 21
329.1
  0
LINE
  8
0
 10
365
 20
329.1
 11
362
 21
329.1
  0
LINE
  8
0
 10
362
 20
329.1
 11
362
 21
309.1
  0
LINE
  8
0
 10
362
 20
309.1
 11
365
 21
309.1
  0
LINE
  8
0
 10
365
 20
309.1
 11
365
 21
285.8
  0
LINE
  8
0
 10
365
 20
285.8
 11
362
 21
285.8
  0
LINE
  8
0
 10
362
 20
285.8
 11
362
 21
265.8
  0
LINE
  8
0
 10
362
 20
265.8
 11
365
 21
265.8
  0
LINE
  8
0
 10
365
 20
265.8
 11
365
 21
242.5
  0
LINE
  8
0
 10
365
 20
242.5
 11
362
 21
242.5
  0
LINE
  8
0
 10
362
 20
242.5
 11
362
 21
222.5
  0
LINE
  8
0
 10
362
 20
222.5
 11
365
 21
222.5
  0
LINE
  8
0
 10
365
 20
222.5
 11
365
 21
199.2
  0
LINE
  8
0
 10
365
 20
199.2
 11
362
 21
199.2
  0
LINE
  8
0
 10
362
 20
199.2
 11
362
 21
179.2
  0
LINE
  8
0
 10
362
 20
179.2
 11
365
 21
179.2
  0
LINE
  8
0
 10
365
 20
179.2
 11
365
 21
155.9
  0
LINE
  8
0
 10
365
 20
155.9
 11
362
 21
155.9
  0
LINE
  8
0
 10
362
 20
155.9
 11
362
 21
135.9
  0
LINE
  8
0
 10
362
 20
135.9
 11
365
 21
135.9
  0
LINE
  8
0
 10
365
 20
135.9
 11
365
 21
112.6
  0
LINE
  8
0
 10
365
 20
112.6
 11
362
 21
112.6
  0
LINE
  8
0
 10
362
 20
112.6
 11
362
 21
92.6
  0
LINE
  8
0
 10
362
 20
92.6
 11
365
 21
92.6
  0
LINE
  8
0
 10
365
 20
92.6
 11
365
 21
69.3
  0
LINE
  8
0
 10
365
 20
69.3
 11
362
 21
69.3
  0
LINE
  8
0
 10
362
 20
69.3
 11
362
 21
49.3
  0
LINE
  8
0
 10
362
 20
49.3
 11
365
 21
49.3
  0
LINE
  8
0
 10
365
 20
49.3
 11
365
 21
26
  0
LINE
  8
0
 10
365
 20
26
 11
362
 21
26
  0
LINE
  8
0
 10
362
 20
26
 11
362
 21
6
  0
LINE
  8
0
 10
362
 20
6
 11
385
 21
6
  0
LINE
  8
0
 10
385
 20
6
 11
385
 21
3
  0
LINE
  8
0
 10
385
 20
3
 11
405
 21
3
  0
LINE
  8
0
 10
405
 20
3
 11
405
 21
6
  0
LINE
  8
0
 10
383.9
 20
171
 11
383.9
 21
174
  0
LINE
  8
0
 10
383.9
 20
174
 11
403.9
 21
174
  0
LINE
  8
0
 10
403.9
 20
174
 11
403.9
 21
171
  0
LINE
  8
0
 10
403.9
 20
171
 11
383.9
 21
171
  0
LINE
  8
0
 10
340
 20
6
 11
360
 21
6
  0
LINE
  8
0
 10
360
 20
6
 11
360
 21
459
  0
LINE
  8
0
 10
360
 20
459
 11
340
 21
459
  0
LINE
  8
0
 10
340
 20
459
 11
340
 21
462
  0
LINE
  8
0
 10
340
 20
462
 11
320
 21
462
  0
LINE
  8
0
 10
320
 20
462
 11
320
 21
459
  0
LINE
  8
0
 10
320
 20
459
 11
297
 21
459
  0
LINE
  8
0
 10
297
 20
459
 11
297
 21
439
  0
LINE
  8
0
 10
297
 20
439
 11
300
 21
439
  0
LINE
  8
0
 10
300
 20
439
 11
300
 21
415.7
  0
LINE
  8
0
 10
300
 20
415.7
 11
297
 21
415.7
  0
LINE
  8
0
 10
297
 20
415.7
 11
297
 21
395.7
  0
LINE
  8
0
 10
297
 20
395.7
 11
300
 21
395.7
  0
LINE
  8
0
 10
300
 20
395.7
 11
300
 21
372.4
  0
LINE
  8
0
 10
300
 20
372.4
 11
297
 21
372.4
  0
LINE
  8
0
 10
297
 20
372.4
 11
297
 21
352.4
  0
LINE
  8
0
 10
297
 20
352.4
 11
300
 21
352.4
  0
LINE
  8
0
 10
300
 20
352.4
 11
300
 21
329.1
  0
LINE
  8
0
 10
300
 20
329.1
 11
297
 21
329.1
  0
LINE
  8
0
 10
297
 20
329.1
 11
297
 21
309.1
  0
LINE
  8
0
 10
297
 20
309.1
 11
300
 21
309.1
  0
LINE
  8
0
 10
300
 20
309.1
 11
300
 21
285.8
  0
LINE
  8
0
 10
300
 20
285.8
 11
297
 21
285.8
  0
LINE
  8
0
 10
297
 20
285.8
 11
297
 21
265.8
  0
LINE
  8
0
 10
297
 20
265.8
 11
300
 21
265.8
  0
LINE
  8
0
 10
300
 20
265.8
 11
300
 21
242.5
  0
LINE
  8
0
 10
300
 20
242.5
 11
297
 21
242.5
  0
LINE
  8
0
 10
297
 20
242.5
 11
297
 21
222.5
  0
LINE
  8
0
 10
297
 20
222.5
 11
300
 21
222.5
  0
LINE
  8
0
 10
300
 20
222.5
 11
300
 21
199.2
  0
LINE
  8
0
 10
300
 20
199.2
 11
297
 21
199.2
  0
LINE
  8
0
 10
297
 20
199.2
 11
297
 21
179.2
  0
LINE
  8
0
 10
297
 20
179.2
 11
300
 21
179.2
  0
LINE
  8
0
 10
300
 20
179.2
 11
300
 21
155.9
  0
LINE
  8
0
 10
300
 20
155.9
 11
297
 21
155.9
  0
LINE
  8
0
 10
297
 20
155.9
 11
297
 21
135.9
  0
LINE
  8
0
 10
297
 20
135.9
 11
300
 21
135.9
  0
LINE
  8
0
 10
300
 20
135.9
 11
300
 21
112.6
  0
LINE
  8
0
 10
300
 20
112.6
 11
297
 21
112.6
  0
LINE
  8
0
 10
297
 20
112.6
 11
297
 21
92.6
  0
LINE
  8
0
 10
297
 20
92.6
 11
300
 21
92.6
  0
LINE
  8
0
 10
300
 20
92.6
 11
300
 21
69.3
  0
LINE
  8
0
 10
300
 20
69.3
 11
297
 21
69.3
  0
LINE
  8
0
 10
297
 20
69.3
 11
297
 21
49.3
  0
LINE
  8
0
 10
297
 20
49.3
 11
300
 21
49.3
  0
LINE
  8
0
 10
300
 20
49.3
 11
300
 21
26
  0
LINE
  8
0
 10
300
 20
26
 11
297
 21
26
  0
LINE
  8
0
 10
297
 20
26
 11
297
 21
6
  0
LINE
  8
0
 10
297
 20
6
 11
320
 21
6
  0
LINE
  8
0
 10
320
 20
6
 11
320
 21
3
  0
LINE
  8
0
 10
320
 20
3
 11
340
 21
3
  0
LINE
  8
0
 10
340
 20
3
 11
340
 21
6
  0
LINE
  8
0
 10
318.9
 20
171
 11
318.9
 21
174
  0
LINE
  8
0
 10
318.9
 20
174
 11
338.9
 21
174
  0
LINE
  8
0
 10
338.9
 20
174
 11
338.9
 21
171
  0
LINE
  8
0
 10
338.9
 20
171
 11
318.9
 21
171
  0
ENDSEC
  0
SECTION
  2
OBJECTS
  0
DICTIONARY
  0
ENDSEC
  0
EOF
