solid OpenSCAD_Model
  facet normal -1 0 0
    outer loop
      vertex -25 -25 -18
      vertex -25 25 18
      vertex -25 25 -18
    endloop
  endfacet
  facet normal -1 -0 0
    outer loop
      vertex -25 25 18
      vertex -25 -25 -18
      vertex -25 -25 18
    endloop
  endfacet
  facet normal 0 0 1
    outer loop
      vertex 13.8567 14.2361 18
      vertex -13.8567 14.2361 18
      vertex 14.0277 14.0277 18
    endloop
  endfacet
  facet normal 0 0 1
    outer loop
      vertex 14.0277 -14.0277 18
      vertex -13.6514 -14.7318 18
      vertex -13.625 -15 18
    endloop
  endfacet
  facet normal 0 0 1
    outer loop
      vertex -14.0277 14.0277 18
      vertex 14.0277 14.0277 18
      vertex -13.8567 14.2361 18
    endloop
  endfacet
  facet normal 0 0 1
    outer loop
      vertex 14.0277 -14.0277 18
      vertex -13.7297 -14.4738 18
      vertex -13.6514 -14.7318 18
    endloop
  endfacet
  facet normal 0 0 1
    outer loop
      vertex 14.0277 14.0277 18
      vertex -14.0277 14.0277 18
      vertex 14.0277 -14.0277 18
    endloop
  endfacet
  facet normal 0 0 1
    outer loop
      vertex 14.0277 -14.0277 18
      vertex -13.8567 -14.2361 18
      vertex -13.7297 -14.4738 18
    endloop
  endfacet
  facet normal 0 0 1
    outer loop
      vertex -14.0277 -14.0277 18
      vertex 14.0277 -14.0277 18
      vertex -14.0277 14.0277 18
    endloop
  endfacet
  facet normal 0 0 1
    outer loop
      vertex 14.0277 -14.0277 18
      vertex -14.0277 -14.0277 18
      vertex -13.8567 -14.2361 18
    endloop
  endfacet
  facet normal -0 0 1
    outer loop
      vertex -14.2361 13.8567 18
      vertex -14.0277 -14.0277 18
      vertex -14.0277 14.0277 18
    endloop
  endfacet
  facet normal 0 0 1
    outer loop
      vertex -14.2361 13.8567 18
      vertex -14.2361 -13.8567 18
      vertex -14.0277 -14.0277 18
    endloop
  endfacet
  facet normal -0 0 1
    outer loop
      vertex -14.4738 13.7297 18
      vertex -14.2361 -13.8567 18
      vertex -14.2361 13.8567 18
    endloop
  endfacet
  facet normal 0 0 1
    outer loop
      vertex -14.4738 13.7297 18
      vertex -14.4738 -13.7297 18
      vertex -14.2361 -13.8567 18
    endloop
  endfacet
  facet normal -0 0 1
    outer loop
      vertex -14.7318 13.6514 18
      vertex -14.4738 -13.7297 18
      vertex -14.4738 13.7297 18
    endloop
  endfacet
  facet normal 0 0 1
    outer loop
      vertex -14.7318 13.6514 18
      vertex -14.7318 -13.6514 18
      vertex -14.4738 -13.7297 18
    endloop
  endfacet
  facet normal -0 0 1
    outer loop
      vertex -15 13.625 18
      vertex -14.7318 -13.6514 18
      vertex -14.7318 13.6514 18
    endloop
  endfacet
  facet normal 0 0 1
    outer loop
      vertex -15 13.625 18
      vertex -15 -13.625 18
      vertex -14.7318 -13.6514 18
    endloop
  endfacet
  facet normal 0 0 1
    outer loop
      vertex -15.2682 13.6514 18
      vertex -15 -13.625 18
      vertex -15 13.625 18
    endloop
  endfacet
  facet normal 0 0 1
    outer loop
      vertex -15.2682 13.6514 18
      vertex -15.2682 -13.6514 18
      vertex -15 -13.625 18
    endloop
  endfacet
  facet normal 0 0 1
    outer loop
      vertex -15.5262 13.7297 18
      vertex -15.2682 -13.6514 18
      vertex -15.2682 13.6514 18
    endloop
  endfacet
  facet normal 0 0 1
    outer loop
      vertex -15.5262 13.7297 18
      vertex -15.5262 -13.7297 18
      vertex -15.2682 -13.6514 18
    endloop
  endfacet
  facet normal 0 0 1
    outer loop
      vertex -15.7639 13.8567 18
      vertex -15.5262 -13.7297 18
      vertex -15.5262 13.7297 18
    endloop
  endfacet
  facet normal 0 0 1
    outer loop
      vertex -15.7639 13.8567 18
      vertex -15.7639 -13.8567 18
      vertex -15.5262 -13.7297 18
    endloop
  endfacet
  facet normal 0 0 1
    outer loop
      vertex -15.9723 14.0277 18
      vertex -15.7639 -13.8567 18
      vertex -15.7639 13.8567 18
    endloop
  endfacet
  facet normal 0 0 1
    outer loop
      vertex -15.9723 14.0277 18
      vertex -15.9723 -14.0277 18
      vertex -15.7639 -13.8567 18
    endloop
  endfacet
  facet normal 0 0 1
    outer loop
      vertex -16.1433 14.2361 18
      vertex -15.9723 -14.0277 18
      vertex -15.9723 14.0277 18
    endloop
  endfacet
  facet normal 0 0 1
    outer loop
      vertex -16.1433 14.2361 18
      vertex -16.1433 -14.2361 18
      vertex -15.9723 -14.0277 18
    endloop
  endfacet
  facet normal 0 0 1
    outer loop
      vertex -16.2703 14.4738 18
      vertex -16.1433 -14.2361 18
      vertex -16.1433 14.2361 18
    endloop
  endfacet
  facet normal 0 0 1
    outer loop
      vertex -16.2703 14.4738 18
      vertex -16.2703 -14.4738 18
      vertex -16.1433 -14.2361 18
    endloop
  endfacet
  facet normal 0 0 1
    outer loop
      vertex -25 25 18
      vertex -16.2703 14.4738 18
      vertex -16.3486 14.7318 18
    endloop
  endfacet
  facet normal 0 0 1
    outer loop
      vertex -16.2703 14.4738 18
      vertex -25 25 18
      vertex -16.2703 -14.4738 18
    endloop
  endfacet
  facet normal 0 0 1
    outer loop
      vertex -25 25 18
      vertex -16.3486 14.7318 18
      vertex -16.375 15 18
    endloop
  endfacet
  facet normal 0 0 1
    outer loop
      vertex -25 -25 18
      vertex -16.2703 -14.4738 18
      vertex -25 25 18
    endloop
  endfacet
  facet normal 0 0 1
    outer loop
      vertex 25 25 18
      vertex 16.2703 14.4738 18
      vertex 25 -25 18
    endloop
  endfacet
  facet normal 0 0 1
    outer loop
      vertex 25 -25 18
      vertex 16.3486 -14.7318 18
      vertex 16.375 -15 18
    endloop
  endfacet
  facet normal -0 0 1
    outer loop
      vertex 16.2703 -14.4738 18
      vertex 25 -25 18
      vertex 16.2703 14.4738 18
    endloop
  endfacet
  facet normal 0 0 1
    outer loop
      vertex 25 -25 18
      vertex 16.2703 -14.4738 18
      vertex 16.3486 -14.7318 18
    endloop
  endfacet
  facet normal -0 0 1
    outer loop
      vertex 16.1433 14.2361 18
      vertex 16.2703 -14.4738 18
      vertex 16.2703 14.4738 18
    endloop
  endfacet
  facet normal 0 0 1
    outer loop
      vertex 16.1433 14.2361 18
      vertex 16.1433 -14.2361 18
      vertex 16.2703 -14.4738 18
    endloop
  endfacet
  facet normal -0 0 1
    outer loop
      vertex 15.9723 14.0277 18
      vertex 16.1433 -14.2361 18
      vertex 16.1433 14.2361 18
    endloop
  endfacet
  facet normal 0 0 1
    outer loop
      vertex 15.9723 14.0277 18
      vertex 15.9723 -14.0277 18
      vertex 16.1433 -14.2361 18
    endloop
  endfacet
  facet normal -0 0 1
    outer loop
      vertex 15.7639 13.8567 18
      vertex 15.9723 -14.0277 18
      vertex 15.9723 14.0277 18
    endloop
  endfacet
  facet normal 0 0 1
    outer loop
      vertex 15.7639 13.8567 18
      vertex 15.7639 -13.8567 18
      vertex 15.9723 -14.0277 18
    endloop
  endfacet
  facet normal -0 0 1
    outer loop
      vertex 15.5262 13.7297 18
      vertex 15.7639 -13.8567 18
      vertex 15.7639 13.8567 18
    endloop
  endfacet
  facet normal 0 0 1
    outer loop
      vertex 15.5262 13.7297 18
      vertex 15.5262 -13.7297 18
      vertex 15.7639 -13.8567 18
    endloop
  endfacet
  facet normal -0 0 1
    outer loop
      vertex 15.2682 13.6514 18
      vertex 15.5262 -13.7297 18
      vertex 15.5262 13.7297 18
    endloop
  endfacet
  facet normal 0 0 1
    outer loop
      vertex 15.2682 13.6514 18
      vertex 15.2682 -13.6514 18
      vertex 15.5262 -13.7297 18
    endloop
  endfacet
  facet normal -0 0 1
    outer loop
      vertex 15 13.625 18
      vertex 15.2682 -13.6514 18
      vertex 15.2682 13.6514 18
    endloop
  endfacet
  facet normal 0 0 1
    outer loop
      vertex 15 13.625 18
      vertex 15 -13.625 18
      vertex 15.2682 -13.6514 18
    endloop
  endfacet
  facet normal 0 0 1
    outer loop
      vertex 14.7318 13.6514 18
      vertex 15 -13.625 18
      vertex 15 13.625 18
    endloop
  endfacet
  facet normal 0 0 1
    outer loop
      vertex 14.7318 13.6514 18
      vertex 14.7318 -13.6514 18
      vertex 15 -13.625 18
    endloop
  endfacet
  facet normal 0 0 1
    outer loop
      vertex 14.4738 13.7297 18
      vertex 14.7318 -13.6514 18
      vertex 14.7318 13.6514 18
    endloop
  endfacet
  facet normal 0 0 1
    outer loop
      vertex 14.4738 13.7297 18
      vertex 14.4738 -13.7297 18
      vertex 14.7318 -13.6514 18
    endloop
  endfacet
  facet normal 0 0 1
    outer loop
      vertex 14.2361 13.8567 18
      vertex 14.4738 -13.7297 18
      vertex 14.4738 13.7297 18
    endloop
  endfacet
  facet normal 0 0 1
    outer loop
      vertex 14.2361 13.8567 18
      vertex 14.2361 -13.8567 18
      vertex 14.4738 -13.7297 18
    endloop
  endfacet
  facet normal 0 0 1
    outer loop
      vertex 14.0277 14.0277 18
      vertex 14.2361 -13.8567 18
      vertex 14.2361 13.8567 18
    endloop
  endfacet
  facet normal 0 0 1
    outer loop
      vertex 14.0277 14.0277 18
      vertex 14.0277 -14.0277 18
      vertex 14.2361 -13.8567 18
    endloop
  endfacet
  facet normal 0 0 1
    outer loop
      vertex -13.7297 14.4738 18
      vertex 13.7297 14.4738 18
      vertex -13.6514 14.7318 18
    endloop
  endfacet
  facet normal 0 0 1
    outer loop
      vertex 13.7297 14.4738 18
      vertex -13.7297 14.4738 18
      vertex 13.8567 14.2361 18
    endloop
  endfacet
  facet normal 0 0 1
    outer loop
      vertex 13.6514 14.7318 18
      vertex -13.6514 14.7318 18
      vertex 13.7297 14.4738 18
    endloop
  endfacet
  facet normal 0 0 1
    outer loop
      vertex -13.8567 14.2361 18
      vertex 13.8567 14.2361 18
      vertex -13.7297 14.4738 18
    endloop
  endfacet
  facet normal 0 0 1
    outer loop
      vertex -13.6514 14.7318 18
      vertex 13.6514 14.7318 18
      vertex -13.625 15 18
    endloop
  endfacet
  facet normal 0 0 1
    outer loop
      vertex 14.0277 -14.0277 18
      vertex -13.625 -15 18
      vertex 13.8567 -14.2361 18
    endloop
  endfacet
  facet normal -0 0 1
    outer loop
      vertex -13.625 15 18
      vertex 13.6514 14.7318 18
      vertex 13.625 15 18
    endloop
  endfacet
  facet normal 0 0 1
    outer loop
      vertex 13.8567 -14.2361 18
      vertex -13.625 -15 18
      vertex 13.7297 -14.4738 18
    endloop
  endfacet
  facet normal 0 0 1
    outer loop
      vertex 16.3486 14.7318 18
      vertex 25 25 18
      vertex 16.375 15 18
    endloop
  endfacet
  facet normal 0 0 1
    outer loop
      vertex 25 25 18
      vertex 16.3486 15.2682 18
      vertex 16.375 15 18
    endloop
  endfacet
  facet normal 0 0 1
    outer loop
      vertex 25 25 18
      vertex 16.2703 15.5262 18
      vertex 16.3486 15.2682 18
    endloop
  endfacet
  facet normal 0 0 1
    outer loop
      vertex 25 25 18
      vertex 16.1433 15.7639 18
      vertex 16.2703 15.5262 18
    endloop
  endfacet
  facet normal 0 0 1
    outer loop
      vertex 25 25 18
      vertex 15.9723 15.9723 18
      vertex 16.1433 15.7639 18
    endloop
  endfacet
  facet normal 0 0 1
    outer loop
      vertex 25 25 18
      vertex 15.7639 16.1433 18
      vertex 15.9723 15.9723 18
    endloop
  endfacet
  facet normal 0 0 1
    outer loop
      vertex 25 25 18
      vertex 15.5262 16.2703 18
      vertex 15.7639 16.1433 18
    endloop
  endfacet
  facet normal 0 0 1
    outer loop
      vertex 25 25 18
      vertex 15.2682 16.3486 18
      vertex 15.5262 16.2703 18
    endloop
  endfacet
  facet normal 0 0 1
    outer loop
      vertex 25 25 18
      vertex 15 16.375 18
      vertex 15.2682 16.3486 18
    endloop
  endfacet
  facet normal 0 0 1
    outer loop
      vertex 25 25 18
      vertex 14.7318 16.3486 18
      vertex 15 16.375 18
    endloop
  endfacet
  facet normal 0 0 1
    outer loop
      vertex 25 25 18
      vertex 14.4738 16.2703 18
      vertex 14.7318 16.3486 18
    endloop
  endfacet
  facet normal 0 0 1
    outer loop
      vertex -14.4738 16.2703 18
      vertex 14.4738 16.2703 18
      vertex 25 25 18
    endloop
  endfacet
  facet normal 0 0 1
    outer loop
      vertex 14.4738 16.2703 18
      vertex -14.4738 16.2703 18
      vertex 14.2361 16.1433 18
    endloop
  endfacet
  facet normal 0 0 1
    outer loop
      vertex 13.7297 -14.4738 18
      vertex -13.625 -15 18
      vertex 13.6514 -14.7318 18
    endloop
  endfacet
  facet normal 0 0 1
    outer loop
      vertex 13.6514 15.2682 18
      vertex -13.625 15 18
      vertex 13.625 15 18
    endloop
  endfacet
  facet normal 0 0 1
    outer loop
      vertex -13.6514 15.2682 18
      vertex 13.6514 15.2682 18
      vertex 13.7297 15.5262 18
    endloop
  endfacet
  facet normal 0 0 1
    outer loop
      vertex -13.7297 15.5262 18
      vertex 13.7297 15.5262 18
      vertex 13.8567 15.7639 18
    endloop
  endfacet
  facet normal 0 0 1
    outer loop
      vertex -13.8567 15.7639 18
      vertex 13.8567 15.7639 18
      vertex 14.0277 15.9723 18
    endloop
  endfacet
  facet normal 0 -0 1
    outer loop
      vertex -14.2361 16.1433 18
      vertex 14.2361 16.1433 18
      vertex -14.4738 16.2703 18
    endloop
  endfacet
  facet normal 0 0 1
    outer loop
      vertex 13.6514 15.2682 18
      vertex -13.6514 15.2682 18
      vertex -13.625 15 18
    endloop
  endfacet
  facet normal 0 0 1
    outer loop
      vertex 13.7297 15.5262 18
      vertex -13.7297 15.5262 18
      vertex -13.6514 15.2682 18
    endloop
  endfacet
  facet normal 0 0 1
    outer loop
      vertex 13.8567 15.7639 18
      vertex -13.8567 15.7639 18
      vertex -13.7297 15.5262 18
    endloop
  endfacet
  facet normal 0 0 1
    outer loop
      vertex 14.0277 15.9723 18
      vertex -14.0277 15.9723 18
      vertex -13.8567 15.7639 18
    endloop
  endfacet
  facet normal 0 0 1
    outer loop
      vertex 14.0277 15.9723 18
      vertex -14.2361 16.1433 18
      vertex -14.0277 15.9723 18
    endloop
  endfacet
  facet normal 0 0 1
    outer loop
      vertex 14.2361 16.1433 18
      vertex -14.2361 16.1433 18
      vertex 14.0277 15.9723 18
    endloop
  endfacet
  facet normal -0 0 1
    outer loop
      vertex -25 25 18
      vertex -14.4738 16.2703 18
      vertex 25 25 18
    endloop
  endfacet
  facet normal 0 0 1
    outer loop
      vertex -14.4738 16.2703 18
      vertex -25 25 18
      vertex -14.7318 16.3486 18
    endloop
  endfacet
  facet normal 0 0 1
    outer loop
      vertex -14.7318 16.3486 18
      vertex -25 25 18
      vertex -15 16.375 18
    endloop
  endfacet
  facet normal 0 0 1
    outer loop
      vertex -16.2703 -14.4738 18
      vertex -25 -25 18
      vertex -16.3486 -14.7318 18
    endloop
  endfacet
  facet normal 0 0 1
    outer loop
      vertex -16.3486 15.2682 18
      vertex -25 25 18
      vertex -16.375 15 18
    endloop
  endfacet
  facet normal 0 0 1
    outer loop
      vertex -16.2703 15.5262 18
      vertex -25 25 18
      vertex -16.3486 15.2682 18
    endloop
  endfacet
  facet normal 0 0 1
    outer loop
      vertex -16.1433 15.7639 18
      vertex -25 25 18
      vertex -16.2703 15.5262 18
    endloop
  endfacet
  facet normal 0 0 1
    outer loop
      vertex -15.9723 15.9723 18
      vertex -25 25 18
      vertex -16.1433 15.7639 18
    endloop
  endfacet
  facet normal 0 0 1
    outer loop
      vertex -15.7639 16.1433 18
      vertex -25 25 18
      vertex -15.9723 15.9723 18
    endloop
  endfacet
  facet normal 0 0 1
    outer loop
      vertex -15.5262 16.2703 18
      vertex -25 25 18
      vertex -15.7639 16.1433 18
    endloop
  endfacet
  facet normal 0 0 1
    outer loop
      vertex -15.2682 16.3486 18
      vertex -25 25 18
      vertex -15.5262 16.2703 18
    endloop
  endfacet
  facet normal 0 0 1
    outer loop
      vertex -15 16.375 18
      vertex -25 25 18
      vertex -15.2682 16.3486 18
    endloop
  endfacet
  facet normal 0 0 1
    outer loop
      vertex 16.2703 14.4738 18
      vertex 25 25 18
      vertex 16.3486 14.7318 18
    endloop
  endfacet
  facet normal -0 0 1
    outer loop
      vertex 16.3486 -15.2682 18
      vertex 25 -25 18
      vertex 16.375 -15 18
    endloop
  endfacet
  facet normal -0 0 1
    outer loop
      vertex 16.2703 -15.5262 18
      vertex 25 -25 18
      vertex 16.3486 -15.2682 18
    endloop
  endfacet
  facet normal -0 0 1
    outer loop
      vertex 16.1433 -15.7639 18
      vertex 25 -25 18
      vertex 16.2703 -15.5262 18
    endloop
  endfacet
  facet normal -0 0 1
    outer loop
      vertex 15.9723 -15.9723 18
      vertex 25 -25 18
      vertex 16.1433 -15.7639 18
    endloop
  endfacet
  facet normal -0 0 1
    outer loop
      vertex 15.7639 -16.1433 18
      vertex 25 -25 18
      vertex 15.9723 -15.9723 18
    endloop
  endfacet
  facet normal -0 0 1
    outer loop
      vertex 15.5262 -16.2703 18
      vertex 25 -25 18
      vertex 15.7639 -16.1433 18
    endloop
  endfacet
  facet normal -0 0 1
    outer loop
      vertex 15.2682 -16.3486 18
      vertex 25 -25 18
      vertex 15.5262 -16.2703 18
    endloop
  endfacet
  facet normal -0 0 1
    outer loop
      vertex 15 -16.375 18
      vertex 25 -25 18
      vertex 15.2682 -16.3486 18
    endloop
  endfacet
  facet normal 0 0 1
    outer loop
      vertex 14.7318 -16.3486 18
      vertex 25 -25 18
      vertex 15 -16.375 18
    endloop
  endfacet
  facet normal 0 0 1
    outer loop
      vertex 14.4738 -16.2703 18
      vertex 25 -25 18
      vertex 14.7318 -16.3486 18
    endloop
  endfacet
  facet normal 0 0 1
    outer loop
      vertex -14.4738 -16.2703 18
      vertex 14.4738 -16.2703 18
      vertex 14.2361 -16.1433 18
    endloop
  endfacet
  facet normal 0 0 1
    outer loop
      vertex -14.2361 -16.1433 18
      vertex 14.2361 -16.1433 18
      vertex 14.0277 -15.9723 18
    endloop
  endfacet
  facet normal 0 0 1
    outer loop
      vertex 13.6514 -14.7318 18
      vertex -13.625 -15 18
      vertex 13.625 -15 18
    endloop
  endfacet
  facet normal 0 0 1
    outer loop
      vertex 13.625 -15 18
      vertex -13.625 -15 18
      vertex 13.6514 -15.2682 18
    endloop
  endfacet
  facet normal 0 0 1
    outer loop
      vertex -13.6514 -15.2682 18
      vertex 13.6514 -15.2682 18
      vertex -13.625 -15 18
    endloop
  endfacet
  facet normal 0 0 1
    outer loop
      vertex 13.6514 -15.2682 18
      vertex -13.6514 -15.2682 18
      vertex 13.7297 -15.5262 18
    endloop
  endfacet
  facet normal 0 0 1
    outer loop
      vertex -13.7297 -15.5262 18
      vertex 13.7297 -15.5262 18
      vertex -13.6514 -15.2682 18
    endloop
  endfacet
  facet normal 0 0 1
    outer loop
      vertex 13.7297 -15.5262 18
      vertex -13.7297 -15.5262 18
      vertex 13.8567 -15.7639 18
    endloop
  endfacet
  facet normal 0 0 1
    outer loop
      vertex -13.8567 -15.7639 18
      vertex 13.8567 -15.7639 18
      vertex -13.7297 -15.5262 18
    endloop
  endfacet
  facet normal 0 0 1
    outer loop
      vertex 13.8567 -15.7639 18
      vertex -13.8567 -15.7639 18
      vertex 14.0277 -15.9723 18
    endloop
  endfacet
  facet normal 0 0 1
    outer loop
      vertex -14.0277 -15.9723 18
      vertex 14.0277 -15.9723 18
      vertex -13.8567 -15.7639 18
    endloop
  endfacet
  facet normal 0 0 1
    outer loop
      vertex -14.2361 -16.1433 18
      vertex 14.0277 -15.9723 18
      vertex -14.0277 -15.9723 18
    endloop
  endfacet
  facet normal 0 0 1
    outer loop
      vertex 14.2361 -16.1433 18
      vertex -14.2361 -16.1433 18
      vertex -14.4738 -16.2703 18
    endloop
  endfacet
  facet normal 0 0 1
    outer loop
      vertex 14.4738 -16.2703 18
      vertex -14.4738 -16.2703 18
      vertex 25 -25 18
    endloop
  endfacet
  facet normal 0 0 1
    outer loop
      vertex -25 -25 18
      vertex -14.4738 -16.2703 18
      vertex -14.7318 -16.3486 18
    endloop
  endfacet
  facet normal 0 0 1
    outer loop
      vertex -25 -25 18
      vertex -14.7318 -16.3486 18
      vertex -15 -16.375 18
    endloop
  endfacet
  facet normal 0 0 1
    outer loop
      vertex -25 -25 18
      vertex -15 -16.375 18
      vertex -15.2682 -16.3486 18
    endloop
  endfacet
  facet normal 0 0 1
    outer loop
      vertex -16.3486 -14.7318 18
      vertex -25 -25 18
      vertex -16.375 -15 18
    endloop
  endfacet
  facet normal 0 0 1
    outer loop
      vertex -14.4738 -16.2703 18
      vertex -25 -25 18
      vertex 25 -25 18
    endloop
  endfacet
  facet normal 0 0 1
    outer loop
      vertex -15.5262 -16.2703 18
      vertex -25 -25 18
      vertex -15.2682 -16.3486 18
    endloop
  endfacet
  facet normal 0 0 1
    outer loop
      vertex -15.7639 -16.1433 18
      vertex -25 -25 18
      vertex -15.5262 -16.2703 18
    endloop
  endfacet
  facet normal 0 0 1
    outer loop
      vertex -15.9723 -15.9723 18
      vertex -25 -25 18
      vertex -15.7639 -16.1433 18
    endloop
  endfacet
  facet normal 0 0 1
    outer loop
      vertex -16.1433 -15.7639 18
      vertex -25 -25 18
      vertex -15.9723 -15.9723 18
    endloop
  endfacet
  facet normal 0 0 1
    outer loop
      vertex -16.2703 -15.5262 18
      vertex -25 -25 18
      vertex -16.1433 -15.7639 18
    endloop
  endfacet
  facet normal 0 0 1
    outer loop
      vertex -16.3486 -15.2682 18
      vertex -25 -25 18
      vertex -16.2703 -15.5262 18
    endloop
  endfacet
  facet normal 0 0 1
    outer loop
      vertex -16.375 -15 18
      vertex -25 -25 18
      vertex -16.3486 -15.2682 18
    endloop
  endfacet
  facet normal 1 -0 0
    outer loop
      vertex 25 -25 18
      vertex 25 25 -18
      vertex 25 25 18
    endloop
  endfacet
  facet normal 1 0 0
    outer loop
      vertex 25 25 -18
      vertex 25 -25 18
      vertex 25 -25 -18
    endloop
  endfacet
  facet normal 0 0 -1
    outer loop
      vertex 13.8567 -14.2361 -18
      vertex -13.8567 -14.2361 -18
      vertex 14.0277 -14.0277 -18
    endloop
  endfacet
  facet normal 0 0 -1
    outer loop
      vertex 14.0277 14.0277 -18
      vertex -13.6514 14.7318 -18
      vertex -13.625 15 -18
    endloop
  endfacet
  facet normal 0 0 -1
    outer loop
      vertex -14.0277 -14.0277 -18
      vertex 14.0277 -14.0277 -18
      vertex -13.8567 -14.2361 -18
    endloop
  endfacet
  facet normal 0 0 -1
    outer loop
      vertex 14.0277 14.0277 -18
      vertex -13.7297 14.4738 -18
      vertex -13.6514 14.7318 -18
    endloop
  endfacet
  facet normal 0 0 -1
    outer loop
      vertex 14.0277 -14.0277 -18
      vertex -14.0277 -14.0277 -18
      vertex 14.0277 14.0277 -18
    endloop
  endfacet
  facet normal 0 0 -1
    outer loop
      vertex 14.0277 14.0277 -18
      vertex -13.8567 14.2361 -18
      vertex -13.7297 14.4738 -18
    endloop
  endfacet
  facet normal 0 0 -1
    outer loop
      vertex -14.0277 14.0277 -18
      vertex 14.0277 14.0277 -18
      vertex -14.0277 -14.0277 -18
    endloop
  endfacet
  facet normal 0 0 -1
    outer loop
      vertex 14.0277 14.0277 -18
      vertex -14.0277 14.0277 -18
      vertex -13.8567 14.2361 -18
    endloop
  endfacet
  facet normal 0 0 -1
    outer loop
      vertex -14.2361 -13.8567 -18
      vertex -14.0277 14.0277 -18
      vertex -14.0277 -14.0277 -18
    endloop
  endfacet
  facet normal 0 0 -1
    outer loop
      vertex -14.2361 -13.8567 -18
      vertex -14.2361 13.8567 -18
      vertex -14.0277 14.0277 -18
    endloop
  endfacet
  facet normal 0 0 -1
    outer loop
      vertex -14.4738 -13.7297 -18
      vertex -14.2361 13.8567 -18
      vertex -14.2361 -13.8567 -18
    endloop
  endfacet
  facet normal 0 0 -1
    outer loop
      vertex -14.4738 -13.7297 -18
      vertex -14.4738 13.7297 -18
      vertex -14.2361 13.8567 -18
    endloop
  endfacet
  facet normal 0 0 -1
    outer loop
      vertex -14.7318 -13.6514 -18
      vertex -14.4738 13.7297 -18
      vertex -14.4738 -13.7297 -18
    endloop
  endfacet
  facet normal 0 0 -1
    outer loop
      vertex -14.7318 -13.6514 -18
      vertex -14.7318 13.6514 -18
      vertex -14.4738 13.7297 -18
    endloop
  endfacet
  facet normal 0 0 -1
    outer loop
      vertex -15 -13.625 -18
      vertex -14.7318 13.6514 -18
      vertex -14.7318 -13.6514 -18
    endloop
  endfacet
  facet normal 0 0 -1
    outer loop
      vertex -15 -13.625 -18
      vertex -15 13.625 -18
      vertex -14.7318 13.6514 -18
    endloop
  endfacet
  facet normal 0 0 -1
    outer loop
      vertex -15.2682 -13.6514 -18
      vertex -15 13.625 -18
      vertex -15 -13.625 -18
    endloop
  endfacet
  facet normal 0 0 -1
    outer loop
      vertex -15.2682 -13.6514 -18
      vertex -15.2682 13.6514 -18
      vertex -15 13.625 -18
    endloop
  endfacet
  facet normal 0 0 -1
    outer loop
      vertex -15.5262 -13.7297 -18
      vertex -15.2682 13.6514 -18
      vertex -15.2682 -13.6514 -18
    endloop
  endfacet
  facet normal 0 0 -1
    outer loop
      vertex -15.5262 -13.7297 -18
      vertex -15.5262 13.7297 -18
      vertex -15.2682 13.6514 -18
    endloop
  endfacet
  facet normal 0 0 -1
    outer loop
      vertex -15.7639 -13.8567 -18
      vertex -15.5262 13.7297 -18
      vertex -15.5262 -13.7297 -18
    endloop
  endfacet
  facet normal 0 0 -1
    outer loop
      vertex -15.7639 -13.8567 -18
      vertex -15.7639 13.8567 -18
      vertex -15.5262 13.7297 -18
    endloop
  endfacet
  facet normal 0 0 -1
    outer loop
      vertex -15.9723 -14.0277 -18
      vertex -15.7639 13.8567 -18
      vertex -15.7639 -13.8567 -18
    endloop
  endfacet
  facet normal 0 0 -1
    outer loop
      vertex -15.9723 -14.0277 -18
      vertex -15.9723 14.0277 -18
      vertex -15.7639 13.8567 -18
    endloop
  endfacet
  facet normal 0 0 -1
    outer loop
      vertex -16.1433 -14.2361 -18
      vertex -15.9723 14.0277 -18
      vertex -15.9723 -14.0277 -18
    endloop
  endfacet
  facet normal 0 0 -1
    outer loop
      vertex -16.1433 -14.2361 -18
      vertex -16.1433 14.2361 -18
      vertex -15.9723 14.0277 -18
    endloop
  endfacet
  facet normal 0 0 -1
    outer loop
      vertex -16.2703 -14.4738 -18
      vertex -16.1433 14.2361 -18
      vertex -16.1433 -14.2361 -18
    endloop
  endfacet
  facet normal 0 0 -1
    outer loop
      vertex -16.2703 -14.4738 -18
      vertex -16.2703 14.4738 -18
      vertex -16.1433 14.2361 -18
    endloop
  endfacet
  facet normal 0 0 -1
    outer loop
      vertex -25 -25 -18
      vertex -16.2703 -14.4738 -18
      vertex -16.3486 -14.7318 -18
    endloop
  endfacet
  facet normal -0 0 -1
    outer loop
      vertex -16.2703 -14.4738 -18
      vertex -25 -25 -18
      vertex -16.2703 14.4738 -18
    endloop
  endfacet
  facet normal 0 0 -1
    outer loop
      vertex -25 -25 -18
      vertex -16.3486 -14.7318 -18
      vertex -16.375 -15 -18
    endloop
  endfacet
  facet normal 0 0 -1
    outer loop
      vertex -25 25 -18
      vertex -16.2703 14.4738 -18
      vertex -25 -25 -18
    endloop
  endfacet
  facet normal 0 0 -1
    outer loop
      vertex 25 -25 -18
      vertex 16.2703 -14.4738 -18
      vertex 25 25 -18
    endloop
  endfacet
  facet normal 0 0 -1
    outer loop
      vertex 25 25 -18
      vertex 16.3486 14.7318 -18
      vertex 16.375 15 -18
    endloop
  endfacet
  facet normal 0 0 -1
    outer loop
      vertex 16.2703 14.4738 -18
      vertex 25 25 -18
      vertex 16.2703 -14.4738 -18
    endloop
  endfacet
  facet normal 0 0 -1
    outer loop
      vertex 25 25 -18
      vertex 16.2703 14.4738 -18
      vertex 16.3486 14.7318 -18
    endloop
  endfacet
  facet normal 0 0 -1
    outer loop
      vertex 16.1433 -14.2361 -18
      vertex 16.2703 14.4738 -18
      vertex 16.2703 -14.4738 -18
    endloop
  endfacet
  facet normal 0 0 -1
    outer loop
      vertex 16.1433 -14.2361 -18
      vertex 16.1433 14.2361 -18
      vertex 16.2703 14.4738 -18
    endloop
  endfacet
  facet normal 0 0 -1
    outer loop
      vertex 15.9723 -14.0277 -18
      vertex 16.1433 14.2361 -18
      vertex 16.1433 -14.2361 -18
    endloop
  endfacet
  facet normal 0 0 -1
    outer loop
      vertex 15.9723 -14.0277 -18
      vertex 15.9723 14.0277 -18
      vertex 16.1433 14.2361 -18
    endloop
  endfacet
  facet normal 0 0 -1
    outer loop
      vertex 15.7639 -13.8567 -18
      vertex 15.9723 14.0277 -18
      vertex 15.9723 -14.0277 -18
    endloop
  endfacet
  facet normal 0 0 -1
    outer loop
      vertex 15.7639 -13.8567 -18
      vertex 15.7639 13.8567 -18
      vertex 15.9723 14.0277 -18
    endloop
  endfacet
  facet normal 0 0 -1
    outer loop
      vertex 15.5262 -13.7297 -18
      vertex 15.7639 13.8567 -18
      vertex 15.7639 -13.8567 -18
    endloop
  endfacet
  facet normal 0 0 -1
    outer loop
      vertex 15.5262 -13.7297 -18
      vertex 15.5262 13.7297 -18
      vertex 15.7639 13.8567 -18
    endloop
  endfacet
  facet normal 0 0 -1
    outer loop
      vertex 15.2682 -13.6514 -18
      vertex 15.5262 13.7297 -18
      vertex 15.5262 -13.7297 -18
    endloop
  endfacet
  facet normal 0 0 -1
    outer loop
      vertex 15.2682 -13.6514 -18
      vertex 15.2682 13.6514 -18
      vertex 15.5262 13.7297 -18
    endloop
  endfacet
  facet normal 0 0 -1
    outer loop
      vertex 15 -13.625 -18
      vertex 15.2682 13.6514 -18
      vertex 15.2682 -13.6514 -18
    endloop
  endfacet
  facet normal 0 0 -1
    outer loop
      vertex 15 -13.625 -18
      vertex 15 13.625 -18
      vertex 15.2682 13.6514 -18
    endloop
  endfacet
  facet normal 0 0 -1
    outer loop
      vertex 14.7318 -13.6514 -18
      vertex 15 13.625 -18
      vertex 15 -13.625 -18
    endloop
  endfacet
  facet normal 0 0 -1
    outer loop
      vertex 14.7318 -13.6514 -18
      vertex 14.7318 13.6514 -18
      vertex 15 13.625 -18
    endloop
  endfacet
  facet normal 0 0 -1
    outer loop
      vertex 14.4738 -13.7297 -18
      vertex 14.7318 13.6514 -18
      vertex 14.7318 -13.6514 -18
    endloop
  endfacet
  facet normal 0 0 -1
    outer loop
      vertex 14.4738 -13.7297 -18
      vertex 14.4738 13.7297 -18
      vertex 14.7318 13.6514 -18
    endloop
  endfacet
  facet normal 0 0 -1
    outer loop
      vertex 14.2361 -13.8567 -18
      vertex 14.4738 13.7297 -18
      vertex 14.4738 -13.7297 -18
    endloop
  endfacet
  facet normal 0 0 -1
    outer loop
      vertex 14.2361 -13.8567 -18
      vertex 14.2361 13.8567 -18
      vertex 14.4738 13.7297 -18
    endloop
  endfacet
  facet normal 0 0 -1
    outer loop
      vertex 14.0277 -14.0277 -18
      vertex 14.2361 13.8567 -18
      vertex 14.2361 -13.8567 -18
    endloop
  endfacet
  facet normal 0 0 -1
    outer loop
      vertex 14.0277 -14.0277 -18
      vertex 14.0277 14.0277 -18
      vertex 14.2361 13.8567 -18
    endloop
  endfacet
  facet normal 0 0 -1
    outer loop
      vertex -13.7297 -14.4738 -18
      vertex 13.7297 -14.4738 -18
      vertex -13.6514 -14.7318 -18
    endloop
  endfacet
  facet normal 0 0 -1
    outer loop
      vertex 13.7297 -14.4738 -18
      vertex -13.7297 -14.4738 -18
      vertex 13.8567 -14.2361 -18
    endloop
  endfacet
  facet normal 0 0 -1
    outer loop
      vertex 13.6514 -14.7318 -18
      vertex -13.6514 -14.7318 -18
      vertex 13.7297 -14.4738 -18
    endloop
  endfacet
  facet normal 0 0 -1
    outer loop
      vertex -13.8567 -14.2361 -18
      vertex 13.8567 -14.2361 -18
      vertex -13.7297 -14.4738 -18
    endloop
  endfacet
  facet normal 0 0 -1
    outer loop
      vertex -13.6514 -14.7318 -18
      vertex 13.6514 -14.7318 -18
      vertex -13.625 -15 -18
    endloop
  endfacet
  facet normal 0 0 -1
    outer loop
      vertex 14.0277 14.0277 -18
      vertex -13.625 15 -18
      vertex 13.8567 14.2361 -18
    endloop
  endfacet
  facet normal 0 0 -1
    outer loop
      vertex -13.625 -15 -18
      vertex 13.6514 -14.7318 -18
      vertex 13.625 -15 -18
    endloop
  endfacet
  facet normal 0 0 -1
    outer loop
      vertex 13.8567 14.2361 -18
      vertex -13.625 15 -18
      vertex 13.7297 14.4738 -18
    endloop
  endfacet
  facet normal 0 0 -1
    outer loop
      vertex 16.3486 -14.7318 -18
      vertex 25 -25 -18
      vertex 16.375 -15 -18
    endloop
  endfacet
  facet normal 0 0 -1
    outer loop
      vertex 25 -25 -18
      vertex 16.3486 -15.2682 -18
      vertex 16.375 -15 -18
    endloop
  endfacet
  facet normal 0 0 -1
    outer loop
      vertex 25 -25 -18
      vertex 16.2703 -15.5262 -18
      vertex 16.3486 -15.2682 -18
    endloop
  endfacet
  facet normal 0 0 -1
    outer loop
      vertex 25 -25 -18
      vertex 16.1433 -15.7639 -18
      vertex 16.2703 -15.5262 -18
    endloop
  endfacet
  facet normal 0 0 -1
    outer loop
      vertex 25 -25 -18
      vertex 15.9723 -15.9723 -18
      vertex 16.1433 -15.7639 -18
    endloop
  endfacet
  facet normal 0 0 -1
    outer loop
      vertex 25 -25 -18
      vertex 15.7639 -16.1433 -18
      vertex 15.9723 -15.9723 -18
    endloop
  endfacet
  facet normal 0 0 -1
    outer loop
      vertex 25 -25 -18
      vertex 15.5262 -16.2703 -18
      vertex 15.7639 -16.1433 -18
    endloop
  endfacet
  facet normal 0 0 -1
    outer loop
      vertex 25 -25 -18
      vertex 15.2682 -16.3486 -18
      vertex 15.5262 -16.2703 -18
    endloop
  endfacet
  facet normal 0 0 -1
    outer loop
      vertex 25 -25 -18
      vertex 15 -16.375 -18
      vertex 15.2682 -16.3486 -18
    endloop
  endfacet
  facet normal 0 0 -1
    outer loop
      vertex 25 -25 -18
      vertex 14.7318 -16.3486 -18
      vertex 15 -16.375 -18
    endloop
  endfacet
  facet normal 0 0 -1
    outer loop
      vertex 25 -25 -18
      vertex 14.4738 -16.2703 -18
      vertex 14.7318 -16.3486 -18
    endloop
  endfacet
  facet normal 0 0 -1
    outer loop
      vertex -14.4738 -16.2703 -18
      vertex 14.4738 -16.2703 -18
      vertex 25 -25 -18
    endloop
  endfacet
  facet normal 0 0 -1
    outer loop
      vertex 14.4738 -16.2703 -18
      vertex -14.4738 -16.2703 -18
      vertex 14.2361 -16.1433 -18
    endloop
  endfacet
  facet normal 0 0 -1
    outer loop
      vertex 13.7297 14.4738 -18
      vertex -13.625 15 -18
      vertex 13.6514 14.7318 -18
    endloop
  endfacet
  facet normal 0 0 -1
    outer loop
      vertex 13.6514 -15.2682 -18
      vertex -13.625 -15 -18
      vertex 13.625 -15 -18
    endloop
  endfacet
  facet normal 0 0 -1
    outer loop
      vertex -13.6514 -15.2682 -18
      vertex 13.6514 -15.2682 -18
      vertex 13.7297 -15.5262 -18
    endloop
  endfacet
  facet normal 0 0 -1
    outer loop
      vertex -13.7297 -15.5262 -18
      vertex 13.7297 -15.5262 -18
      vertex 13.8567 -15.7639 -18
    endloop
  endfacet
  facet normal 0 0 -1
    outer loop
      vertex -13.8567 -15.7639 -18
      vertex 13.8567 -15.7639 -18
      vertex 14.0277 -15.9723 -18
    endloop
  endfacet
  facet normal 0 -0 -1
    outer loop
      vertex -14.2361 -16.1433 -18
      vertex 14.2361 -16.1433 -18
      vertex -14.4738 -16.2703 -18
    endloop
  endfacet
  facet normal 0 0 -1
    outer loop
      vertex 13.6514 -15.2682 -18
      vertex -13.6514 -15.2682 -18
      vertex -13.625 -15 -18
    endloop
  endfacet
  facet normal 0 0 -1
    outer loop
      vertex 13.7297 -15.5262 -18
      vertex -13.7297 -15.5262 -18
      vertex -13.6514 -15.2682 -18
    endloop
  endfacet
  facet normal 0 0 -1
    outer loop
      vertex 13.8567 -15.7639 -18
      vertex -13.8567 -15.7639 -18
      vertex -13.7297 -15.5262 -18
    endloop
  endfacet
  facet normal 0 0 -1
    outer loop
      vertex 14.0277 -15.9723 -18
      vertex -14.0277 -15.9723 -18
      vertex -13.8567 -15.7639 -18
    endloop
  endfacet
  facet normal -0 0 -1
    outer loop
      vertex 14.0277 -15.9723 -18
      vertex -14.2361 -16.1433 -18
      vertex -14.0277 -15.9723 -18
    endloop
  endfacet
  facet normal 0 0 -1
    outer loop
      vertex 14.2361 -16.1433 -18
      vertex -14.2361 -16.1433 -18
      vertex 14.0277 -15.9723 -18
    endloop
  endfacet
  facet normal 0 0 -1
    outer loop
      vertex -25 -25 -18
      vertex -14.4738 -16.2703 -18
      vertex 25 -25 -18
    endloop
  endfacet
  facet normal 0 0 -1
    outer loop
      vertex -14.4738 -16.2703 -18
      vertex -25 -25 -18
      vertex -14.7318 -16.3486 -18
    endloop
  endfacet
  facet normal 0 0 -1
    outer loop
      vertex -14.7318 -16.3486 -18
      vertex -25 -25 -18
      vertex -15 -16.375 -18
    endloop
  endfacet
  facet normal 0 0 -1
    outer loop
      vertex -16.2703 14.4738 -18
      vertex -25 25 -18
      vertex -16.3486 14.7318 -18
    endloop
  endfacet
  facet normal -0 0 -1
    outer loop
      vertex -16.3486 -15.2682 -18
      vertex -25 -25 -18
      vertex -16.375 -15 -18
    endloop
  endfacet
  facet normal -0 0 -1
    outer loop
      vertex -16.2703 -15.5262 -18
      vertex -25 -25 -18
      vertex -16.3486 -15.2682 -18
    endloop
  endfacet
  facet normal -0 0 -1
    outer loop
      vertex -16.1433 -15.7639 -18
      vertex -25 -25 -18
      vertex -16.2703 -15.5262 -18
    endloop
  endfacet
  facet normal -0 0 -1
    outer loop
      vertex -15.9723 -15.9723 -18
      vertex -25 -25 -18
      vertex -16.1433 -15.7639 -18
    endloop
  endfacet
  facet normal -0 0 -1
    outer loop
      vertex -15.7639 -16.1433 -18
      vertex -25 -25 -18
      vertex -15.9723 -15.9723 -18
    endloop
  endfacet
  facet normal -0 0 -1
    outer loop
      vertex -15.5262 -16.2703 -18
      vertex -25 -25 -18
      vertex -15.7639 -16.1433 -18
    endloop
  endfacet
  facet normal -0 0 -1
    outer loop
      vertex -15.2682 -16.3486 -18
      vertex -25 -25 -18
      vertex -15.5262 -16.2703 -18
    endloop
  endfacet
  facet normal -0 0 -1
    outer loop
      vertex -15 -16.375 -18
      vertex -25 -25 -18
      vertex -15.2682 -16.3486 -18
    endloop
  endfacet
  facet normal 0 0 -1
    outer loop
      vertex 16.2703 -14.4738 -18
      vertex 25 -25 -18
      vertex 16.3486 -14.7318 -18
    endloop
  endfacet
  facet normal 0 0 -1
    outer loop
      vertex 16.3486 15.2682 -18
      vertex 25 25 -18
      vertex 16.375 15 -18
    endloop
  endfacet
  facet normal 0 0 -1
    outer loop
      vertex 16.2703 15.5262 -18
      vertex 25 25 -18
      vertex 16.3486 15.2682 -18
    endloop
  endfacet
  facet normal 0 0 -1
    outer loop
      vertex 16.1433 15.7639 -18
      vertex 25 25 -18
      vertex 16.2703 15.5262 -18
    endloop
  endfacet
  facet normal 0 0 -1
    outer loop
      vertex 15.9723 15.9723 -18
      vertex 25 25 -18
      vertex 16.1433 15.7639 -18
    endloop
  endfacet
  facet normal 0 0 -1
    outer loop
      vertex 15.7639 16.1433 -18
      vertex 25 25 -18
      vertex 15.9723 15.9723 -18
    endloop
  endfacet
  facet normal 0 0 -1
    outer loop
      vertex 15.5262 16.2703 -18
      vertex 25 25 -18
      vertex 15.7639 16.1433 -18
    endloop
  endfacet
  facet normal 0 0 -1
    outer loop
      vertex 15.2682 16.3486 -18
      vertex 25 25 -18
      vertex 15.5262 16.2703 -18
    endloop
  endfacet
  facet normal 0 0 -1
    outer loop
      vertex 15 16.375 -18
      vertex 25 25 -18
      vertex 15.2682 16.3486 -18
    endloop
  endfacet
  facet normal 0 0 -1
    outer loop
      vertex 14.7318 16.3486 -18
      vertex 25 25 -18
      vertex 15 16.375 -18
    endloop
  endfacet
  facet normal 0 0 -1
    outer loop
      vertex 14.4738 16.2703 -18
      vertex 25 25 -18
      vertex 14.7318 16.3486 -18
    endloop
  endfacet
  facet normal 0 0 -1
    outer loop
      vertex -14.4738 16.2703 -18
      vertex 14.4738 16.2703 -18
      vertex 14.2361 16.1433 -18
    endloop
  endfacet
  facet normal 0 0 -1
    outer loop
      vertex -14.2361 16.1433 -18
      vertex 14.2361 16.1433 -18
      vertex 14.0277 15.9723 -18
    endloop
  endfacet
  facet normal 0 0 -1
    outer loop
      vertex 13.6514 14.7318 -18
      vertex -13.625 15 -18
      vertex 13.625 15 -18
    endloop
  endfacet
  facet normal 0 0 -1
    outer loop
      vertex 13.625 15 -18
      vertex -13.625 15 -18
      vertex 13.6514 15.2682 -18
    endloop
  endfacet
  facet normal 0 0 -1
    outer loop
      vertex -13.6514 15.2682 -18
      vertex 13.6514 15.2682 -18
      vertex -13.625 15 -18
    endloop
  endfacet
  facet normal 0 0 -1
    outer loop
      vertex 13.6514 15.2682 -18
      vertex -13.6514 15.2682 -18
      vertex 13.7297 15.5262 -18
    endloop
  endfacet
  facet normal 0 0 -1
    outer loop
      vertex -13.7297 15.5262 -18
      vertex 13.7297 15.5262 -18
      vertex -13.6514 15.2682 -18
    endloop
  endfacet
  facet normal 0 0 -1
    outer loop
      vertex 13.7297 15.5262 -18
      vertex -13.7297 15.5262 -18
      vertex 13.8567 15.7639 -18
    endloop
  endfacet
  facet normal 0 0 -1
    outer loop
      vertex -13.8567 15.7639 -18
      vertex 13.8567 15.7639 -18
      vertex -13.7297 15.5262 -18
    endloop
  endfacet
  facet normal 0 0 -1
    outer loop
      vertex 13.8567 15.7639 -18
      vertex -13.8567 15.7639 -18
      vertex 14.0277 15.9723 -18
    endloop
  endfacet
  facet normal 0 0 -1
    outer loop
      vertex -14.0277 15.9723 -18
      vertex 14.0277 15.9723 -18
      vertex -13.8567 15.7639 -18
    endloop
  endfacet
  facet normal 0 0 -1
    outer loop
      vertex -14.2361 16.1433 -18
      vertex 14.0277 15.9723 -18
      vertex -14.0277 15.9723 -18
    endloop
  endfacet
  facet normal 0 0 -1
    outer loop
      vertex 14.2361 16.1433 -18
      vertex -14.2361 16.1433 -18
      vertex -14.4738 16.2703 -18
    endloop
  endfacet
  facet normal 0 0 -1
    outer loop
      vertex 14.4738 16.2703 -18
      vertex -14.4738 16.2703 -18
      vertex 25 25 -18
    endloop
  endfacet
  facet normal 0 0 -1
    outer loop
      vertex -25 25 -18
      vertex -14.4738 16.2703 -18
      vertex -14.7318 16.3486 -18
    endloop
  endfacet
  facet normal 0 0 -1
    outer loop
      vertex -25 25 -18
      vertex -14.7318 16.3486 -18
      vertex -15 16.375 -18
    endloop
  endfacet
  facet normal 0 0 -1
    outer loop
      vertex -25 25 -18
      vertex -15 16.375 -18
      vertex -15.2682 16.3486 -18
    endloop
  endfacet
  facet normal 0 0 -1
    outer loop
      vertex -16.3486 14.7318 -18
      vertex -25 25 -18
      vertex -16.375 15 -18
    endloop
  endfacet
  facet normal 0 0 -1
    outer loop
      vertex -14.4738 16.2703 -18
      vertex -25 25 -18
      vertex 25 25 -18
    endloop
  endfacet
  facet normal 0 0 -1
    outer loop
      vertex -15.5262 16.2703 -18
      vertex -25 25 -18
      vertex -15.2682 16.3486 -18
    endloop
  endfacet
  facet normal 0 0 -1
    outer loop
      vertex -15.7639 16.1433 -18
      vertex -25 25 -18
      vertex -15.5262 16.2703 -18
    endloop
  endfacet
  facet normal 0 0 -1
    outer loop
      vertex -15.9723 15.9723 -18
      vertex -25 25 -18
      vertex -15.7639 16.1433 -18
    endloop
  endfacet
  facet normal 0 0 -1
    outer loop
      vertex -16.1433 15.7639 -18
      vertex -25 25 -18
      vertex -15.9723 15.9723 -18
    endloop
  endfacet
  facet normal 0 0 -1
    outer loop
      vertex -16.2703 15.5262 -18
      vertex -25 25 -18
      vertex -16.1433 15.7639 -18
    endloop
  endfacet
  facet normal 0 0 -1
    outer loop
      vertex -16.3486 15.2682 -18
      vertex -25 25 -18
      vertex -16.2703 15.5262 -18
    endloop
  endfacet
  facet normal 0 0 -1
    outer loop
      vertex -16.375 15 -18
      vertex -25 25 -18
      vertex -16.3486 15.2682 -18
    endloop
  endfacet
  facet normal 0 -1 0
    outer loop
      vertex -25 -25 -18
      vertex 25 -25 18
      vertex -25 -25 18
    endloop
  endfacet
  facet normal 0 -1 -0
    outer loop
      vertex 25 -25 18
      vertex -25 -25 -18
      vertex 25 -25 -18
    endloop
  endfacet
  facet normal 0 1 -0
    outer loop
      vertex 25 25 -18
      vertex -25 25 18
      vertex 25 25 18
    endloop
  endfacet
  facet normal 0 1 0
    outer loop
      vertex -25 25 18
      vertex 25 25 -18
      vertex -25 25 -18
    endloop
  endfacet
  facet normal -0.471397 -0.881921 0
    outer loop
      vertex -14.4738 -13.7297 -18
      vertex -14.2361 -13.8567 18
      vertex -14.4738 -13.7297 18
    endloop
  endfacet
  facet normal -0.471397 -0.881921 -0
    outer loop
      vertex -14.2361 -13.8567 18
      vertex -14.4738 -13.7297 -18
      vertex -14.2361 -13.8567 -18
    endloop
  endfacet
  facet normal -0.995185 0.0980152 0
    outer loop
      vertex -13.6514 -15.2682 -18
      vertex -13.625 -15 18
      vertex -13.625 -15 -18
    endloop
  endfacet
  facet normal -0.995185 0.0980152 0
    outer loop
      vertex -13.625 -15 18
      vertex -13.6514 -15.2682 -18
      vertex -13.6514 -15.2682 18
    endloop
  endfacet
  facet normal 0.290284 0.956941 -0
    outer loop
      vertex -15.2682 -16.3486 -18
      vertex -15.5262 -16.2703 18
      vertex -15.2682 -16.3486 18
    endloop
  endfacet
  facet normal 0.290284 0.956941 0
    outer loop
      vertex -15.5262 -16.2703 18
      vertex -15.2682 -16.3486 -18
      vertex -15.5262 -16.2703 -18
    endloop
  endfacet
  facet normal 0.471397 -0.881921 0
    outer loop
      vertex -15.7639 -13.8567 -18
      vertex -15.5262 -13.7297 18
      vertex -15.7639 -13.8567 18
    endloop
  endfacet
  facet normal 0.471397 -0.881921 0
    outer loop
      vertex -15.5262 -13.7297 18
      vertex -15.7639 -13.8567 -18
      vertex -15.5262 -13.7297 -18
    endloop
  endfacet
  facet normal 0.881921 -0.471397 0
    outer loop
      vertex -16.2703 -14.4738 18
      vertex -16.1433 -14.2361 -18
      vertex -16.1433 -14.2361 18
    endloop
  endfacet
  facet normal 0.881921 -0.471397 0
    outer loop
      vertex -16.1433 -14.2361 -18
      vertex -16.2703 -14.4738 18
      vertex -16.2703 -14.4738 -18
    endloop
  endfacet
  facet normal -0.956941 -0.290284 0
    outer loop
      vertex -13.6514 -14.7318 -18
      vertex -13.7297 -14.4738 18
      vertex -13.7297 -14.4738 -18
    endloop
  endfacet
  facet normal -0.956941 -0.290284 0
    outer loop
      vertex -13.7297 -14.4738 18
      vertex -13.6514 -14.7318 -18
      vertex -13.6514 -14.7318 18
    endloop
  endfacet
  facet normal -0.881921 -0.471397 0
    outer loop
      vertex -13.7297 -14.4738 -18
      vertex -13.8567 -14.2361 18
      vertex -13.8567 -14.2361 -18
    endloop
  endfacet
  facet normal -0.881921 -0.471397 0
    outer loop
      vertex -13.8567 -14.2361 18
      vertex -13.7297 -14.4738 -18
      vertex -13.7297 -14.4738 18
    endloop
  endfacet
  facet normal -0.773009 -0.634395 0
    outer loop
      vertex -13.8567 -14.2361 -18
      vertex -14.0277 -14.0277 18
      vertex -14.0277 -14.0277 -18
    endloop
  endfacet
  facet normal -0.773009 -0.634395 0
    outer loop
      vertex -14.0277 -14.0277 18
      vertex -13.8567 -14.2361 -18
      vertex -13.8567 -14.2361 18
    endloop
  endfacet
  facet normal -0.634395 -0.773009 0
    outer loop
      vertex -14.2361 -13.8567 -18
      vertex -14.0277 -14.0277 18
      vertex -14.2361 -13.8567 18
    endloop
  endfacet
  facet normal -0.634395 -0.773009 -0
    outer loop
      vertex -14.0277 -14.0277 18
      vertex -14.2361 -13.8567 -18
      vertex -14.0277 -14.0277 -18
    endloop
  endfacet
  facet normal -0.290284 -0.956941 0
    outer loop
      vertex -14.7318 -13.6514 -18
      vertex -14.4738 -13.7297 18
      vertex -14.7318 -13.6514 18
    endloop
  endfacet
  facet normal -0.290284 -0.956941 -0
    outer loop
      vertex -14.4738 -13.7297 18
      vertex -14.7318 -13.6514 -18
      vertex -14.4738 -13.7297 -18
    endloop
  endfacet
  facet normal 0.0980152 -0.995185 0
    outer loop
      vertex -15.2682 -13.6514 -18
      vertex -15 -13.625 18
      vertex -15.2682 -13.6514 18
    endloop
  endfacet
  facet normal 0.0980152 -0.995185 0
    outer loop
      vertex -15 -13.625 18
      vertex -15.2682 -13.6514 -18
      vertex -15 -13.625 -18
    endloop
  endfacet
  facet normal 0.995185 -0.0980183 0
    outer loop
      vertex -16.375 -15 18
      vertex -16.3486 -14.7318 -18
      vertex -16.3486 -14.7318 18
    endloop
  endfacet
  facet normal 0.995185 -0.0980183 0
    outer loop
      vertex -16.3486 -14.7318 -18
      vertex -16.375 -15 18
      vertex -16.375 -15 -18
    endloop
  endfacet
  facet normal 0.634395 -0.773009 0
    outer loop
      vertex -15.9723 -14.0277 -18
      vertex -15.7639 -13.8567 18
      vertex -15.9723 -14.0277 18
    endloop
  endfacet
  facet normal 0.634395 -0.773009 0
    outer loop
      vertex -15.7639 -13.8567 18
      vertex -15.9723 -14.0277 -18
      vertex -15.7639 -13.8567 -18
    endloop
  endfacet
  facet normal 0.290284 -0.956941 0
    outer loop
      vertex -15.5262 -13.7297 -18
      vertex -15.2682 -13.6514 18
      vertex -15.5262 -13.7297 18
    endloop
  endfacet
  facet normal 0.290284 -0.956941 0
    outer loop
      vertex -15.2682 -13.6514 18
      vertex -15.5262 -13.7297 -18
      vertex -15.2682 -13.6514 -18
    endloop
  endfacet
  facet normal 0.773009 -0.634395 0
    outer loop
      vertex -16.1433 -14.2361 18
      vertex -15.9723 -14.0277 -18
      vertex -15.9723 -14.0277 18
    endloop
  endfacet
  facet normal 0.773009 -0.634395 0
    outer loop
      vertex -15.9723 -14.0277 -18
      vertex -16.1433 -14.2361 18
      vertex -16.1433 -14.2361 -18
    endloop
  endfacet
  facet normal -0.995185 -0.0980148 0
    outer loop
      vertex -13.625 -15 -18
      vertex -13.6514 -14.7318 18
      vertex -13.6514 -14.7318 -18
    endloop
  endfacet
  facet normal -0.995185 -0.0980148 0
    outer loop
      vertex -13.6514 -14.7318 18
      vertex -13.625 -15 -18
      vertex -13.625 -15 18
    endloop
  endfacet
  facet normal -0.471397 0.881921 0
    outer loop
      vertex -14.2361 -16.1433 -18
      vertex -14.4738 -16.2703 18
      vertex -14.2361 -16.1433 18
    endloop
  endfacet
  facet normal -0.471397 0.881921 0
    outer loop
      vertex -14.4738 -16.2703 18
      vertex -14.2361 -16.1433 -18
      vertex -14.4738 -16.2703 -18
    endloop
  endfacet
  facet normal -0.634395 0.773009 0
    outer loop
      vertex -14.0277 -15.9723 -18
      vertex -14.2361 -16.1433 18
      vertex -14.0277 -15.9723 18
    endloop
  endfacet
  facet normal -0.634395 0.773009 0
    outer loop
      vertex -14.2361 -16.1433 18
      vertex -14.0277 -15.9723 -18
      vertex -14.2361 -16.1433 -18
    endloop
  endfacet
  facet normal -0.881921 0.471397 0
    outer loop
      vertex -13.8567 -15.7639 -18
      vertex -13.7297 -15.5262 18
      vertex -13.7297 -15.5262 -18
    endloop
  endfacet
  facet normal -0.881921 0.471397 0
    outer loop
      vertex -13.7297 -15.5262 18
      vertex -13.8567 -15.7639 -18
      vertex -13.8567 -15.7639 18
    endloop
  endfacet
  facet normal 0.0980187 0.995185 -0
    outer loop
      vertex -15 -16.375 -18
      vertex -15.2682 -16.3486 18
      vertex -15 -16.375 18
    endloop
  endfacet
  facet normal 0.0980187 0.995185 0
    outer loop
      vertex -15.2682 -16.3486 18
      vertex -15 -16.375 -18
      vertex -15.2682 -16.3486 -18
    endloop
  endfacet
  facet normal 0.634395 0.773009 -0
    outer loop
      vertex -15.7639 -16.1433 -18
      vertex -15.9723 -15.9723 18
      vertex -15.7639 -16.1433 18
    endloop
  endfacet
  facet normal 0.634395 0.773009 0
    outer loop
      vertex -15.9723 -15.9723 18
      vertex -15.7639 -16.1433 -18
      vertex -15.9723 -15.9723 -18
    endloop
  endfacet
  facet normal 0.881921 0.471397 0
    outer loop
      vertex -16.1433 -15.7639 18
      vertex -16.2703 -15.5262 -18
      vertex -16.2703 -15.5262 18
    endloop
  endfacet
  facet normal 0.881921 0.471397 0
    outer loop
      vertex -16.2703 -15.5262 -18
      vertex -16.1433 -15.7639 18
      vertex -16.1433 -15.7639 -18
    endloop
  endfacet
  facet normal 0.995185 0.0980187 0
    outer loop
      vertex -16.3486 -15.2682 18
      vertex -16.375 -15 -18
      vertex -16.375 -15 18
    endloop
  endfacet
  facet normal 0.995185 0.0980187 0
    outer loop
      vertex -16.375 -15 -18
      vertex -16.3486 -15.2682 18
      vertex -16.3486 -15.2682 -18
    endloop
  endfacet
  facet normal 0.773009 0.634395 0
    outer loop
      vertex -15.9723 -15.9723 18
      vertex -16.1433 -15.7639 -18
      vertex -16.1433 -15.7639 18
    endloop
  endfacet
  facet normal 0.773009 0.634395 0
    outer loop
      vertex -16.1433 -15.7639 -18
      vertex -15.9723 -15.9723 18
      vertex -15.9723 -15.9723 -18
    endloop
  endfacet
  facet normal -0.0980148 -0.995185 0
    outer loop
      vertex -15 -13.625 -18
      vertex -14.7318 -13.6514 18
      vertex -15 -13.625 18
    endloop
  endfacet
  facet normal -0.0980148 -0.995185 -0
    outer loop
      vertex -14.7318 -13.6514 18
      vertex -15 -13.625 -18
      vertex -14.7318 -13.6514 -18
    endloop
  endfacet
  facet normal 0.956941 -0.290284 0
    outer loop
      vertex -16.3486 -14.7318 18
      vertex -16.2703 -14.4738 -18
      vertex -16.2703 -14.4738 18
    endloop
  endfacet
  facet normal 0.956941 -0.290284 0
    outer loop
      vertex -16.2703 -14.4738 -18
      vertex -16.3486 -14.7318 18
      vertex -16.3486 -14.7318 -18
    endloop
  endfacet
  facet normal -0.0980183 0.995185 0
    outer loop
      vertex -14.7318 -16.3486 -18
      vertex -15 -16.375 18
      vertex -14.7318 -16.3486 18
    endloop
  endfacet
  facet normal -0.0980183 0.995185 0
    outer loop
      vertex -15 -16.375 18
      vertex -14.7318 -16.3486 -18
      vertex -15 -16.375 -18
    endloop
  endfacet
  facet normal -0.773009 0.634395 0
    outer loop
      vertex -14.0277 -15.9723 -18
      vertex -13.8567 -15.7639 18
      vertex -13.8567 -15.7639 -18
    endloop
  endfacet
  facet normal -0.773009 0.634395 0
    outer loop
      vertex -13.8567 -15.7639 18
      vertex -14.0277 -15.9723 -18
      vertex -14.0277 -15.9723 18
    endloop
  endfacet
  facet normal -0.956941 0.290284 0
    outer loop
      vertex -13.7297 -15.5262 -18
      vertex -13.6514 -15.2682 18
      vertex -13.6514 -15.2682 -18
    endloop
  endfacet
  facet normal -0.956941 0.290284 0
    outer loop
      vertex -13.6514 -15.2682 18
      vertex -13.7297 -15.5262 -18
      vertex -13.7297 -15.5262 18
    endloop
  endfacet
  facet normal 0.471397 0.881921 -0
    outer loop
      vertex -15.5262 -16.2703 -18
      vertex -15.7639 -16.1433 18
      vertex -15.5262 -16.2703 18
    endloop
  endfacet
  facet normal 0.471397 0.881921 0
    outer loop
      vertex -15.7639 -16.1433 18
      vertex -15.5262 -16.2703 -18
      vertex -15.7639 -16.1433 -18
    endloop
  endfacet
  facet normal 0.956941 0.290284 0
    outer loop
      vertex -16.2703 -15.5262 18
      vertex -16.3486 -15.2682 -18
      vertex -16.3486 -15.2682 18
    endloop
  endfacet
  facet normal 0.956941 0.290284 0
    outer loop
      vertex -16.3486 -15.2682 -18
      vertex -16.2703 -15.5262 18
      vertex -16.2703 -15.5262 -18
    endloop
  endfacet
  facet normal -0.290284 0.956941 0
    outer loop
      vertex -14.4738 -16.2703 -18
      vertex -14.7318 -16.3486 18
      vertex -14.4738 -16.2703 18
    endloop
  endfacet
  facet normal -0.290284 0.956941 0
    outer loop
      vertex -14.7318 -16.3486 18
      vertex -14.4738 -16.2703 -18
      vertex -14.7318 -16.3486 -18
    endloop
  endfacet
  facet normal -0.995185 -0.0980152 0
    outer loop
      vertex -13.625 15 -18
      vertex -13.6514 15.2682 18
      vertex -13.6514 15.2682 -18
    endloop
  endfacet
  facet normal -0.995185 -0.0980152 0
    outer loop
      vertex -13.6514 15.2682 18
      vertex -13.625 15 -18
      vertex -13.625 15 18
    endloop
  endfacet
  facet normal 0.995185 -0.0980187 0
    outer loop
      vertex -16.375 15 18
      vertex -16.3486 15.2682 -18
      vertex -16.3486 15.2682 18
    endloop
  endfacet
  facet normal 0.995185 -0.0980187 0
    outer loop
      vertex -16.3486 15.2682 -18
      vertex -16.375 15 18
      vertex -16.375 15 -18
    endloop
  endfacet
  facet normal -0.0980183 -0.995185 0
    outer loop
      vertex -15 16.375 -18
      vertex -14.7318 16.3486 18
      vertex -15 16.375 18
    endloop
  endfacet
  facet normal -0.0980183 -0.995185 -0
    outer loop
      vertex -14.7318 16.3486 18
      vertex -15 16.375 -18
      vertex -14.7318 16.3486 -18
    endloop
  endfacet
  facet normal -0.0980148 0.995185 0
    outer loop
      vertex -14.7318 13.6514 -18
      vertex -15 13.625 18
      vertex -14.7318 13.6514 18
    endloop
  endfacet
  facet normal -0.0980148 0.995185 0
    outer loop
      vertex -15 13.625 18
      vertex -14.7318 13.6514 -18
      vertex -15 13.625 -18
    endloop
  endfacet
  facet normal -0.634395 -0.773009 0
    outer loop
      vertex -14.2361 16.1433 -18
      vertex -14.0277 15.9723 18
      vertex -14.2361 16.1433 18
    endloop
  endfacet
  facet normal -0.634395 -0.773009 -0
    outer loop
      vertex -14.0277 15.9723 18
      vertex -14.2361 16.1433 -18
      vertex -14.0277 15.9723 -18
    endloop
  endfacet
  facet normal -0.471397 -0.881921 0
    outer loop
      vertex -14.4738 16.2703 -18
      vertex -14.2361 16.1433 18
      vertex -14.4738 16.2703 18
    endloop
  endfacet
  facet normal -0.471397 -0.881921 -0
    outer loop
      vertex -14.2361 16.1433 18
      vertex -14.4738 16.2703 -18
      vertex -14.2361 16.1433 -18
    endloop
  endfacet
  facet normal 0.634395 -0.773009 0
    outer loop
      vertex -15.9723 15.9723 -18
      vertex -15.7639 16.1433 18
      vertex -15.9723 15.9723 18
    endloop
  endfacet
  facet normal 0.634395 -0.773009 0
    outer loop
      vertex -15.7639 16.1433 18
      vertex -15.9723 15.9723 -18
      vertex -15.7639 16.1433 -18
    endloop
  endfacet
  facet normal 0.290284 -0.956941 0
    outer loop
      vertex -15.5262 16.2703 -18
      vertex -15.2682 16.3486 18
      vertex -15.5262 16.2703 18
    endloop
  endfacet
  facet normal 0.290284 -0.956941 0
    outer loop
      vertex -15.2682 16.3486 18
      vertex -15.5262 16.2703 -18
      vertex -15.2682 16.3486 -18
    endloop
  endfacet
  facet normal -0.881921 0.471397 0
    outer loop
      vertex -13.8567 14.2361 -18
      vertex -13.7297 14.4738 18
      vertex -13.7297 14.4738 -18
    endloop
  endfacet
  facet normal -0.881921 0.471397 0
    outer loop
      vertex -13.7297 14.4738 18
      vertex -13.8567 14.2361 -18
      vertex -13.8567 14.2361 18
    endloop
  endfacet
  facet normal -0.881921 -0.471397 0
    outer loop
      vertex -13.7297 15.5262 -18
      vertex -13.8567 15.7639 18
      vertex -13.8567 15.7639 -18
    endloop
  endfacet
  facet normal -0.881921 -0.471397 0
    outer loop
      vertex -13.8567 15.7639 18
      vertex -13.7297 15.5262 -18
      vertex -13.7297 15.5262 18
    endloop
  endfacet
  facet normal -0.956941 -0.290284 0
    outer loop
      vertex -13.6514 15.2682 -18
      vertex -13.7297 15.5262 18
      vertex -13.7297 15.5262 -18
    endloop
  endfacet
  facet normal -0.956941 -0.290284 0
    outer loop
      vertex -13.7297 15.5262 18
      vertex -13.6514 15.2682 -18
      vertex -13.6514 15.2682 18
    endloop
  endfacet
  facet normal -0.773009 -0.634395 0
    outer loop
      vertex -13.8567 15.7639 -18
      vertex -14.0277 15.9723 18
      vertex -14.0277 15.9723 -18
    endloop
  endfacet
  facet normal -0.773009 -0.634395 0
    outer loop
      vertex -14.0277 15.9723 18
      vertex -13.8567 15.7639 -18
      vertex -13.8567 15.7639 18
    endloop
  endfacet
  facet normal -0.290284 -0.956941 0
    outer loop
      vertex -14.7318 16.3486 -18
      vertex -14.4738 16.2703 18
      vertex -14.7318 16.3486 18
    endloop
  endfacet
  facet normal -0.290284 -0.956941 -0
    outer loop
      vertex -14.4738 16.2703 18
      vertex -14.7318 16.3486 -18
      vertex -14.4738 16.2703 -18
    endloop
  endfacet
  facet normal 0.881921 -0.471397 0
    outer loop
      vertex -16.2703 15.5262 18
      vertex -16.1433 15.7639 -18
      vertex -16.1433 15.7639 18
    endloop
  endfacet
  facet normal 0.881921 -0.471397 0
    outer loop
      vertex -16.1433 15.7639 -18
      vertex -16.2703 15.5262 18
      vertex -16.2703 15.5262 -18
    endloop
  endfacet
  facet normal 0.773009 -0.634395 0
    outer loop
      vertex -16.1433 15.7639 18
      vertex -15.9723 15.9723 -18
      vertex -15.9723 15.9723 18
    endloop
  endfacet
  facet normal 0.773009 -0.634395 0
    outer loop
      vertex -15.9723 15.9723 -18
      vertex -16.1433 15.7639 18
      vertex -16.1433 15.7639 -18
    endloop
  endfacet
  facet normal 0.956941 -0.290284 0
    outer loop
      vertex -16.3486 15.2682 18
      vertex -16.2703 15.5262 -18
      vertex -16.2703 15.5262 18
    endloop
  endfacet
  facet normal 0.956941 -0.290284 0
    outer loop
      vertex -16.2703 15.5262 -18
      vertex -16.3486 15.2682 18
      vertex -16.3486 15.2682 -18
    endloop
  endfacet
  facet normal 0.471397 -0.881921 0
    outer loop
      vertex -15.7639 16.1433 -18
      vertex -15.5262 16.2703 18
      vertex -15.7639 16.1433 18
    endloop
  endfacet
  facet normal 0.471397 -0.881921 0
    outer loop
      vertex -15.5262 16.2703 18
      vertex -15.7639 16.1433 -18
      vertex -15.5262 16.2703 -18
    endloop
  endfacet
  facet normal 0.0980187 -0.995185 0
    outer loop
      vertex -15.2682 16.3486 -18
      vertex -15 16.375 18
      vertex -15.2682 16.3486 18
    endloop
  endfacet
  facet normal 0.0980187 -0.995185 0
    outer loop
      vertex -15 16.375 18
      vertex -15.2682 16.3486 -18
      vertex -15 16.375 -18
    endloop
  endfacet
  facet normal -0.995185 0.0980148 0
    outer loop
      vertex -13.6514 14.7318 -18
      vertex -13.625 15 18
      vertex -13.625 15 -18
    endloop
  endfacet
  facet normal -0.995185 0.0980148 0
    outer loop
      vertex -13.625 15 18
      vertex -13.6514 14.7318 -18
      vertex -13.6514 14.7318 18
    endloop
  endfacet
  facet normal 0.773009 0.634395 0
    outer loop
      vertex -15.9723 14.0277 18
      vertex -16.1433 14.2361 -18
      vertex -16.1433 14.2361 18
    endloop
  endfacet
  facet normal 0.773009 0.634395 0
    outer loop
      vertex -16.1433 14.2361 -18
      vertex -15.9723 14.0277 18
      vertex -15.9723 14.0277 -18
    endloop
  endfacet
  facet normal 0.881921 0.471397 0
    outer loop
      vertex -16.1433 14.2361 18
      vertex -16.2703 14.4738 -18
      vertex -16.2703 14.4738 18
    endloop
  endfacet
  facet normal 0.881921 0.471397 0
    outer loop
      vertex -16.2703 14.4738 -18
      vertex -16.1433 14.2361 18
      vertex -16.1433 14.2361 -18
    endloop
  endfacet
  facet normal -0.956941 0.290284 0
    outer loop
      vertex -13.7297 14.4738 -18
      vertex -13.6514 14.7318 18
      vertex -13.6514 14.7318 -18
    endloop
  endfacet
  facet normal -0.956941 0.290284 0
    outer loop
      vertex -13.6514 14.7318 18
      vertex -13.7297 14.4738 -18
      vertex -13.7297 14.4738 18
    endloop
  endfacet
  facet normal -0.290284 0.956941 0
    outer loop
      vertex -14.4738 13.7297 -18
      vertex -14.7318 13.6514 18
      vertex -14.4738 13.7297 18
    endloop
  endfacet
  facet normal -0.290284 0.956941 0
    outer loop
      vertex -14.7318 13.6514 18
      vertex -14.4738 13.7297 -18
      vertex -14.7318 13.6514 -18
    endloop
  endfacet
  facet normal -0.634395 0.773009 0
    outer loop
      vertex -14.0277 14.0277 -18
      vertex -14.2361 13.8567 18
      vertex -14.0277 14.0277 18
    endloop
  endfacet
  facet normal -0.634395 0.773009 0
    outer loop
      vertex -14.2361 13.8567 18
      vertex -14.0277 14.0277 -18
      vertex -14.2361 13.8567 -18
    endloop
  endfacet
  facet normal 0.471397 0.881921 -0
    outer loop
      vertex -15.5262 13.7297 -18
      vertex -15.7639 13.8567 18
      vertex -15.5262 13.7297 18
    endloop
  endfacet
  facet normal 0.471397 0.881921 0
    outer loop
      vertex -15.7639 13.8567 18
      vertex -15.5262 13.7297 -18
      vertex -15.7639 13.8567 -18
    endloop
  endfacet
  facet normal 0.0980152 0.995185 -0
    outer loop
      vertex -15 13.625 -18
      vertex -15.2682 13.6514 18
      vertex -15 13.625 18
    endloop
  endfacet
  facet normal 0.0980152 0.995185 0
    outer loop
      vertex -15.2682 13.6514 18
      vertex -15 13.625 -18
      vertex -15.2682 13.6514 -18
    endloop
  endfacet
  facet normal 0.634395 0.773009 -0
    outer loop
      vertex -15.7639 13.8567 -18
      vertex -15.9723 14.0277 18
      vertex -15.7639 13.8567 18
    endloop
  endfacet
  facet normal 0.634395 0.773009 0
    outer loop
      vertex -15.9723 14.0277 18
      vertex -15.7639 13.8567 -18
      vertex -15.9723 14.0277 -18
    endloop
  endfacet
  facet normal -0.471397 0.881921 0
    outer loop
      vertex -14.2361 13.8567 -18
      vertex -14.4738 13.7297 18
      vertex -14.2361 13.8567 18
    endloop
  endfacet
  facet normal -0.471397 0.881921 0
    outer loop
      vertex -14.4738 13.7297 18
      vertex -14.2361 13.8567 -18
      vertex -14.4738 13.7297 -18
    endloop
  endfacet
  facet normal -0.773009 0.634395 0
    outer loop
      vertex -14.0277 14.0277 -18
      vertex -13.8567 14.2361 18
      vertex -13.8567 14.2361 -18
    endloop
  endfacet
  facet normal -0.773009 0.634395 0
    outer loop
      vertex -13.8567 14.2361 18
      vertex -14.0277 14.0277 -18
      vertex -14.0277 14.0277 18
    endloop
  endfacet
  facet normal 0.290284 0.956941 -0
    outer loop
      vertex -15.2682 13.6514 -18
      vertex -15.5262 13.7297 18
      vertex -15.2682 13.6514 18
    endloop
  endfacet
  facet normal 0.290284 0.956941 0
    outer loop
      vertex -15.5262 13.7297 18
      vertex -15.2682 13.6514 -18
      vertex -15.5262 13.7297 -18
    endloop
  endfacet
  facet normal 0.956941 0.290284 0
    outer loop
      vertex -16.2703 14.4738 18
      vertex -16.3486 14.7318 -18
      vertex -16.3486 14.7318 18
    endloop
  endfacet
  facet normal 0.956941 0.290284 0
    outer loop
      vertex -16.3486 14.7318 -18
      vertex -16.2703 14.4738 18
      vertex -16.2703 14.4738 -18
    endloop
  endfacet
  facet normal 0.995185 0.0980183 0
    outer loop
      vertex -16.3486 14.7318 18
      vertex -16.375 15 -18
      vertex -16.375 15 18
    endloop
  endfacet
  facet normal 0.995185 0.0980183 0
    outer loop
      vertex -16.375 15 -18
      vertex -16.3486 14.7318 18
      vertex -16.3486 14.7318 -18
    endloop
  endfacet
  facet normal -0.995185 -0.0980183 0
    outer loop
      vertex 16.375 -15 -18
      vertex 16.3486 -14.7318 18
      vertex 16.3486 -14.7318 -18
    endloop
  endfacet
  facet normal -0.995185 -0.0980183 0
    outer loop
      vertex 16.3486 -14.7318 18
      vertex 16.375 -15 -18
      vertex 16.375 -15 18
    endloop
  endfacet
  facet normal 0.0980148 -0.995185 0
    outer loop
      vertex 14.7318 -13.6514 -18
      vertex 15 -13.625 18
      vertex 14.7318 -13.6514 18
    endloop
  endfacet
  facet normal 0.0980148 -0.995185 0
    outer loop
      vertex 15 -13.625 18
      vertex 14.7318 -13.6514 -18
      vertex 15 -13.625 -18
    endloop
  endfacet
  facet normal -0.0980187 0.995185 0
    outer loop
      vertex 15.2682 -16.3486 -18
      vertex 15 -16.375 18
      vertex 15.2682 -16.3486 18
    endloop
  endfacet
  facet normal -0.0980187 0.995185 0
    outer loop
      vertex 15 -16.375 18
      vertex 15.2682 -16.3486 -18
      vertex 15 -16.375 -18
    endloop
  endfacet
  facet normal -0.773009 0.634395 0
    outer loop
      vertex 15.9723 -15.9723 -18
      vertex 16.1433 -15.7639 18
      vertex 16.1433 -15.7639 -18
    endloop
  endfacet
  facet normal -0.773009 0.634395 0
    outer loop
      vertex 16.1433 -15.7639 18
      vertex 15.9723 -15.9723 -18
      vertex 15.9723 -15.9723 18
    endloop
  endfacet
  facet normal -0.634395 -0.773009 0
    outer loop
      vertex 15.7639 -13.8567 -18
      vertex 15.9723 -14.0277 18
      vertex 15.7639 -13.8567 18
    endloop
  endfacet
  facet normal -0.634395 -0.773009 -0
    outer loop
      vertex 15.9723 -14.0277 18
      vertex 15.7639 -13.8567 -18
      vertex 15.9723 -14.0277 -18
    endloop
  endfacet
  facet normal 0.773009 -0.634395 0
    outer loop
      vertex 13.8567 -14.2361 18
      vertex 14.0277 -14.0277 -18
      vertex 14.0277 -14.0277 18
    endloop
  endfacet
  facet normal 0.773009 -0.634395 0
    outer loop
      vertex 14.0277 -14.0277 -18
      vertex 13.8567 -14.2361 18
      vertex 13.8567 -14.2361 -18
    endloop
  endfacet
  facet normal 0.471397 -0.881921 0
    outer loop
      vertex 14.2361 -13.8567 -18
      vertex 14.4738 -13.7297 18
      vertex 14.2361 -13.8567 18
    endloop
  endfacet
  facet normal 0.471397 -0.881921 0
    outer loop
      vertex 14.4738 -13.7297 18
      vertex 14.2361 -13.8567 -18
      vertex 14.4738 -13.7297 -18
    endloop
  endfacet
  facet normal -0.881921 -0.471397 0
    outer loop
      vertex 16.2703 -14.4738 -18
      vertex 16.1433 -14.2361 18
      vertex 16.1433 -14.2361 -18
    endloop
  endfacet
  facet normal -0.881921 -0.471397 0
    outer loop
      vertex 16.1433 -14.2361 18
      vertex 16.2703 -14.4738 -18
      vertex 16.2703 -14.4738 18
    endloop
  endfacet
  facet normal -0.956941 -0.290284 0
    outer loop
      vertex 16.3486 -14.7318 -18
      vertex 16.2703 -14.4738 18
      vertex 16.2703 -14.4738 -18
    endloop
  endfacet
  facet normal -0.956941 -0.290284 0
    outer loop
      vertex 16.2703 -14.4738 18
      vertex 16.3486 -14.7318 -18
      vertex 16.3486 -14.7318 18
    endloop
  endfacet
  facet normal -0.773009 -0.634395 0
    outer loop
      vertex 16.1433 -14.2361 -18
      vertex 15.9723 -14.0277 18
      vertex 15.9723 -14.0277 -18
    endloop
  endfacet
  facet normal -0.773009 -0.634395 0
    outer loop
      vertex 15.9723 -14.0277 18
      vertex 16.1433 -14.2361 -18
      vertex 16.1433 -14.2361 18
    endloop
  endfacet
  facet normal -0.290284 -0.956941 0
    outer loop
      vertex 15.2682 -13.6514 -18
      vertex 15.5262 -13.7297 18
      vertex 15.2682 -13.6514 18
    endloop
  endfacet
  facet normal -0.290284 -0.956941 -0
    outer loop
      vertex 15.5262 -13.7297 18
      vertex 15.2682 -13.6514 -18
      vertex 15.5262 -13.7297 -18
    endloop
  endfacet
  facet normal -0.0980152 -0.995185 0
    outer loop
      vertex 15 -13.625 -18
      vertex 15.2682 -13.6514 18
      vertex 15 -13.625 18
    endloop
  endfacet
  facet normal -0.0980152 -0.995185 -0
    outer loop
      vertex 15.2682 -13.6514 18
      vertex 15 -13.625 -18
      vertex 15.2682 -13.6514 -18
    endloop
  endfacet
  facet normal -0.471397 -0.881921 0
    outer loop
      vertex 15.5262 -13.7297 -18
      vertex 15.7639 -13.8567 18
      vertex 15.5262 -13.7297 18
    endloop
  endfacet
  facet normal -0.471397 -0.881921 -0
    outer loop
      vertex 15.7639 -13.8567 18
      vertex 15.5262 -13.7297 -18
      vertex 15.7639 -13.8567 -18
    endloop
  endfacet
  facet normal 0.956941 -0.290284 0
    outer loop
      vertex 13.6514 -14.7318 18
      vertex 13.7297 -14.4738 -18
      vertex 13.7297 -14.4738 18
    endloop
  endfacet
  facet normal 0.956941 -0.290284 0
    outer loop
      vertex 13.7297 -14.4738 -18
      vertex 13.6514 -14.7318 18
      vertex 13.6514 -14.7318 -18
    endloop
  endfacet
  facet normal 0.881921 -0.471397 0
    outer loop
      vertex 13.7297 -14.4738 18
      vertex 13.8567 -14.2361 -18
      vertex 13.8567 -14.2361 18
    endloop
  endfacet
  facet normal 0.881921 -0.471397 0
    outer loop
      vertex 13.8567 -14.2361 -18
      vertex 13.7297 -14.4738 18
      vertex 13.7297 -14.4738 -18
    endloop
  endfacet
  facet normal 0.995185 -0.0980148 0
    outer loop
      vertex 13.625 -15 18
      vertex 13.6514 -14.7318 -18
      vertex 13.6514 -14.7318 18
    endloop
  endfacet
  facet normal 0.995185 -0.0980148 0
    outer loop
      vertex 13.6514 -14.7318 -18
      vertex 13.625 -15 18
      vertex 13.625 -15 -18
    endloop
  endfacet
  facet normal 0.634395 -0.773009 0
    outer loop
      vertex 14.0277 -14.0277 -18
      vertex 14.2361 -13.8567 18
      vertex 14.0277 -14.0277 18
    endloop
  endfacet
  facet normal 0.634395 -0.773009 0
    outer loop
      vertex 14.2361 -13.8567 18
      vertex 14.0277 -14.0277 -18
      vertex 14.2361 -13.8567 -18
    endloop
  endfacet
  facet normal 0.290284 -0.956941 0
    outer loop
      vertex 14.4738 -13.7297 -18
      vertex 14.7318 -13.6514 18
      vertex 14.4738 -13.7297 18
    endloop
  endfacet
  facet normal 0.290284 -0.956941 0
    outer loop
      vertex 14.7318 -13.6514 18
      vertex 14.4738 -13.7297 -18
      vertex 14.7318 -13.6514 -18
    endloop
  endfacet
  facet normal -0.995185 0.0980187 0
    outer loop
      vertex 16.3486 -15.2682 -18
      vertex 16.375 -15 18
      vertex 16.375 -15 -18
    endloop
  endfacet
  facet normal -0.995185 0.0980187 0
    outer loop
      vertex 16.375 -15 18
      vertex 16.3486 -15.2682 -18
      vertex 16.3486 -15.2682 18
    endloop
  endfacet
  facet normal -0.290284 0.956941 0
    outer loop
      vertex 15.5262 -16.2703 -18
      vertex 15.2682 -16.3486 18
      vertex 15.5262 -16.2703 18
    endloop
  endfacet
  facet normal -0.290284 0.956941 0
    outer loop
      vertex 15.2682 -16.3486 18
      vertex 15.5262 -16.2703 -18
      vertex 15.2682 -16.3486 -18
    endloop
  endfacet
  facet normal 0.995185 0.0980152 0
    outer loop
      vertex 13.6514 -15.2682 18
      vertex 13.625 -15 -18
      vertex 13.625 -15 18
    endloop
  endfacet
  facet normal 0.995185 0.0980152 0
    outer loop
      vertex 13.625 -15 -18
      vertex 13.6514 -15.2682 18
      vertex 13.6514 -15.2682 -18
    endloop
  endfacet
  facet normal -0.881921 0.471397 0
    outer loop
      vertex 16.1433 -15.7639 -18
      vertex 16.2703 -15.5262 18
      vertex 16.2703 -15.5262 -18
    endloop
  endfacet
  facet normal -0.881921 0.471397 0
    outer loop
      vertex 16.2703 -15.5262 18
      vertex 16.1433 -15.7639 -18
      vertex 16.1433 -15.7639 18
    endloop
  endfacet
  facet normal 0.471397 0.881921 -0
    outer loop
      vertex 14.4738 -16.2703 -18
      vertex 14.2361 -16.1433 18
      vertex 14.4738 -16.2703 18
    endloop
  endfacet
  facet normal 0.471397 0.881921 0
    outer loop
      vertex 14.2361 -16.1433 18
      vertex 14.4738 -16.2703 -18
      vertex 14.2361 -16.1433 -18
    endloop
  endfacet
  facet normal 0.773009 0.634395 0
    outer loop
      vertex 14.0277 -15.9723 18
      vertex 13.8567 -15.7639 -18
      vertex 13.8567 -15.7639 18
    endloop
  endfacet
  facet normal 0.773009 0.634395 0
    outer loop
      vertex 13.8567 -15.7639 -18
      vertex 14.0277 -15.9723 18
      vertex 14.0277 -15.9723 -18
    endloop
  endfacet
  facet normal -0.634395 0.773009 0
    outer loop
      vertex 15.9723 -15.9723 -18
      vertex 15.7639 -16.1433 18
      vertex 15.9723 -15.9723 18
    endloop
  endfacet
  facet normal -0.634395 0.773009 0
    outer loop
      vertex 15.7639 -16.1433 18
      vertex 15.9723 -15.9723 -18
      vertex 15.7639 -16.1433 -18
    endloop
  endfacet
  facet normal -0.471397 0.881921 0
    outer loop
      vertex 15.7639 -16.1433 -18
      vertex 15.5262 -16.2703 18
      vertex 15.7639 -16.1433 18
    endloop
  endfacet
  facet normal -0.471397 0.881921 0
    outer loop
      vertex 15.5262 -16.2703 18
      vertex 15.7639 -16.1433 -18
      vertex 15.5262 -16.2703 -18
    endloop
  endfacet
  facet normal -0.956941 0.290284 0
    outer loop
      vertex 16.2703 -15.5262 -18
      vertex 16.3486 -15.2682 18
      vertex 16.3486 -15.2682 -18
    endloop
  endfacet
  facet normal -0.956941 0.290284 0
    outer loop
      vertex 16.3486 -15.2682 18
      vertex 16.2703 -15.5262 -18
      vertex 16.2703 -15.5262 18
    endloop
  endfacet
  facet normal 0.0980183 0.995185 -0
    outer loop
      vertex 15 -16.375 -18
      vertex 14.7318 -16.3486 18
      vertex 15 -16.375 18
    endloop
  endfacet
  facet normal 0.0980183 0.995185 0
    outer loop
      vertex 14.7318 -16.3486 18
      vertex 15 -16.375 -18
      vertex 14.7318 -16.3486 -18
    endloop
  endfacet
  facet normal 0.290284 0.956941 -0
    outer loop
      vertex 14.7318 -16.3486 -18
      vertex 14.4738 -16.2703 18
      vertex 14.7318 -16.3486 18
    endloop
  endfacet
  facet normal 0.290284 0.956941 0
    outer loop
      vertex 14.4738 -16.2703 18
      vertex 14.7318 -16.3486 -18
      vertex 14.4738 -16.2703 -18
    endloop
  endfacet
  facet normal 0.634395 0.773009 -0
    outer loop
      vertex 14.2361 -16.1433 -18
      vertex 14.0277 -15.9723 18
      vertex 14.2361 -16.1433 18
    endloop
  endfacet
  facet normal 0.634395 0.773009 0
    outer loop
      vertex 14.0277 -15.9723 18
      vertex 14.2361 -16.1433 -18
      vertex 14.0277 -15.9723 -18
    endloop
  endfacet
  facet normal 0.881921 0.471397 0
    outer loop
      vertex 13.8567 -15.7639 18
      vertex 13.7297 -15.5262 -18
      vertex 13.7297 -15.5262 18
    endloop
  endfacet
  facet normal 0.881921 0.471397 0
    outer loop
      vertex 13.7297 -15.5262 -18
      vertex 13.8567 -15.7639 18
      vertex 13.8567 -15.7639 -18
    endloop
  endfacet
  facet normal 0.956941 0.290284 0
    outer loop
      vertex 13.7297 -15.5262 18
      vertex 13.6514 -15.2682 -18
      vertex 13.6514 -15.2682 18
    endloop
  endfacet
  facet normal 0.956941 0.290284 0
    outer loop
      vertex 13.6514 -15.2682 -18
      vertex 13.7297 -15.5262 18
      vertex 13.7297 -15.5262 -18
    endloop
  endfacet
  facet normal -0.995185 -0.0980187 0
    outer loop
      vertex 16.375 15 -18
      vertex 16.3486 15.2682 18
      vertex 16.3486 15.2682 -18
    endloop
  endfacet
  facet normal -0.995185 -0.0980187 0
    outer loop
      vertex 16.3486 15.2682 18
      vertex 16.375 15 -18
      vertex 16.375 15 18
    endloop
  endfacet
  facet normal 0.0980183 -0.995185 0
    outer loop
      vertex 14.7318 16.3486 -18
      vertex 15 16.375 18
      vertex 14.7318 16.3486 18
    endloop
  endfacet
  facet normal 0.0980183 -0.995185 0
    outer loop
      vertex 15 16.375 18
      vertex 14.7318 16.3486 -18
      vertex 15 16.375 -18
    endloop
  endfacet
  facet normal 0.634395 0.773009 -0
    outer loop
      vertex 14.2361 13.8567 -18
      vertex 14.0277 14.0277 18
      vertex 14.2361 13.8567 18
    endloop
  endfacet
  facet normal 0.634395 0.773009 0
    outer loop
      vertex 14.0277 14.0277 18
      vertex 14.2361 13.8567 -18
      vertex 14.0277 14.0277 -18
    endloop
  endfacet
  facet normal -0.634395 -0.773009 0
    outer loop
      vertex 15.7639 16.1433 -18
      vertex 15.9723 15.9723 18
      vertex 15.7639 16.1433 18
    endloop
  endfacet
  facet normal -0.634395 -0.773009 -0
    outer loop
      vertex 15.9723 15.9723 18
      vertex 15.7639 16.1433 -18
      vertex 15.9723 15.9723 -18
    endloop
  endfacet
  facet normal 0.773009 -0.634395 0
    outer loop
      vertex 13.8567 15.7639 18
      vertex 14.0277 15.9723 -18
      vertex 14.0277 15.9723 18
    endloop
  endfacet
  facet normal 0.773009 -0.634395 0
    outer loop
      vertex 14.0277 15.9723 -18
      vertex 13.8567 15.7639 18
      vertex 13.8567 15.7639 -18
    endloop
  endfacet
  facet normal 0.471397 -0.881921 0
    outer loop
      vertex 14.2361 16.1433 -18
      vertex 14.4738 16.2703 18
      vertex 14.2361 16.1433 18
    endloop
  endfacet
  facet normal 0.471397 -0.881921 0
    outer loop
      vertex 14.4738 16.2703 18
      vertex 14.2361 16.1433 -18
      vertex 14.4738 16.2703 -18
    endloop
  endfacet
  facet normal -0.881921 -0.471397 0
    outer loop
      vertex 16.2703 15.5262 -18
      vertex 16.1433 15.7639 18
      vertex 16.1433 15.7639 -18
    endloop
  endfacet
  facet normal -0.881921 -0.471397 0
    outer loop
      vertex 16.1433 15.7639 18
      vertex 16.2703 15.5262 -18
      vertex 16.2703 15.5262 18
    endloop
  endfacet
  facet normal -0.956941 -0.290284 0
    outer loop
      vertex 16.3486 15.2682 -18
      vertex 16.2703 15.5262 18
      vertex 16.2703 15.5262 -18
    endloop
  endfacet
  facet normal -0.956941 -0.290284 0
    outer loop
      vertex 16.2703 15.5262 18
      vertex 16.3486 15.2682 -18
      vertex 16.3486 15.2682 18
    endloop
  endfacet
  facet normal -0.773009 -0.634395 0
    outer loop
      vertex 16.1433 15.7639 -18
      vertex 15.9723 15.9723 18
      vertex 15.9723 15.9723 -18
    endloop
  endfacet
  facet normal -0.773009 -0.634395 0
    outer loop
      vertex 15.9723 15.9723 18
      vertex 16.1433 15.7639 -18
      vertex 16.1433 15.7639 18
    endloop
  endfacet
  facet normal -0.290284 -0.956941 0
    outer loop
      vertex 15.2682 16.3486 -18
      vertex 15.5262 16.2703 18
      vertex 15.2682 16.3486 18
    endloop
  endfacet
  facet normal -0.290284 -0.956941 -0
    outer loop
      vertex 15.5262 16.2703 18
      vertex 15.2682 16.3486 -18
      vertex 15.5262 16.2703 -18
    endloop
  endfacet
  facet normal -0.0980187 -0.995185 0
    outer loop
      vertex 15 16.375 -18
      vertex 15.2682 16.3486 18
      vertex 15 16.375 18
    endloop
  endfacet
  facet normal -0.0980187 -0.995185 -0
    outer loop
      vertex 15.2682 16.3486 18
      vertex 15 16.375 -18
      vertex 15.2682 16.3486 -18
    endloop
  endfacet
  facet normal -0.471397 -0.881921 0
    outer loop
      vertex 15.5262 16.2703 -18
      vertex 15.7639 16.1433 18
      vertex 15.5262 16.2703 18
    endloop
  endfacet
  facet normal -0.471397 -0.881921 -0
    outer loop
      vertex 15.7639 16.1433 18
      vertex 15.5262 16.2703 -18
      vertex 15.7639 16.1433 -18
    endloop
  endfacet
  facet normal 0.956941 -0.290284 0
    outer loop
      vertex 13.6514 15.2682 18
      vertex 13.7297 15.5262 -18
      vertex 13.7297 15.5262 18
    endloop
  endfacet
  facet normal 0.956941 -0.290284 0
    outer loop
      vertex 13.7297 15.5262 -18
      vertex 13.6514 15.2682 18
      vertex 13.6514 15.2682 -18
    endloop
  endfacet
  facet normal 0.881921 -0.471397 0
    outer loop
      vertex 13.7297 15.5262 18
      vertex 13.8567 15.7639 -18
      vertex 13.8567 15.7639 18
    endloop
  endfacet
  facet normal 0.881921 -0.471397 0
    outer loop
      vertex 13.8567 15.7639 -18
      vertex 13.7297 15.5262 18
      vertex 13.7297 15.5262 -18
    endloop
  endfacet
  facet normal 0.995185 -0.0980152 0
    outer loop
      vertex 13.625 15 18
      vertex 13.6514 15.2682 -18
      vertex 13.6514 15.2682 18
    endloop
  endfacet
  facet normal 0.995185 -0.0980152 0
    outer loop
      vertex 13.6514 15.2682 -18
      vertex 13.625 15 18
      vertex 13.625 15 -18
    endloop
  endfacet
  facet normal 0.634395 -0.773009 0
    outer loop
      vertex 14.0277 15.9723 -18
      vertex 14.2361 16.1433 18
      vertex 14.0277 15.9723 18
    endloop
  endfacet
  facet normal 0.634395 -0.773009 0
    outer loop
      vertex 14.2361 16.1433 18
      vertex 14.0277 15.9723 -18
      vertex 14.2361 16.1433 -18
    endloop
  endfacet
  facet normal 0.290284 -0.956941 0
    outer loop
      vertex 14.4738 16.2703 -18
      vertex 14.7318 16.3486 18
      vertex 14.4738 16.2703 18
    endloop
  endfacet
  facet normal 0.290284 -0.956941 0
    outer loop
      vertex 14.7318 16.3486 18
      vertex 14.4738 16.2703 -18
      vertex 14.7318 16.3486 -18
    endloop
  endfacet
  facet normal -0.995185 0.0980183 0
    outer loop
      vertex 16.3486 14.7318 -18
      vertex 16.375 15 18
      vertex 16.375 15 -18
    endloop
  endfacet
  facet normal -0.995185 0.0980183 0
    outer loop
      vertex 16.375 15 18
      vertex 16.3486 14.7318 -18
      vertex 16.3486 14.7318 18
    endloop
  endfacet
  facet normal -0.290284 0.956941 0
    outer loop
      vertex 15.5262 13.7297 -18
      vertex 15.2682 13.6514 18
      vertex 15.5262 13.7297 18
    endloop
  endfacet
  facet normal -0.290284 0.956941 0
    outer loop
      vertex 15.2682 13.6514 18
      vertex 15.5262 13.7297 -18
      vertex 15.2682 13.6514 -18
    endloop
  endfacet
  facet normal -0.634395 0.773009 0
    outer loop
      vertex 15.9723 14.0277 -18
      vertex 15.7639 13.8567 18
      vertex 15.9723 14.0277 18
    endloop
  endfacet
  facet normal -0.634395 0.773009 0
    outer loop
      vertex 15.7639 13.8567 18
      vertex 15.9723 14.0277 -18
      vertex 15.7639 13.8567 -18
    endloop
  endfacet
  facet normal 0.471397 0.881921 -0
    outer loop
      vertex 14.4738 13.7297 -18
      vertex 14.2361 13.8567 18
      vertex 14.4738 13.7297 18
    endloop
  endfacet
  facet normal 0.471397 0.881921 0
    outer loop
      vertex 14.2361 13.8567 18
      vertex 14.4738 13.7297 -18
      vertex 14.2361 13.8567 -18
    endloop
  endfacet
  facet normal 0.0980148 0.995185 -0
    outer loop
      vertex 15 13.625 -18
      vertex 14.7318 13.6514 18
      vertex 15 13.625 18
    endloop
  endfacet
  facet normal 0.0980148 0.995185 0
    outer loop
      vertex 14.7318 13.6514 18
      vertex 15 13.625 -18
      vertex 14.7318 13.6514 -18
    endloop
  endfacet
  facet normal 0.773009 0.634395 0
    outer loop
      vertex 14.0277 14.0277 18
      vertex 13.8567 14.2361 -18
      vertex 13.8567 14.2361 18
    endloop
  endfacet
  facet normal 0.773009 0.634395 0
    outer loop
      vertex 13.8567 14.2361 -18
      vertex 14.0277 14.0277 18
      vertex 14.0277 14.0277 -18
    endloop
  endfacet
  facet normal 0.956941 0.290284 0
    outer loop
      vertex 13.7297 14.4738 18
      vertex 13.6514 14.7318 -18
      vertex 13.6514 14.7318 18
    endloop
  endfacet
  facet normal 0.956941 0.290284 0
    outer loop
      vertex 13.6514 14.7318 -18
      vertex 13.7297 14.4738 18
      vertex 13.7297 14.4738 -18
    endloop
  endfacet
  facet normal 0.995185 0.0980148 0
    outer loop
      vertex 13.6514 14.7318 18
      vertex 13.625 15 -18
      vertex 13.625 15 18
    endloop
  endfacet
  facet normal 0.995185 0.0980148 0
    outer loop
      vertex 13.625 15 -18
      vertex 13.6514 14.7318 18
      vertex 13.6514 14.7318 -18
    endloop
  endfacet
  facet normal -0.471397 0.881921 0
    outer loop
      vertex 15.7639 13.8567 -18
      vertex 15.5262 13.7297 18
      vertex 15.7639 13.8567 18
    endloop
  endfacet
  facet normal -0.471397 0.881921 0
    outer loop
      vertex 15.5262 13.7297 18
      vertex 15.7639 13.8567 -18
      vertex 15.5262 13.7297 -18
    endloop
  endfacet
  facet normal -0.773009 0.634395 0
    outer loop
      vertex 15.9723 14.0277 -18
      vertex 16.1433 14.2361 18
      vertex 16.1433 14.2361 -18
    endloop
  endfacet
  facet normal -0.773009 0.634395 0
    outer loop
      vertex 16.1433 14.2361 18
      vertex 15.9723 14.0277 -18
      vertex 15.9723 14.0277 18
    endloop
  endfacet
  facet normal -0.956941 0.290284 0
    outer loop
      vertex 16.2703 14.4738 -18
      vertex 16.3486 14.7318 18
      vertex 16.3486 14.7318 -18
    endloop
  endfacet
  facet normal -0.956941 0.290284 0
    outer loop
      vertex 16.3486 14.7318 18
      vertex 16.2703 14.4738 -18
      vertex 16.2703 14.4738 18
    endloop
  endfacet
  facet normal -0.881921 0.471397 0
    outer loop
      vertex 16.1433 14.2361 -18
      vertex 16.2703 14.4738 18
      vertex 16.2703 14.4738 -18
    endloop
  endfacet
  facet normal -0.881921 0.471397 0
    outer loop
      vertex 16.2703 14.4738 18
      vertex 16.1433 14.2361 -18
      vertex 16.1433 14.2361 18
    endloop
  endfacet
  facet normal 0.290284 0.956941 -0
    outer loop
      vertex 14.7318 13.6514 -18
      vertex 14.4738 13.7297 18
      vertex 14.7318 13.6514 18
    endloop
  endfacet
  facet normal 0.290284 0.956941 0
    outer loop
      vertex 14.4738 13.7297 18
      vertex 14.7318 13.6514 -18
      vertex 14.4738 13.7297 -18
    endloop
  endfacet
  facet normal -0.0980152 0.995185 0
    outer loop
      vertex 15.2682 13.6514 -18
      vertex 15 13.625 18
      vertex 15.2682 13.6514 18
    endloop
  endfacet
  facet normal -0.0980152 0.995185 0
    outer loop
      vertex 15 13.625 18
      vertex 15.2682 13.6514 -18
      vertex 15 13.625 -18
    endloop
  endfacet
  facet normal 0.881921 0.471397 0
    outer loop
      vertex 13.8567 14.2361 18
      vertex 13.7297 14.4738 -18
      vertex 13.7297 14.4738 18
    endloop
  endfacet
  facet normal 0.881921 0.471397 0
    outer loop
      vertex 13.7297 14.4738 -18
      vertex 13.8567 14.2361 18
      vertex 13.8567 14.2361 -18
    endloop
  endfacet
endsolid OpenSCAD_Model
