solid OpenSCAD_Model
  facet normal -1 0 0
    outer loop
      vertex -21 -23 -8
      vertex -21 20 8
      vertex -21 20 -8
    endloop
  endfacet
  facet normal -1 -0 0
    outer loop
      vertex -21 20 8
      vertex -21 -23 -8
      vertex -21 -23 8
    endloop
  endfacet
  facet normal -0 0 1
    outer loop
      vertex 20 20 8
      vertex 21 -23 8
      vertex 21 20 8
    endloop
  endfacet
  facet normal 0 0 1
    outer loop
      vertex 21 -23 8
      vertex 20 20 8
      vertex 20 -23 8
    endloop
  endfacet
  facet normal -0 0 1
    outer loop
      vertex -21 20 8
      vertex -20 -23 8
      vertex -20 20 8
    endloop
  endfacet
  facet normal 0 0 1
    outer loop
      vertex -20 -23 8
      vertex -21 20 8
      vertex -21 -23 8
    endloop
  endfacet
  facet normal 1 -0 0
    outer loop
      vertex 21 -23 8
      vertex 21 20 -8
      vertex 21 20 8
    endloop
  endfacet
  facet normal 1 0 0
    outer loop
      vertex 21 20 -8
      vertex 21 -23 8
      vertex 21 -23 -8
    endloop
  endfacet
  facet normal 0 1 0
    outer loop
      vertex 21 20 8
      vertex 20 20 0
      vertex 20 20 8
    endloop
  endfacet
  facet normal 0 1 0
    outer loop
      vertex 20 20 0
      vertex 21 20 -8
      vertex -20 20 0
    endloop
  endfacet
  facet normal 0 1 -0
    outer loop
      vertex 21 20 -8
      vertex 20 20 0
      vertex 21 20 8
    endloop
  endfacet
  facet normal 0 1 -0
    outer loop
      vertex -20 20 0
      vertex -21 20 8
      vertex -20 20 8
    endloop
  endfacet
  facet normal 0 1 0
    outer loop
      vertex -20 20 0
      vertex -21 20 -8
      vertex -21 20 8
    endloop
  endfacet
  facet normal 0 1 0
    outer loop
      vertex -21 20 -8
      vertex -20 20 0
      vertex 21 20 -8
    endloop
  endfacet
  facet normal 0 0 -1
    outer loop
      vertex -21 -23 -8
      vertex 21 20 -8
      vertex 21 -23 -8
    endloop
  endfacet
  facet normal -0 0 -1
    outer loop
      vertex 21 20 -8
      vertex -21 -23 -8
      vertex -21 20 -8
    endloop
  endfacet
  facet normal 0 -1 0
    outer loop
      vertex -21 -23 8
      vertex -20 -23 0
      vertex -20 -23 8
    endloop
  endfacet
  facet normal 0 -1 -0
    outer loop
      vertex -20 -23 0
      vertex -21 -23 -8
      vertex 20 -23 0
    endloop
  endfacet
  facet normal 0 -1 0
    outer loop
      vertex -21 -23 -8
      vertex -20 -23 0
      vertex -21 -23 8
    endloop
  endfacet
  facet normal 0 -1 0
    outer loop
      vertex 20 -23 0
      vertex 21 -23 8
      vertex 20 -23 8
    endloop
  endfacet
  facet normal 0 -1 0
    outer loop
      vertex 20 -23 0
      vertex 21 -23 -8
      vertex 21 -23 8
    endloop
  endfacet
  facet normal 0 -1 0
    outer loop
      vertex 21 -23 -8
      vertex 20 -23 0
      vertex -21 -23 -8
    endloop
  endfacet
  facet normal 1 0 0
    outer loop
      vertex -20 20 8
      vertex -20 19 0
      vertex -20 20 0
    endloop
  endfacet
  facet normal 1 0 0
    outer loop
      vertex -20 19 0
      vertex -20 -22 0
      vertex -20 19 -7
    endloop
  endfacet
  facet normal 1 0 0
    outer loop
      vertex -20 20 8
      vertex -20 -22 0
      vertex -20 19 0
    endloop
  endfacet
  facet normal 1 -0 0
    outer loop
      vertex -20 -23 8
      vertex -20 -22 0
      vertex -20 20 8
    endloop
  endfacet
  facet normal 1 0 0
    outer loop
      vertex -20 -22 0
      vertex -20 -23 8
      vertex -20 -23 0
    endloop
  endfacet
  facet normal 1 0 0
    outer loop
      vertex -20 19 -7
      vertex -20 -22 0
      vertex -20 -22 -7
    endloop
  endfacet
  facet normal -1 0 0
    outer loop
      vertex 20 19 -7
      vertex 20 -22 -7
      vertex 20 19 0
    endloop
  endfacet
  facet normal -1 0 0
    outer loop
      vertex 20 19 0
      vertex 20 20 8
      vertex 20 20 0
    endloop
  endfacet
  facet normal -1 0 0
    outer loop
      vertex 20 -22 0
      vertex 20 19 0
      vertex 20 -22 -7
    endloop
  endfacet
  facet normal -1 0 0
    outer loop
      vertex 20 19 0
      vertex 20 -22 0
      vertex 20 20 8
    endloop
  endfacet
  facet normal -1 0 0
    outer loop
      vertex 20 -23 8
      vertex 20 -22 0
      vertex 20 -23 0
    endloop
  endfacet
  facet normal -1 0 0
    outer loop
      vertex 20 -22 0
      vertex 20 -23 8
      vertex 20 20 8
    endloop
  endfacet
  facet normal 0 0 1
    outer loop
      vertex -4.65 -1.90455 -7
      vertex 3.25 -1.90455 -7
      vertex -4.65 1.90455 -7
    endloop
  endfacet
  facet normal 0 0 1
    outer loop
      vertex 3.25 -1.90455 -7
      vertex -4.65 -1.90455 -7
      vertex -3.7 -3.55 -7
    endloop
  endfacet
  facet normal -0 0 1
    outer loop
      vertex -6.55 1.90455 -7
      vertex -4.65 -1.90455 -7
      vertex -4.65 1.90455 -7
    endloop
  endfacet
  facet normal 0 0 1
    outer loop
      vertex -6.55 1.90455 -7
      vertex -6.55 -1.90455 -7
      vertex -4.65 -1.90455 -7
    endloop
  endfacet
  facet normal 0 0 1
    outer loop
      vertex -7.5 3.55 -7
      vertex -6.55 -1.90455 -7
      vertex -6.55 1.90455 -7
    endloop
  endfacet
  facet normal 0 0 1
    outer loop
      vertex -6.55 -1.90455 -7
      vertex -7.5 3.55 -7
      vertex -7.5 -3.55 -7
    endloop
  endfacet
  facet normal 0 0 1
    outer loop
      vertex 5.15 -1.90455 -7
      vertex 13.05 -1.90455 -7
      vertex 5.15 1.90455 -7
    endloop
  endfacet
  facet normal 0 0 1
    outer loop
      vertex 13.05 -1.90455 -7
      vertex 5.15 -1.90455 -7
      vertex 6.1 -3.55 -7
    endloop
  endfacet
  facet normal 0 0 1
    outer loop
      vertex 5.15 1.90455 -7
      vertex 3.25 -1.90455 -7
      vertex 5.15 -1.90455 -7
    endloop
  endfacet
  facet normal -0 0 1
    outer loop
      vertex 3.25 1.90455 -7
      vertex 3.25 -1.90455 -7
      vertex 5.15 1.90455 -7
    endloop
  endfacet
  facet normal -0 0 1
    outer loop
      vertex -3.7 3.55 -7
      vertex 3.25 1.90455 -7
      vertex 2.3 3.55 -7
    endloop
  endfacet
  facet normal 0 0 1
    outer loop
      vertex -4.65 1.90455 -7
      vertex 3.25 1.90455 -7
      vertex -3.7 3.55 -7
    endloop
  endfacet
  facet normal -0 0 1
    outer loop
      vertex 14.95 1.90455 -7
      vertex 15.9 -3.55 -7
      vertex 15.9 3.55 -7
    endloop
  endfacet
  facet normal 0 0 1
    outer loop
      vertex 14.95 1.90455 -7
      vertex 14.95 -1.90455 -7
      vertex 15.9 -3.55 -7
    endloop
  endfacet
  facet normal -0 0 1
    outer loop
      vertex 13.05 1.90455 -7
      vertex 14.95 -1.90455 -7
      vertex 14.95 1.90455 -7
    endloop
  endfacet
  facet normal 0 0 1
    outer loop
      vertex 13.05 1.90455 -7
      vertex 13.05 -1.90455 -7
      vertex 14.95 -1.90455 -7
    endloop
  endfacet
  facet normal -0 0 1
    outer loop
      vertex 6.1 3.55 -7
      vertex 13.05 1.90455 -7
      vertex 12.1 3.55 -7
    endloop
  endfacet
  facet normal 0 0 1
    outer loop
      vertex 5.15 1.90455 -7
      vertex 13.05 1.90455 -7
      vertex 6.1 3.55 -7
    endloop
  endfacet
  facet normal 0 0 1
    outer loop
      vertex 15.9 -3.55 -7
      vertex 20 19 -7
      vertex 15.9 3.55 -7
    endloop
  endfacet
  facet normal 0 0 1
    outer loop
      vertex 20 19 -7
      vertex 14.95 5.19545 -7
      vertex 15.9 3.55 -7
    endloop
  endfacet
  facet normal 0 0 1
    outer loop
      vertex 20 19 -7
      vertex 13.05 5.19545 -7
      vertex 14.95 5.19545 -7
    endloop
  endfacet
  facet normal 0 0 1
    outer loop
      vertex 5.15 5.19545 -7
      vertex 13.05 5.19545 -7
      vertex 20 19 -7
    endloop
  endfacet
  facet normal 0 0 1
    outer loop
      vertex 13.05 1.90455 -7
      vertex 5.15 1.90455 -7
      vertex 13.05 -1.90455 -7
    endloop
  endfacet
  facet normal 0 0 1
    outer loop
      vertex 13.05 5.19545 -7
      vertex 5.15 5.19545 -7
      vertex 12.1 3.55 -7
    endloop
  endfacet
  facet normal 0 0 1
    outer loop
      vertex 12.1 3.55 -7
      vertex 5.15 5.19545 -7
      vertex 6.1 3.55 -7
    endloop
  endfacet
  facet normal 0 0 1
    outer loop
      vertex 20 19 -7
      vertex 3.25 5.19545 -7
      vertex 5.15 5.19545 -7
    endloop
  endfacet
  facet normal 0 0 1
    outer loop
      vertex 3.25 1.90455 -7
      vertex -4.65 1.90455 -7
      vertex 3.25 -1.90455 -7
    endloop
  endfacet
  facet normal 0 0 1
    outer loop
      vertex 3.25 5.19545 -7
      vertex -3.7 3.55 -7
      vertex 2.3 3.55 -7
    endloop
  endfacet
  facet normal -0 0 1
    outer loop
      vertex -20 19 -7
      vertex 3.25 5.19545 -7
      vertex 20 19 -7
    endloop
  endfacet
  facet normal 0 0 1
    outer loop
      vertex 3.25 5.19545 -7
      vertex -4.65 5.19545 -7
      vertex -3.7 3.55 -7
    endloop
  endfacet
  facet normal 0 0 1
    outer loop
      vertex 3.25 5.19545 -7
      vertex -20 19 -7
      vertex -4.65 5.19545 -7
    endloop
  endfacet
  facet normal 0 0 1
    outer loop
      vertex -7.5 3.55 -7
      vertex -20 19 -7
      vertex -7.5 -3.55 -7
    endloop
  endfacet
  facet normal 0 0 1
    outer loop
      vertex -6.55 5.19545 -7
      vertex -20 19 -7
      vertex -7.5 3.55 -7
    endloop
  endfacet
  facet normal 0 0 1
    outer loop
      vertex -4.65 5.19545 -7
      vertex -20 19 -7
      vertex -6.55 5.19545 -7
    endloop
  endfacet
  facet normal 0 0 1
    outer loop
      vertex 20 19 -7
      vertex 15.9 -3.55 -7
      vertex 20 -22 -7
    endloop
  endfacet
  facet normal -0 0 1
    outer loop
      vertex 14.95 -5.19545 -7
      vertex 20 -22 -7
      vertex 15.9 -3.55 -7
    endloop
  endfacet
  facet normal -0 0 1
    outer loop
      vertex 13.05 -5.19545 -7
      vertex 20 -22 -7
      vertex 14.95 -5.19545 -7
    endloop
  endfacet
  facet normal 0 0 1
    outer loop
      vertex 5.15 -5.19545 -7
      vertex 13.05 -5.19545 -7
      vertex 12.1 -3.55 -7
    endloop
  endfacet
  facet normal 0 0 1
    outer loop
      vertex 13.05 -1.90455 -7
      vertex 6.1 -3.55 -7
      vertex 12.1 -3.55 -7
    endloop
  endfacet
  facet normal 0 0 1
    outer loop
      vertex 5.15 -5.19545 -7
      vertex 12.1 -3.55 -7
      vertex 6.1 -3.55 -7
    endloop
  endfacet
  facet normal 0 0 1
    outer loop
      vertex 13.05 -5.19545 -7
      vertex 5.15 -5.19545 -7
      vertex 20 -22 -7
    endloop
  endfacet
  facet normal -0 0 1
    outer loop
      vertex 3.25 -5.19545 -7
      vertex 20 -22 -7
      vertex 5.15 -5.19545 -7
    endloop
  endfacet
  facet normal 0 0 1
    outer loop
      vertex 3.25 -1.90455 -7
      vertex -3.7 -3.55 -7
      vertex 2.3 -3.55 -7
    endloop
  endfacet
  facet normal 0 0 1
    outer loop
      vertex 2.3 -3.55 -7
      vertex -3.7 -3.55 -7
      vertex 3.25 -5.19545 -7
    endloop
  endfacet
  facet normal 0 0 1
    outer loop
      vertex -4.65 -5.19545 -7
      vertex 3.25 -5.19545 -7
      vertex -3.7 -3.55 -7
    endloop
  endfacet
  facet normal 0 0 1
    outer loop
      vertex -20 -22 -7
      vertex 3.25 -5.19545 -7
      vertex -4.65 -5.19545 -7
    endloop
  endfacet
  facet normal 0 0 1
    outer loop
      vertex -20 -22 -7
      vertex -4.65 -5.19545 -7
      vertex -6.55 -5.19545 -7
    endloop
  endfacet
  facet normal 0 0 1
    outer loop
      vertex 3.25 -5.19545 -7
      vertex -20 -22 -7
      vertex 20 -22 -7
    endloop
  endfacet
  facet normal 0 0 1
    outer loop
      vertex -7.5 -3.55 -7
      vertex -20 -22 -7
      vertex -6.55 -5.19545 -7
    endloop
  endfacet
  facet normal 0 0 1
    outer loop
      vertex -20 -22 -7
      vertex -7.5 -3.55 -7
      vertex -20 19 -7
    endloop
  endfacet
  facet normal -0 0 1
    outer loop
      vertex -20 20 0
      vertex 20 19 0
      vertex 20 20 0
    endloop
  endfacet
  facet normal 0 0 1
    outer loop
      vertex 20 19 0
      vertex -20 20 0
      vertex -20 19 0
    endloop
  endfacet
  facet normal 0 -1 0
    outer loop
      vertex -20 19 -7
      vertex 20 19 0
      vertex -20 19 0
    endloop
  endfacet
  facet normal 0 -1 -0
    outer loop
      vertex 20 19 0
      vertex -20 19 -7
      vertex 20 19 -7
    endloop
  endfacet
  facet normal -0 0 1
    outer loop
      vertex -20 -22 0
      vertex 20 -23 0
      vertex 20 -22 0
    endloop
  endfacet
  facet normal 0 0 1
    outer loop
      vertex 20 -23 0
      vertex -20 -22 0
      vertex -20 -23 0
    endloop
  endfacet
  facet normal 0 1 -0
    outer loop
      vertex 20 -22 -7
      vertex -20 -22 0
      vertex 20 -22 0
    endloop
  endfacet
  facet normal 0 1 0
    outer loop
      vertex -20 -22 0
      vertex 20 -22 -7
      vertex -20 -22 -7
    endloop
  endfacet
  facet normal 0.866026 0.5 0
    outer loop
      vertex 15.9 3.55 -3
      vertex 14.95 5.19545 -7
      vertex 14.95 5.19545 -3
    endloop
  endfacet
  facet normal 0.866026 0.5 0
    outer loop
      vertex 14.95 5.19545 -7
      vertex 15.9 3.55 -3
      vertex 15.9 3.55 -7
    endloop
  endfacet
  facet normal -0.866026 0.5 0
    outer loop
      vertex 12.1 3.55 -7
      vertex 13.05 5.19545 -3
      vertex 13.05 5.19545 -7
    endloop
  endfacet
  facet normal -0.866026 0.5 0
    outer loop
      vertex 13.05 5.19545 -3
      vertex 12.1 3.55 -7
      vertex 12.1 3.55 -3
    endloop
  endfacet
  facet normal 0 1 -0
    outer loop
      vertex 14.95 5.19545 -7
      vertex 13.05 5.19545 -3
      vertex 14.95 5.19545 -3
    endloop
  endfacet
  facet normal 0 1 0
    outer loop
      vertex 13.05 5.19545 -3
      vertex 14.95 5.19545 -7
      vertex 13.05 5.19545 -7
    endloop
  endfacet
  facet normal 0 0 1
    outer loop
      vertex 14.95 5.19545 -3
      vertex 14.95 1.90455 -3
      vertex 15.9 3.55 -3
    endloop
  endfacet
  facet normal -0 0 1
    outer loop
      vertex 13.05 5.19545 -3
      vertex 14.95 1.90455 -3
      vertex 14.95 5.19545 -3
    endloop
  endfacet
  facet normal 0 0 1
    outer loop
      vertex 13.05 5.19545 -3
      vertex 13.05 1.90455 -3
      vertex 14.95 1.90455 -3
    endloop
  endfacet
  facet normal 0 -0 1
    outer loop
      vertex 13.05 1.90455 -3
      vertex 13.05 5.19545 -3
      vertex 12.1 3.55 -3
    endloop
  endfacet
  facet normal 0 -1 0
    outer loop
      vertex 13.05 1.90455 -7
      vertex 14.95 1.90455 -3
      vertex 13.05 1.90455 -3
    endloop
  endfacet
  facet normal 0 -1 -0
    outer loop
      vertex 14.95 1.90455 -3
      vertex 13.05 1.90455 -7
      vertex 14.95 1.90455 -7
    endloop
  endfacet
  facet normal -0.866025 -0.5 0
    outer loop
      vertex 13.05 1.90455 -7
      vertex 12.1 3.55 -3
      vertex 12.1 3.55 -7
    endloop
  endfacet
  facet normal -0.866025 -0.5 0
    outer loop
      vertex 12.1 3.55 -3
      vertex 13.05 1.90455 -7
      vertex 13.05 1.90455 -3
    endloop
  endfacet
  facet normal 0.866025 -0.5 0
    outer loop
      vertex 14.95 1.90455 -3
      vertex 15.9 3.55 -7
      vertex 15.9 3.55 -3
    endloop
  endfacet
  facet normal 0.866025 -0.5 0
    outer loop
      vertex 15.9 3.55 -7
      vertex 14.95 1.90455 -3
      vertex 14.95 1.90455 -7
    endloop
  endfacet
  facet normal 0.866025 0.5 0
    outer loop
      vertex 15.9 -3.55 -3
      vertex 14.95 -1.90455 -7
      vertex 14.95 -1.90455 -3
    endloop
  endfacet
  facet normal 0.866025 0.5 0
    outer loop
      vertex 14.95 -1.90455 -7
      vertex 15.9 -3.55 -3
      vertex 15.9 -3.55 -7
    endloop
  endfacet
  facet normal 0 1 -0
    outer loop
      vertex 14.95 -1.90455 -7
      vertex 13.05 -1.90455 -3
      vertex 14.95 -1.90455 -3
    endloop
  endfacet
  facet normal 0 1 0
    outer loop
      vertex 13.05 -1.90455 -3
      vertex 14.95 -1.90455 -7
      vertex 13.05 -1.90455 -7
    endloop
  endfacet
  facet normal 0 -1 0
    outer loop
      vertex 13.05 -5.19545 -7
      vertex 14.95 -5.19545 -3
      vertex 13.05 -5.19545 -3
    endloop
  endfacet
  facet normal 0 -1 -0
    outer loop
      vertex 14.95 -5.19545 -3
      vertex 13.05 -5.19545 -7
      vertex 14.95 -5.19545 -7
    endloop
  endfacet
  facet normal 0 0 1
    outer loop
      vertex 14.95 -1.90455 -3
      vertex 14.95 -5.19545 -3
      vertex 15.9 -3.55 -3
    endloop
  endfacet
  facet normal -0 0 1
    outer loop
      vertex 13.05 -1.90455 -3
      vertex 14.95 -5.19545 -3
      vertex 14.95 -1.90455 -3
    endloop
  endfacet
  facet normal 0 0 1
    outer loop
      vertex 13.05 -1.90455 -3
      vertex 13.05 -5.19545 -3
      vertex 14.95 -5.19545 -3
    endloop
  endfacet
  facet normal 0 -0 1
    outer loop
      vertex 13.05 -5.19545 -3
      vertex 13.05 -1.90455 -3
      vertex 12.1 -3.55 -3
    endloop
  endfacet
  facet normal -0.866025 0.5 0
    outer loop
      vertex 12.1 -3.55 -7
      vertex 13.05 -1.90455 -3
      vertex 13.05 -1.90455 -7
    endloop
  endfacet
  facet normal -0.866025 0.5 0
    outer loop
      vertex 13.05 -1.90455 -3
      vertex 12.1 -3.55 -7
      vertex 12.1 -3.55 -3
    endloop
  endfacet
  facet normal 0.866026 -0.5 0
    outer loop
      vertex 14.95 -5.19545 -3
      vertex 15.9 -3.55 -7
      vertex 15.9 -3.55 -3
    endloop
  endfacet
  facet normal 0.866026 -0.5 0
    outer loop
      vertex 15.9 -3.55 -7
      vertex 14.95 -5.19545 -3
      vertex 14.95 -5.19545 -7
    endloop
  endfacet
  facet normal -0.866026 -0.5 0
    outer loop
      vertex 13.05 -5.19545 -7
      vertex 12.1 -3.55 -3
      vertex 12.1 -3.55 -7
    endloop
  endfacet
  facet normal -0.866026 -0.5 0
    outer loop
      vertex 12.1 -3.55 -3
      vertex 13.05 -5.19545 -7
      vertex 13.05 -5.19545 -3
    endloop
  endfacet
  facet normal 0.866026 0.5 0
    outer loop
      vertex 6.1 3.55 -3
      vertex 5.15 5.19545 -7
      vertex 5.15 5.19545 -3
    endloop
  endfacet
  facet normal 0.866026 0.5 0
    outer loop
      vertex 5.15 5.19545 -7
      vertex 6.1 3.55 -3
      vertex 6.1 3.55 -7
    endloop
  endfacet
  facet normal -0.866025 0.5 0
    outer loop
      vertex 2.3 3.55 -7
      vertex 3.25 5.19545 -3
      vertex 3.25 5.19545 -7
    endloop
  endfacet
  facet normal -0.866025 0.5 0
    outer loop
      vertex 3.25 5.19545 -3
      vertex 2.3 3.55 -7
      vertex 2.3 3.55 -3
    endloop
  endfacet
  facet normal 0 1 -0
    outer loop
      vertex 5.15 5.19545 -7
      vertex 3.25 5.19545 -3
      vertex 5.15 5.19545 -3
    endloop
  endfacet
  facet normal 0 1 0
    outer loop
      vertex 3.25 5.19545 -3
      vertex 5.15 5.19545 -7
      vertex 3.25 5.19545 -7
    endloop
  endfacet
  facet normal 0 0 1
    outer loop
      vertex 5.15 5.19545 -3
      vertex 5.15 1.90455 -3
      vertex 6.1 3.55 -3
    endloop
  endfacet
  facet normal -0 0 1
    outer loop
      vertex 3.25 5.19545 -3
      vertex 5.15 1.90455 -3
      vertex 5.15 5.19545 -3
    endloop
  endfacet
  facet normal 0 0 1
    outer loop
      vertex 3.25 5.19545 -3
      vertex 3.25 1.90455 -3
      vertex 5.15 1.90455 -3
    endloop
  endfacet
  facet normal 0 -0 1
    outer loop
      vertex 3.25 1.90455 -3
      vertex 3.25 5.19545 -3
      vertex 2.3 3.55 -3
    endloop
  endfacet
  facet normal -0.866025 -0.5 0
    outer loop
      vertex 3.25 1.90455 -7
      vertex 2.3 3.55 -3
      vertex 2.3 3.55 -7
    endloop
  endfacet
  facet normal -0.866025 -0.5 0
    outer loop
      vertex 2.3 3.55 -3
      vertex 3.25 1.90455 -7
      vertex 3.25 1.90455 -3
    endloop
  endfacet
  facet normal 0 -1 0
    outer loop
      vertex 3.25 1.90455 -7
      vertex 5.15 1.90455 -3
      vertex 3.25 1.90455 -3
    endloop
  endfacet
  facet normal 0 -1 -0
    outer loop
      vertex 5.15 1.90455 -3
      vertex 3.25 1.90455 -7
      vertex 5.15 1.90455 -7
    endloop
  endfacet
  facet normal 0.866025 -0.5 0
    outer loop
      vertex 5.15 1.90455 -3
      vertex 6.1 3.55 -7
      vertex 6.1 3.55 -3
    endloop
  endfacet
  facet normal 0.866025 -0.5 0
    outer loop
      vertex 6.1 3.55 -7
      vertex 5.15 1.90455 -3
      vertex 5.15 1.90455 -7
    endloop
  endfacet
  facet normal 0.866025 0.5 0
    outer loop
      vertex 6.1 -3.55 -3
      vertex 5.15 -1.90455 -7
      vertex 5.15 -1.90455 -3
    endloop
  endfacet
  facet normal 0.866025 0.5 0
    outer loop
      vertex 5.15 -1.90455 -7
      vertex 6.1 -3.55 -3
      vertex 6.1 -3.55 -7
    endloop
  endfacet
  facet normal 0 -1 0
    outer loop
      vertex 3.25 -5.19545 -7
      vertex 5.15 -5.19545 -3
      vertex 3.25 -5.19545 -3
    endloop
  endfacet
  facet normal 0 -1 -0
    outer loop
      vertex 5.15 -5.19545 -3
      vertex 3.25 -5.19545 -7
      vertex 5.15 -5.19545 -7
    endloop
  endfacet
  facet normal -0.866025 0.5 0
    outer loop
      vertex 2.3 -3.55 -7
      vertex 3.25 -1.90455 -3
      vertex 3.25 -1.90455 -7
    endloop
  endfacet
  facet normal -0.866025 0.5 0
    outer loop
      vertex 3.25 -1.90455 -3
      vertex 2.3 -3.55 -7
      vertex 2.3 -3.55 -3
    endloop
  endfacet
  facet normal 0 1 -0
    outer loop
      vertex 5.15 -1.90455 -7
      vertex 3.25 -1.90455 -3
      vertex 5.15 -1.90455 -3
    endloop
  endfacet
  facet normal 0 1 0
    outer loop
      vertex 3.25 -1.90455 -3
      vertex 5.15 -1.90455 -7
      vertex 3.25 -1.90455 -7
    endloop
  endfacet
  facet normal -0.866026 -0.5 0
    outer loop
      vertex 3.25 -5.19545 -7
      vertex 2.3 -3.55 -3
      vertex 2.3 -3.55 -7
    endloop
  endfacet
  facet normal -0.866026 -0.5 0
    outer loop
      vertex 2.3 -3.55 -3
      vertex 3.25 -5.19545 -7
      vertex 3.25 -5.19545 -3
    endloop
  endfacet
  facet normal 0 0 1
    outer loop
      vertex 5.15 -1.90455 -3
      vertex 5.15 -5.19545 -3
      vertex 6.1 -3.55 -3
    endloop
  endfacet
  facet normal -0 0 1
    outer loop
      vertex 3.25 -1.90455 -3
      vertex 5.15 -5.19545 -3
      vertex 5.15 -1.90455 -3
    endloop
  endfacet
  facet normal 0 0 1
    outer loop
      vertex 3.25 -1.90455 -3
      vertex 3.25 -5.19545 -3
      vertex 5.15 -5.19545 -3
    endloop
  endfacet
  facet normal 0 -0 1
    outer loop
      vertex 3.25 -5.19545 -3
      vertex 3.25 -1.90455 -3
      vertex 2.3 -3.55 -3
    endloop
  endfacet
  facet normal 0.866026 -0.5 0
    outer loop
      vertex 5.15 -5.19545 -3
      vertex 6.1 -3.55 -7
      vertex 6.1 -3.55 -3
    endloop
  endfacet
  facet normal 0.866026 -0.5 0
    outer loop
      vertex 6.1 -3.55 -7
      vertex 5.15 -5.19545 -3
      vertex 5.15 -5.19545 -7
    endloop
  endfacet
  facet normal 0.866026 0.5 0
    outer loop
      vertex -3.7 3.55 -3
      vertex -4.65 5.19545 -7
      vertex -4.65 5.19545 -3
    endloop
  endfacet
  facet normal 0.866026 0.5 0
    outer loop
      vertex -4.65 5.19545 -7
      vertex -3.7 3.55 -3
      vertex -3.7 3.55 -7
    endloop
  endfacet
  facet normal -0.866025 0.5 0
    outer loop
      vertex -7.5 3.55 -7
      vertex -6.55 5.19545 -3
      vertex -6.55 5.19545 -7
    endloop
  endfacet
  facet normal -0.866025 0.5 0
    outer loop
      vertex -6.55 5.19545 -3
      vertex -7.5 3.55 -7
      vertex -7.5 3.55 -3
    endloop
  endfacet
  facet normal 0 1 -0
    outer loop
      vertex -4.65 5.19545 -7
      vertex -6.55 5.19545 -3
      vertex -4.65 5.19545 -3
    endloop
  endfacet
  facet normal 0 1 0
    outer loop
      vertex -6.55 5.19545 -3
      vertex -4.65 5.19545 -7
      vertex -6.55 5.19545 -7
    endloop
  endfacet
  facet normal -0.866025 -0.5 0
    outer loop
      vertex -6.55 1.90455 -7
      vertex -7.5 3.55 -3
      vertex -7.5 3.55 -7
    endloop
  endfacet
  facet normal -0.866025 -0.5 0
    outer loop
      vertex -7.5 3.55 -3
      vertex -6.55 1.90455 -7
      vertex -6.55 1.90455 -3
    endloop
  endfacet
  facet normal 0 0 1
    outer loop
      vertex -4.65 5.19545 -3
      vertex -4.65 1.90455 -3
      vertex -3.7 3.55 -3
    endloop
  endfacet
  facet normal -0 0 1
    outer loop
      vertex -6.55 5.19545 -3
      vertex -4.65 1.90455 -3
      vertex -4.65 5.19545 -3
    endloop
  endfacet
  facet normal 0 0 1
    outer loop
      vertex -6.55 5.19545 -3
      vertex -6.55 1.90455 -3
      vertex -4.65 1.90455 -3
    endloop
  endfacet
  facet normal 0 -0 1
    outer loop
      vertex -6.55 1.90455 -3
      vertex -6.55 5.19545 -3
      vertex -7.5 3.55 -3
    endloop
  endfacet
  facet normal 0.866025 -0.5 0
    outer loop
      vertex -4.65 1.90455 -3
      vertex -3.7 3.55 -7
      vertex -3.7 3.55 -3
    endloop
  endfacet
  facet normal 0.866025 -0.5 0
    outer loop
      vertex -3.7 3.55 -7
      vertex -4.65 1.90455 -3
      vertex -4.65 1.90455 -7
    endloop
  endfacet
  facet normal 0 -1 0
    outer loop
      vertex -6.55 1.90455 -7
      vertex -4.65 1.90455 -3
      vertex -6.55 1.90455 -3
    endloop
  endfacet
  facet normal 0 -1 -0
    outer loop
      vertex -4.65 1.90455 -3
      vertex -6.55 1.90455 -7
      vertex -4.65 1.90455 -7
    endloop
  endfacet
  facet normal 0.866025 0.5 0
    outer loop
      vertex -3.7 -3.55 -3
      vertex -4.65 -1.90455 -7
      vertex -4.65 -1.90455 -3
    endloop
  endfacet
  facet normal 0.866025 0.5 0
    outer loop
      vertex -4.65 -1.90455 -7
      vertex -3.7 -3.55 -3
      vertex -3.7 -3.55 -7
    endloop
  endfacet
  facet normal -0.866025 0.5 0
    outer loop
      vertex -7.5 -3.55 -7
      vertex -6.55 -1.90455 -3
      vertex -6.55 -1.90455 -7
    endloop
  endfacet
  facet normal -0.866025 0.5 0
    outer loop
      vertex -6.55 -1.90455 -3
      vertex -7.5 -3.55 -7
      vertex -7.5 -3.55 -3
    endloop
  endfacet
  facet normal 0 1 -0
    outer loop
      vertex -4.65 -1.90455 -7
      vertex -6.55 -1.90455 -3
      vertex -4.65 -1.90455 -3
    endloop
  endfacet
  facet normal 0 1 0
    outer loop
      vertex -6.55 -1.90455 -3
      vertex -4.65 -1.90455 -7
      vertex -6.55 -1.90455 -7
    endloop
  endfacet
  facet normal 0 0 1
    outer loop
      vertex -4.65 -1.90455 -3
      vertex -4.65 -5.19545 -3
      vertex -3.7 -3.55 -3
    endloop
  endfacet
  facet normal -0 0 1
    outer loop
      vertex -6.55 -1.90455 -3
      vertex -4.65 -5.19545 -3
      vertex -4.65 -1.90455 -3
    endloop
  endfacet
  facet normal 0 0 1
    outer loop
      vertex -6.55 -1.90455 -3
      vertex -6.55 -5.19545 -3
      vertex -4.65 -5.19545 -3
    endloop
  endfacet
  facet normal 0 -0 1
    outer loop
      vertex -6.55 -5.19545 -3
      vertex -6.55 -1.90455 -3
      vertex -7.5 -3.55 -3
    endloop
  endfacet
  facet normal 0 -1 0
    outer loop
      vertex -6.55 -5.19545 -7
      vertex -4.65 -5.19545 -3
      vertex -6.55 -5.19545 -3
    endloop
  endfacet
  facet normal 0 -1 -0
    outer loop
      vertex -4.65 -5.19545 -3
      vertex -6.55 -5.19545 -7
      vertex -4.65 -5.19545 -7
    endloop
  endfacet
  facet normal -0.866025 -0.5 0
    outer loop
      vertex -6.55 -5.19545 -7
      vertex -7.5 -3.55 -3
      vertex -7.5 -3.55 -7
    endloop
  endfacet
  facet normal -0.866025 -0.5 0
    outer loop
      vertex -7.5 -3.55 -3
      vertex -6.55 -5.19545 -7
      vertex -6.55 -5.19545 -3
    endloop
  endfacet
  facet normal 0.866026 -0.5 0
    outer loop
      vertex -4.65 -5.19545 -3
      vertex -3.7 -3.55 -7
      vertex -3.7 -3.55 -3
    endloop
  endfacet
  facet normal 0.866026 -0.5 0
    outer loop
      vertex -3.7 -3.55 -7
      vertex -4.65 -5.19545 -3
      vertex -4.65 -5.19545 -7
    endloop
  endfacet
endsolid OpenSCAD_Model
