solid OpenSCAD_Model
  facet normal 1 0 0
    outer loop
      vertex 8.6 2.42388 -0.382683
      vertex 8.6 2.75 0
      vertex 8.6 2.43792 -0.312077
    endloop
  endfacet
  facet normal 1 0 0
    outer loop
      vertex 8.6 2.20711 -0.707107
      vertex 8.6 2.75 0
      vertex 8.6 2.42388 -0.382683
    endloop
  endfacet
  facet normal 1 -3.99007e-06 3.06344e-06
    outer loop
      vertex 8.6 2.20711 -0.707107
      vertex 8.6 1.14637 -2.4
      vertex 8.6 2.75 0
    endloop
  endfacet
  facet normal 1 -6.47494e-07 9.69048e-07
    outer loop
      vertex 8.6 1.88268 -0.923879
      vertex 8.6 1.14637 -2.4
      vertex 8.6 2.20711 -0.707107
    endloop
  endfacet
  facet normal 1 -1.42668e-07 7.17233e-07
    outer loop
      vertex 8.6 1.86007 -0.928377
      vertex 8.6 1.14637 -2.4
      vertex 8.6 1.88268 -0.923879
    endloop
  endfacet
  facet normal 1 -1.42667e-07 7.17232e-07
    outer loop
      vertex 8.6 1.81208 -0.937923
      vertex 8.6 1.14637 -2.4
      vertex 8.6 1.86007 -0.928377
    endloop
  endfacet
  facet normal 1 -1.19753e-06 1.19753e-06
    outer loop
      vertex 8.6 1.14637 -2.4
      vertex 8.6 1.81208 -0.937923
      vertex 8.6 0.35 -2.4
    endloop
  endfacet
  facet normal -1 0 0
    outer loop
      vertex 11.1 1.1 1.65
      vertex 11.1 1.14637 2.4
      vertex 11.1 1.73143 1.5244
    endloop
  endfacet
  facet normal -1 -0 0
    outer loop
      vertex 11.1 1.14637 2.4
      vertex 11.1 1.1 1.65
      vertex 11.1 0.35 2.4
    endloop
  endfacet
  facet normal 0 -0.980785 0.195091
    outer loop
      vertex 8.6 2.54067 -1.05238
      vertex 11.1 2.75 0
      vertex 8.6 2.75 0
    endloop
  endfacet
  facet normal 0 -0.980785 0.195091
    outer loop
      vertex 11.1 2.75 0
      vertex 8.6 2.54067 -1.05238
      vertex 11.1 2.54067 -1.05238
    endloop
  endfacet
  facet normal 1 -3.66475e-07 6.42236e-07
    outer loop
      vertex 8.6 1.14637 -2.4
      vertex 8.6 1.94454 -1.94454
      vertex 8.6 2.75 0
    endloop
  endfacet
  facet normal 1 0 0
    outer loop
      vertex 8.6 1.94454 -1.94454
      vertex 8.6 1.14637 -2.4
      vertex 8.6 1.2629 -2.4
    endloop
  endfacet
  facet normal 1 -0 0
    outer loop
      vertex 8.6 2.42388 0.382683
      vertex 8.6 2.75 0
      vertex 8.6 2.54067 1.05238
    endloop
  endfacet
  facet normal 1 0 0
    outer loop
      vertex 8.6 2.75 0
      vertex 8.6 2.42388 0.382683
      vertex 8.6 2.5 0
    endloop
  endfacet
  facet normal 1 0 0
    outer loop
      vertex 8.6 2.54067 1.05238
      vertex 8.6 2.20711 0.707107
      vertex 8.6 2.42388 0.382683
    endloop
  endfacet
  facet normal 1 0 0
    outer loop
      vertex 8.6 1.88268 0.923879
      vertex 8.6 2.54067 1.05238
      vertex 8.6 1.94454 1.94454
    endloop
  endfacet
  facet normal 1 0 0
    outer loop
      vertex 8.6 2.54067 1.05238
      vertex 8.6 1.88268 0.923879
      vertex 8.6 2.20711 0.707107
    endloop
  endfacet
  facet normal 1 0 0
    outer loop
      vertex 8.6 1.94454 1.94454
      vertex 8.6 1.52261 0.995502
      vertex 8.6 1.88268 0.923879
    endloop
  endfacet
  facet normal 1 0 0
    outer loop
      vertex 8.6 1.94454 1.94454
      vertex 8.6 1.5 1
      vertex 8.6 1.52261 0.995502
    endloop
  endfacet
  facet normal 1 0 0
    outer loop
      vertex 8.6 1.94454 1.94454
      vertex 8.6 1.47739 0.995502
      vertex 8.6 1.5 1
    endloop
  endfacet
  facet normal 1 0 0
    outer loop
      vertex 8.6 1.2629 2.4
      vertex 8.6 1.47739 0.995502
      vertex 8.6 1.94454 1.94454
    endloop
  endfacet
  facet normal 1 0 0
    outer loop
      vertex 8.6 1.2629 2.4
      vertex 8.6 1.11732 0.923879
      vertex 8.6 1.47739 0.995502
    endloop
  endfacet
  facet normal 1 0 0
    outer loop
      vertex 8.6 1.2629 2.4
      vertex 8.6 0.792892 0.707107
      vertex 8.6 1.11732 0.923879
    endloop
  endfacet
  facet normal 1 0 0
    outer loop
      vertex 8.6 -0.792892 0.707107
      vertex 8.6 0.792892 0.707107
      vertex 8.6 1.2629 2.4
    endloop
  endfacet
  facet normal 1 0 0
    outer loop
      vertex 8.6 0.57612 0.382683
      vertex 8.6 -0.5 0
      vertex 8.6 0.5 0
    endloop
  endfacet
  facet normal 1 0 0
    outer loop
      vertex 8.6 0.792892 0.707107
      vertex 8.6 -0.792892 0.707107
      vertex 8.6 0.57612 0.382683
    endloop
  endfacet
  facet normal 1 0 0
    outer loop
      vertex 8.6 0.57612 0.382683
      vertex 8.6 -0.57612 0.382683
      vertex 8.6 -0.5 0
    endloop
  endfacet
  facet normal 1 0 0
    outer loop
      vertex 8.6 0.57612 0.382683
      vertex 8.6 -0.792892 0.707107
      vertex 8.6 -0.57612 0.382683
    endloop
  endfacet
  facet normal 1 -0 0
    outer loop
      vertex 8.6 -1.2629 2.4
      vertex 8.6 -0.792892 0.707107
      vertex 8.6 1.2629 2.4
    endloop
  endfacet
  facet normal 1 0 0
    outer loop
      vertex 8.6 -0.792892 0.707107
      vertex 8.6 -1.2629 2.4
      vertex 8.6 -1.11732 0.923879
    endloop
  endfacet
  facet normal 1 0 0
    outer loop
      vertex 8.6 -1.2629 2.4
      vertex 8.6 -1.47739 0.995502
      vertex 8.6 -1.11732 0.923879
    endloop
  endfacet
  facet normal 1 -0 0
    outer loop
      vertex 8.6 -1.94454 1.94454
      vertex 8.6 -1.47739 0.995502
      vertex 8.6 -1.2629 2.4
    endloop
  endfacet
  facet normal 1 0 0
    outer loop
      vertex 8.6 -1.47739 0.995502
      vertex 8.6 -1.94454 1.94454
      vertex 8.6 -1.5 1
    endloop
  endfacet
  facet normal 1 0 0
    outer loop
      vertex 8.6 -1.5 1
      vertex 8.6 -1.94454 1.94454
      vertex 8.6 -1.52261 0.995502
    endloop
  endfacet
  facet normal 1 0 0
    outer loop
      vertex 8.6 -1.52261 0.995502
      vertex 8.6 -1.94454 1.94454
      vertex 8.6 -1.88268 0.923879
    endloop
  endfacet
  facet normal 1 -0 0
    outer loop
      vertex 8.6 -2.54067 1.05238
      vertex 8.6 -1.88268 0.923879
      vertex 8.6 -1.94454 1.94454
    endloop
  endfacet
  facet normal 1 0 0
    outer loop
      vertex 8.6 -1.88268 0.923879
      vertex 8.6 -2.54067 1.05238
      vertex 8.6 -2.20711 0.707107
    endloop
  endfacet
  facet normal 1 0 0
    outer loop
      vertex 8.6 -2.20711 0.707107
      vertex 8.6 -2.54067 1.05238
      vertex 8.6 -2.42388 0.382683
    endloop
  endfacet
  facet normal 1 0 0
    outer loop
      vertex 8.6 -2.75 0
      vertex 8.6 -2.42388 0.382683
      vertex 8.6 -2.54067 1.05238
    endloop
  endfacet
  facet normal 1 0 0
    outer loop
      vertex 8.6 -2.42388 0.382683
      vertex 8.6 -2.75 0
      vertex 8.6 -2.5 0
    endloop
  endfacet
  facet normal 1 0 0
    outer loop
      vertex 8.6 2.43792 -0.312077
      vertex 8.6 2.75 0
      vertex 8.6 2.5 0
    endloop
  endfacet
  facet normal 1 0 0
    outer loop
      vertex 8.6 -2.43792 -0.312077
      vertex 8.6 -2.5 0
      vertex 8.6 -2.75 0
    endloop
  endfacet
  facet normal 1 -0 0
    outer loop
      vertex 8.6 1.5 -0.999999
      vertex 8.6 0.35 -2.4
      vertex 8.6 1.81208 -0.937923
    endloop
  endfacet
  facet normal 1 0 0
    outer loop
      vertex 8.6 1.13993 -0.928377
      vertex 8.6 0.35 -2.4
      vertex 8.6 1.5 -0.999999
    endloop
  endfacet
  facet normal 1 0 0
    outer loop
      vertex 8.6 1.11732 -0.923879
      vertex 8.6 0.35 -2.4
      vertex 8.6 1.13993 -0.928377
    endloop
  endfacet
  facet normal 1 0 0
    outer loop
      vertex 8.6 0.792892 -0.707107
      vertex 8.6 0.35 -2.4
      vertex 8.6 1.11732 -0.923879
    endloop
  endfacet
  facet normal 1 0 0
    outer loop
      vertex 8.6 -0.792892 -0.707107
      vertex 8.6 0.792892 -0.707107
      vertex 8.6 0.57612 -0.382683
    endloop
  endfacet
  facet normal 1 0 0
    outer loop
      vertex 8.6 -0.57612 -0.382683
      vertex 8.6 0.57612 -0.382683
      vertex 8.6 0.5 0
    endloop
  endfacet
  facet normal 1 0 0
    outer loop
      vertex 8.6 -0.792892 -0.707107
      vertex 8.6 0.57612 -0.382683
      vertex 8.6 -0.57612 -0.382683
    endloop
  endfacet
  facet normal 1 0 0
    outer loop
      vertex 8.6 -0.57612 -0.382683
      vertex 8.6 0.5 0
      vertex 8.6 -0.5 0
    endloop
  endfacet
  facet normal 1 0 0
    outer loop
      vertex 8.6 0.792892 -0.707107
      vertex 8.6 -0.792892 -0.707107
      vertex 8.6 0.35 -2.4
    endloop
  endfacet
  facet normal 1 0 0
    outer loop
      vertex 8.6 0.35 -2.4
      vertex 8.6 -0.792892 -0.707107
      vertex 8.6 -0.35 -2.4
    endloop
  endfacet
  facet normal 1 -0 0
    outer loop
      vertex 8.6 -1.11732 -0.923879
      vertex 8.6 -0.35 -2.4
      vertex 8.6 -0.792892 -0.707107
    endloop
  endfacet
  facet normal 1 -0 0
    outer loop
      vertex 8.6 -1.13993 -0.928377
      vertex 8.6 -0.35 -2.4
      vertex 8.6 -1.11732 -0.923879
    endloop
  endfacet
  facet normal 1 -0 0
    outer loop
      vertex 8.6 -1.5 -0.999999
      vertex 8.6 -0.35 -2.4
      vertex 8.6 -1.13993 -0.928377
    endloop
  endfacet
  facet normal 1 0 0
    outer loop
      vertex 8.6 -0.35 -2.4
      vertex 8.6 -1.5 -0.999999
      vertex 8.6 -1.81208 -0.937923
    endloop
  endfacet
  facet normal -1 0 0
    outer loop
      vertex 11.1 1.1 1.65
      vertex 11.1 -0.35 2.4
      vertex 11.1 0.35 2.4
    endloop
  endfacet
  facet normal -1 0 -0
    outer loop
      vertex 11.1 -0.35 2.4
      vertex 11.1 1.1 1.65
      vertex 11.1 -1.1 1.65
    endloop
  endfacet
  facet normal 1 -1.93112e-06 1.29033e-06
    outer loop
      vertex 8.6 1.94454 -1.94454
      vertex 8.6 2.54067 -1.05238
      vertex 8.6 2.75 0
    endloop
  endfacet
  facet normal -1 0 0
    outer loop
      vertex 11.1 1.73143 1.5244
      vertex 11.1 1.94454 1.94454
      vertex 11.1 2.26673 1.16673
    endloop
  endfacet
  facet normal -1 0 0
    outer loop
      vertex 11.1 1.73143 1.5244
      vertex 11.1 1.2629 2.4
      vertex 11.1 1.94454 1.94454
    endloop
  endfacet
  facet normal -1 -0 -0
    outer loop
      vertex 11.1 1.2629 2.4
      vertex 11.1 1.73143 1.5244
      vertex 11.1 1.14637 2.4
    endloop
  endfacet
  facet normal 0 0.980785 0.195091
    outer loop
      vertex 11.1 -2.54067 -1.05238
      vertex 8.6 -2.75 0
      vertex 11.1 -2.75 0
    endloop
  endfacet
  facet normal 0 0.980785 0.195091
    outer loop
      vertex 8.6 -2.75 0
      vertex 11.1 -2.54067 -1.05238
      vertex 8.6 -2.54067 -1.05238
    endloop
  endfacet
  facet normal 0 -0.555571 0.831469
    outer loop
      vertex 8.6 1.94454 -1.94454
      vertex 11.1 1.2629 -2.4
      vertex 11.1 1.94454 -1.94454
    endloop
  endfacet
  facet normal 0 -0.555571 0.831469
    outer loop
      vertex 11.1 1.2629 -2.4
      vertex 8.6 1.94454 -1.94454
      vertex 8.6 1.2629 -2.4
    endloop
  endfacet
  facet normal -0 0.555571 0.831469
    outer loop
      vertex 8.6 -1.2629 -2.4
      vertex 11.1 -1.94454 -1.94454
      vertex 11.1 -1.2629 -2.4
    endloop
  endfacet
  facet normal 0 0.555571 0.831469
    outer loop
      vertex 11.1 -1.94454 -1.94454
      vertex 8.6 -1.2629 -2.4
      vertex 8.6 -1.94454 -1.94454
    endloop
  endfacet
  facet normal 0 -0.831469 -0.555571
    outer loop
      vertex 8.6 2.54067 1.05238
      vertex 11.1 1.94454 1.94454
      vertex 8.6 1.94454 1.94454
    endloop
  endfacet
  facet normal 0 -0.831469 -0.555571
    outer loop
      vertex 11.1 1.94454 1.94454
      vertex 8.6 2.54067 1.05238
      vertex 11.1 2.54067 1.05238
    endloop
  endfacet
  facet normal 0 -0.555571 -0.831469
    outer loop
      vertex 8.6 1.2629 2.4
      vertex 11.1 1.94454 1.94454
      vertex 11.1 1.2629 2.4
    endloop
  endfacet
  facet normal -0 -0.555571 -0.831469
    outer loop
      vertex 11.1 1.94454 1.94454
      vertex 8.6 1.2629 2.4
      vertex 8.6 1.94454 1.94454
    endloop
  endfacet
  facet normal 0 -0.980785 -0.195091
    outer loop
      vertex 8.6 2.54067 1.05238
      vertex 11.1 2.6244 0.631427
      vertex 11.1 2.54067 1.05238
    endloop
  endfacet
  facet normal -1.86053e-09 -0.980785 -0.195091
    outer loop
      vertex 8.6 2.75 0
      vertex 11.1 2.6244 0.631427
      vertex 8.6 2.54067 1.05238
    endloop
  endfacet
  facet normal 0 -0.980785 -0.195091
    outer loop
      vertex 11.1 2.6244 0.631427
      vertex 8.6 2.75 0
      vertex 11.1 2.75 0
    endloop
  endfacet
  facet normal 0 0.831469 -0.555571
    outer loop
      vertex 11.1 -2.54067 1.05238
      vertex 8.6 -1.94454 1.94454
      vertex 11.1 -1.94454 1.94454
    endloop
  endfacet
  facet normal 0 0.831469 -0.555571
    outer loop
      vertex 8.6 -1.94454 1.94454
      vertex 11.1 -2.54067 1.05238
      vertex 8.6 -2.54067 1.05238
    endloop
  endfacet
  facet normal 1 1.93112e-06 1.29033e-06
    outer loop
      vertex 8.6 -2.54067 -1.05238
      vertex 8.6 -1.94454 -1.94454
      vertex 8.6 -2.75 0
    endloop
  endfacet
  facet normal 0 -0.831469 0.555571
    outer loop
      vertex 8.6 1.94454 -1.94454
      vertex 11.1 2.54067 -1.05238
      vertex 8.6 2.54067 -1.05238
    endloop
  endfacet
  facet normal 0 -0.831469 0.555571
    outer loop
      vertex 11.1 2.54067 -1.05238
      vertex 8.6 1.94454 -1.94454
      vertex 11.1 1.94454 -1.94454
    endloop
  endfacet
  facet normal -1 0 0
    outer loop
      vertex 11.1 2.26673 1.16673
      vertex 11.1 2.54067 1.05238
      vertex 11.1 2.6244 0.631427
    endloop
  endfacet
  facet normal -1 0 0
    outer loop
      vertex 11.1 2.54067 1.05238
      vertex 11.1 2.26673 1.16673
      vertex 11.1 1.94454 1.94454
    endloop
  endfacet
  facet normal 0 0.555571 -0.831469
    outer loop
      vertex 8.6 -1.94454 1.94454
      vertex 11.1 -1.2629 2.4
      vertex 11.1 -1.94454 1.94454
    endloop
  endfacet
  facet normal 0 0.555571 -0.831469
    outer loop
      vertex 11.1 -1.2629 2.4
      vertex 8.6 -1.94454 1.94454
      vertex 8.6 -1.2629 2.4
    endloop
  endfacet
  facet normal 0 0.980785 -0.195091
    outer loop
      vertex 11.1 -2.6244 0.631427
      vertex 8.6 -2.54067 1.05238
      vertex 11.1 -2.54067 1.05238
    endloop
  endfacet
  facet normal 0 0.980785 -0.195091
    outer loop
      vertex 8.6 -2.75 0
      vertex 11.1 -2.6244 0.631427
      vertex 11.1 -2.75 0
    endloop
  endfacet
  facet normal -1.86053e-09 0.980785 -0.195091
    outer loop
      vertex 11.1 -2.6244 0.631427
      vertex 8.6 -2.75 0
      vertex 8.6 -2.54067 1.05238
    endloop
  endfacet
  facet normal -1 -0 0
    outer loop
      vertex 11.1 -2.26673 1.16673
      vertex 11.1 -2.54067 1.05238
      vertex 11.1 -1.94454 1.94454
    endloop
  endfacet
  facet normal -1 0 -0
    outer loop
      vertex 11.1 -2.54067 1.05238
      vertex 11.1 -2.26673 1.16673
      vertex 11.1 -2.6244 0.631427
    endloop
  endfacet
  facet normal 1 0 0
    outer loop
      vertex 8.6 -1.14637 -2.4
      vertex 8.6 -1.94454 -1.94454
      vertex 8.6 -1.2629 -2.4
    endloop
  endfacet
  facet normal 1 3.66475e-07 6.42236e-07
    outer loop
      vertex 8.6 -1.94454 -1.94454
      vertex 8.6 -1.14637 -2.4
      vertex 8.6 -2.75 0
    endloop
  endfacet
  facet normal 1 1.19753e-06 1.19753e-06
    outer loop
      vertex 8.6 -1.81208 -0.937923
      vertex 8.6 -1.14637 -2.4
      vertex 8.6 -0.35 -2.4
    endloop
  endfacet
  facet normal 1 1.42667e-07 7.17232e-07
    outer loop
      vertex 8.6 -1.86007 -0.928377
      vertex 8.6 -1.14637 -2.4
      vertex 8.6 -1.81208 -0.937923
    endloop
  endfacet
  facet normal 1 1.42668e-07 7.17233e-07
    outer loop
      vertex 8.6 -1.88268 -0.923879
      vertex 8.6 -1.14637 -2.4
      vertex 8.6 -1.86007 -0.928377
    endloop
  endfacet
  facet normal 1 6.47494e-07 9.69048e-07
    outer loop
      vertex 8.6 -2.20711 -0.707107
      vertex 8.6 -1.14637 -2.4
      vertex 8.6 -1.88268 -0.923879
    endloop
  endfacet
  facet normal 1 0 0
    outer loop
      vertex 8.6 -2.75 0
      vertex 8.6 -2.20711 -0.707107
      vertex 8.6 -2.42388 -0.382683
    endloop
  endfacet
  facet normal 1 3.99007e-06 3.06344e-06
    outer loop
      vertex 8.6 -2.20711 -0.707107
      vertex 8.6 -2.75 0
      vertex 8.6 -1.14637 -2.4
    endloop
  endfacet
  facet normal 1 0 0
    outer loop
      vertex 8.6 -2.75 0
      vertex 8.6 -2.42388 -0.382683
      vertex 8.6 -2.43792 -0.312077
    endloop
  endfacet
  facet normal 0 0.831469 0.555571
    outer loop
      vertex 11.1 -1.94454 -1.94454
      vertex 8.6 -2.54067 -1.05238
      vertex 11.1 -2.54067 -1.05238
    endloop
  endfacet
  facet normal 0 0.831469 0.555571
    outer loop
      vertex 8.6 -2.54067 -1.05238
      vertex 11.1 -1.94454 -1.94454
      vertex 8.6 -1.94454 -1.94454
    endloop
  endfacet
  facet normal -1 0 0
    outer loop
      vertex 11.1 -1.73143 1.5244
      vertex 11.1 -1.2629 2.4
      vertex 11.1 -1.14637 2.4
    endloop
  endfacet
  facet normal -1 0 0
    outer loop
      vertex 11.1 -1.73143 1.5244
      vertex 11.1 -1.94454 1.94454
      vertex 11.1 -1.2629 2.4
    endloop
  endfacet
  facet normal -1 0 -0
    outer loop
      vertex 11.1 -1.94454 1.94454
      vertex 11.1 -1.73143 1.5244
      vertex 11.1 -2.26673 1.16673
    endloop
  endfacet
  facet normal -1 0 0
    outer loop
      vertex 11.1 -1.1 1.65
      vertex 11.1 -1.14637 2.4
      vertex 11.1 -0.35 2.4
    endloop
  endfacet
  facet normal -1 0 -0
    outer loop
      vertex 11.1 -1.14637 2.4
      vertex 11.1 -1.1 1.65
      vertex 11.1 -1.73143 1.5244
    endloop
  endfacet
  facet normal 0 0 -1
    outer loop
      vertex 8.6 -1.2629 2.4
      vertex 11.1 -1.14637 2.4
      vertex 11.1 -1.2629 2.4
    endloop
  endfacet
  facet normal -0 0 -1
    outer loop
      vertex 11.1 -1.14637 2.4
      vertex 8.6 -1.2629 2.4
      vertex 11.1 -0.35 2.4
    endloop
  endfacet
  facet normal -0 0 -1
    outer loop
      vertex 11.1 -0.35 2.4
      vertex 8.6 -1.2629 2.4
      vertex 11.1 0.35 2.4
    endloop
  endfacet
  facet normal 0 0 -1
    outer loop
      vertex 8.6 1.2629 2.4
      vertex 11.1 0.35 2.4
      vertex 8.6 -1.2629 2.4
    endloop
  endfacet
  facet normal 0 0 -1
    outer loop
      vertex 11.1 0.35 2.4
      vertex 8.6 1.2629 2.4
      vertex 11.1 1.14637 2.4
    endloop
  endfacet
  facet normal 0 0 -1
    outer loop
      vertex 11.1 1.14637 2.4
      vertex 8.6 1.2629 2.4
      vertex 11.1 1.2629 2.4
    endloop
  endfacet
  facet normal -0 0 1
    outer loop
      vertex 8.6 -0.35 -2.4
      vertex 11.1 -1.2629 -2.4
      vertex 8.6 0.35 -2.4
    endloop
  endfacet
  facet normal 0 0 1
    outer loop
      vertex 11.1 -1.2629 -2.4
      vertex 8.6 -0.35 -2.4
      vertex 8.6 -1.14637 -2.4
    endloop
  endfacet
  facet normal 0 0 1
    outer loop
      vertex 8.6 1.14637 -2.4
      vertex 11.1 1.2629 -2.4
      vertex 8.6 1.2629 -2.4
    endloop
  endfacet
  facet normal 0 0 1
    outer loop
      vertex 8.6 0.35 -2.4
      vertex 11.1 1.2629 -2.4
      vertex 8.6 1.14637 -2.4
    endloop
  endfacet
  facet normal 0 0 1
    outer loop
      vertex 11.1 1.2629 -2.4
      vertex 8.6 0.35 -2.4
      vertex 11.1 -1.2629 -2.4
    endloop
  endfacet
  facet normal 0 0 1
    outer loop
      vertex 11.1 -1.2629 -2.4
      vertex 8.6 -1.14637 -2.4
      vertex 8.6 -1.2629 -2.4
    endloop
  endfacet
  facet normal -1 0 0
    outer loop
      vertex -11.1 3.25 -3.25
      vertex -11.1 2.5 0
      vertex -11.1 3.25 3.25
    endloop
  endfacet
  facet normal -1 0 0
    outer loop
      vertex -11.1 3.25 -3.25
      vertex -11.1 2.42388 -0.382683
      vertex -11.1 2.5 0
    endloop
  endfacet
  facet normal -1 0 0
    outer loop
      vertex -11.1 3.25 -3.25
      vertex -11.1 2.20711 -0.707107
      vertex -11.1 2.42388 -0.382683
    endloop
  endfacet
  facet normal -1 0 0
    outer loop
      vertex -11.1 3.25 -3.25
      vertex -11.1 1.88268 -0.923879
      vertex -11.1 2.20711 -0.707107
    endloop
  endfacet
  facet normal -1 0 0
    outer loop
      vertex -11.1 3.25 -3.25
      vertex -11.1 1.51739 -0.99654
      vertex -11.1 1.88268 -0.923879
    endloop
  endfacet
  facet normal -1 0 0
    outer loop
      vertex -11.1 3.25 -3.25
      vertex -11.1 1.5 -1
      vertex -11.1 1.51739 -0.99654
    endloop
  endfacet
  facet normal -1 0 0
    outer loop
      vertex -11.1 3.25 -3.25
      vertex -11.1 1.48261 -0.99654
      vertex -11.1 1.5 -1
    endloop
  endfacet
  facet normal -1 0 0
    outer loop
      vertex -11.1 3.25 -3.25
      vertex -11.1 1.11732 -0.923879
      vertex -11.1 1.48261 -0.99654
    endloop
  endfacet
  facet normal -1 0 0
    outer loop
      vertex -11.1 -1.11732 -0.923879
      vertex -11.1 1.11732 -0.923879
      vertex -11.1 3.25 -3.25
    endloop
  endfacet
  facet normal -1 0 0
    outer loop
      vertex -11.1 0.57612 -0.382683
      vertex -11.1 -0.5 0
      vertex -11.1 0.5 0
    endloop
  endfacet
  facet normal -1 0 0
    outer loop
      vertex -11.1 -0.57612 -0.382683
      vertex -11.1 0.57612 -0.382683
      vertex -11.1 0.792892 -0.707107
    endloop
  endfacet
  facet normal -1 0 0
    outer loop
      vertex -11.1 1.11732 -0.923879
      vertex -11.1 -1.11732 -0.923879
      vertex -11.1 0.792892 -0.707107
    endloop
  endfacet
  facet normal -1 0 0
    outer loop
      vertex -11.1 0.57612 -0.382683
      vertex -11.1 -0.57612 -0.382683
      vertex -11.1 -0.5 0
    endloop
  endfacet
  facet normal -1 0 0
    outer loop
      vertex -11.1 0.792892 -0.707107
      vertex -11.1 -0.792892 -0.707107
      vertex -11.1 -0.57612 -0.382683
    endloop
  endfacet
  facet normal -1 -0 0
    outer loop
      vertex -11.1 0.792892 -0.707107
      vertex -11.1 -1.11732 -0.923879
      vertex -11.1 -0.792892 -0.707107
    endloop
  endfacet
  facet normal -1 0 0
    outer loop
      vertex -11.1 -3.25 -3.25
      vertex -11.1 -1.11732 -0.923879
      vertex -11.1 3.25 -3.25
    endloop
  endfacet
  facet normal -1 0 0
    outer loop
      vertex -11.1 -1.11732 -0.923879
      vertex -11.1 -3.25 -3.25
      vertex -11.1 -1.48261 -0.99654
    endloop
  endfacet
  facet normal -1 0 0
    outer loop
      vertex -11.1 -1.48261 -0.99654
      vertex -11.1 -3.25 -3.25
      vertex -11.1 -1.5 -1
    endloop
  endfacet
  facet normal -1 -0 0
    outer loop
      vertex -11.1 -1.5 -1
      vertex -11.1 -3.25 -3.25
      vertex -11.1 -1.51739 -0.99654
    endloop
  endfacet
  facet normal -1 -0 0
    outer loop
      vertex -11.1 -2.42388 -0.382683
      vertex -11.1 -3.25 -3.25
      vertex -11.1 -2.5 0
    endloop
  endfacet
  facet normal -1 -0 0
    outer loop
      vertex -11.1 -2.20711 -0.707107
      vertex -11.1 -3.25 -3.25
      vertex -11.1 -2.42388 -0.382683
    endloop
  endfacet
  facet normal -1 -0 0
    outer loop
      vertex -11.1 -1.88268 -0.923879
      vertex -11.1 -3.25 -3.25
      vertex -11.1 -2.20711 -0.707107
    endloop
  endfacet
  facet normal -1 -0 0
    outer loop
      vertex -11.1 -1.51739 -0.99654
      vertex -11.1 -3.25 -3.25
      vertex -11.1 -1.88268 -0.923879
    endloop
  endfacet
  facet normal -1 0 0
    outer loop
      vertex -11.1 2.42388 0.382683
      vertex -11.1 3.25 3.25
      vertex -11.1 2.5 0
    endloop
  endfacet
  facet normal -1 0 0
    outer loop
      vertex -11.1 2.20711 0.707107
      vertex -11.1 3.25 3.25
      vertex -11.1 2.42388 0.382683
    endloop
  endfacet
  facet normal -1 0 0
    outer loop
      vertex -11.1 1.88268 0.923879
      vertex -11.1 3.25 3.25
      vertex -11.1 2.20711 0.707107
    endloop
  endfacet
  facet normal -1 0 0
    outer loop
      vertex -11.1 1.86529 0.927339
      vertex -11.1 3.25 3.25
      vertex -11.1 1.88268 0.923879
    endloop
  endfacet
  facet normal -1 0 0
    outer loop
      vertex -11.1 1.5 0.999999
      vertex -11.1 3.25 3.25
      vertex -11.1 1.86529 0.927339
    endloop
  endfacet
  facet normal -1 0 0
    outer loop
      vertex -11.1 1.13471 0.927339
      vertex -11.1 3.25 3.25
      vertex -11.1 1.5 0.999999
    endloop
  endfacet
  facet normal -1 0 0
    outer loop
      vertex -11.1 1.11732 0.923879
      vertex -11.1 3.25 3.25
      vertex -11.1 1.13471 0.927339
    endloop
  endfacet
  facet normal -1 0 0
    outer loop
      vertex -11.1 -1.11732 0.923879
      vertex -11.1 1.11732 0.923879
      vertex -11.1 0.792892 0.707107
    endloop
  endfacet
  facet normal -1 0 0
    outer loop
      vertex -11.1 -0.5 0
      vertex -11.1 0.57612 0.382683
      vertex -11.1 0.5 0
    endloop
  endfacet
  facet normal -1 0 0
    outer loop
      vertex -11.1 -0.57612 0.382683
      vertex -11.1 0.57612 0.382683
      vertex -11.1 -0.5 0
    endloop
  endfacet
  facet normal -1 0 0
    outer loop
      vertex -11.1 0.57612 0.382683
      vertex -11.1 -0.57612 0.382683
      vertex -11.1 0.792892 0.707107
    endloop
  endfacet
  facet normal -1 0 0
    outer loop
      vertex -11.1 -0.792892 0.707107
      vertex -11.1 0.792892 0.707107
      vertex -11.1 -0.57612 0.382683
    endloop
  endfacet
  facet normal -1 0 0
    outer loop
      vertex -11.1 -1.11732 0.923879
      vertex -11.1 0.792892 0.707107
      vertex -11.1 -0.792892 0.707107
    endloop
  endfacet
  facet normal -1 0 0
    outer loop
      vertex -11.1 1.11732 0.923879
      vertex -11.1 -1.11732 0.923879
      vertex -11.1 3.25 3.25
    endloop
  endfacet
  facet normal -1 0 0
    outer loop
      vertex -11.1 -3.25 3.25
      vertex -11.1 -1.11732 0.923879
      vertex -11.1 -1.13471 0.927339
    endloop
  endfacet
  facet normal -1 0 0
    outer loop
      vertex -11.1 -3.25 3.25
      vertex -11.1 -1.13471 0.927339
      vertex -11.1 -1.5 0.999999
    endloop
  endfacet
  facet normal -1 0 0
    outer loop
      vertex -11.1 -3.25 3.25
      vertex -11.1 -1.5 0.999999
      vertex -11.1 -1.86529 0.927339
    endloop
  endfacet
  facet normal -1 0 0
    outer loop
      vertex -11.1 -3.25 3.25
      vertex -11.1 -1.86529 0.927339
      vertex -11.1 -1.88268 0.923879
    endloop
  endfacet
  facet normal -1 0 0
    outer loop
      vertex -11.1 -3.25 3.25
      vertex -11.1 -2.5 0
      vertex -11.1 -3.25 -3.25
    endloop
  endfacet
  facet normal -1 0 0
    outer loop
      vertex -11.1 -1.11732 0.923879
      vertex -11.1 -3.25 3.25
      vertex -11.1 3.25 3.25
    endloop
  endfacet
  facet normal -1 0 0
    outer loop
      vertex -11.1 -2.20711 0.707107
      vertex -11.1 -3.25 3.25
      vertex -11.1 -1.88268 0.923879
    endloop
  endfacet
  facet normal -1 0 0
    outer loop
      vertex -11.1 -2.42388 0.382683
      vertex -11.1 -3.25 3.25
      vertex -11.1 -2.20711 0.707107
    endloop
  endfacet
  facet normal -1 0 0
    outer loop
      vertex -11.1 -2.5 0
      vertex -11.1 -3.25 3.25
      vertex -11.1 -2.42388 0.382683
    endloop
  endfacet
  facet normal -0 0 1
    outer loop
      vertex -11.1 3.25 3.25
      vertex 11.1 -3.25 3.25
      vertex 11.1 3.25 3.25
    endloop
  endfacet
  facet normal 0 0 1
    outer loop
      vertex 11.1 -3.25 3.25
      vertex -11.1 3.25 3.25
      vertex -11.1 -3.25 3.25
    endloop
  endfacet
  facet normal 1 0 0
    outer loop
      vertex 11.1 3.25 3.25
      vertex 11.1 2.75 0
      vertex 11.1 3.25 -3.25
    endloop
  endfacet
  facet normal 1 0 0
    outer loop
      vertex 11.1 3.25 3.25
      vertex 11.1 2.6244 0.631427
      vertex 11.1 2.75 0
    endloop
  endfacet
  facet normal 1 0 0
    outer loop
      vertex 11.1 3.25 3.25
      vertex 11.1 2.26673 1.16673
      vertex 11.1 2.6244 0.631427
    endloop
  endfacet
  facet normal 1 0 0
    outer loop
      vertex 11.1 3.25 3.25
      vertex 11.1 1.73143 1.5244
      vertex 11.1 2.26673 1.16673
    endloop
  endfacet
  facet normal 1 0 0
    outer loop
      vertex 11.1 3.25 3.25
      vertex 11.1 1.1 1.65
      vertex 11.1 1.73143 1.5244
    endloop
  endfacet
  facet normal 1 0 0
    outer loop
      vertex 11.1 3.25 3.25
      vertex 11.1 -1.1 1.65
      vertex 11.1 1.1 1.65
    endloop
  endfacet
  facet normal 1 -0 0
    outer loop
      vertex 11.1 -3.25 3.25
      vertex 11.1 -1.1 1.65
      vertex 11.1 3.25 3.25
    endloop
  endfacet
  facet normal 1 0 0
    outer loop
      vertex 11.1 -2.6244 0.631427
      vertex 11.1 -3.25 3.25
      vertex 11.1 -2.75 0
    endloop
  endfacet
  facet normal 1 0 0
    outer loop
      vertex 11.1 -2.26673 1.16673
      vertex 11.1 -3.25 3.25
      vertex 11.1 -2.6244 0.631427
    endloop
  endfacet
  facet normal 1 0 0
    outer loop
      vertex 11.1 -1.73143 1.5244
      vertex 11.1 -3.25 3.25
      vertex 11.1 -2.26673 1.16673
    endloop
  endfacet
  facet normal 1 0 0
    outer loop
      vertex 11.1 -1.1 1.65
      vertex 11.1 -3.25 3.25
      vertex 11.1 -1.73143 1.5244
    endloop
  endfacet
  facet normal 1 -0 0
    outer loop
      vertex 11.1 2.54067 -1.05238
      vertex 11.1 3.25 -3.25
      vertex 11.1 2.75 0
    endloop
  endfacet
  facet normal 1 -0 0
    outer loop
      vertex 11.1 1.94454 -1.94454
      vertex 11.1 3.25 -3.25
      vertex 11.1 2.54067 -1.05238
    endloop
  endfacet
  facet normal 1 -0 0
    outer loop
      vertex 11.1 1.2629 -2.4
      vertex 11.1 3.25 -3.25
      vertex 11.1 1.94454 -1.94454
    endloop
  endfacet
  facet normal 1 -0 0
    outer loop
      vertex 11.1 -1.2629 -2.4
      vertex 11.1 3.25 -3.25
      vertex 11.1 1.2629 -2.4
    endloop
  endfacet
  facet normal 1 0 0
    outer loop
      vertex 11.1 -1.2629 -2.4
      vertex 11.1 -3.25 -3.25
      vertex 11.1 3.25 -3.25
    endloop
  endfacet
  facet normal 1 0 0
    outer loop
      vertex 11.1 -1.94454 -1.94454
      vertex 11.1 -3.25 -3.25
      vertex 11.1 -1.2629 -2.4
    endloop
  endfacet
  facet normal 1 0 0
    outer loop
      vertex 11.1 -2.54067 -1.05238
      vertex 11.1 -3.25 -3.25
      vertex 11.1 -1.94454 -1.94454
    endloop
  endfacet
  facet normal 1 0 0
    outer loop
      vertex 11.1 -2.75 0
      vertex 11.1 -3.25 -3.25
      vertex 11.1 -2.54067 -1.05238
    endloop
  endfacet
  facet normal 1 0 0
    outer loop
      vertex 11.1 -3.25 -3.25
      vertex 11.1 -2.75 0
      vertex 11.1 -3.25 3.25
    endloop
  endfacet
  facet normal 0 1 -0
    outer loop
      vertex 11.1 3.25 -3.25
      vertex -11.1 3.25 3.25
      vertex 11.1 3.25 3.25
    endloop
  endfacet
  facet normal 0 1 0
    outer loop
      vertex -11.1 3.25 3.25
      vertex 11.1 3.25 -3.25
      vertex -11.1 3.25 -3.25
    endloop
  endfacet
  facet normal 0 0 -1
    outer loop
      vertex -11.1 -3.25 -3.25
      vertex 11.1 3.25 -3.25
      vertex 11.1 -3.25 -3.25
    endloop
  endfacet
  facet normal -0 0 -1
    outer loop
      vertex 11.1 3.25 -3.25
      vertex -11.1 -3.25 -3.25
      vertex -11.1 3.25 -3.25
    endloop
  endfacet
  facet normal 0 -1 0
    outer loop
      vertex -11.1 -3.25 -3.25
      vertex 11.1 -3.25 3.25
      vertex -11.1 -3.25 3.25
    endloop
  endfacet
  facet normal 0 -1 -0
    outer loop
      vertex 11.1 -3.25 3.25
      vertex -11.1 -3.25 -3.25
      vertex 11.1 -3.25 -3.25
    endloop
  endfacet
  facet normal 0 -0.195092 0.980785
    outer loop
      vertex -11.1 1.88268 -0.923879
      vertex 8.6 1.86007 -0.928377
      vertex 8.6 1.88268 -0.923879
    endloop
  endfacet
  facet normal -4.70585e-10 -0.195093 0.980785
    outer loop
      vertex 8.6 1.86007 -0.928377
      vertex -11.1 1.88268 -0.923879
      vertex -11.1 1.51739 -0.99654
    endloop
  endfacet
  facet normal -3.33639e-08 -0.195091 0.980785
    outer loop
      vertex -11.1 1.51739 -0.99654
      vertex 8.6 1.81208 -0.937923
      vertex 8.6 1.86007 -0.928377
    endloop
  endfacet
  facet normal -4.27417e-08 -0.19509 0.980785
    outer loop
      vertex 8.6 1.81208 -0.937923
      vertex -11.1 1.51739 -0.99654
      vertex 8.6 1.5 -0.999999
    endloop
  endfacet
  facet normal -4.15447e-08 -0.195089 0.980786
    outer loop
      vertex 8.6 1.5 -0.999999
      vertex -11.1 1.51739 -0.99654
      vertex -11.1 1.5 -1
    endloop
  endfacet
  facet normal 0 -0.980785 0.195093
    outer loop
      vertex -11.1 2.5 0
      vertex 8.6 2.43792 -0.312077
      vertex 8.6 2.5 0
    endloop
  endfacet
  facet normal -4.09235e-09 -0.980785 0.195093
    outer loop
      vertex -11.1 2.42388 -0.382683
      vertex 8.6 2.43792 -0.312077
      vertex -11.1 2.5 0
    endloop
  endfacet
  facet normal 0 -0.980785 0.195092
    outer loop
      vertex 8.6 2.43792 -0.312077
      vertex -11.1 2.42388 -0.382683
      vertex 8.6 2.42388 -0.382683
    endloop
  endfacet
  facet normal 4.28232e-08 0.19509 -0.980785
    outer loop
      vertex -11.1 1.5 0.999999
      vertex 8.6 1.47739 0.995502
      vertex -11.1 1.13471 0.927339
    endloop
  endfacet
  facet normal 4.15447e-08 0.195089 -0.980786
    outer loop
      vertex 8.6 1.47739 0.995502
      vertex -11.1 1.5 0.999999
      vertex 8.6 1.5 1
    endloop
  endfacet
  facet normal 0 -0.555569 0.831471
    outer loop
      vertex -11.1 2.20711 -0.707107
      vertex 8.6 1.88268 -0.923879
      vertex 8.6 2.20711 -0.707107
    endloop
  endfacet
  facet normal 0 -0.555569 0.831471
    outer loop
      vertex 8.6 1.88268 -0.923879
      vertex -11.1 2.20711 -0.707107
      vertex -11.1 1.88268 -0.923879
    endloop
  endfacet
  facet normal 0 -0.831471 0.555569
    outer loop
      vertex -11.1 2.20711 -0.707107
      vertex 8.6 2.42388 -0.382683
      vertex -11.1 2.42388 -0.382683
    endloop
  endfacet
  facet normal 0 -0.831471 0.555569
    outer loop
      vertex 8.6 2.42388 -0.382683
      vertex -11.1 2.20711 -0.707107
      vertex 8.6 2.20711 -0.707107
    endloop
  endfacet
  facet normal -0 0.555569 0.831471
    outer loop
      vertex -11.1 1.11732 -0.923879
      vertex 8.6 0.792892 -0.707107
      vertex 8.6 1.11732 -0.923879
    endloop
  endfacet
  facet normal 0 0.555569 0.831471
    outer loop
      vertex 8.6 0.792892 -0.707107
      vertex -11.1 1.11732 -0.923879
      vertex -11.1 0.792892 -0.707107
    endloop
  endfacet
  facet normal 0 -0.555569 -0.831471
    outer loop
      vertex -11.1 1.88268 0.923879
      vertex 8.6 2.20711 0.707107
      vertex 8.6 1.88268 0.923879
    endloop
  endfacet
  facet normal -0 -0.555569 -0.831471
    outer loop
      vertex 8.6 2.20711 0.707107
      vertex -11.1 1.88268 0.923879
      vertex -11.1 2.20711 0.707107
    endloop
  endfacet
  facet normal 0 0.980785 -0.19509
    outer loop
      vertex 8.6 0.5 0
      vertex -11.1 0.57612 0.382683
      vertex 8.6 0.57612 0.382683
    endloop
  endfacet
  facet normal 0 0.980785 -0.19509
    outer loop
      vertex -11.1 0.57612 0.382683
      vertex 8.6 0.5 0
      vertex -11.1 0.5 0
    endloop
  endfacet
  facet normal 0 0.195092 -0.980785
    outer loop
      vertex -11.1 1.13471 0.927339
      vertex 8.6 1.11732 0.923879
      vertex -11.1 1.11732 0.923879
    endloop
  endfacet
  facet normal 5.44405e-11 0.195092 -0.980785
    outer loop
      vertex 8.6 1.11732 0.923879
      vertex -11.1 1.13471 0.927339
      vertex 8.6 1.47739 0.995502
    endloop
  endfacet
  facet normal 0 0.980785 0.19509
    outer loop
      vertex 8.6 0.57612 -0.382683
      vertex -11.1 0.5 0
      vertex 8.6 0.5 0
    endloop
  endfacet
  facet normal 0 0.980785 0.19509
    outer loop
      vertex -11.1 0.5 0
      vertex 8.6 0.57612 -0.382683
      vertex -11.1 0.57612 -0.382683
    endloop
  endfacet
  facet normal -1.06648e-09 0.195092 0.980785
    outer loop
      vertex -11.1 1.11732 -0.923879
      vertex 8.6 1.13993 -0.928377
      vertex -11.1 1.48261 -0.99654
    endloop
  endfacet
  facet normal 0 0.195091 0.980785
    outer loop
      vertex 8.6 1.13993 -0.928377
      vertex -11.1 1.11732 -0.923879
      vertex 8.6 1.11732 -0.923879
    endloop
  endfacet
  facet normal -4.15447e-08 0.195089 0.980786
    outer loop
      vertex -11.1 1.48261 -0.99654
      vertex 8.6 1.5 -0.999999
      vertex -11.1 1.5 -1
    endloop
  endfacet
  facet normal -4.24163e-08 0.19509 0.980785
    outer loop
      vertex 8.6 1.5 -0.999999
      vertex -11.1 1.48261 -0.99654
      vertex 8.6 1.13993 -0.928377
    endloop
  endfacet
  facet normal 4.15447e-08 -0.19509 -0.980785
    outer loop
      vertex -11.1 1.5 0.999999
      vertex 8.6 1.52261 0.995502
      vertex 8.6 1.5 1
    endloop
  endfacet
  facet normal 4.22273e-08 -0.19509 -0.980785
    outer loop
      vertex 8.6 1.52261 0.995502
      vertex -11.1 1.5 0.999999
      vertex -11.1 1.86529 0.927339
    endloop
  endfacet
  facet normal 0 -0.831471 -0.555569
    outer loop
      vertex -11.1 2.42388 0.382683
      vertex 8.6 2.20711 0.707107
      vertex -11.1 2.20711 0.707107
    endloop
  endfacet
  facet normal 0 -0.831471 -0.555569
    outer loop
      vertex 8.6 2.20711 0.707107
      vertex -11.1 2.42388 0.382683
      vertex 8.6 2.42388 0.382683
    endloop
  endfacet
  facet normal 0 -0.980785 -0.195093
    outer loop
      vertex -11.1 2.5 0
      vertex 8.6 2.42388 0.382683
      vertex -11.1 2.42388 0.382683
    endloop
  endfacet
  facet normal 0 -0.980785 -0.195093
    outer loop
      vertex 8.6 2.42388 0.382683
      vertex -11.1 2.5 0
      vertex 8.6 2.5 0
    endloop
  endfacet
  facet normal 0 0.555569 -0.831471
    outer loop
      vertex -11.1 0.792892 0.707107
      vertex 8.6 1.11732 0.923879
      vertex 8.6 0.792892 0.707107
    endloop
  endfacet
  facet normal 0 0.555569 -0.831471
    outer loop
      vertex 8.6 1.11732 0.923879
      vertex -11.1 0.792892 0.707107
      vertex -11.1 1.11732 0.923879
    endloop
  endfacet
  facet normal 0 0.831471 0.555569
    outer loop
      vertex 8.6 0.792892 -0.707107
      vertex -11.1 0.57612 -0.382683
      vertex 8.6 0.57612 -0.382683
    endloop
  endfacet
  facet normal 0 0.831471 0.555569
    outer loop
      vertex -11.1 0.57612 -0.382683
      vertex 8.6 0.792892 -0.707107
      vertex -11.1 0.792892 -0.707107
    endloop
  endfacet
  facet normal 4.5366e-10 -0.195093 -0.980785
    outer loop
      vertex -11.1 1.86529 0.927339
      vertex 8.6 1.88268 0.923879
      vertex 8.6 1.52261 0.995502
    endloop
  endfacet
  facet normal -0 -0.195092 -0.980785
    outer loop
      vertex 8.6 1.88268 0.923879
      vertex -11.1 1.86529 0.927339
      vertex -11.1 1.88268 0.923879
    endloop
  endfacet
  facet normal 0 0.831471 -0.555569
    outer loop
      vertex 8.6 0.57612 0.382683
      vertex -11.1 0.792892 0.707107
      vertex 8.6 0.792892 0.707107
    endloop
  endfacet
  facet normal 0 0.831471 -0.555569
    outer loop
      vertex -11.1 0.792892 0.707107
      vertex 8.6 0.57612 0.382683
      vertex -11.1 0.57612 0.382683
    endloop
  endfacet
  facet normal 0 -0.195091 0.980785
    outer loop
      vertex -11.1 -1.11732 -0.923879
      vertex 8.6 -1.13993 -0.928377
      vertex 8.6 -1.11732 -0.923879
    endloop
  endfacet
  facet normal -1.06648e-09 -0.195092 0.980785
    outer loop
      vertex 8.6 -1.13993 -0.928377
      vertex -11.1 -1.11732 -0.923879
      vertex -11.1 -1.48261 -0.99654
    endloop
  endfacet
  facet normal -4.24163e-08 -0.19509 0.980785
    outer loop
      vertex -11.1 -1.48261 -0.99654
      vertex 8.6 -1.5 -0.999999
      vertex 8.6 -1.13993 -0.928377
    endloop
  endfacet
  facet normal -4.15447e-08 -0.195089 0.980786
    outer loop
      vertex 8.6 -1.5 -0.999999
      vertex -11.1 -1.48261 -0.99654
      vertex -11.1 -1.5 -1
    endloop
  endfacet
  facet normal 0 -0.980785 0.19509
    outer loop
      vertex -11.1 -0.57612 -0.382683
      vertex 8.6 -0.5 0
      vertex -11.1 -0.5 0
    endloop
  endfacet
  facet normal 0 -0.980785 0.19509
    outer loop
      vertex 8.6 -0.5 0
      vertex -11.1 -0.57612 -0.382683
      vertex 8.6 -0.57612 -0.382683
    endloop
  endfacet
  facet normal 4.28232e-08 0.19509 -0.980785
    outer loop
      vertex -11.1 -1.5 0.999999
      vertex 8.6 -1.52261 0.995502
      vertex -11.1 -1.86529 0.927339
    endloop
  endfacet
  facet normal 4.15447e-08 0.195089 -0.980786
    outer loop
      vertex 8.6 -1.52261 0.995502
      vertex -11.1 -1.5 0.999999
      vertex 8.6 -1.5 1
    endloop
  endfacet
  facet normal 0 -0.555569 0.831471
    outer loop
      vertex -11.1 -0.792892 -0.707107
      vertex 8.6 -1.11732 -0.923879
      vertex 8.6 -0.792892 -0.707107
    endloop
  endfacet
  facet normal 0 -0.555569 0.831471
    outer loop
      vertex 8.6 -1.11732 -0.923879
      vertex -11.1 -0.792892 -0.707107
      vertex -11.1 -1.11732 -0.923879
    endloop
  endfacet
  facet normal 0 -0.831471 0.555569
    outer loop
      vertex -11.1 -0.792892 -0.707107
      vertex 8.6 -0.57612 -0.382683
      vertex -11.1 -0.57612 -0.382683
    endloop
  endfacet
  facet normal 0 -0.831471 0.555569
    outer loop
      vertex 8.6 -0.57612 -0.382683
      vertex -11.1 -0.792892 -0.707107
      vertex 8.6 -0.792892 -0.707107
    endloop
  endfacet
  facet normal -0 0.555569 0.831471
    outer loop
      vertex -11.1 -1.88268 -0.923879
      vertex 8.6 -2.20711 -0.707107
      vertex 8.6 -1.88268 -0.923879
    endloop
  endfacet
  facet normal 0 0.555569 0.831471
    outer loop
      vertex 8.6 -2.20711 -0.707107
      vertex -11.1 -1.88268 -0.923879
      vertex -11.1 -2.20711 -0.707107
    endloop
  endfacet
  facet normal 0 -0.555569 -0.831471
    outer loop
      vertex -11.1 -1.11732 0.923879
      vertex 8.6 -0.792892 0.707107
      vertex 8.6 -1.11732 0.923879
    endloop
  endfacet
  facet normal -0 -0.555569 -0.831471
    outer loop
      vertex 8.6 -0.792892 0.707107
      vertex -11.1 -1.11732 0.923879
      vertex -11.1 -0.792892 0.707107
    endloop
  endfacet
  facet normal 0 0.980785 -0.195093
    outer loop
      vertex 8.6 -2.5 0
      vertex -11.1 -2.42388 0.382683
      vertex 8.6 -2.42388 0.382683
    endloop
  endfacet
  facet normal 0 0.980785 -0.195093
    outer loop
      vertex -11.1 -2.42388 0.382683
      vertex 8.6 -2.5 0
      vertex -11.1 -2.5 0
    endloop
  endfacet
  facet normal 0 0.195092 -0.980785
    outer loop
      vertex -11.1 -1.86529 0.927339
      vertex 8.6 -1.88268 0.923879
      vertex -11.1 -1.88268 0.923879
    endloop
  endfacet
  facet normal 5.44405e-11 0.195092 -0.980785
    outer loop
      vertex 8.6 -1.88268 0.923879
      vertex -11.1 -1.86529 0.927339
      vertex 8.6 -1.52261 0.995502
    endloop
  endfacet
  facet normal 0 0.980785 0.195093
    outer loop
      vertex 8.6 -2.43792 -0.312077
      vertex -11.1 -2.5 0
      vertex 8.6 -2.5 0
    endloop
  endfacet
  facet normal -0 0.980785 0.195092
    outer loop
      vertex -11.1 -2.42388 -0.382683
      vertex 8.6 -2.43792 -0.312077
      vertex 8.6 -2.42388 -0.382683
    endloop
  endfacet
  facet normal -4.09235e-09 0.980785 0.195093
    outer loop
      vertex 8.6 -2.43792 -0.312077
      vertex -11.1 -2.42388 -0.382683
      vertex -11.1 -2.5 0
    endloop
  endfacet
  facet normal -4.70585e-10 0.195093 0.980785
    outer loop
      vertex -11.1 -1.88268 -0.923879
      vertex 8.6 -1.86007 -0.928377
      vertex -11.1 -1.51739 -0.99654
    endloop
  endfacet
  facet normal 0 0.195092 0.980785
    outer loop
      vertex 8.6 -1.86007 -0.928377
      vertex -11.1 -1.88268 -0.923879
      vertex 8.6 -1.88268 -0.923879
    endloop
  endfacet
  facet normal -4.27417e-08 0.19509 0.980785
    outer loop
      vertex -11.1 -1.51739 -0.99654
      vertex 8.6 -1.81208 -0.937923
      vertex 8.6 -1.5 -0.999999
    endloop
  endfacet
  facet normal -4.15447e-08 0.195089 0.980786
    outer loop
      vertex -11.1 -1.51739 -0.99654
      vertex 8.6 -1.5 -0.999999
      vertex -11.1 -1.5 -1
    endloop
  endfacet
  facet normal -3.33639e-08 0.195091 0.980785
    outer loop
      vertex 8.6 -1.81208 -0.937923
      vertex -11.1 -1.51739 -0.99654
      vertex 8.6 -1.86007 -0.928377
    endloop
  endfacet
  facet normal 4.15447e-08 -0.19509 -0.980785
    outer loop
      vertex -11.1 -1.5 0.999999
      vertex 8.6 -1.47739 0.995502
      vertex 8.6 -1.5 1
    endloop
  endfacet
  facet normal 4.22273e-08 -0.19509 -0.980785
    outer loop
      vertex 8.6 -1.47739 0.995502
      vertex -11.1 -1.5 0.999999
      vertex -11.1 -1.13471 0.927339
    endloop
  endfacet
  facet normal 0 -0.831471 -0.555569
    outer loop
      vertex -11.1 -0.57612 0.382683
      vertex 8.6 -0.792892 0.707107
      vertex -11.1 -0.792892 0.707107
    endloop
  endfacet
  facet normal 0 -0.831471 -0.555569
    outer loop
      vertex 8.6 -0.792892 0.707107
      vertex -11.1 -0.57612 0.382683
      vertex 8.6 -0.57612 0.382683
    endloop
  endfacet
  facet normal 0 -0.980785 -0.19509
    outer loop
      vertex -11.1 -0.5 0
      vertex 8.6 -0.57612 0.382683
      vertex -11.1 -0.57612 0.382683
    endloop
  endfacet
  facet normal 0 -0.980785 -0.19509
    outer loop
      vertex 8.6 -0.57612 0.382683
      vertex -11.1 -0.5 0
      vertex 8.6 -0.5 0
    endloop
  endfacet
  facet normal 0 0.555569 -0.831471
    outer loop
      vertex -11.1 -2.20711 0.707107
      vertex 8.6 -1.88268 0.923879
      vertex 8.6 -2.20711 0.707107
    endloop
  endfacet
  facet normal 0 0.555569 -0.831471
    outer loop
      vertex 8.6 -1.88268 0.923879
      vertex -11.1 -2.20711 0.707107
      vertex -11.1 -1.88268 0.923879
    endloop
  endfacet
  facet normal 0 0.831471 0.555569
    outer loop
      vertex 8.6 -2.20711 -0.707107
      vertex -11.1 -2.42388 -0.382683
      vertex 8.6 -2.42388 -0.382683
    endloop
  endfacet
  facet normal 0 0.831471 0.555569
    outer loop
      vertex -11.1 -2.42388 -0.382683
      vertex 8.6 -2.20711 -0.707107
      vertex -11.1 -2.20711 -0.707107
    endloop
  endfacet
  facet normal 4.5366e-10 -0.195093 -0.980785
    outer loop
      vertex -11.1 -1.13471 0.927339
      vertex 8.6 -1.11732 0.923879
      vertex 8.6 -1.47739 0.995502
    endloop
  endfacet
  facet normal -0 -0.195092 -0.980785
    outer loop
      vertex 8.6 -1.11732 0.923879
      vertex -11.1 -1.13471 0.927339
      vertex -11.1 -1.11732 0.923879
    endloop
  endfacet
  facet normal 0 0.831471 -0.555569
    outer loop
      vertex 8.6 -2.42388 0.382683
      vertex -11.1 -2.20711 0.707107
      vertex 8.6 -2.20711 0.707107
    endloop
  endfacet
  facet normal 0 0.831471 -0.555569
    outer loop
      vertex -11.1 -2.20711 0.707107
      vertex 8.6 -2.42388 0.382683
      vertex -11.1 -2.42388 0.382683
    endloop
  endfacet
endsolid OpenSCAD_Model
