solid OpenSCAD_Model
  facet normal -1 0 0
    outer loop
      vertex -24.85 2.7265 -0.0733312
      vertex -24.85 12.4 5.5
      vertex -24.85 12.4 -4.5
    endloop
  endfacet
  facet normal -1 0 0
    outer loop
      vertex -24.85 12.4 5.5
      vertex -24.85 2.7265 -0.0733312
      vertex -24.85 3.57583 4.5
    endloop
  endfacet
  facet normal -1 0 0
    outer loop
      vertex -24.85 12.4 -4.5
      vertex -24.85 2.27583 -2.5
      vertex -24.85 2.7265 -0.0733312
    endloop
  endfacet
  facet normal -1 0 0
    outer loop
      vertex -24.85 12.4 -4.5
      vertex -24.85 -2.27583 -2.5
      vertex -24.85 2.27583 -2.5
    endloop
  endfacet
  facet normal -1 0 0
    outer loop
      vertex -24.85 -12.4 -4.5
      vertex -24.85 -2.7265 -0.0733312
      vertex -24.85 -2.27583 -2.5
    endloop
  endfacet
  facet normal -1 0 0
    outer loop
      vertex -24.85 -12.4 -4.5
      vertex -24.85 -2.27583 -2.5
      vertex -24.85 12.4 -4.5
    endloop
  endfacet
  facet normal -1 0 0
    outer loop
      vertex -24.85 -12.4 5.5
      vertex -24.85 -2.7265 -0.0733312
      vertex -24.85 -12.4 -4.5
    endloop
  endfacet
  facet normal -1 0 0
    outer loop
      vertex -24.85 -2.7265 -0.0733312
      vertex -24.85 -12.4 5.5
      vertex -24.85 -3.57583 4.5
    endloop
  endfacet
  facet normal -1 0 0
    outer loop
      vertex -24.85 -3.57583 4.5
      vertex -24.85 -12.4 5.5
      vertex -24.85 -3.57583 5.5
    endloop
  endfacet
  facet normal -1 -0 0
    outer loop
      vertex -24.85 12.4 5.5
      vertex -24.85 3.57583 4.5
      vertex -24.85 3.57583 5.5
    endloop
  endfacet
  facet normal 0 0 1
    outer loop
      vertex 23.85 11.4 4.5
      vertex 22.85 10.4 4.5
      vertex 23.85 -11.4 4.5
    endloop
  endfacet
  facet normal 0 0 1
    outer loop
      vertex 23.85 11.4 4.5
      vertex -22.85 10.4 4.5
      vertex 22.85 10.4 4.5
    endloop
  endfacet
  facet normal 0 0 1
    outer loop
      vertex -22.85 10.4 4.5
      vertex -23.85 11.4 4.5
      vertex -22.85 -10.4 4.5
    endloop
  endfacet
  facet normal -0 0 1
    outer loop
      vertex -23.85 11.4 4.5
      vertex -22.85 10.4 4.5
      vertex 23.85 11.4 4.5
    endloop
  endfacet
  facet normal -0 0 1
    outer loop
      vertex 22.85 -10.4 4.5
      vertex 23.85 -11.4 4.5
      vertex 22.85 10.4 4.5
    endloop
  endfacet
  facet normal -0 0 1
    outer loop
      vertex -22.85 -10.4 4.5
      vertex 23.85 -11.4 4.5
      vertex 22.85 -10.4 4.5
    endloop
  endfacet
  facet normal 0 0 1
    outer loop
      vertex -22.85 -10.4 4.5
      vertex -23.85 -11.4 4.5
      vertex 23.85 -11.4 4.5
    endloop
  endfacet
  facet normal 0 0 1
    outer loop
      vertex -23.85 -11.4 4.5
      vertex -22.85 -10.4 4.5
      vertex -23.85 11.4 4.5
    endloop
  endfacet
  facet normal 1 0 0
    outer loop
      vertex 24.85 -3.57583 5.5
      vertex 24.85 -12.4 5.5
      vertex 24.85 -3.57583 4.5
    endloop
  endfacet
  facet normal 1 0 0
    outer loop
      vertex 24.85 3.57583 4.5
      vertex 24.85 12.4 5.5
      vertex 24.85 3.57583 5.5
    endloop
  endfacet
  facet normal 1 0 0
    outer loop
      vertex 24.85 2.7265 -0.0733312
      vertex 24.85 12.4 5.5
      vertex 24.85 3.57583 4.5
    endloop
  endfacet
  facet normal 1 0 0
    outer loop
      vertex 24.85 12.4 5.5
      vertex 24.85 2.7265 -0.0733312
      vertex 24.85 12.4 -4.5
    endloop
  endfacet
  facet normal 1 -0 0
    outer loop
      vertex 24.85 2.27583 -2.5
      vertex 24.85 12.4 -4.5
      vertex 24.85 2.7265 -0.0733312
    endloop
  endfacet
  facet normal 1 -0 0
    outer loop
      vertex 24.85 -2.27583 -2.5
      vertex 24.85 12.4 -4.5
      vertex 24.85 2.27583 -2.5
    endloop
  endfacet
  facet normal 1 0 0
    outer loop
      vertex 24.85 -12.4 5.5
      vertex 24.85 -2.7265 -0.0733312
      vertex 24.85 -3.57583 4.5
    endloop
  endfacet
  facet normal 1 0 0
    outer loop
      vertex 24.85 -2.7265 -0.0733312
      vertex 24.85 -12.4 5.5
      vertex 24.85 -12.4 -4.5
    endloop
  endfacet
  facet normal 1 0 0
    outer loop
      vertex 24.85 -2.27583 -2.5
      vertex 24.85 -12.4 -4.5
      vertex 24.85 12.4 -4.5
    endloop
  endfacet
  facet normal 1 0 0
    outer loop
      vertex 24.85 -2.7265 -0.0733312
      vertex 24.85 -12.4 -4.5
      vertex 24.85 -2.27583 -2.5
    endloop
  endfacet
  facet normal 0 1 -0
    outer loop
      vertex 24.85 12.4 -4.5
      vertex -24.85 12.4 5.5
      vertex 24.85 12.4 5.5
    endloop
  endfacet
  facet normal 0 1 0
    outer loop
      vertex -24.85 12.4 5.5
      vertex 24.85 12.4 -4.5
      vertex -24.85 12.4 -4.5
    endloop
  endfacet
  facet normal 0 0 -1
    outer loop
      vertex 24.85 -12.4 -4.5
      vertex 21.21 0 -4.5
      vertex 24.85 12.4 -4.5
    endloop
  endfacet
  facet normal 0 0 -1
    outer loop
      vertex 24.85 -12.4 -4.5
      vertex 20.9703 -1.97435 -4.5
      vertex 21.21 0 -4.5
    endloop
  endfacet
  facet normal 0 0 -1
    outer loop
      vertex 24.85 -12.4 -4.5
      vertex 20.265 -3.83397 -4.5
      vertex 20.9703 -1.97435 -4.5
    endloop
  endfacet
  facet normal 0 0 -1
    outer loop
      vertex 24.85 -12.4 -4.5
      vertex 19.1352 -5.47076 -4.5
      vertex 20.265 -3.83397 -4.5
    endloop
  endfacet
  facet normal 0 0 -1
    outer loop
      vertex 24.85 -12.4 -4.5
      vertex 17.6465 -6.78962 -4.5
      vertex 19.1352 -5.47076 -4.5
    endloop
  endfacet
  facet normal 0 0 -1
    outer loop
      vertex 24.85 -12.4 -4.5
      vertex 15.8855 -7.71388 -4.5
      vertex 17.6465 -6.78962 -4.5
    endloop
  endfacet
  facet normal 0 0 -1
    outer loop
      vertex 24.85 -12.4 -4.5
      vertex 13.9544 -8.18985 -4.5
      vertex 15.8855 -7.71388 -4.5
    endloop
  endfacet
  facet normal 0 0 -1
    outer loop
      vertex 24.85 -12.4 -4.5
      vertex 11.9656 -8.18985 -4.5
      vertex 13.9544 -8.18985 -4.5
    endloop
  endfacet
  facet normal 0 0 -1
    outer loop
      vertex -11.9656 -8.18985 -4.5
      vertex 11.9656 -8.18985 -4.5
      vertex 24.85 -12.4 -4.5
    endloop
  endfacet
  facet normal 0 0 -1
    outer loop
      vertex 4.94973 -1.97435 -4.5
      vertex -4.71 0 -4.5
      vertex 4.71 0 -4.5
    endloop
  endfacet
  facet normal 0 0 -1
    outer loop
      vertex -4.94973 -1.97435 -4.5
      vertex 4.94973 -1.97435 -4.5
      vertex 5.65499 -3.83397 -4.5
    endloop
  endfacet
  facet normal 0 0 -1
    outer loop
      vertex -5.65499 -3.83397 -4.5
      vertex 5.65499 -3.83397 -4.5
      vertex 6.78479 -5.47076 -4.5
    endloop
  endfacet
  facet normal 0 0 -1
    outer loop
      vertex -6.78479 -5.47076 -4.5
      vertex 6.78479 -5.47076 -4.5
      vertex 8.27347 -6.78962 -4.5
    endloop
  endfacet
  facet normal 0 0 -1
    outer loop
      vertex -8.27347 -6.78962 -4.5
      vertex 8.27347 -6.78962 -4.5
      vertex 10.0345 -7.71388 -4.5
    endloop
  endfacet
  facet normal 0 0 -1
    outer loop
      vertex 4.94973 -1.97435 -4.5
      vertex -4.94973 -1.97435 -4.5
      vertex -4.71 0 -4.5
    endloop
  endfacet
  facet normal 0 0 -1
    outer loop
      vertex 5.65499 -3.83397 -4.5
      vertex -5.65499 -3.83397 -4.5
      vertex -4.94973 -1.97435 -4.5
    endloop
  endfacet
  facet normal 0 0 -1
    outer loop
      vertex 11.9656 -8.18985 -4.5
      vertex -11.9656 -8.18985 -4.5
      vertex 10.0345 -7.71388 -4.5
    endloop
  endfacet
  facet normal 0 0 -1
    outer loop
      vertex 6.78479 -5.47076 -4.5
      vertex -6.78479 -5.47076 -4.5
      vertex -5.65499 -3.83397 -4.5
    endloop
  endfacet
  facet normal 0 0 -1
    outer loop
      vertex 8.27347 -6.78962 -4.5
      vertex -8.27347 -6.78962 -4.5
      vertex -6.78479 -5.47076 -4.5
    endloop
  endfacet
  facet normal 0 0 -1
    outer loop
      vertex 10.0345 -7.71388 -4.5
      vertex -10.0345 -7.71388 -4.5
      vertex -8.27347 -6.78962 -4.5
    endloop
  endfacet
  facet normal -0 0 -1
    outer loop
      vertex 10.0345 -7.71388 -4.5
      vertex -11.9656 -8.18985 -4.5
      vertex -10.0345 -7.71388 -4.5
    endloop
  endfacet
  facet normal 0 0 -1
    outer loop
      vertex -24.85 -12.4 -4.5
      vertex -11.9656 -8.18985 -4.5
      vertex 24.85 -12.4 -4.5
    endloop
  endfacet
  facet normal -0 0 -1
    outer loop
      vertex -20.9703 -1.97435 -4.5
      vertex -24.85 -12.4 -4.5
      vertex -21.21 0 -4.5
    endloop
  endfacet
  facet normal -0 0 -1
    outer loop
      vertex -20.265 -3.83397 -4.5
      vertex -24.85 -12.4 -4.5
      vertex -20.9703 -1.97435 -4.5
    endloop
  endfacet
  facet normal -0 0 -1
    outer loop
      vertex -19.1352 -5.47076 -4.5
      vertex -24.85 -12.4 -4.5
      vertex -20.265 -3.83397 -4.5
    endloop
  endfacet
  facet normal -0 0 -1
    outer loop
      vertex -17.6465 -6.78962 -4.5
      vertex -24.85 -12.4 -4.5
      vertex -19.1352 -5.47076 -4.5
    endloop
  endfacet
  facet normal -0 0 -1
    outer loop
      vertex -15.8855 -7.71388 -4.5
      vertex -24.85 -12.4 -4.5
      vertex -17.6465 -6.78962 -4.5
    endloop
  endfacet
  facet normal -0 0 -1
    outer loop
      vertex -13.9544 -8.18985 -4.5
      vertex -24.85 -12.4 -4.5
      vertex -15.8855 -7.71388 -4.5
    endloop
  endfacet
  facet normal -0 0 -1
    outer loop
      vertex -11.9656 -8.18985 -4.5
      vertex -24.85 -12.4 -4.5
      vertex -13.9544 -8.18985 -4.5
    endloop
  endfacet
  facet normal 0 0 -1
    outer loop
      vertex 20.9703 1.97435 -4.5
      vertex 24.85 12.4 -4.5
      vertex 21.21 0 -4.5
    endloop
  endfacet
  facet normal 0 0 -1
    outer loop
      vertex 20.265 3.83397 -4.5
      vertex 24.85 12.4 -4.5
      vertex 20.9703 1.97435 -4.5
    endloop
  endfacet
  facet normal 0 0 -1
    outer loop
      vertex 19.1352 5.47076 -4.5
      vertex 24.85 12.4 -4.5
      vertex 20.265 3.83397 -4.5
    endloop
  endfacet
  facet normal 0 0 -1
    outer loop
      vertex 17.6465 6.78962 -4.5
      vertex 24.85 12.4 -4.5
      vertex 19.1352 5.47076 -4.5
    endloop
  endfacet
  facet normal 0 0 -1
    outer loop
      vertex 15.8855 7.71388 -4.5
      vertex 24.85 12.4 -4.5
      vertex 17.6465 6.78962 -4.5
    endloop
  endfacet
  facet normal 0 0 -1
    outer loop
      vertex 13.9544 8.18985 -4.5
      vertex 24.85 12.4 -4.5
      vertex 15.8855 7.71388 -4.5
    endloop
  endfacet
  facet normal 0 0 -1
    outer loop
      vertex 11.9656 8.18985 -4.5
      vertex 24.85 12.4 -4.5
      vertex 13.9544 8.18985 -4.5
    endloop
  endfacet
  facet normal 0 0 -1
    outer loop
      vertex -11.9656 8.18985 -4.5
      vertex 11.9656 8.18985 -4.5
      vertex 10.0345 7.71388 -4.5
    endloop
  endfacet
  facet normal 0 0 -1
    outer loop
      vertex -4.71 0 -4.5
      vertex 4.94973 1.97435 -4.5
      vertex 4.71 0 -4.5
    endloop
  endfacet
  facet normal 0 0 -1
    outer loop
      vertex -4.94973 1.97435 -4.5
      vertex 4.94973 1.97435 -4.5
      vertex -4.71 0 -4.5
    endloop
  endfacet
  facet normal 0 0 -1
    outer loop
      vertex 4.94973 1.97435 -4.5
      vertex -4.94973 1.97435 -4.5
      vertex 5.65499 3.83397 -4.5
    endloop
  endfacet
  facet normal 0 0 -1
    outer loop
      vertex -5.65499 3.83397 -4.5
      vertex 5.65499 3.83397 -4.5
      vertex -4.94973 1.97435 -4.5
    endloop
  endfacet
  facet normal 0 0 -1
    outer loop
      vertex 5.65499 3.83397 -4.5
      vertex -5.65499 3.83397 -4.5
      vertex 6.78479 5.47076 -4.5
    endloop
  endfacet
  facet normal 0 0 -1
    outer loop
      vertex -6.78479 5.47076 -4.5
      vertex 6.78479 5.47076 -4.5
      vertex -5.65499 3.83397 -4.5
    endloop
  endfacet
  facet normal 0 0 -1
    outer loop
      vertex 6.78479 5.47076 -4.5
      vertex -6.78479 5.47076 -4.5
      vertex 8.27347 6.78962 -4.5
    endloop
  endfacet
  facet normal 0 0 -1
    outer loop
      vertex -8.27347 6.78962 -4.5
      vertex 8.27347 6.78962 -4.5
      vertex -6.78479 5.47076 -4.5
    endloop
  endfacet
  facet normal 0 0 -1
    outer loop
      vertex 8.27347 6.78962 -4.5
      vertex -8.27347 6.78962 -4.5
      vertex 10.0345 7.71388 -4.5
    endloop
  endfacet
  facet normal 0 0 -1
    outer loop
      vertex -10.0345 7.71388 -4.5
      vertex 10.0345 7.71388 -4.5
      vertex -8.27347 6.78962 -4.5
    endloop
  endfacet
  facet normal 0 0 -1
    outer loop
      vertex -11.9656 8.18985 -4.5
      vertex 10.0345 7.71388 -4.5
      vertex -10.0345 7.71388 -4.5
    endloop
  endfacet
  facet normal 0 0 -1
    outer loop
      vertex 11.9656 8.18985 -4.5
      vertex -11.9656 8.18985 -4.5
      vertex 24.85 12.4 -4.5
    endloop
  endfacet
  facet normal 0 0 -1
    outer loop
      vertex -24.85 12.4 -4.5
      vertex -11.9656 8.18985 -4.5
      vertex -13.9544 8.18985 -4.5
    endloop
  endfacet
  facet normal 0 0 -1
    outer loop
      vertex -24.85 12.4 -4.5
      vertex -21.21 0 -4.5
      vertex -24.85 -12.4 -4.5
    endloop
  endfacet
  facet normal 0 0 -1
    outer loop
      vertex -11.9656 8.18985 -4.5
      vertex -24.85 12.4 -4.5
      vertex 24.85 12.4 -4.5
    endloop
  endfacet
  facet normal 0 0 -1
    outer loop
      vertex -15.8855 7.71388 -4.5
      vertex -24.85 12.4 -4.5
      vertex -13.9544 8.18985 -4.5
    endloop
  endfacet
  facet normal 0 0 -1
    outer loop
      vertex -17.6465 6.78962 -4.5
      vertex -24.85 12.4 -4.5
      vertex -15.8855 7.71388 -4.5
    endloop
  endfacet
  facet normal 0 0 -1
    outer loop
      vertex -19.1352 5.47076 -4.5
      vertex -24.85 12.4 -4.5
      vertex -17.6465 6.78962 -4.5
    endloop
  endfacet
  facet normal 0 0 -1
    outer loop
      vertex -20.265 3.83397 -4.5
      vertex -24.85 12.4 -4.5
      vertex -19.1352 5.47076 -4.5
    endloop
  endfacet
  facet normal 0 0 -1
    outer loop
      vertex -20.9703 1.97435 -4.5
      vertex -24.85 12.4 -4.5
      vertex -20.265 3.83397 -4.5
    endloop
  endfacet
  facet normal 0 0 -1
    outer loop
      vertex -21.21 0 -4.5
      vertex -24.85 12.4 -4.5
      vertex -20.9703 1.97435 -4.5
    endloop
  endfacet
  facet normal 0 -1 0
    outer loop
      vertex -24.85 -12.4 -4.5
      vertex 24.85 -12.4 5.5
      vertex -24.85 -12.4 5.5
    endloop
  endfacet
  facet normal 0 -1 -0
    outer loop
      vertex 24.85 -12.4 5.5
      vertex -24.85 -12.4 -4.5
      vertex 24.85 -12.4 -4.5
    endloop
  endfacet
  facet normal 0.254753 -0.95075 -0.176568
    outer loop
      vertex 27.375 -3.24759 4.5
      vertex 25.5 -3.75 4.5
      vertex 25.5 -2.45 -2.5
    endloop
  endfacet
  facet normal 0.95075 0.254753 -0.176568
    outer loop
      vertex 29.25 0 4.5
      vertex 27.95 0 -2.5
      vertex 28.7476 1.875 4.5
    endloop
  endfacet
  facet normal 0.950749 0.254754 -0.176568
    outer loop
      vertex 27.95 0 -2.5
      vertex 27.6218 1.225 -2.5
      vertex 28.7476 1.875 4.5
    endloop
  endfacet
  facet normal 0.950749 -0.254754 -0.176568
    outer loop
      vertex 28.7476 -1.875 4.5
      vertex 27.6218 -1.225 -2.5
      vertex 27.95 0 -2.5
    endloop
  endfacet
  facet normal 0 0 -1
    outer loop
      vertex 24.85 -2.27583 -2.5
      vertex 27.95 0 -2.5
      vertex 27.6218 -1.225 -2.5
    endloop
  endfacet
  facet normal 0 0 -1
    outer loop
      vertex 24.85 -2.27583 -2.5
      vertex 27.6218 -1.225 -2.5
      vertex 26.725 -2.12176 -2.5
    endloop
  endfacet
  facet normal -0 0 -1
    outer loop
      vertex 27.95 0 -2.5
      vertex 24.85 -2.27583 -2.5
      vertex 27.6218 1.225 -2.5
    endloop
  endfacet
  facet normal 0 0 -1
    outer loop
      vertex 24.85 -2.27583 -2.5
      vertex 26.725 -2.12176 -2.5
      vertex 25.5 -2.45 -2.5
    endloop
  endfacet
  facet normal 0 0 -1
    outer loop
      vertex 24.85 2.27583 -2.5
      vertex 27.6218 1.225 -2.5
      vertex 24.85 -2.27583 -2.5
    endloop
  endfacet
  facet normal 0 0 -1
    outer loop
      vertex 27.6218 1.225 -2.5
      vertex 24.85 2.27583 -2.5
      vertex 26.725 2.12176 -2.5
    endloop
  endfacet
  facet normal 0 0 -1
    outer loop
      vertex 26.725 2.12176 -2.5
      vertex 24.85 2.27583 -2.5
      vertex 25.5 2.45 -2.5
    endloop
  endfacet
  facet normal 0.695997 -0.695997 -0.176568
    outer loop
      vertex 28.7476 -1.875 4.5
      vertex 26.725 -2.12176 -2.5
      vertex 27.6218 -1.225 -2.5
    endloop
  endfacet
  facet normal 0.695997 -0.695997 -0.176568
    outer loop
      vertex 26.725 -2.12176 -2.5
      vertex 28.7476 -1.875 4.5
      vertex 27.375 -3.24759 4.5
    endloop
  endfacet
  facet normal 0.95075 -0.254753 -0.176568
    outer loop
      vertex 28.7476 -1.875 4.5
      vertex 27.95 0 -2.5
      vertex 29.25 0 4.5
    endloop
  endfacet
  facet normal 0.254753 -0.950749 -0.176568
    outer loop
      vertex 27.375 -3.24759 4.5
      vertex 25.5 -2.45 -2.5
      vertex 26.725 -2.12176 -2.5
    endloop
  endfacet
  facet normal -0.254753 -0.95075 -0.176568
    outer loop
      vertex 24.85 -2.7265 -0.0733312
      vertex 25.5 -3.75 4.5
      vertex 24.85 -3.57583 4.5
    endloop
  endfacet
  facet normal -0.254753 -0.95075 -0.176568
    outer loop
      vertex 25.5 -3.75 4.5
      vertex 24.85 -2.7265 -0.0733312
      vertex 25.5 -2.45 -2.5
    endloop
  endfacet
  facet normal 0.695997 0.695997 -0.176568
    outer loop
      vertex 27.6218 1.225 -2.5
      vertex 26.725 2.12176 -2.5
      vertex 27.375 3.24759 4.5
    endloop
  endfacet
  facet normal -0.254753 -0.95075 -0.176568
    outer loop
      vertex 25.5 -2.45 -2.5
      vertex 24.85 -2.7265 -0.0733312
      vertex 24.85 -2.27583 -2.5
    endloop
  endfacet
  facet normal -0.254753 0.95075 -0.176568
    outer loop
      vertex 25.5 2.45 -2.5
      vertex 24.85 2.27583 -2.5
      vertex 24.85 2.7265 -0.0733312
    endloop
  endfacet
  facet normal -0.254753 0.95075 -0.176568
    outer loop
      vertex 25.5 3.75 4.5
      vertex 24.85 2.7265 -0.0733312
      vertex 24.85 3.57583 4.5
    endloop
  endfacet
  facet normal -0.254753 0.95075 -0.176568
    outer loop
      vertex 24.85 2.7265 -0.0733312
      vertex 25.5 3.75 4.5
      vertex 25.5 2.45 -2.5
    endloop
  endfacet
  facet normal 0.254753 0.950749 -0.176568
    outer loop
      vertex 26.725 2.12176 -2.5
      vertex 25.5 2.45 -2.5
      vertex 27.375 3.24759 4.5
    endloop
  endfacet
  facet normal 0.254753 0.95075 -0.176568
    outer loop
      vertex 27.375 3.24759 4.5
      vertex 25.5 2.45 -2.5
      vertex 25.5 3.75 4.5
    endloop
  endfacet
  facet normal 0.695997 0.695997 -0.176568
    outer loop
      vertex 27.6218 1.225 -2.5
      vertex 27.375 3.24759 4.5
      vertex 28.7476 1.875 4.5
    endloop
  endfacet
  facet normal 0.254753 -0.95075 -0.176568
    outer loop
      vertex -25.5 -3.75 4.5
      vertex -24.85 -2.7265 -0.0733312
      vertex -24.85 -3.57583 4.5
    endloop
  endfacet
  facet normal 0.254753 -0.95075 -0.176568
    outer loop
      vertex -24.85 -2.7265 -0.0733312
      vertex -25.5 -3.75 4.5
      vertex -25.5 -2.45 -2.5
    endloop
  endfacet
  facet normal -0.950749 -0.254754 -0.176568
    outer loop
      vertex -27.6218 -1.225 -2.5
      vertex -28.7476 -1.875 4.5
      vertex -27.95 0 -2.5
    endloop
  endfacet
  facet normal 0 0 -1
    outer loop
      vertex -26.725 -2.12176 -2.5
      vertex -24.85 -2.27583 -2.5
      vertex -25.5 -2.45 -2.5
    endloop
  endfacet
  facet normal 0 0 -1
    outer loop
      vertex -27.6218 -1.225 -2.5
      vertex -24.85 -2.27583 -2.5
      vertex -26.725 -2.12176 -2.5
    endloop
  endfacet
  facet normal 0 0 -1
    outer loop
      vertex -24.85 -2.27583 -2.5
      vertex -27.6218 -1.225 -2.5
      vertex -24.85 2.27583 -2.5
    endloop
  endfacet
  facet normal -0 0 -1
    outer loop
      vertex -24.85 2.27583 -2.5
      vertex -26.725 2.12176 -2.5
      vertex -25.5 2.45 -2.5
    endloop
  endfacet
  facet normal 0 0 -1
    outer loop
      vertex -27.95 0 -2.5
      vertex -24.85 2.27583 -2.5
      vertex -27.6218 -1.225 -2.5
    endloop
  endfacet
  facet normal 0 0 -1
    outer loop
      vertex -24.85 2.27583 -2.5
      vertex -27.6218 1.225 -2.5
      vertex -26.725 2.12176 -2.5
    endloop
  endfacet
  facet normal 0 0 -1
    outer loop
      vertex -24.85 2.27583 -2.5
      vertex -27.95 0 -2.5
      vertex -27.6218 1.225 -2.5
    endloop
  endfacet
  facet normal -0.95075 0.254753 -0.176568
    outer loop
      vertex -27.95 0 -2.5
      vertex -29.25 0 4.5
      vertex -28.7476 1.875 4.5
    endloop
  endfacet
  facet normal 0.254753 -0.95075 -0.176568
    outer loop
      vertex -24.85 -2.7265 -0.0733312
      vertex -25.5 -2.45 -2.5
      vertex -24.85 -2.27583 -2.5
    endloop
  endfacet
  facet normal -0.254753 -0.95075 -0.176568
    outer loop
      vertex -25.5 -3.75 4.5
      vertex -27.375 -3.24759 4.5
      vertex -25.5 -2.45 -2.5
    endloop
  endfacet
  facet normal -0.254753 0.95075 -0.176568
    outer loop
      vertex -25.5 2.45 -2.5
      vertex -27.375 3.24759 4.5
      vertex -25.5 3.75 4.5
    endloop
  endfacet
  facet normal -0.95075 -0.254753 -0.176568
    outer loop
      vertex -28.7476 -1.875 4.5
      vertex -29.25 0 4.5
      vertex -27.95 0 -2.5
    endloop
  endfacet
  facet normal -0.695997 -0.695997 -0.176568
    outer loop
      vertex -27.375 -3.24759 4.5
      vertex -28.7476 -1.875 4.5
      vertex -27.6218 -1.225 -2.5
    endloop
  endfacet
  facet normal -0.254753 0.950749 -0.176568
    outer loop
      vertex -26.725 2.12176 -2.5
      vertex -27.375 3.24759 4.5
      vertex -25.5 2.45 -2.5
    endloop
  endfacet
  facet normal -0.950749 0.254754 -0.176568
    outer loop
      vertex -27.95 0 -2.5
      vertex -28.7476 1.875 4.5
      vertex -27.6218 1.225 -2.5
    endloop
  endfacet
  facet normal -0.254753 -0.950749 -0.176568
    outer loop
      vertex -25.5 -2.45 -2.5
      vertex -27.375 -3.24759 4.5
      vertex -26.725 -2.12176 -2.5
    endloop
  endfacet
  facet normal -0.695997 -0.695997 -0.176568
    outer loop
      vertex -27.375 -3.24759 4.5
      vertex -27.6218 -1.225 -2.5
      vertex -26.725 -2.12176 -2.5
    endloop
  endfacet
  facet normal 0.254753 0.95075 -0.176568
    outer loop
      vertex -24.85 2.7265 -0.0733312
      vertex -25.5 3.75 4.5
      vertex -24.85 3.57583 4.5
    endloop
  endfacet
  facet normal 0.254753 0.95075 -0.176568
    outer loop
      vertex -25.5 3.75 4.5
      vertex -24.85 2.7265 -0.0733312
      vertex -25.5 2.45 -2.5
    endloop
  endfacet
  facet normal -0.695997 0.695997 -0.176568
    outer loop
      vertex -27.6218 1.225 -2.5
      vertex -28.7476 1.875 4.5
      vertex -27.375 3.24759 4.5
    endloop
  endfacet
  facet normal -0.695997 0.695997 -0.176568
    outer loop
      vertex -26.725 2.12176 -2.5
      vertex -27.6218 1.225 -2.5
      vertex -27.375 3.24759 4.5
    endloop
  endfacet
  facet normal 0.254753 0.95075 -0.176568
    outer loop
      vertex -24.85 2.27583 -2.5
      vertex -25.5 2.45 -2.5
      vertex -24.85 2.7265 -0.0733312
    endloop
  endfacet
  facet normal 1 -0 0
    outer loop
      vertex -22.85 -10.4 4.5
      vertex -22.85 10.4 0.8
      vertex -22.85 10.4 4.5
    endloop
  endfacet
  facet normal 1 0 0
    outer loop
      vertex -22.85 10.4 0.8
      vertex -22.85 -10.4 4.5
      vertex -22.85 -10.4 0.8
    endloop
  endfacet
  facet normal -1 0 0
    outer loop
      vertex 22.85 -10.4 0.8
      vertex 22.85 10.4 4.5
      vertex 22.85 10.4 0.8
    endloop
  endfacet
  facet normal -1 -0 0
    outer loop
      vertex 22.85 10.4 4.5
      vertex 22.85 -10.4 0.8
      vertex 22.85 -10.4 4.5
    endloop
  endfacet
  facet normal 0 -1 0
    outer loop
      vertex -21.35 10.4 -2.5
      vertex 21.35 10.4 0.8
      vertex -21.35 10.4 0.8
    endloop
  endfacet
  facet normal 0 -1 -0
    outer loop
      vertex 21.35 10.4 0.8
      vertex -21.35 10.4 -2.5
      vertex 21.35 10.4 -2.5
    endloop
  endfacet
  facet normal 0 -1 0
    outer loop
      vertex -21.35 10.4 0.8
      vertex -22.85 10.4 4.5
      vertex -22.85 10.4 0.8
    endloop
  endfacet
  facet normal 0 -1 0
    outer loop
      vertex -22.85 10.4 4.5
      vertex -21.35 10.4 0.8
      vertex 22.85 10.4 4.5
    endloop
  endfacet
  facet normal 0 -1 0
    outer loop
      vertex 21.35 10.4 0.8
      vertex 22.85 10.4 4.5
      vertex -21.35 10.4 0.8
    endloop
  endfacet
  facet normal 0 -1 -0
    outer loop
      vertex 22.85 10.4 4.5
      vertex 21.35 10.4 0.8
      vertex 22.85 10.4 0.8
    endloop
  endfacet
  facet normal 0 0 1
    outer loop
      vertex -20.9703 1.97435 -2.5
      vertex -22.2 0 -2.5
      vertex -21.21 0 -2.5
    endloop
  endfacet
  facet normal 0 -0 1
    outer loop
      vertex -21.7149 -4.61564 -2.5
      vertex -21.21 0 -2.5
      vertex -22.2 0 -2.5
    endloop
  endfacet
  facet normal 0 0 1
    outer loop
      vertex -21.21 0 -2.5
      vertex -21.7149 -4.61564 -2.5
      vertex -21.35 -5.73861 -2.5
    endloop
  endfacet
  facet normal -0 0 1
    outer loop
      vertex 17.6465 6.78962 -2.5
      vertex 21.35 5.73861 -2.5
      vertex 21.35 10.4 -2.5
    endloop
  endfacet
  facet normal 0 0 1
    outer loop
      vertex 21.35 5.73861 -2.5
      vertex 21.21 0 -2.5
      vertex 21.35 -5.73861 -2.5
    endloop
  endfacet
  facet normal -0 0 1
    outer loop
      vertex 20.9703 -1.97435 -2.5
      vertex 21.35 -5.73861 -2.5
      vertex 21.21 0 -2.5
    endloop
  endfacet
  facet normal 0 0 1
    outer loop
      vertex 21.35 5.73861 -2.5
      vertex 20.9703 1.97435 -2.5
      vertex 21.21 0 -2.5
    endloop
  endfacet
  facet normal 0 0 1
    outer loop
      vertex 21.35 5.73861 -2.5
      vertex 20.265 3.83397 -2.5
      vertex 20.9703 1.97435 -2.5
    endloop
  endfacet
  facet normal 0 0 1
    outer loop
      vertex 21.35 5.73861 -2.5
      vertex 19.1352 5.47076 -2.5
      vertex 20.265 3.83397 -2.5
    endloop
  endfacet
  facet normal 0 0 1
    outer loop
      vertex 21.35 5.73861 -2.5
      vertex 17.6465 6.78962 -2.5
      vertex 19.1352 5.47076 -2.5
    endloop
  endfacet
  facet normal 0 0 1
    outer loop
      vertex 21.35 10.4 -2.5
      vertex 15.8855 7.71388 -2.5
      vertex 17.6465 6.78962 -2.5
    endloop
  endfacet
  facet normal 0 0 1
    outer loop
      vertex 21.35 10.4 -2.5
      vertex 13.9544 8.18985 -2.5
      vertex 15.8855 7.71388 -2.5
    endloop
  endfacet
  facet normal 0 0 1
    outer loop
      vertex 21.35 10.4 -2.5
      vertex 11.9656 8.18985 -2.5
      vertex 13.9544 8.18985 -2.5
    endloop
  endfacet
  facet normal 0 0 1
    outer loop
      vertex 4.94973 1.97435 -2.5
      vertex 2 4 -2.5
      vertex 4.71 0 -2.5
    endloop
  endfacet
  facet normal 0 0 1
    outer loop
      vertex 5.65499 3.83397 -2.5
      vertex 2 4 -2.5
      vertex 4.94973 1.97435 -2.5
    endloop
  endfacet
  facet normal 0 0 1
    outer loop
      vertex 6.78479 5.47076 -2.5
      vertex 2 4 -2.5
      vertex 5.65499 3.83397 -2.5
    endloop
  endfacet
  facet normal 0 0 1
    outer loop
      vertex 8.27347 6.78962 -2.5
      vertex 2 4 -2.5
      vertex 6.78479 5.47076 -2.5
    endloop
  endfacet
  facet normal 0 0 1
    outer loop
      vertex -8.27347 6.78962 -2.5
      vertex 8.27347 6.78962 -2.5
      vertex 10.0345 7.71388 -2.5
    endloop
  endfacet
  facet normal 0 0 1
    outer loop
      vertex 8.27347 6.78962 -2.5
      vertex -8.27347 6.78962 -2.5
      vertex 2 4 -2.5
    endloop
  endfacet
  facet normal 0 0 1
    outer loop
      vertex -2 4 -2.5
      vertex -4.71 0 -2.5
      vertex -2 -4 -2.5
    endloop
  endfacet
  facet normal 0 0 1
    outer loop
      vertex -2 4 -2.5
      vertex -4.94973 1.97435 -2.5
      vertex -4.71 0 -2.5
    endloop
  endfacet
  facet normal 0 0 1
    outer loop
      vertex -2 4 -2.5
      vertex -5.65499 3.83397 -2.5
      vertex -4.94973 1.97435 -2.5
    endloop
  endfacet
  facet normal 0 0 1
    outer loop
      vertex 2 4 -2.5
      vertex -8.27347 6.78962 -2.5
      vertex -2 4 -2.5
    endloop
  endfacet
  facet normal 0 0 1
    outer loop
      vertex -2 4 -2.5
      vertex -6.78479 5.47076 -2.5
      vertex -5.65499 3.83397 -2.5
    endloop
  endfacet
  facet normal 0 0 1
    outer loop
      vertex -10.0345 7.71388 -2.5
      vertex 10.0345 7.71388 -2.5
      vertex 11.9656 8.18985 -2.5
    endloop
  endfacet
  facet normal 0 0 1
    outer loop
      vertex -11.9656 8.18985 -2.5
      vertex 11.9656 8.18985 -2.5
      vertex 21.35 10.4 -2.5
    endloop
  endfacet
  facet normal 0 0 1
    outer loop
      vertex -2 4 -2.5
      vertex -8.27347 6.78962 -2.5
      vertex -6.78479 5.47076 -2.5
    endloop
  endfacet
  facet normal 0 0 1
    outer loop
      vertex 10.0345 7.71388 -2.5
      vertex -10.0345 7.71388 -2.5
      vertex -8.27347 6.78962 -2.5
    endloop
  endfacet
  facet normal 0 0 1
    outer loop
      vertex 11.9656 8.18985 -2.5
      vertex -11.9656 8.18985 -2.5
      vertex -10.0345 7.71388 -2.5
    endloop
  endfacet
  facet normal -0 0 1
    outer loop
      vertex -21.35 10.4 -2.5
      vertex -11.9656 8.18985 -2.5
      vertex 21.35 10.4 -2.5
    endloop
  endfacet
  facet normal -0 0 1
    outer loop
      vertex -21.7149 4.61564 -2.5
      vertex -20.265 3.83397 -2.5
      vertex -21.35 5.73861 -2.5
    endloop
  endfacet
  facet normal 0 0 1
    outer loop
      vertex -19.1352 5.47076 -2.5
      vertex -21.35 5.73861 -2.5
      vertex -20.265 3.83397 -2.5
    endloop
  endfacet
  facet normal 0 0 1
    outer loop
      vertex -17.6465 6.78962 -2.5
      vertex -21.35 5.73861 -2.5
      vertex -19.1352 5.47076 -2.5
    endloop
  endfacet
  facet normal 0 0 1
    outer loop
      vertex -21.35 5.73861 -2.5
      vertex -17.6465 6.78962 -2.5
      vertex -21.35 10.4 -2.5
    endloop
  endfacet
  facet normal 0 0 1
    outer loop
      vertex -15.8855 7.71388 -2.5
      vertex -21.35 10.4 -2.5
      vertex -17.6465 6.78962 -2.5
    endloop
  endfacet
  facet normal 0 0 1
    outer loop
      vertex -13.9544 8.18985 -2.5
      vertex -21.35 10.4 -2.5
      vertex -15.8855 7.71388 -2.5
    endloop
  endfacet
  facet normal 0 0 1
    outer loop
      vertex -11.9656 8.18985 -2.5
      vertex -21.35 10.4 -2.5
      vertex -13.9544 8.18985 -2.5
    endloop
  endfacet
  facet normal 0 0 1
    outer loop
      vertex 21.35 5.73861 -2.5
      vertex 22.2 0 -2.5
      vertex 21.7149 4.61564 -2.5
    endloop
  endfacet
  facet normal 0 0 1
    outer loop
      vertex 21.35 -5.73861 -2.5
      vertex 22.2 0 -2.5
      vertex 21.35 5.73861 -2.5
    endloop
  endfacet
  facet normal 0 0 1
    outer loop
      vertex 22.2 0 -2.5
      vertex 21.35 -5.73861 -2.5
      vertex 21.7149 -4.61564 -2.5
    endloop
  endfacet
  facet normal -0 0 1
    outer loop
      vertex 20.265 -3.83397 -2.5
      vertex 21.35 -5.73861 -2.5
      vertex 20.9703 -1.97435 -2.5
    endloop
  endfacet
  facet normal -0 0 1
    outer loop
      vertex 19.1352 -5.47076 -2.5
      vertex 21.35 -5.73861 -2.5
      vertex 20.265 -3.83397 -2.5
    endloop
  endfacet
  facet normal 0 0 1
    outer loop
      vertex 17.6465 -6.78962 -2.5
      vertex 21.35 -5.73861 -2.5
      vertex 19.1352 -5.47076 -2.5
    endloop
  endfacet
  facet normal 0 0 1
    outer loop
      vertex 21.35 -5.73861 -2.5
      vertex 17.6465 -6.78962 -2.5
      vertex 21.35 -10.4 -2.5
    endloop
  endfacet
  facet normal -0 0 1
    outer loop
      vertex 15.8855 -7.71388 -2.5
      vertex 21.35 -10.4 -2.5
      vertex 17.6465 -6.78962 -2.5
    endloop
  endfacet
  facet normal -0 0 1
    outer loop
      vertex 13.9544 -8.18985 -2.5
      vertex 21.35 -10.4 -2.5
      vertex 15.8855 -7.71388 -2.5
    endloop
  endfacet
  facet normal -0 0 1
    outer loop
      vertex 11.9656 -8.18985 -2.5
      vertex 21.35 -10.4 -2.5
      vertex 13.9544 -8.18985 -2.5
    endloop
  endfacet
  facet normal 0 0 1
    outer loop
      vertex 2 -4 -2.5
      vertex 4.71 0 -2.5
      vertex 2 4 -2.5
    endloop
  endfacet
  facet normal 0 0 1
    outer loop
      vertex 4.71 0 -2.5
      vertex 2 -4 -2.5
      vertex 4.94973 -1.97435 -2.5
    endloop
  endfacet
  facet normal 0 0 1
    outer loop
      vertex 4.94973 -1.97435 -2.5
      vertex 2 -4 -2.5
      vertex 5.65499 -3.83397 -2.5
    endloop
  endfacet
  facet normal -0 0 1
    outer loop
      vertex 2 -4 -2.5
      vertex 6.78479 -5.47076 -2.5
      vertex 5.65499 -3.83397 -2.5
    endloop
  endfacet
  facet normal 0 0 1
    outer loop
      vertex 2 -4 -2.5
      vertex 8.27347 -6.78962 -2.5
      vertex 6.78479 -5.47076 -2.5
    endloop
  endfacet
  facet normal 0 0 1
    outer loop
      vertex -8.27347 -6.78962 -2.5
      vertex 8.27347 -6.78962 -2.5
      vertex 2 -4 -2.5
    endloop
  endfacet
  facet normal 0 0 1
    outer loop
      vertex -8.27347 -6.78962 -2.5
      vertex 2 -4 -2.5
      vertex -2 -4 -2.5
    endloop
  endfacet
  facet normal -0 0 1
    outer loop
      vertex -4.94973 -1.97435 -2.5
      vertex -2 -4 -2.5
      vertex -4.71 0 -2.5
    endloop
  endfacet
  facet normal -0 0 1
    outer loop
      vertex -5.65499 -3.83397 -2.5
      vertex -2 -4 -2.5
      vertex -4.94973 -1.97435 -2.5
    endloop
  endfacet
  facet normal 0 0 1
    outer loop
      vertex -6.78479 -5.47076 -2.5
      vertex -2 -4 -2.5
      vertex -5.65499 -3.83397 -2.5
    endloop
  endfacet
  facet normal 0 0 1
    outer loop
      vertex -8.27347 -6.78962 -2.5
      vertex -2 -4 -2.5
      vertex -6.78479 -5.47076 -2.5
    endloop
  endfacet
  facet normal 0 0 1
    outer loop
      vertex 8.27347 -6.78962 -2.5
      vertex -8.27347 -6.78962 -2.5
      vertex 10.0345 -7.71388 -2.5
    endloop
  endfacet
  facet normal 0 0 1
    outer loop
      vertex -10.0345 -7.71388 -2.5
      vertex 10.0345 -7.71388 -2.5
      vertex -8.27347 -6.78962 -2.5
    endloop
  endfacet
  facet normal 0 0 1
    outer loop
      vertex 10.0345 -7.71388 -2.5
      vertex -10.0345 -7.71388 -2.5
      vertex 11.9656 -8.18985 -2.5
    endloop
  endfacet
  facet normal 0 0 1
    outer loop
      vertex -11.9656 -8.18985 -2.5
      vertex 11.9656 -8.18985 -2.5
      vertex -10.0345 -7.71388 -2.5
    endloop
  endfacet
  facet normal 0 0 1
    outer loop
      vertex 11.9656 -8.18985 -2.5
      vertex -11.9656 -8.18985 -2.5
      vertex 21.35 -10.4 -2.5
    endloop
  endfacet
  facet normal 0 0 1
    outer loop
      vertex -21.35 -10.4 -2.5
      vertex -11.9656 -8.18985 -2.5
      vertex -13.9544 -8.18985 -2.5
    endloop
  endfacet
  facet normal 0 0 1
    outer loop
      vertex -20.265 3.83397 -2.5
      vertex -21.7149 4.61564 -2.5
      vertex -20.9703 1.97435 -2.5
    endloop
  endfacet
  facet normal 0 0 1
    outer loop
      vertex -22.2 0 -2.5
      vertex -20.9703 1.97435 -2.5
      vertex -21.7149 4.61564 -2.5
    endloop
  endfacet
  facet normal 0 0 1
    outer loop
      vertex -21.35 -5.73861 -2.5
      vertex -20.9703 -1.97435 -2.5
      vertex -21.21 0 -2.5
    endloop
  endfacet
  facet normal 0 0 1
    outer loop
      vertex -21.35 -5.73861 -2.5
      vertex -20.265 -3.83397 -2.5
      vertex -20.9703 -1.97435 -2.5
    endloop
  endfacet
  facet normal 0 0 1
    outer loop
      vertex -21.35 -5.73861 -2.5
      vertex -19.1352 -5.47076 -2.5
      vertex -20.265 -3.83397 -2.5
    endloop
  endfacet
  facet normal -0 0 1
    outer loop
      vertex -21.35 -5.73861 -2.5
      vertex -17.6465 -6.78962 -2.5
      vertex -19.1352 -5.47076 -2.5
    endloop
  endfacet
  facet normal 0 0 1
    outer loop
      vertex -21.35 -10.4 -2.5
      vertex -17.6465 -6.78962 -2.5
      vertex -21.35 -5.73861 -2.5
    endloop
  endfacet
  facet normal 0 0 1
    outer loop
      vertex -11.9656 -8.18985 -2.5
      vertex -21.35 -10.4 -2.5
      vertex 21.35 -10.4 -2.5
    endloop
  endfacet
  facet normal 0 0 1
    outer loop
      vertex -15.8855 -7.71388 -2.5
      vertex -21.35 -10.4 -2.5
      vertex -13.9544 -8.18985 -2.5
    endloop
  endfacet
  facet normal 0 0 1
    outer loop
      vertex -17.6465 -6.78962 -2.5
      vertex -21.35 -10.4 -2.5
      vertex -15.8855 -7.71388 -2.5
    endloop
  endfacet
  facet normal 0 1 -0
    outer loop
      vertex 21.35 -10.4 -2.5
      vertex -21.35 -10.4 0.8
      vertex 21.35 -10.4 0.8
    endloop
  endfacet
  facet normal 0 1 0
    outer loop
      vertex -21.35 -10.4 0.8
      vertex 21.35 -10.4 -2.5
      vertex -21.35 -10.4 -2.5
    endloop
  endfacet
  facet normal 0 1 0
    outer loop
      vertex 21.35 -10.4 0.8
      vertex 22.85 -10.4 4.5
      vertex 22.85 -10.4 0.8
    endloop
  endfacet
  facet normal 0 1 0
    outer loop
      vertex 22.85 -10.4 4.5
      vertex 21.35 -10.4 0.8
      vertex -22.85 -10.4 4.5
    endloop
  endfacet
  facet normal 0 1 -0
    outer loop
      vertex -21.35 -10.4 0.8
      vertex -22.85 -10.4 4.5
      vertex 21.35 -10.4 0.8
    endloop
  endfacet
  facet normal 0 1 0
    outer loop
      vertex -22.85 -10.4 4.5
      vertex -21.35 -10.4 0.8
      vertex -22.85 -10.4 0.8
    endloop
  endfacet
  facet normal 0 -1 0
    outer loop
      vertex 11.9656 8.18985 -4.5
      vertex 13.9544 8.18985 -2.5
      vertex 11.9656 8.18985 -2.5
    endloop
  endfacet
  facet normal 0 -1 -0
    outer loop
      vertex 13.9544 8.18985 -2.5
      vertex 11.9656 8.18985 -4.5
      vertex 13.9544 8.18985 -4.5
    endloop
  endfacet
  facet normal 0.935016 -0.354605 0
    outer loop
      vertex 4.94973 1.97435 -2.5
      vertex 5.65499 3.83397 -4.5
      vertex 5.65499 3.83397 -2.5
    endloop
  endfacet
  facet normal 0.935016 -0.354605 0
    outer loop
      vertex 5.65499 3.83397 -4.5
      vertex 4.94973 1.97435 -2.5
      vertex 4.94973 1.97435 -4.5
    endloop
  endfacet
  facet normal -0.822984 -0.568065 0
    outer loop
      vertex 20.265 3.83397 -4.5
      vertex 19.1352 5.47076 -2.5
      vertex 19.1352 5.47076 -4.5
    endloop
  endfacet
  facet normal -0.822984 -0.568065 0
    outer loop
      vertex 19.1352 5.47076 -2.5
      vertex 20.265 3.83397 -4.5
      vertex 20.265 3.83397 -2.5
    endloop
  endfacet
  facet normal -0.935016 -0.354605 0
    outer loop
      vertex 20.9703 1.97435 -4.5
      vertex 20.265 3.83397 -2.5
      vertex 20.265 3.83397 -4.5
    endloop
  endfacet
  facet normal -0.935016 -0.354605 0
    outer loop
      vertex 20.265 3.83397 -2.5
      vertex 20.9703 1.97435 -4.5
      vertex 20.9703 1.97435 -2.5
    endloop
  endfacet
  facet normal -0.239316 -0.970942 0
    outer loop
      vertex 13.9544 8.18985 -4.5
      vertex 15.8855 7.71388 -2.5
      vertex 13.9544 8.18985 -2.5
    endloop
  endfacet
  facet normal -0.239316 -0.970942 -0
    outer loop
      vertex 15.8855 7.71388 -2.5
      vertex 13.9544 8.18985 -4.5
      vertex 15.8855 7.71388 -4.5
    endloop
  endfacet
  facet normal 0.464723 -0.885456 0
    outer loop
      vertex 8.27347 6.78962 -4.5
      vertex 10.0345 7.71388 -2.5
      vertex 8.27347 6.78962 -2.5
    endloop
  endfacet
  facet normal 0.464723 -0.885456 0
    outer loop
      vertex 10.0345 7.71388 -2.5
      vertex 8.27347 6.78962 -4.5
      vertex 10.0345 7.71388 -4.5
    endloop
  endfacet
  facet normal 0.663123 -0.748511 0
    outer loop
      vertex 6.78479 5.47076 -4.5
      vertex 8.27347 6.78962 -2.5
      vertex 6.78479 5.47076 -2.5
    endloop
  endfacet
  facet normal 0.663123 -0.748511 0
    outer loop
      vertex 8.27347 6.78962 -2.5
      vertex 6.78479 5.47076 -4.5
      vertex 8.27347 6.78962 -4.5
    endloop
  endfacet
  facet normal -0.992709 0.120537 0
    outer loop
      vertex 20.9703 -1.97435 -4.5
      vertex 21.21 0 -2.5
      vertex 21.21 0 -4.5
    endloop
  endfacet
  facet normal -0.992709 0.120537 0
    outer loop
      vertex 21.21 0 -2.5
      vertex 20.9703 -1.97435 -4.5
      vertex 20.9703 -1.97435 -2.5
    endloop
  endfacet
  facet normal -0.239316 0.970942 0
    outer loop
      vertex 15.8855 -7.71388 -4.5
      vertex 13.9544 -8.18985 -2.5
      vertex 15.8855 -7.71388 -2.5
    endloop
  endfacet
  facet normal -0.239316 0.970942 0
    outer loop
      vertex 13.9544 -8.18985 -2.5
      vertex 15.8855 -7.71388 -4.5
      vertex 13.9544 -8.18985 -4.5
    endloop
  endfacet
  facet normal -0.663123 -0.74851 0
    outer loop
      vertex 17.6465 6.78962 -4.5
      vertex 19.1352 5.47076 -2.5
      vertex 17.6465 6.78962 -2.5
    endloop
  endfacet
  facet normal -0.663123 -0.74851 -0
    outer loop
      vertex 19.1352 5.47076 -2.5
      vertex 17.6465 6.78962 -4.5
      vertex 19.1352 5.47076 -4.5
    endloop
  endfacet
  facet normal -0.464723 -0.885456 0
    outer loop
      vertex 15.8855 7.71388 -4.5
      vertex 17.6465 6.78962 -2.5
      vertex 15.8855 7.71388 -2.5
    endloop
  endfacet
  facet normal -0.464723 -0.885456 -0
    outer loop
      vertex 17.6465 6.78962 -2.5
      vertex 15.8855 7.71388 -4.5
      vertex 17.6465 6.78962 -4.5
    endloop
  endfacet
  facet normal 0.992709 -0.120537 0
    outer loop
      vertex 4.71 0 -2.5
      vertex 4.94973 1.97435 -4.5
      vertex 4.94973 1.97435 -2.5
    endloop
  endfacet
  facet normal 0.992709 -0.120537 0
    outer loop
      vertex 4.94973 1.97435 -4.5
      vertex 4.71 0 -2.5
      vertex 4.71 0 -4.5
    endloop
  endfacet
  facet normal 0.822984 -0.568065 0
    outer loop
      vertex 5.65499 3.83397 -2.5
      vertex 6.78479 5.47076 -4.5
      vertex 6.78479 5.47076 -2.5
    endloop
  endfacet
  facet normal 0.822984 -0.568065 0
    outer loop
      vertex 6.78479 5.47076 -4.5
      vertex 5.65499 3.83397 -2.5
      vertex 5.65499 3.83397 -4.5
    endloop
  endfacet
  facet normal 0.239316 -0.970942 0
    outer loop
      vertex 10.0345 7.71388 -4.5
      vertex 11.9656 8.18985 -2.5
      vertex 10.0345 7.71388 -2.5
    endloop
  endfacet
  facet normal 0.239316 -0.970942 0
    outer loop
      vertex 11.9656 8.18985 -2.5
      vertex 10.0345 7.71388 -4.5
      vertex 11.9656 8.18985 -4.5
    endloop
  endfacet
  facet normal -0.992709 -0.120537 0
    outer loop
      vertex 21.21 0 -4.5
      vertex 20.9703 1.97435 -2.5
      vertex 20.9703 1.97435 -4.5
    endloop
  endfacet
  facet normal -0.992709 -0.120537 0
    outer loop
      vertex 20.9703 1.97435 -2.5
      vertex 21.21 0 -4.5
      vertex 21.21 0 -2.5
    endloop
  endfacet
  facet normal 0.822984 0.568065 0
    outer loop
      vertex 6.78479 -5.47076 -2.5
      vertex 5.65499 -3.83397 -4.5
      vertex 5.65499 -3.83397 -2.5
    endloop
  endfacet
  facet normal 0.822984 0.568065 0
    outer loop
      vertex 5.65499 -3.83397 -4.5
      vertex 6.78479 -5.47076 -2.5
      vertex 6.78479 -5.47076 -4.5
    endloop
  endfacet
  facet normal -0.663123 0.74851 0
    outer loop
      vertex 19.1352 -5.47076 -4.5
      vertex 17.6465 -6.78962 -2.5
      vertex 19.1352 -5.47076 -2.5
    endloop
  endfacet
  facet normal -0.663123 0.74851 0
    outer loop
      vertex 17.6465 -6.78962 -2.5
      vertex 19.1352 -5.47076 -4.5
      vertex 17.6465 -6.78962 -4.5
    endloop
  endfacet
  facet normal -0.935016 0.354605 0
    outer loop
      vertex 20.265 -3.83397 -4.5
      vertex 20.9703 -1.97435 -2.5
      vertex 20.9703 -1.97435 -4.5
    endloop
  endfacet
  facet normal -0.935016 0.354605 0
    outer loop
      vertex 20.9703 -1.97435 -2.5
      vertex 20.265 -3.83397 -4.5
      vertex 20.265 -3.83397 -2.5
    endloop
  endfacet
  facet normal 0 1 -0
    outer loop
      vertex 13.9544 -8.18985 -4.5
      vertex 11.9656 -8.18985 -2.5
      vertex 13.9544 -8.18985 -2.5
    endloop
  endfacet
  facet normal 0 1 0
    outer loop
      vertex 11.9656 -8.18985 -2.5
      vertex 13.9544 -8.18985 -4.5
      vertex 11.9656 -8.18985 -4.5
    endloop
  endfacet
  facet normal 0.992709 0.120537 0
    outer loop
      vertex 4.94973 -1.97435 -2.5
      vertex 4.71 0 -4.5
      vertex 4.71 0 -2.5
    endloop
  endfacet
  facet normal 0.992709 0.120537 0
    outer loop
      vertex 4.71 0 -4.5
      vertex 4.94973 -1.97435 -2.5
      vertex 4.94973 -1.97435 -4.5
    endloop
  endfacet
  facet normal -0.464723 0.885456 0
    outer loop
      vertex 17.6465 -6.78962 -4.5
      vertex 15.8855 -7.71388 -2.5
      vertex 17.6465 -6.78962 -2.5
    endloop
  endfacet
  facet normal -0.464723 0.885456 0
    outer loop
      vertex 15.8855 -7.71388 -2.5
      vertex 17.6465 -6.78962 -4.5
      vertex 15.8855 -7.71388 -4.5
    endloop
  endfacet
  facet normal 0.464723 0.885456 -0
    outer loop
      vertex 10.0345 -7.71388 -4.5
      vertex 8.27347 -6.78962 -2.5
      vertex 10.0345 -7.71388 -2.5
    endloop
  endfacet
  facet normal 0.464723 0.885456 0
    outer loop
      vertex 8.27347 -6.78962 -2.5
      vertex 10.0345 -7.71388 -4.5
      vertex 8.27347 -6.78962 -4.5
    endloop
  endfacet
  facet normal 0.935016 0.354605 0
    outer loop
      vertex 5.65499 -3.83397 -2.5
      vertex 4.94973 -1.97435 -4.5
      vertex 4.94973 -1.97435 -2.5
    endloop
  endfacet
  facet normal 0.935016 0.354605 0
    outer loop
      vertex 4.94973 -1.97435 -4.5
      vertex 5.65499 -3.83397 -2.5
      vertex 5.65499 -3.83397 -4.5
    endloop
  endfacet
  facet normal 0.663123 0.748511 -0
    outer loop
      vertex 8.27347 -6.78962 -4.5
      vertex 6.78479 -5.47076 -2.5
      vertex 8.27347 -6.78962 -2.5
    endloop
  endfacet
  facet normal 0.663123 0.748511 0
    outer loop
      vertex 6.78479 -5.47076 -2.5
      vertex 8.27347 -6.78962 -4.5
      vertex 6.78479 -5.47076 -4.5
    endloop
  endfacet
  facet normal -0.822984 0.568065 0
    outer loop
      vertex 19.1352 -5.47076 -4.5
      vertex 20.265 -3.83397 -2.5
      vertex 20.265 -3.83397 -4.5
    endloop
  endfacet
  facet normal -0.822984 0.568065 0
    outer loop
      vertex 20.265 -3.83397 -2.5
      vertex 19.1352 -5.47076 -4.5
      vertex 19.1352 -5.47076 -2.5
    endloop
  endfacet
  facet normal 0.239316 0.970942 -0
    outer loop
      vertex 11.9656 -8.18985 -4.5
      vertex 10.0345 -7.71388 -2.5
      vertex 11.9656 -8.18985 -2.5
    endloop
  endfacet
  facet normal 0.239316 0.970942 0
    outer loop
      vertex 10.0345 -7.71388 -2.5
      vertex 11.9656 -8.18985 -4.5
      vertex 10.0345 -7.71388 -4.5
    endloop
  endfacet
  facet normal -0.992709 -0.120537 0
    outer loop
      vertex -4.71 0 -4.5
      vertex -4.94973 1.97435 -2.5
      vertex -4.94973 1.97435 -4.5
    endloop
  endfacet
  facet normal -0.992709 -0.120537 0
    outer loop
      vertex -4.94973 1.97435 -2.5
      vertex -4.71 0 -4.5
      vertex -4.71 0 -2.5
    endloop
  endfacet
  facet normal -0.464723 -0.885456 0
    outer loop
      vertex -10.0345 7.71388 -4.5
      vertex -8.27347 6.78962 -2.5
      vertex -10.0345 7.71388 -2.5
    endloop
  endfacet
  facet normal -0.464723 -0.885456 -0
    outer loop
      vertex -8.27347 6.78962 -2.5
      vertex -10.0345 7.71388 -4.5
      vertex -8.27347 6.78962 -4.5
    endloop
  endfacet
  facet normal 0 1 -0
    outer loop
      vertex -11.9656 -8.18985 -4.5
      vertex -13.9544 -8.18985 -2.5
      vertex -11.9656 -8.18985 -2.5
    endloop
  endfacet
  facet normal 0 1 0
    outer loop
      vertex -13.9544 -8.18985 -2.5
      vertex -11.9656 -8.18985 -4.5
      vertex -13.9544 -8.18985 -4.5
    endloop
  endfacet
  facet normal -0.935016 -0.354605 0
    outer loop
      vertex -4.94973 1.97435 -4.5
      vertex -5.65499 3.83397 -2.5
      vertex -5.65499 3.83397 -4.5
    endloop
  endfacet
  facet normal -0.935016 -0.354605 0
    outer loop
      vertex -5.65499 3.83397 -2.5
      vertex -4.94973 1.97435 -4.5
      vertex -4.94973 1.97435 -2.5
    endloop
  endfacet
  facet normal 0 -1 0
    outer loop
      vertex -13.9544 8.18985 -4.5
      vertex -11.9656 8.18985 -2.5
      vertex -13.9544 8.18985 -2.5
    endloop
  endfacet
  facet normal 0 -1 -0
    outer loop
      vertex -11.9656 8.18985 -2.5
      vertex -13.9544 8.18985 -4.5
      vertex -11.9656 8.18985 -4.5
    endloop
  endfacet
  facet normal 0.464723 -0.885456 0
    outer loop
      vertex -17.6465 6.78962 -4.5
      vertex -15.8855 7.71388 -2.5
      vertex -17.6465 6.78962 -2.5
    endloop
  endfacet
  facet normal 0.464723 -0.885456 0
    outer loop
      vertex -15.8855 7.71388 -2.5
      vertex -17.6465 6.78962 -4.5
      vertex -15.8855 7.71388 -4.5
    endloop
  endfacet
  facet normal -0.992709 0.120537 0
    outer loop
      vertex -4.94973 -1.97435 -4.5
      vertex -4.71 0 -2.5
      vertex -4.71 0 -4.5
    endloop
  endfacet
  facet normal -0.992709 0.120537 0
    outer loop
      vertex -4.71 0 -2.5
      vertex -4.94973 -1.97435 -4.5
      vertex -4.94973 -1.97435 -2.5
    endloop
  endfacet
  facet normal 0.935016 0.354605 0
    outer loop
      vertex -20.265 -3.83397 -2.5
      vertex -20.9703 -1.97435 -4.5
      vertex -20.9703 -1.97435 -2.5
    endloop
  endfacet
  facet normal 0.935016 0.354605 0
    outer loop
      vertex -20.9703 -1.97435 -4.5
      vertex -20.265 -3.83397 -2.5
      vertex -20.265 -3.83397 -4.5
    endloop
  endfacet
  facet normal -0.822984 -0.568065 0
    outer loop
      vertex -5.65499 3.83397 -4.5
      vertex -6.78479 5.47076 -2.5
      vertex -6.78479 5.47076 -4.5
    endloop
  endfacet
  facet normal -0.822984 -0.568065 0
    outer loop
      vertex -6.78479 5.47076 -2.5
      vertex -5.65499 3.83397 -4.5
      vertex -5.65499 3.83397 -2.5
    endloop
  endfacet
  facet normal -0.663123 -0.748511 0
    outer loop
      vertex -8.27347 6.78962 -4.5
      vertex -6.78479 5.47076 -2.5
      vertex -8.27347 6.78962 -2.5
    endloop
  endfacet
  facet normal -0.663123 -0.748511 -0
    outer loop
      vertex -6.78479 5.47076 -2.5
      vertex -8.27347 6.78962 -4.5
      vertex -6.78479 5.47076 -4.5
    endloop
  endfacet
  facet normal -0.239316 -0.970942 0
    outer loop
      vertex -11.9656 8.18985 -4.5
      vertex -10.0345 7.71388 -2.5
      vertex -11.9656 8.18985 -2.5
    endloop
  endfacet
  facet normal -0.239316 -0.970942 -0
    outer loop
      vertex -10.0345 7.71388 -2.5
      vertex -11.9656 8.18985 -4.5
      vertex -10.0345 7.71388 -4.5
    endloop
  endfacet
  facet normal 0.992709 0.120537 0
    outer loop
      vertex -20.9703 -1.97435 -2.5
      vertex -21.21 0 -4.5
      vertex -21.21 0 -2.5
    endloop
  endfacet
  facet normal 0.992709 0.120537 0
    outer loop
      vertex -21.21 0 -4.5
      vertex -20.9703 -1.97435 -2.5
      vertex -20.9703 -1.97435 -4.5
    endloop
  endfacet
  facet normal 0.935016 -0.354605 0
    outer loop
      vertex -20.9703 1.97435 -2.5
      vertex -20.265 3.83397 -4.5
      vertex -20.265 3.83397 -2.5
    endloop
  endfacet
  facet normal 0.935016 -0.354605 0
    outer loop
      vertex -20.265 3.83397 -4.5
      vertex -20.9703 1.97435 -2.5
      vertex -20.9703 1.97435 -4.5
    endloop
  endfacet
  facet normal 0.663123 -0.74851 0
    outer loop
      vertex -19.1352 5.47076 -4.5
      vertex -17.6465 6.78962 -2.5
      vertex -19.1352 5.47076 -2.5
    endloop
  endfacet
  facet normal 0.663123 -0.74851 0
    outer loop
      vertex -17.6465 6.78962 -2.5
      vertex -19.1352 5.47076 -4.5
      vertex -17.6465 6.78962 -4.5
    endloop
  endfacet
  facet normal 0.239316 -0.970942 0
    outer loop
      vertex -15.8855 7.71388 -4.5
      vertex -13.9544 8.18985 -2.5
      vertex -15.8855 7.71388 -2.5
    endloop
  endfacet
  facet normal 0.239316 -0.970942 0
    outer loop
      vertex -13.9544 8.18985 -2.5
      vertex -15.8855 7.71388 -4.5
      vertex -13.9544 8.18985 -4.5
    endloop
  endfacet
  facet normal 0.822984 -0.568065 0
    outer loop
      vertex -20.265 3.83397 -2.5
      vertex -19.1352 5.47076 -4.5
      vertex -19.1352 5.47076 -2.5
    endloop
  endfacet
  facet normal 0.822984 -0.568065 0
    outer loop
      vertex -19.1352 5.47076 -4.5
      vertex -20.265 3.83397 -2.5
      vertex -20.265 3.83397 -4.5
    endloop
  endfacet
  facet normal -0.663123 0.748511 0
    outer loop
      vertex -6.78479 -5.47076 -4.5
      vertex -8.27347 -6.78962 -2.5
      vertex -6.78479 -5.47076 -2.5
    endloop
  endfacet
  facet normal -0.663123 0.748511 0
    outer loop
      vertex -8.27347 -6.78962 -2.5
      vertex -6.78479 -5.47076 -4.5
      vertex -8.27347 -6.78962 -4.5
    endloop
  endfacet
  facet normal -0.239316 0.970942 0
    outer loop
      vertex -10.0345 -7.71388 -4.5
      vertex -11.9656 -8.18985 -2.5
      vertex -10.0345 -7.71388 -2.5
    endloop
  endfacet
  facet normal -0.239316 0.970942 0
    outer loop
      vertex -11.9656 -8.18985 -2.5
      vertex -10.0345 -7.71388 -4.5
      vertex -11.9656 -8.18985 -4.5
    endloop
  endfacet
  facet normal 0.464723 0.885456 -0
    outer loop
      vertex -15.8855 -7.71388 -4.5
      vertex -17.6465 -6.78962 -2.5
      vertex -15.8855 -7.71388 -2.5
    endloop
  endfacet
  facet normal 0.464723 0.885456 0
    outer loop
      vertex -17.6465 -6.78962 -2.5
      vertex -15.8855 -7.71388 -4.5
      vertex -17.6465 -6.78962 -4.5
    endloop
  endfacet
  facet normal 0.822984 0.568065 0
    outer loop
      vertex -19.1352 -5.47076 -2.5
      vertex -20.265 -3.83397 -4.5
      vertex -20.265 -3.83397 -2.5
    endloop
  endfacet
  facet normal 0.822984 0.568065 0
    outer loop
      vertex -20.265 -3.83397 -4.5
      vertex -19.1352 -5.47076 -2.5
      vertex -19.1352 -5.47076 -4.5
    endloop
  endfacet
  facet normal 0.663123 0.74851 -0
    outer loop
      vertex -17.6465 -6.78962 -4.5
      vertex -19.1352 -5.47076 -2.5
      vertex -17.6465 -6.78962 -2.5
    endloop
  endfacet
  facet normal 0.663123 0.74851 0
    outer loop
      vertex -19.1352 -5.47076 -2.5
      vertex -17.6465 -6.78962 -4.5
      vertex -19.1352 -5.47076 -4.5
    endloop
  endfacet
  facet normal 0.992709 -0.120537 0
    outer loop
      vertex -21.21 0 -2.5
      vertex -20.9703 1.97435 -4.5
      vertex -20.9703 1.97435 -2.5
    endloop
  endfacet
  facet normal 0.992709 -0.120537 0
    outer loop
      vertex -20.9703 1.97435 -4.5
      vertex -21.21 0 -2.5
      vertex -21.21 0 -4.5
    endloop
  endfacet
  facet normal -0.822984 0.568065 0
    outer loop
      vertex -6.78479 -5.47076 -4.5
      vertex -5.65499 -3.83397 -2.5
      vertex -5.65499 -3.83397 -4.5
    endloop
  endfacet
  facet normal -0.822984 0.568065 0
    outer loop
      vertex -5.65499 -3.83397 -2.5
      vertex -6.78479 -5.47076 -4.5
      vertex -6.78479 -5.47076 -2.5
    endloop
  endfacet
  facet normal -0.935016 0.354605 0
    outer loop
      vertex -5.65499 -3.83397 -4.5
      vertex -4.94973 -1.97435 -2.5
      vertex -4.94973 -1.97435 -4.5
    endloop
  endfacet
  facet normal -0.935016 0.354605 0
    outer loop
      vertex -4.94973 -1.97435 -2.5
      vertex -5.65499 -3.83397 -4.5
      vertex -5.65499 -3.83397 -2.5
    endloop
  endfacet
  facet normal -0.464723 0.885456 0
    outer loop
      vertex -8.27347 -6.78962 -4.5
      vertex -10.0345 -7.71388 -2.5
      vertex -8.27347 -6.78962 -2.5
    endloop
  endfacet
  facet normal -0.464723 0.885456 0
    outer loop
      vertex -10.0345 -7.71388 -2.5
      vertex -8.27347 -6.78962 -4.5
      vertex -10.0345 -7.71388 -4.5
    endloop
  endfacet
  facet normal 0.239316 0.970942 -0
    outer loop
      vertex -13.9544 -8.18985 -4.5
      vertex -15.8855 -7.71388 -2.5
      vertex -13.9544 -8.18985 -2.5
    endloop
  endfacet
  facet normal 0.239316 0.970942 0
    outer loop
      vertex -15.8855 -7.71388 -2.5
      vertex -13.9544 -8.18985 -4.5
      vertex -15.8855 -7.71388 -4.5
    endloop
  endfacet
  facet normal -1 0 0
    outer loop
      vertex 21.35 -10.4 -2.5
      vertex 21.35 -5.73861 0.8
      vertex 21.35 -5.73861 -2.5
    endloop
  endfacet
  facet normal -1 -0 0
    outer loop
      vertex 21.35 -5.73861 0.8
      vertex 21.35 -10.4 -2.5
      vertex 21.35 -10.4 0.8
    endloop
  endfacet
  facet normal -1 0 0
    outer loop
      vertex 21.35 5.73861 -2.5
      vertex 21.35 10.4 0.8
      vertex 21.35 10.4 -2.5
    endloop
  endfacet
  facet normal -1 -0 0
    outer loop
      vertex 21.35 10.4 0.8
      vertex 21.35 5.73861 -2.5
      vertex 21.35 5.73861 0.8
    endloop
  endfacet
  facet normal 0 0 1
    outer loop
      vertex 22.85 10.4 0.8
      vertex 22.2 0 0.8
      vertex 22.85 -10.4 0.8
    endloop
  endfacet
  facet normal 0 0 1
    outer loop
      vertex 22.85 10.4 0.8
      vertex 21.7149 4.61564 0.8
      vertex 22.2 0 0.8
    endloop
  endfacet
  facet normal 0 0 1
    outer loop
      vertex 21.35 5.73861 0.8
      vertex 22.85 10.4 0.8
      vertex 21.35 10.4 0.8
    endloop
  endfacet
  facet normal 0 0 1
    outer loop
      vertex 22.85 10.4 0.8
      vertex 21.35 5.73861 0.8
      vertex 21.7149 4.61564 0.8
    endloop
  endfacet
  facet normal -0 0 1
    outer loop
      vertex 21.7149 -4.61564 0.8
      vertex 22.85 -10.4 0.8
      vertex 22.2 0 0.8
    endloop
  endfacet
  facet normal -0 0 1
    outer loop
      vertex 21.35 -5.73861 0.8
      vertex 22.85 -10.4 0.8
      vertex 21.7149 -4.61564 0.8
    endloop
  endfacet
  facet normal 0 0 1
    outer loop
      vertex 22.85 -10.4 0.8
      vertex 21.35 -5.73861 0.8
      vertex 21.35 -10.4 0.8
    endloop
  endfacet
  facet normal -0 0 1
    outer loop
      vertex -22.85 10.4 0.8
      vertex -21.35 5.73861 0.8
      vertex -21.35 10.4 0.8
    endloop
  endfacet
  facet normal 0 0 1
    outer loop
      vertex -21.35 5.73861 0.8
      vertex -22.85 10.4 0.8
      vertex -21.7149 4.61564 0.8
    endloop
  endfacet
  facet normal 0 0 1
    outer loop
      vertex -21.7149 4.61564 0.8
      vertex -22.85 10.4 0.8
      vertex -22.2 0 0.8
    endloop
  endfacet
  facet normal 0 0 1
    outer loop
      vertex -22.85 -10.4 0.8
      vertex -21.35 -5.73861 0.8
      vertex -21.7149 -4.61564 0.8
    endloop
  endfacet
  facet normal 0 0 1
    outer loop
      vertex -22.85 -10.4 0.8
      vertex -21.7149 -4.61564 0.8
      vertex -22.2 0 0.8
    endloop
  endfacet
  facet normal 0 0 1
    outer loop
      vertex -21.35 -5.73861 0.8
      vertex -22.85 -10.4 0.8
      vertex -21.35 -10.4 0.8
    endloop
  endfacet
  facet normal 0 0 1
    outer loop
      vertex -22.85 -10.4 0.8
      vertex -22.2 0 0.8
      vertex -22.85 10.4 0.8
    endloop
  endfacet
  facet normal 1 -0 0
    outer loop
      vertex -21.35 -10.4 0.8
      vertex -21.35 -5.73861 -2.5
      vertex -21.35 -5.73861 0.8
    endloop
  endfacet
  facet normal 1 0 0
    outer loop
      vertex -21.35 -5.73861 -2.5
      vertex -21.35 -10.4 0.8
      vertex -21.35 -10.4 -2.5
    endloop
  endfacet
  facet normal 1 -0 0
    outer loop
      vertex -21.35 5.73861 0.8
      vertex -21.35 10.4 -2.5
      vertex -21.35 10.4 0.8
    endloop
  endfacet
  facet normal 1 0 0
    outer loop
      vertex -21.35 10.4 -2.5
      vertex -21.35 5.73861 0.8
      vertex -21.35 5.73861 -2.5
    endloop
  endfacet
  facet normal 0.951056 -0.309018 0
    outer loop
      vertex -21.7149 4.61564 0.8
      vertex -21.35 5.73861 -2.5
      vertex -21.35 5.73861 0.8
    endloop
  endfacet
  facet normal 0.951056 -0.309018 0
    outer loop
      vertex -21.35 5.73861 -2.5
      vertex -21.7149 4.61564 0.8
      vertex -21.7149 4.61564 -2.5
    endloop
  endfacet
  facet normal -0.994522 0.104529 0
    outer loop
      vertex 21.7149 -4.61564 -2.5
      vertex 22.2 0 0.8
      vertex 22.2 0 -2.5
    endloop
  endfacet
  facet normal -0.994522 0.104529 0
    outer loop
      vertex 22.2 0 0.8
      vertex 21.7149 -4.61564 -2.5
      vertex 21.7149 -4.61564 0.8
    endloop
  endfacet
  facet normal 0.994522 -0.104529 0
    outer loop
      vertex -22.2 0 0.8
      vertex -21.7149 4.61564 -2.5
      vertex -21.7149 4.61564 0.8
    endloop
  endfacet
  facet normal 0.994522 -0.104529 0
    outer loop
      vertex -21.7149 4.61564 -2.5
      vertex -22.2 0 0.8
      vertex -22.2 0 -2.5
    endloop
  endfacet
  facet normal -0.994522 -0.104529 0
    outer loop
      vertex 22.2 0 -2.5
      vertex 21.7149 4.61564 0.8
      vertex 21.7149 4.61564 -2.5
    endloop
  endfacet
  facet normal -0.994522 -0.104529 0
    outer loop
      vertex 21.7149 4.61564 0.8
      vertex 22.2 0 -2.5
      vertex 22.2 0 0.8
    endloop
  endfacet
  facet normal -0.951056 0.309018 0
    outer loop
      vertex 21.35 -5.73861 -2.5
      vertex 21.7149 -4.61564 0.8
      vertex 21.7149 -4.61564 -2.5
    endloop
  endfacet
  facet normal -0.951056 0.309018 0
    outer loop
      vertex 21.7149 -4.61564 0.8
      vertex 21.35 -5.73861 -2.5
      vertex 21.35 -5.73861 0.8
    endloop
  endfacet
  facet normal -0.951056 -0.309018 0
    outer loop
      vertex 21.7149 4.61564 -2.5
      vertex 21.35 5.73861 0.8
      vertex 21.35 5.73861 -2.5
    endloop
  endfacet
  facet normal -0.951056 -0.309018 0
    outer loop
      vertex 21.35 5.73861 0.8
      vertex 21.7149 4.61564 -2.5
      vertex 21.7149 4.61564 0.8
    endloop
  endfacet
  facet normal 0.994522 0.104529 0
    outer loop
      vertex -21.7149 -4.61564 0.8
      vertex -22.2 0 -2.5
      vertex -22.2 0 0.8
    endloop
  endfacet
  facet normal 0.994522 0.104529 0
    outer loop
      vertex -22.2 0 -2.5
      vertex -21.7149 -4.61564 0.8
      vertex -21.7149 -4.61564 -2.5
    endloop
  endfacet
  facet normal 0.951056 0.309018 0
    outer loop
      vertex -21.35 -5.73861 0.8
      vertex -21.7149 -4.61564 -2.5
      vertex -21.7149 -4.61564 0.8
    endloop
  endfacet
  facet normal 0.951056 0.309018 0
    outer loop
      vertex -21.7149 -4.61564 -2.5
      vertex -21.35 -5.73861 0.8
      vertex -21.35 -5.73861 -2.5
    endloop
  endfacet
  facet normal -0 0 1
    outer loop
      vertex -24.9451 -1.33962 5.5
      vertex -24.85 -3.57583 5.5
      vertex -24.4747 -1.0253 5.5
    endloop
  endfacet
  facet normal -0 0 1
    outer loop
      vertex -25.5 -1.45 5.5
      vertex -24.85 -3.57583 5.5
      vertex -24.9451 -1.33962 5.5
    endloop
  endfacet
  facet normal 0 0 1
    outer loop
      vertex -25.5 -1.45 5.5
      vertex -25.5 -3.75 5.5
      vertex -24.85 -3.57583 5.5
    endloop
  endfacet
  facet normal 0 0 1
    outer loop
      vertex -26.0549 -1.33962 5.5
      vertex -25.5 -3.75 5.5
      vertex -25.5 -1.45 5.5
    endloop
  endfacet
  facet normal 0 0 1
    outer loop
      vertex -27.375 -3.24759 5.5
      vertex -26.0549 -1.33962 5.5
      vertex -26.5253 -1.0253 5.5
    endloop
  endfacet
  facet normal 0 0 1
    outer loop
      vertex -28.7476 -1.875 5.5
      vertex -26.5253 -1.0253 5.5
      vertex -26.8396 -0.554891 5.5
    endloop
  endfacet
  facet normal 0 0 1
    outer loop
      vertex -26.0549 -1.33962 5.5
      vertex -27.375 -3.24759 5.5
      vertex -25.5 -3.75 5.5
    endloop
  endfacet
  facet normal -0 0 1
    outer loop
      vertex -29.25 0 5.5
      vertex -26.8396 -0.554891 5.5
      vertex -26.95 0 5.5
    endloop
  endfacet
  facet normal 0 0 1
    outer loop
      vertex -29.25 0 5.5
      vertex -26.8396 0.554891 5.5
      vertex -28.7476 1.875 5.5
    endloop
  endfacet
  facet normal 0 0 1
    outer loop
      vertex -26.8396 0.554891 5.5
      vertex -29.25 0 5.5
      vertex -26.95 0 5.5
    endloop
  endfacet
  facet normal 0 0 1
    outer loop
      vertex -26.5253 -1.0253 5.5
      vertex -28.7476 -1.875 5.5
      vertex -27.375 -3.24759 5.5
    endloop
  endfacet
  facet normal 0 0 1
    outer loop
      vertex -26.8396 -0.554891 5.5
      vertex -29.25 0 5.5
      vertex -28.7476 -1.875 5.5
    endloop
  endfacet
  facet normal -0 0 1
    outer loop
      vertex 23.85 11.4 5.5
      vertex 24.85 3.57583 5.5
      vertex 24.85 12.4 5.5
    endloop
  endfacet
  facet normal 0 -0 1
    outer loop
      vertex 24.1604 0.554891 5.5
      vertex 24.85 3.57583 5.5
      vertex 23.85 11.4 5.5
    endloop
  endfacet
  facet normal 0 0 1
    outer loop
      vertex 24.85 3.57583 5.5
      vertex 24.1604 0.554891 5.5
      vertex 24.4747 1.0253 5.5
    endloop
  endfacet
  facet normal 0 0 1
    outer loop
      vertex 24.1604 0.554891 5.5
      vertex 23.85 11.4 5.5
      vertex 24.05 0 5.5
    endloop
  endfacet
  facet normal 0 0 1
    outer loop
      vertex 24.85 12.4 5.5
      vertex -23.85 11.4 5.5
      vertex 23.85 11.4 5.5
    endloop
  endfacet
  facet normal 0 0 1
    outer loop
      vertex -23.85 11.4 5.5
      vertex -24.05 0 5.5
      vertex -23.85 -11.4 5.5
    endloop
  endfacet
  facet normal 0 0 1
    outer loop
      vertex -23.85 11.4 5.5
      vertex -24.1604 0.554891 5.5
      vertex -24.05 0 5.5
    endloop
  endfacet
  facet normal -0 0 1
    outer loop
      vertex -24.85 3.57583 5.5
      vertex -24.1604 0.554891 5.5
      vertex -23.85 11.4 5.5
    endloop
  endfacet
  facet normal -0 0 1
    outer loop
      vertex -24.85 12.4 5.5
      vertex -23.85 11.4 5.5
      vertex 24.85 12.4 5.5
    endloop
  endfacet
  facet normal 0 0 1
    outer loop
      vertex -24.85 3.57583 5.5
      vertex -23.85 11.4 5.5
      vertex -24.85 12.4 5.5
    endloop
  endfacet
  facet normal 0 0 1
    outer loop
      vertex -24.1604 0.554891 5.5
      vertex -24.85 3.57583 5.5
      vertex -24.4747 1.0253 5.5
    endloop
  endfacet
  facet normal 0 0 1
    outer loop
      vertex -24.85 3.57583 5.5
      vertex -24.9451 1.33962 5.5
      vertex -24.4747 1.0253 5.5
    endloop
  endfacet
  facet normal 0 0 1
    outer loop
      vertex -25.5 1.45 5.5
      vertex -24.85 3.57583 5.5
      vertex -25.5 3.75 5.5
    endloop
  endfacet
  facet normal 0 0 1
    outer loop
      vertex -24.85 3.57583 5.5
      vertex -25.5 1.45 5.5
      vertex -24.9451 1.33962 5.5
    endloop
  endfacet
  facet normal 0 0 1
    outer loop
      vertex -25.5 3.75 5.5
      vertex -26.0549 1.33962 5.5
      vertex -25.5 1.45 5.5
    endloop
  endfacet
  facet normal -0 0 1
    outer loop
      vertex -27.375 3.24759 5.5
      vertex -26.0549 1.33962 5.5
      vertex -25.5 3.75 5.5
    endloop
  endfacet
  facet normal 0 0 1
    outer loop
      vertex -26.0549 1.33962 5.5
      vertex -27.375 3.24759 5.5
      vertex -26.5253 1.0253 5.5
    endloop
  endfacet
  facet normal 0 0 1
    outer loop
      vertex -26.5253 1.0253 5.5
      vertex -28.7476 1.875 5.5
      vertex -26.8396 0.554891 5.5
    endloop
  endfacet
  facet normal -0 0 1
    outer loop
      vertex -28.7476 1.875 5.5
      vertex -26.5253 1.0253 5.5
      vertex -27.375 3.24759 5.5
    endloop
  endfacet
  facet normal -0 0 1
    outer loop
      vertex 26.8396 0.554891 5.5
      vertex 29.25 0 5.5
      vertex 28.7476 1.875 5.5
    endloop
  endfacet
  facet normal 0 0 1
    outer loop
      vertex 26.5253 1.0253 5.5
      vertex 28.7476 1.875 5.5
      vertex 27.375 3.24759 5.5
    endloop
  endfacet
  facet normal 0 0 1
    outer loop
      vertex 29.25 0 5.5
      vertex 26.8396 0.554891 5.5
      vertex 26.95 0 5.5
    endloop
  endfacet
  facet normal 0 0 1
    outer loop
      vertex 29.25 0 5.5
      vertex 26.8396 -0.554891 5.5
      vertex 28.7476 -1.875 5.5
    endloop
  endfacet
  facet normal 0 0 1
    outer loop
      vertex 26.8396 -0.554891 5.5
      vertex 29.25 0 5.5
      vertex 26.95 0 5.5
    endloop
  endfacet
  facet normal 0 0 1
    outer loop
      vertex 28.7476 1.875 5.5
      vertex 26.5253 1.0253 5.5
      vertex 26.8396 0.554891 5.5
    endloop
  endfacet
  facet normal 0 0 1
    outer loop
      vertex 27.375 3.24759 5.5
      vertex 26.0549 1.33962 5.5
      vertex 26.5253 1.0253 5.5
    endloop
  endfacet
  facet normal 0 0 1
    outer loop
      vertex 25.5 3.75 5.5
      vertex 26.0549 1.33962 5.5
      vertex 27.375 3.24759 5.5
    endloop
  endfacet
  facet normal 0 0 1
    outer loop
      vertex 25.5 3.75 5.5
      vertex 25.5 1.45 5.5
      vertex 26.0549 1.33962 5.5
    endloop
  endfacet
  facet normal -0 0 1
    outer loop
      vertex 24.85 3.57583 5.5
      vertex 25.5 1.45 5.5
      vertex 25.5 3.75 5.5
    endloop
  endfacet
  facet normal 0 0 1
    outer loop
      vertex 25.5 1.45 5.5
      vertex 24.85 3.57583 5.5
      vertex 24.9451 1.33962 5.5
    endloop
  endfacet
  facet normal 0 0 1
    outer loop
      vertex 24.9451 1.33962 5.5
      vertex 24.85 3.57583 5.5
      vertex 24.4747 1.0253 5.5
    endloop
  endfacet
  facet normal -0 0 1
    outer loop
      vertex 26.5253 -1.0253 5.5
      vertex 28.7476 -1.875 5.5
      vertex 26.8396 -0.554891 5.5
    endloop
  endfacet
  facet normal 0 0 1
    outer loop
      vertex 28.7476 -1.875 5.5
      vertex 26.5253 -1.0253 5.5
      vertex 27.375 -3.24759 5.5
    endloop
  endfacet
  facet normal -0 0 1
    outer loop
      vertex 26.0549 -1.33962 5.5
      vertex 27.375 -3.24759 5.5
      vertex 26.5253 -1.0253 5.5
    endloop
  endfacet
  facet normal 0 0 1
    outer loop
      vertex 25.5 -3.75 5.5
      vertex 26.0549 -1.33962 5.5
      vertex 25.5 -1.45 5.5
    endloop
  endfacet
  facet normal 0 0 1
    outer loop
      vertex 26.0549 -1.33962 5.5
      vertex 25.5 -3.75 5.5
      vertex 27.375 -3.24759 5.5
    endloop
  endfacet
  facet normal 0 0 1
    outer loop
      vertex 24.85 -3.57583 5.5
      vertex 25.5 -1.45 5.5
      vertex 24.9451 -1.33962 5.5
    endloop
  endfacet
  facet normal 0 0 1
    outer loop
      vertex 25.5 -1.45 5.5
      vertex 24.85 -3.57583 5.5
      vertex 25.5 -3.75 5.5
    endloop
  endfacet
  facet normal 0 0 1
    outer loop
      vertex 24.4747 -1.0253 5.5
      vertex 24.85 -3.57583 5.5
      vertex 24.9451 -1.33962 5.5
    endloop
  endfacet
  facet normal 0 0 1
    outer loop
      vertex 24.1604 -0.554891 5.5
      vertex 24.85 -3.57583 5.5
      vertex 24.4747 -1.0253 5.5
    endloop
  endfacet
  facet normal 0 0 1
    outer loop
      vertex 24.85 -3.57583 5.5
      vertex 24.1604 -0.554891 5.5
      vertex 23.85 -11.4 5.5
    endloop
  endfacet
  facet normal 0 0 1
    outer loop
      vertex 23.85 -11.4 5.5
      vertex 24.1604 -0.554891 5.5
      vertex 24.05 0 5.5
    endloop
  endfacet
  facet normal 0 0 1
    outer loop
      vertex 23.85 -11.4 5.5
      vertex 24.05 0 5.5
      vertex 23.85 11.4 5.5
    endloop
  endfacet
  facet normal 0 0 1
    outer loop
      vertex 24.85 -3.57583 5.5
      vertex 23.85 -11.4 5.5
      vertex 24.85 -12.4 5.5
    endloop
  endfacet
  facet normal -0 0 1
    outer loop
      vertex -23.85 -11.4 5.5
      vertex 24.85 -12.4 5.5
      vertex 23.85 -11.4 5.5
    endloop
  endfacet
  facet normal -0 0 1
    outer loop
      vertex -24.1604 -0.554891 5.5
      vertex -23.85 -11.4 5.5
      vertex -24.05 0 5.5
    endloop
  endfacet
  facet normal 0 0 1
    outer loop
      vertex -24.85 -3.57583 5.5
      vertex -24.1604 -0.554891 5.5
      vertex -24.4747 -1.0253 5.5
    endloop
  endfacet
  facet normal 0 0 1
    outer loop
      vertex -24.1604 -0.554891 5.5
      vertex -24.85 -3.57583 5.5
      vertex -23.85 -11.4 5.5
    endloop
  endfacet
  facet normal 0 0 1
    outer loop
      vertex -23.85 -11.4 5.5
      vertex -24.85 -12.4 5.5
      vertex 24.85 -12.4 5.5
    endloop
  endfacet
  facet normal 0 0 1
    outer loop
      vertex -24.85 -12.4 5.5
      vertex -23.85 -11.4 5.5
      vertex -24.85 -3.57583 5.5
    endloop
  endfacet
  facet normal 0.965926 0.258819 0
    outer loop
      vertex 29.25 0 5.5
      vertex 28.7476 1.875 4.5
      vertex 28.7476 1.875 5.5
    endloop
  endfacet
  facet normal 0.965926 0.258819 0
    outer loop
      vertex 28.7476 1.875 4.5
      vertex 29.25 0 5.5
      vertex 29.25 0 4.5
    endloop
  endfacet
  facet normal 0.258819 -0.965926 0
    outer loop
      vertex 25.5 -3.75 4.5
      vertex 27.375 -3.24759 5.5
      vertex 25.5 -3.75 5.5
    endloop
  endfacet
  facet normal 0.258819 -0.965926 0
    outer loop
      vertex 27.375 -3.24759 5.5
      vertex 25.5 -3.75 4.5
      vertex 27.375 -3.24759 4.5
    endloop
  endfacet
  facet normal -0.258819 0.965926 0
    outer loop
      vertex 25.5 3.75 4.5
      vertex 24.85 3.57583 5.5
      vertex 25.5 3.75 5.5
    endloop
  endfacet
  facet normal -0.258819 0.965926 0
    outer loop
      vertex 24.85 3.57583 5.5
      vertex 25.5 3.75 4.5
      vertex 24.85 3.57583 4.5
    endloop
  endfacet
  facet normal 0.258819 0.965926 -0
    outer loop
      vertex 27.375 3.24759 4.5
      vertex 25.5 3.75 5.5
      vertex 27.375 3.24759 5.5
    endloop
  endfacet
  facet normal 0.258819 0.965926 0
    outer loop
      vertex 25.5 3.75 5.5
      vertex 27.375 3.24759 4.5
      vertex 25.5 3.75 4.5
    endloop
  endfacet
  facet normal 0.707107 0.707107 0
    outer loop
      vertex 28.7476 1.875 5.5
      vertex 27.375 3.24759 4.5
      vertex 27.375 3.24759 5.5
    endloop
  endfacet
  facet normal 0.707107 0.707107 0
    outer loop
      vertex 27.375 3.24759 4.5
      vertex 28.7476 1.875 5.5
      vertex 28.7476 1.875 4.5
    endloop
  endfacet
  facet normal 0.707107 -0.707107 0
    outer loop
      vertex 27.375 -3.24759 5.5
      vertex 28.7476 -1.875 4.5
      vertex 28.7476 -1.875 5.5
    endloop
  endfacet
  facet normal 0.707107 -0.707107 0
    outer loop
      vertex 28.7476 -1.875 4.5
      vertex 27.375 -3.24759 5.5
      vertex 27.375 -3.24759 4.5
    endloop
  endfacet
  facet normal -0.258819 -0.965926 0
    outer loop
      vertex 24.85 -3.57583 4.5
      vertex 25.5 -3.75 5.5
      vertex 24.85 -3.57583 5.5
    endloop
  endfacet
  facet normal -0.258819 -0.965926 -0
    outer loop
      vertex 25.5 -3.75 5.5
      vertex 24.85 -3.57583 4.5
      vertex 25.5 -3.75 4.5
    endloop
  endfacet
  facet normal 0.965926 -0.258819 0
    outer loop
      vertex 28.7476 -1.875 5.5
      vertex 29.25 0 4.5
      vertex 29.25 0 5.5
    endloop
  endfacet
  facet normal 0.965926 -0.258819 0
    outer loop
      vertex 29.25 0 4.5
      vertex 28.7476 -1.875 5.5
      vertex 28.7476 -1.875 4.5
    endloop
  endfacet
  facet normal -0.965926 0.258819 0
    outer loop
      vertex -29.25 0 4.5
      vertex -28.7476 1.875 5.5
      vertex -28.7476 1.875 4.5
    endloop
  endfacet
  facet normal -0.965926 0.258819 0
    outer loop
      vertex -28.7476 1.875 5.5
      vertex -29.25 0 4.5
      vertex -29.25 0 5.5
    endloop
  endfacet
  facet normal 0.258819 0.965926 -0
    outer loop
      vertex -24.85 3.57583 4.5
      vertex -25.5 3.75 5.5
      vertex -24.85 3.57583 5.5
    endloop
  endfacet
  facet normal 0.258819 0.965926 0
    outer loop
      vertex -25.5 3.75 5.5
      vertex -24.85 3.57583 4.5
      vertex -25.5 3.75 4.5
    endloop
  endfacet
  facet normal -0.258819 0.965926 0
    outer loop
      vertex -25.5 3.75 4.5
      vertex -27.375 3.24759 5.5
      vertex -25.5 3.75 5.5
    endloop
  endfacet
  facet normal -0.258819 0.965926 0
    outer loop
      vertex -27.375 3.24759 5.5
      vertex -25.5 3.75 4.5
      vertex -27.375 3.24759 4.5
    endloop
  endfacet
  facet normal -0.707107 0.707107 0
    outer loop
      vertex -28.7476 1.875 4.5
      vertex -27.375 3.24759 5.5
      vertex -27.375 3.24759 4.5
    endloop
  endfacet
  facet normal -0.707107 0.707107 0
    outer loop
      vertex -27.375 3.24759 5.5
      vertex -28.7476 1.875 4.5
      vertex -28.7476 1.875 5.5
    endloop
  endfacet
  facet normal 0.258819 -0.965926 0
    outer loop
      vertex -25.5 -3.75 4.5
      vertex -24.85 -3.57583 5.5
      vertex -25.5 -3.75 5.5
    endloop
  endfacet
  facet normal 0.258819 -0.965926 0
    outer loop
      vertex -24.85 -3.57583 5.5
      vertex -25.5 -3.75 4.5
      vertex -24.85 -3.57583 4.5
    endloop
  endfacet
  facet normal -0.258819 -0.965926 0
    outer loop
      vertex -27.375 -3.24759 4.5
      vertex -25.5 -3.75 5.5
      vertex -27.375 -3.24759 5.5
    endloop
  endfacet
  facet normal -0.258819 -0.965926 -0
    outer loop
      vertex -25.5 -3.75 5.5
      vertex -27.375 -3.24759 4.5
      vertex -25.5 -3.75 4.5
    endloop
  endfacet
  facet normal -0.965926 -0.258819 0
    outer loop
      vertex -28.7476 -1.875 4.5
      vertex -29.25 0 5.5
      vertex -29.25 0 4.5
    endloop
  endfacet
  facet normal -0.965926 -0.258819 0
    outer loop
      vertex -29.25 0 5.5
      vertex -28.7476 -1.875 4.5
      vertex -28.7476 -1.875 5.5
    endloop
  endfacet
  facet normal -0.707107 -0.707107 0
    outer loop
      vertex -27.375 -3.24759 4.5
      vertex -28.7476 -1.875 5.5
      vertex -28.7476 -1.875 4.5
    endloop
  endfacet
  facet normal -0.707107 -0.707107 0
    outer loop
      vertex -28.7476 -1.875 5.5
      vertex -27.375 -3.24759 4.5
      vertex -27.375 -3.24759 5.5
    endloop
  endfacet
  facet normal 1 -0 0
    outer loop
      vertex -23.85 -11.4 5.5
      vertex -23.85 11.4 4.5
      vertex -23.85 11.4 5.5
    endloop
  endfacet
  facet normal 1 0 0
    outer loop
      vertex -23.85 11.4 4.5
      vertex -23.85 -11.4 5.5
      vertex -23.85 -11.4 4.5
    endloop
  endfacet
  facet normal -1 0 0
    outer loop
      vertex 23.85 -11.4 4.5
      vertex 23.85 11.4 5.5
      vertex 23.85 11.4 4.5
    endloop
  endfacet
  facet normal -1 -0 0
    outer loop
      vertex 23.85 11.4 5.5
      vertex 23.85 -11.4 4.5
      vertex 23.85 -11.4 5.5
    endloop
  endfacet
  facet normal 0 1 -0
    outer loop
      vertex 23.85 -11.4 4.5
      vertex -23.85 -11.4 5.5
      vertex 23.85 -11.4 5.5
    endloop
  endfacet
  facet normal 0 1 0
    outer loop
      vertex -23.85 -11.4 5.5
      vertex 23.85 -11.4 4.5
      vertex -23.85 -11.4 4.5
    endloop
  endfacet
  facet normal 0 -1 0
    outer loop
      vertex -23.85 11.4 4.5
      vertex 23.85 11.4 5.5
      vertex -23.85 11.4 5.5
    endloop
  endfacet
  facet normal 0 -1 -0
    outer loop
      vertex 23.85 11.4 5.5
      vertex -23.85 11.4 4.5
      vertex 23.85 11.4 4.5
    endloop
  endfacet
  facet normal -1 0 0
    outer loop
      vertex -2 -4 -2.5
      vertex -2 4 0.799999
      vertex -2 4 -2.5
    endloop
  endfacet
  facet normal -1 -0 0
    outer loop
      vertex -2 4 0.799999
      vertex -2 -4 -2.5
      vertex -2 -4 0.799999
    endloop
  endfacet
  facet normal -0 0 1
    outer loop
      vertex -2 4 0.799999
      vertex 2 -4 0.799999
      vertex 2 4 0.799999
    endloop
  endfacet
  facet normal 0 0 1
    outer loop
      vertex 2 -4 0.799999
      vertex -2 4 0.799999
      vertex -2 -4 0.799999
    endloop
  endfacet
  facet normal 1 -0 0
    outer loop
      vertex 2 -4 0.799999
      vertex 2 4 -2.5
      vertex 2 4 0.799999
    endloop
  endfacet
  facet normal 1 0 0
    outer loop
      vertex 2 4 -2.5
      vertex 2 -4 0.799999
      vertex 2 -4 -2.5
    endloop
  endfacet
  facet normal 0 1 -0
    outer loop
      vertex 2 4 -2.5
      vertex -2 4 0.799999
      vertex 2 4 0.799999
    endloop
  endfacet
  facet normal 0 1 0
    outer loop
      vertex -2 4 0.799999
      vertex 2 4 -2.5
      vertex -2 4 -2.5
    endloop
  endfacet
  facet normal 0 -1 0
    outer loop
      vertex -2 -4 -2.5
      vertex 2 -4 0.799999
      vertex -2 -4 0.799999
    endloop
  endfacet
  facet normal 0 -1 -0
    outer loop
      vertex 2 -4 0.799999
      vertex -2 -4 -2.5
      vertex 2 -4 -2.5
    endloop
  endfacet
  facet normal -0.980785 -0.195093 0
    outer loop
      vertex 26.95 0 -1.5
      vertex 26.8396 0.554891 5.5
      vertex 26.8396 0.554891 -1.5
    endloop
  endfacet
  facet normal -0.980785 -0.195093 0
    outer loop
      vertex 26.8396 0.554891 5.5
      vertex 26.95 0 -1.5
      vertex 26.95 0 5.5
    endloop
  endfacet
  facet normal 0.980785 -0.19509 0
    outer loop
      vertex 24.05 0 5.5
      vertex 24.1604 0.554891 -1.5
      vertex 24.1604 0.554891 5.5
    endloop
  endfacet
  facet normal 0.980785 -0.19509 0
    outer loop
      vertex 24.1604 0.554891 -1.5
      vertex 24.05 0 5.5
      vertex 24.05 0 -1.5
    endloop
  endfacet
  facet normal -0.195092 -0.980785 0
    outer loop
      vertex 25.5 1.45 -1.5
      vertex 26.0549 1.33962 5.5
      vertex 25.5 1.45 5.5
    endloop
  endfacet
  facet normal -0.195092 -0.980785 -0
    outer loop
      vertex 26.0549 1.33962 5.5
      vertex 25.5 1.45 -1.5
      vertex 26.0549 1.33962 -1.5
    endloop
  endfacet
  facet normal -0.83147 -0.555569 0
    outer loop
      vertex 26.8396 0.554891 -1.5
      vertex 26.5253 1.0253 5.5
      vertex 26.5253 1.0253 -1.5
    endloop
  endfacet
  facet normal -0.83147 -0.555569 0
    outer loop
      vertex 26.5253 1.0253 5.5
      vertex 26.8396 0.554891 -1.5
      vertex 26.8396 0.554891 5.5
    endloop
  endfacet
  facet normal -0.195092 0.980785 0
    outer loop
      vertex 26.0549 -1.33962 -1.5
      vertex 25.5 -1.45 5.5
      vertex 26.0549 -1.33962 5.5
    endloop
  endfacet
  facet normal -0.195092 0.980785 0
    outer loop
      vertex 25.5 -1.45 5.5
      vertex 26.0549 -1.33962 -1.5
      vertex 25.5 -1.45 -1.5
    endloop
  endfacet
  facet normal 0 0 1
    outer loop
      vertex 26.8396 0.554891 -1.5
      vertex 26.8396 -0.554891 -1.5
      vertex 26.95 0 -1.5
    endloop
  endfacet
  facet normal 0 0 1
    outer loop
      vertex 26.5253 1.0253 -1.5
      vertex 26.8396 -0.554891 -1.5
      vertex 26.8396 0.554891 -1.5
    endloop
  endfacet
  facet normal 0 0 1
    outer loop
      vertex 26.5253 1.0253 -1.5
      vertex 26.5253 -1.0253 -1.5
      vertex 26.8396 -0.554891 -1.5
    endloop
  endfacet
  facet normal 0 0 1
    outer loop
      vertex 26.0549 1.33962 -1.5
      vertex 26.5253 -1.0253 -1.5
      vertex 26.5253 1.0253 -1.5
    endloop
  endfacet
  facet normal 0 0 1
    outer loop
      vertex 26.0549 1.33962 -1.5
      vertex 26.0549 -1.33962 -1.5
      vertex 26.5253 -1.0253 -1.5
    endloop
  endfacet
  facet normal 0 0 1
    outer loop
      vertex 25.5 1.45 -1.5
      vertex 26.0549 -1.33962 -1.5
      vertex 26.0549 1.33962 -1.5
    endloop
  endfacet
  facet normal 0 0 1
    outer loop
      vertex 25.5 1.45 -1.5
      vertex 25.5 -1.45 -1.5
      vertex 26.0549 -1.33962 -1.5
    endloop
  endfacet
  facet normal -0 0 1
    outer loop
      vertex 24.9451 1.33962 -1.5
      vertex 25.5 -1.45 -1.5
      vertex 25.5 1.45 -1.5
    endloop
  endfacet
  facet normal 0 0 1
    outer loop
      vertex 24.9451 1.33962 -1.5
      vertex 24.9451 -1.33962 -1.5
      vertex 25.5 -1.45 -1.5
    endloop
  endfacet
  facet normal -0 0 1
    outer loop
      vertex 24.4747 1.0253 -1.5
      vertex 24.9451 -1.33962 -1.5
      vertex 24.9451 1.33962 -1.5
    endloop
  endfacet
  facet normal 0 0 1
    outer loop
      vertex 24.4747 1.0253 -1.5
      vertex 24.4747 -1.0253 -1.5
      vertex 24.9451 -1.33962 -1.5
    endloop
  endfacet
  facet normal -0 0 1
    outer loop
      vertex 24.1604 0.554891 -1.5
      vertex 24.4747 -1.0253 -1.5
      vertex 24.4747 1.0253 -1.5
    endloop
  endfacet
  facet normal 0 0 1
    outer loop
      vertex 24.1604 0.554891 -1.5
      vertex 24.1604 -0.554891 -1.5
      vertex 24.4747 -1.0253 -1.5
    endloop
  endfacet
  facet normal 0 -0 1
    outer loop
      vertex 24.1604 -0.554891 -1.5
      vertex 24.1604 0.554891 -1.5
      vertex 24.05 0 -1.5
    endloop
  endfacet
  facet normal -0.555568 -0.831471 0
    outer loop
      vertex 26.0549 1.33962 -1.5
      vertex 26.5253 1.0253 5.5
      vertex 26.0549 1.33962 5.5
    endloop
  endfacet
  facet normal -0.555568 -0.831471 -0
    outer loop
      vertex 26.5253 1.0253 5.5
      vertex 26.0549 1.33962 -1.5
      vertex 26.5253 1.0253 -1.5
    endloop
  endfacet
  facet normal 0.555568 -0.831471 0
    outer loop
      vertex 24.4747 1.0253 -1.5
      vertex 24.9451 1.33962 5.5
      vertex 24.4747 1.0253 5.5
    endloop
  endfacet
  facet normal 0.555568 -0.831471 0
    outer loop
      vertex 24.9451 1.33962 5.5
      vertex 24.4747 1.0253 -1.5
      vertex 24.9451 1.33962 -1.5
    endloop
  endfacet
  facet normal 0.83147 -0.555569 0
    outer loop
      vertex 24.1604 0.554891 5.5
      vertex 24.4747 1.0253 -1.5
      vertex 24.4747 1.0253 5.5
    endloop
  endfacet
  facet normal 0.83147 -0.555569 0
    outer loop
      vertex 24.4747 1.0253 -1.5
      vertex 24.1604 0.554891 5.5
      vertex 24.1604 0.554891 -1.5
    endloop
  endfacet
  facet normal 0.195091 -0.980785 0
    outer loop
      vertex 24.9451 1.33962 -1.5
      vertex 25.5 1.45 5.5
      vertex 24.9451 1.33962 5.5
    endloop
  endfacet
  facet normal 0.195091 -0.980785 0
    outer loop
      vertex 25.5 1.45 5.5
      vertex 24.9451 1.33962 -1.5
      vertex 25.5 1.45 -1.5
    endloop
  endfacet
  facet normal 0.555568 0.831471 -0
    outer loop
      vertex 24.9451 -1.33962 -1.5
      vertex 24.4747 -1.0253 5.5
      vertex 24.9451 -1.33962 5.5
    endloop
  endfacet
  facet normal 0.555568 0.831471 0
    outer loop
      vertex 24.4747 -1.0253 5.5
      vertex 24.9451 -1.33962 -1.5
      vertex 24.4747 -1.0253 -1.5
    endloop
  endfacet
  facet normal 0.980785 0.19509 0
    outer loop
      vertex 24.1604 -0.554891 5.5
      vertex 24.05 0 -1.5
      vertex 24.05 0 5.5
    endloop
  endfacet
  facet normal 0.980785 0.19509 0
    outer loop
      vertex 24.05 0 -1.5
      vertex 24.1604 -0.554891 5.5
      vertex 24.1604 -0.554891 -1.5
    endloop
  endfacet
  facet normal -0.555568 0.831471 0
    outer loop
      vertex 26.5253 -1.0253 -1.5
      vertex 26.0549 -1.33962 5.5
      vertex 26.5253 -1.0253 5.5
    endloop
  endfacet
  facet normal -0.555568 0.831471 0
    outer loop
      vertex 26.0549 -1.33962 5.5
      vertex 26.5253 -1.0253 -1.5
      vertex 26.0549 -1.33962 -1.5
    endloop
  endfacet
  facet normal -0.83147 0.555569 0
    outer loop
      vertex 26.5253 -1.0253 -1.5
      vertex 26.8396 -0.554891 5.5
      vertex 26.8396 -0.554891 -1.5
    endloop
  endfacet
  facet normal -0.83147 0.555569 0
    outer loop
      vertex 26.8396 -0.554891 5.5
      vertex 26.5253 -1.0253 -1.5
      vertex 26.5253 -1.0253 5.5
    endloop
  endfacet
  facet normal 0.195091 0.980785 -0
    outer loop
      vertex 25.5 -1.45 -1.5
      vertex 24.9451 -1.33962 5.5
      vertex 25.5 -1.45 5.5
    endloop
  endfacet
  facet normal 0.195091 0.980785 0
    outer loop
      vertex 24.9451 -1.33962 5.5
      vertex 25.5 -1.45 -1.5
      vertex 24.9451 -1.33962 -1.5
    endloop
  endfacet
  facet normal 0.83147 0.555569 0
    outer loop
      vertex 24.4747 -1.0253 5.5
      vertex 24.1604 -0.554891 -1.5
      vertex 24.1604 -0.554891 5.5
    endloop
  endfacet
  facet normal 0.83147 0.555569 0
    outer loop
      vertex 24.1604 -0.554891 -1.5
      vertex 24.4747 -1.0253 5.5
      vertex 24.4747 -1.0253 -1.5
    endloop
  endfacet
  facet normal -0.980785 0.195093 0
    outer loop
      vertex 26.8396 -0.554891 -1.5
      vertex 26.95 0 5.5
      vertex 26.95 0 -1.5
    endloop
  endfacet
  facet normal -0.980785 0.195093 0
    outer loop
      vertex 26.95 0 5.5
      vertex 26.8396 -0.554891 -1.5
      vertex 26.8396 -0.554891 5.5
    endloop
  endfacet
  facet normal -0.980785 -0.19509 0
    outer loop
      vertex -24.05 0 -1.5
      vertex -24.1604 0.554891 5.5
      vertex -24.1604 0.554891 -1.5
    endloop
  endfacet
  facet normal -0.980785 -0.19509 0
    outer loop
      vertex -24.1604 0.554891 5.5
      vertex -24.05 0 -1.5
      vertex -24.05 0 5.5
    endloop
  endfacet
  facet normal 0.980785 -0.195093 0
    outer loop
      vertex -26.95 0 5.5
      vertex -26.8396 0.554891 -1.5
      vertex -26.8396 0.554891 5.5
    endloop
  endfacet
  facet normal 0.980785 -0.195093 0
    outer loop
      vertex -26.8396 0.554891 -1.5
      vertex -26.95 0 5.5
      vertex -26.95 0 -1.5
    endloop
  endfacet
  facet normal -0.195091 -0.980785 0
    outer loop
      vertex -25.5 1.45 -1.5
      vertex -24.9451 1.33962 5.5
      vertex -25.5 1.45 5.5
    endloop
  endfacet
  facet normal -0.195091 -0.980785 -0
    outer loop
      vertex -24.9451 1.33962 5.5
      vertex -25.5 1.45 -1.5
      vertex -24.9451 1.33962 -1.5
    endloop
  endfacet
  facet normal -0.83147 -0.555569 0
    outer loop
      vertex -24.1604 0.554891 -1.5
      vertex -24.4747 1.0253 5.5
      vertex -24.4747 1.0253 -1.5
    endloop
  endfacet
  facet normal -0.83147 -0.555569 0
    outer loop
      vertex -24.4747 1.0253 5.5
      vertex -24.1604 0.554891 -1.5
      vertex -24.1604 0.554891 5.5
    endloop
  endfacet
  facet normal -0.195091 0.980785 0
    outer loop
      vertex -24.9451 -1.33962 -1.5
      vertex -25.5 -1.45 5.5
      vertex -24.9451 -1.33962 5.5
    endloop
  endfacet
  facet normal -0.195091 0.980785 0
    outer loop
      vertex -25.5 -1.45 5.5
      vertex -24.9451 -1.33962 -1.5
      vertex -25.5 -1.45 -1.5
    endloop
  endfacet
  facet normal 0 0 1
    outer loop
      vertex -24.1604 0.554891 -1.5
      vertex -24.1604 -0.554891 -1.5
      vertex -24.05 0 -1.5
    endloop
  endfacet
  facet normal 0 0 1
    outer loop
      vertex -24.4747 1.0253 -1.5
      vertex -24.1604 -0.554891 -1.5
      vertex -24.1604 0.554891 -1.5
    endloop
  endfacet
  facet normal 0 0 1
    outer loop
      vertex -24.4747 1.0253 -1.5
      vertex -24.4747 -1.0253 -1.5
      vertex -24.1604 -0.554891 -1.5
    endloop
  endfacet
  facet normal 0 0 1
    outer loop
      vertex -24.9451 1.33962 -1.5
      vertex -24.4747 -1.0253 -1.5
      vertex -24.4747 1.0253 -1.5
    endloop
  endfacet
  facet normal 0 0 1
    outer loop
      vertex -24.9451 1.33962 -1.5
      vertex -24.9451 -1.33962 -1.5
      vertex -24.4747 -1.0253 -1.5
    endloop
  endfacet
  facet normal 0 0 1
    outer loop
      vertex -25.5 1.45 -1.5
      vertex -24.9451 -1.33962 -1.5
      vertex -24.9451 1.33962 -1.5
    endloop
  endfacet
  facet normal 0 0 1
    outer loop
      vertex -25.5 1.45 -1.5
      vertex -25.5 -1.45 -1.5
      vertex -24.9451 -1.33962 -1.5
    endloop
  endfacet
  facet normal -0 0 1
    outer loop
      vertex -26.0549 1.33962 -1.5
      vertex -25.5 -1.45 -1.5
      vertex -25.5 1.45 -1.5
    endloop
  endfacet
  facet normal 0 0 1
    outer loop
      vertex -26.0549 1.33962 -1.5
      vertex -26.0549 -1.33962 -1.5
      vertex -25.5 -1.45 -1.5
    endloop
  endfacet
  facet normal -0 0 1
    outer loop
      vertex -26.5253 1.0253 -1.5
      vertex -26.0549 -1.33962 -1.5
      vertex -26.0549 1.33962 -1.5
    endloop
  endfacet
  facet normal 0 0 1
    outer loop
      vertex -26.5253 1.0253 -1.5
      vertex -26.5253 -1.0253 -1.5
      vertex -26.0549 -1.33962 -1.5
    endloop
  endfacet
  facet normal -0 0 1
    outer loop
      vertex -26.8396 0.554891 -1.5
      vertex -26.5253 -1.0253 -1.5
      vertex -26.5253 1.0253 -1.5
    endloop
  endfacet
  facet normal 0 0 1
    outer loop
      vertex -26.8396 0.554891 -1.5
      vertex -26.8396 -0.554891 -1.5
      vertex -26.5253 -1.0253 -1.5
    endloop
  endfacet
  facet normal 0 -0 1
    outer loop
      vertex -26.8396 -0.554891 -1.5
      vertex -26.8396 0.554891 -1.5
      vertex -26.95 0 -1.5
    endloop
  endfacet
  facet normal -0.555568 -0.831471 0
    outer loop
      vertex -24.9451 1.33962 -1.5
      vertex -24.4747 1.0253 5.5
      vertex -24.9451 1.33962 5.5
    endloop
  endfacet
  facet normal -0.555568 -0.831471 -0
    outer loop
      vertex -24.4747 1.0253 5.5
      vertex -24.9451 1.33962 -1.5
      vertex -24.4747 1.0253 -1.5
    endloop
  endfacet
  facet normal 0.555568 -0.831471 0
    outer loop
      vertex -26.5253 1.0253 -1.5
      vertex -26.0549 1.33962 5.5
      vertex -26.5253 1.0253 5.5
    endloop
  endfacet
  facet normal 0.555568 -0.831471 0
    outer loop
      vertex -26.0549 1.33962 5.5
      vertex -26.5253 1.0253 -1.5
      vertex -26.0549 1.33962 -1.5
    endloop
  endfacet
  facet normal 0.83147 -0.555569 0
    outer loop
      vertex -26.8396 0.554891 5.5
      vertex -26.5253 1.0253 -1.5
      vertex -26.5253 1.0253 5.5
    endloop
  endfacet
  facet normal 0.83147 -0.555569 0
    outer loop
      vertex -26.5253 1.0253 -1.5
      vertex -26.8396 0.554891 5.5
      vertex -26.8396 0.554891 -1.5
    endloop
  endfacet
  facet normal 0.195092 -0.980785 0
    outer loop
      vertex -26.0549 1.33962 -1.5
      vertex -25.5 1.45 5.5
      vertex -26.0549 1.33962 5.5
    endloop
  endfacet
  facet normal 0.195092 -0.980785 0
    outer loop
      vertex -25.5 1.45 5.5
      vertex -26.0549 1.33962 -1.5
      vertex -25.5 1.45 -1.5
    endloop
  endfacet
  facet normal 0.555568 0.831471 -0
    outer loop
      vertex -26.0549 -1.33962 -1.5
      vertex -26.5253 -1.0253 5.5
      vertex -26.0549 -1.33962 5.5
    endloop
  endfacet
  facet normal 0.555568 0.831471 0
    outer loop
      vertex -26.5253 -1.0253 5.5
      vertex -26.0549 -1.33962 -1.5
      vertex -26.5253 -1.0253 -1.5
    endloop
  endfacet
  facet normal 0.980785 0.195093 0
    outer loop
      vertex -26.8396 -0.554891 5.5
      vertex -26.95 0 -1.5
      vertex -26.95 0 5.5
    endloop
  endfacet
  facet normal 0.980785 0.195093 0
    outer loop
      vertex -26.95 0 -1.5
      vertex -26.8396 -0.554891 5.5
      vertex -26.8396 -0.554891 -1.5
    endloop
  endfacet
  facet normal -0.555568 0.831471 0
    outer loop
      vertex -24.4747 -1.0253 -1.5
      vertex -24.9451 -1.33962 5.5
      vertex -24.4747 -1.0253 5.5
    endloop
  endfacet
  facet normal -0.555568 0.831471 0
    outer loop
      vertex -24.9451 -1.33962 5.5
      vertex -24.4747 -1.0253 -1.5
      vertex -24.9451 -1.33962 -1.5
    endloop
  endfacet
  facet normal -0.83147 0.555569 0
    outer loop
      vertex -24.4747 -1.0253 -1.5
      vertex -24.1604 -0.554891 5.5
      vertex -24.1604 -0.554891 -1.5
    endloop
  endfacet
  facet normal -0.83147 0.555569 0
    outer loop
      vertex -24.1604 -0.554891 5.5
      vertex -24.4747 -1.0253 -1.5
      vertex -24.4747 -1.0253 5.5
    endloop
  endfacet
  facet normal 0.195092 0.980785 -0
    outer loop
      vertex -25.5 -1.45 -1.5
      vertex -26.0549 -1.33962 5.5
      vertex -25.5 -1.45 5.5
    endloop
  endfacet
  facet normal 0.195092 0.980785 0
    outer loop
      vertex -26.0549 -1.33962 5.5
      vertex -25.5 -1.45 -1.5
      vertex -26.0549 -1.33962 -1.5
    endloop
  endfacet
  facet normal 0.83147 0.555569 0
    outer loop
      vertex -26.5253 -1.0253 5.5
      vertex -26.8396 -0.554891 -1.5
      vertex -26.8396 -0.554891 5.5
    endloop
  endfacet
  facet normal 0.83147 0.555569 0
    outer loop
      vertex -26.8396 -0.554891 -1.5
      vertex -26.5253 -1.0253 5.5
      vertex -26.5253 -1.0253 -1.5
    endloop
  endfacet
  facet normal -0.980785 0.19509 0
    outer loop
      vertex -24.1604 -0.554891 -1.5
      vertex -24.05 0 5.5
      vertex -24.05 0 -1.5
    endloop
  endfacet
  facet normal -0.980785 0.19509 0
    outer loop
      vertex -24.05 0 5.5
      vertex -24.1604 -0.554891 -1.5
      vertex -24.1604 -0.554891 5.5
    endloop
  endfacet
endsolid OpenSCAD_Model
