solid OpenSCAD_Model
  facet normal -1 0 0
    outer loop
      vertex -24.85 -12.4 -1
      vertex -24.85 -3.57583 1
      vertex -24.85 -3.57583 -1
    endloop
  endfacet
  facet normal -1 -0 0
    outer loop
      vertex -24.85 -3.57583 1
      vertex -24.85 -12.4 -1
      vertex -24.85 -12.4 1
    endloop
  endfacet
  facet normal -1 0 0
    outer loop
      vertex -24.85 3.57583 -1
      vertex -24.85 12.4 1
      vertex -24.85 12.4 -1
    endloop
  endfacet
  facet normal -1 -0 0
    outer loop
      vertex -24.85 12.4 1
      vertex -24.85 3.57583 -1
      vertex -24.85 3.57583 1
    endloop
  endfacet
  facet normal -0 0 1
    outer loop
      vertex -24.9451 -1.33962 1
      vertex -24.85 -3.57583 1
      vertex -24.4747 -1.0253 1
    endloop
  endfacet
  facet normal -0 0 1
    outer loop
      vertex -25.5 -1.45 1
      vertex -24.85 -3.57583 1
      vertex -24.9451 -1.33962 1
    endloop
  endfacet
  facet normal 0 0 1
    outer loop
      vertex -25.5 -1.45 1
      vertex -25.5 -3.75 1
      vertex -24.85 -3.57583 1
    endloop
  endfacet
  facet normal 0 0 1
    outer loop
      vertex -26.0549 -1.33962 1
      vertex -25.5 -3.75 1
      vertex -25.5 -1.45 1
    endloop
  endfacet
  facet normal 0 0 1
    outer loop
      vertex -27.375 -3.24759 1
      vertex -26.0549 -1.33962 1
      vertex -26.5253 -1.0253 1
    endloop
  endfacet
  facet normal 0 0 1
    outer loop
      vertex -28.7476 -1.875 1
      vertex -26.5253 -1.0253 1
      vertex -26.8396 -0.554891 1
    endloop
  endfacet
  facet normal 0 0 1
    outer loop
      vertex -26.0549 -1.33962 1
      vertex -27.375 -3.24759 1
      vertex -25.5 -3.75 1
    endloop
  endfacet
  facet normal -0 0 1
    outer loop
      vertex -29.25 0 1
      vertex -26.8396 -0.554891 1
      vertex -26.95 0 1
    endloop
  endfacet
  facet normal 0 0 1
    outer loop
      vertex -29.25 0 1
      vertex -26.8396 0.554891 1
      vertex -28.7476 1.875 1
    endloop
  endfacet
  facet normal 0 0 1
    outer loop
      vertex -26.8396 0.554891 1
      vertex -29.25 0 1
      vertex -26.95 0 1
    endloop
  endfacet
  facet normal 0 0 1
    outer loop
      vertex -26.5253 -1.0253 1
      vertex -28.7476 -1.875 1
      vertex -27.375 -3.24759 1
    endloop
  endfacet
  facet normal 0 0 1
    outer loop
      vertex -26.8396 -0.554891 1
      vertex -29.25 0 1
      vertex -28.7476 -1.875 1
    endloop
  endfacet
  facet normal 0 0 1
    outer loop
      vertex -5.5 12.4 1
      vertex -23.85 11.4 1
      vertex -5.5 11.4 1
    endloop
  endfacet
  facet normal 0 0 1
    outer loop
      vertex -23.85 11.4 1
      vertex -24.05 0 1
      vertex -23.85 -11.4 1
    endloop
  endfacet
  facet normal 0 0 1
    outer loop
      vertex -23.85 11.4 1
      vertex -24.1604 0.554891 1
      vertex -24.05 0 1
    endloop
  endfacet
  facet normal -0 0 1
    outer loop
      vertex -24.85 3.57583 1
      vertex -24.1604 0.554891 1
      vertex -23.85 11.4 1
    endloop
  endfacet
  facet normal -0 0 1
    outer loop
      vertex -24.85 12.4 1
      vertex -23.85 11.4 1
      vertex -5.5 12.4 1
    endloop
  endfacet
  facet normal 0 0 1
    outer loop
      vertex -24.85 3.57583 1
      vertex -23.85 11.4 1
      vertex -24.85 12.4 1
    endloop
  endfacet
  facet normal 0 0 1
    outer loop
      vertex -24.1604 0.554891 1
      vertex -24.85 3.57583 1
      vertex -24.4747 1.0253 1
    endloop
  endfacet
  facet normal 0 0 1
    outer loop
      vertex -24.85 3.57583 1
      vertex -24.9451 1.33962 1
      vertex -24.4747 1.0253 1
    endloop
  endfacet
  facet normal 0 0 1
    outer loop
      vertex -25.5 1.45 1
      vertex -24.85 3.57583 1
      vertex -25.5 3.75 1
    endloop
  endfacet
  facet normal 0 0 1
    outer loop
      vertex -24.85 3.57583 1
      vertex -25.5 1.45 1
      vertex -24.9451 1.33962 1
    endloop
  endfacet
  facet normal 0 0 1
    outer loop
      vertex -25.5 3.75 1
      vertex -26.0549 1.33962 1
      vertex -25.5 1.45 1
    endloop
  endfacet
  facet normal -0 0 1
    outer loop
      vertex -27.375 3.24759 1
      vertex -26.0549 1.33962 1
      vertex -25.5 3.75 1
    endloop
  endfacet
  facet normal 0 0 1
    outer loop
      vertex -26.0549 1.33962 1
      vertex -27.375 3.24759 1
      vertex -26.5253 1.0253 1
    endloop
  endfacet
  facet normal 0 0 1
    outer loop
      vertex -26.5253 1.0253 1
      vertex -28.7476 1.875 1
      vertex -26.8396 0.554891 1
    endloop
  endfacet
  facet normal -0 0 1
    outer loop
      vertex -28.7476 1.875 1
      vertex -26.5253 1.0253 1
      vertex -27.375 3.24759 1
    endloop
  endfacet
  facet normal -0 0 1
    outer loop
      vertex 23.85 11.4 1
      vertex 24.85 3.57583 1
      vertex 24.85 12.4 1
    endloop
  endfacet
  facet normal 0 -0 1
    outer loop
      vertex 24.1604 0.554891 1
      vertex 24.85 3.57583 1
      vertex 23.85 11.4 1
    endloop
  endfacet
  facet normal 0 0 1
    outer loop
      vertex 24.85 3.57583 1
      vertex 24.1604 0.554891 1
      vertex 24.4747 1.0253 1
    endloop
  endfacet
  facet normal 0 0 1
    outer loop
      vertex 24.1604 0.554891 1
      vertex 23.85 11.4 1
      vertex 24.05 0 1
    endloop
  endfacet
  facet normal -0 0 1
    outer loop
      vertex 5.5 12.4 1
      vertex 23.85 11.4 1
      vertex 24.85 12.4 1
    endloop
  endfacet
  facet normal 0 0 1
    outer loop
      vertex 23.85 11.4 1
      vertex 5.5 12.4 1
      vertex 5.5 11.4 1
    endloop
  endfacet
  facet normal -0 0 1
    outer loop
      vertex 26.8396 0.554891 1
      vertex 29.25 0 1
      vertex 28.7476 1.875 1
    endloop
  endfacet
  facet normal 0 0 1
    outer loop
      vertex 26.5253 1.0253 1
      vertex 28.7476 1.875 1
      vertex 27.375 3.24759 1
    endloop
  endfacet
  facet normal 0 0 1
    outer loop
      vertex 29.25 0 1
      vertex 26.8396 0.554891 1
      vertex 26.95 0 1
    endloop
  endfacet
  facet normal 0 0 1
    outer loop
      vertex 29.25 0 1
      vertex 26.8396 -0.554891 1
      vertex 28.7476 -1.875 1
    endloop
  endfacet
  facet normal 0 0 1
    outer loop
      vertex 26.8396 -0.554891 1
      vertex 29.25 0 1
      vertex 26.95 0 1
    endloop
  endfacet
  facet normal 0 0 1
    outer loop
      vertex 28.7476 1.875 1
      vertex 26.5253 1.0253 1
      vertex 26.8396 0.554891 1
    endloop
  endfacet
  facet normal 0 0 1
    outer loop
      vertex 27.375 3.24759 1
      vertex 26.0549 1.33962 1
      vertex 26.5253 1.0253 1
    endloop
  endfacet
  facet normal 0 0 1
    outer loop
      vertex 25.5 3.75 1
      vertex 26.0549 1.33962 1
      vertex 27.375 3.24759 1
    endloop
  endfacet
  facet normal 0 0 1
    outer loop
      vertex 25.5 3.75 1
      vertex 25.5 1.45 1
      vertex 26.0549 1.33962 1
    endloop
  endfacet
  facet normal -0 0 1
    outer loop
      vertex 24.85 3.57583 1
      vertex 25.5 1.45 1
      vertex 25.5 3.75 1
    endloop
  endfacet
  facet normal 0 0 1
    outer loop
      vertex 25.5 1.45 1
      vertex 24.85 3.57583 1
      vertex 24.9451 1.33962 1
    endloop
  endfacet
  facet normal 0 0 1
    outer loop
      vertex 24.9451 1.33962 1
      vertex 24.85 3.57583 1
      vertex 24.4747 1.0253 1
    endloop
  endfacet
  facet normal -0 0 1
    outer loop
      vertex 26.5253 -1.0253 1
      vertex 28.7476 -1.875 1
      vertex 26.8396 -0.554891 1
    endloop
  endfacet
  facet normal 0 0 1
    outer loop
      vertex 28.7476 -1.875 1
      vertex 26.5253 -1.0253 1
      vertex 27.375 -3.24759 1
    endloop
  endfacet
  facet normal -0 0 1
    outer loop
      vertex 26.0549 -1.33962 1
      vertex 27.375 -3.24759 1
      vertex 26.5253 -1.0253 1
    endloop
  endfacet
  facet normal 0 0 1
    outer loop
      vertex 25.5 -3.75 1
      vertex 26.0549 -1.33962 1
      vertex 25.5 -1.45 1
    endloop
  endfacet
  facet normal 0 0 1
    outer loop
      vertex 26.0549 -1.33962 1
      vertex 25.5 -3.75 1
      vertex 27.375 -3.24759 1
    endloop
  endfacet
  facet normal 0 0 1
    outer loop
      vertex 24.85 -3.57583 1
      vertex 25.5 -1.45 1
      vertex 24.9451 -1.33962 1
    endloop
  endfacet
  facet normal 0 0 1
    outer loop
      vertex 25.5 -1.45 1
      vertex 24.85 -3.57583 1
      vertex 25.5 -3.75 1
    endloop
  endfacet
  facet normal 0 0 1
    outer loop
      vertex 24.4747 -1.0253 1
      vertex 24.85 -3.57583 1
      vertex 24.9451 -1.33962 1
    endloop
  endfacet
  facet normal 0 0 1
    outer loop
      vertex 24.1604 -0.554891 1
      vertex 24.85 -3.57583 1
      vertex 24.4747 -1.0253 1
    endloop
  endfacet
  facet normal 0 0 1
    outer loop
      vertex 24.85 -3.57583 1
      vertex 24.1604 -0.554891 1
      vertex 23.85 -11.4 1
    endloop
  endfacet
  facet normal 0 0 1
    outer loop
      vertex 23.85 -11.4 1
      vertex 24.1604 -0.554891 1
      vertex 24.05 0 1
    endloop
  endfacet
  facet normal 0 0 1
    outer loop
      vertex 23.85 -11.4 1
      vertex 24.05 0 1
      vertex 23.85 11.4 1
    endloop
  endfacet
  facet normal 0 0 1
    outer loop
      vertex 24.85 -3.57583 1
      vertex 23.85 -11.4 1
      vertex 24.85 -12.4 1
    endloop
  endfacet
  facet normal -0 0 1
    outer loop
      vertex -23.85 -11.4 1
      vertex 24.85 -12.4 1
      vertex 23.85 -11.4 1
    endloop
  endfacet
  facet normal -0 0 1
    outer loop
      vertex -24.1604 -0.554891 1
      vertex -23.85 -11.4 1
      vertex -24.05 0 1
    endloop
  endfacet
  facet normal 0 0 1
    outer loop
      vertex -24.85 -3.57583 1
      vertex -24.1604 -0.554891 1
      vertex -24.4747 -1.0253 1
    endloop
  endfacet
  facet normal 0 0 1
    outer loop
      vertex -24.1604 -0.554891 1
      vertex -24.85 -3.57583 1
      vertex -23.85 -11.4 1
    endloop
  endfacet
  facet normal 0 0 1
    outer loop
      vertex -23.85 -11.4 1
      vertex -24.85 -12.4 1
      vertex 24.85 -12.4 1
    endloop
  endfacet
  facet normal 0 0 1
    outer loop
      vertex -24.85 -12.4 1
      vertex -23.85 -11.4 1
      vertex -24.85 -3.57583 1
    endloop
  endfacet
  facet normal 1 -0 0
    outer loop
      vertex 24.85 -12.4 1
      vertex 24.85 -3.57583 -1
      vertex 24.85 -3.57583 1
    endloop
  endfacet
  facet normal 1 0 0
    outer loop
      vertex 24.85 -3.57583 -1
      vertex 24.85 -12.4 1
      vertex 24.85 -12.4 -1
    endloop
  endfacet
  facet normal 1 -0 0
    outer loop
      vertex 24.85 3.57583 1
      vertex 24.85 12.4 -1
      vertex 24.85 12.4 1
    endloop
  endfacet
  facet normal 1 0 0
    outer loop
      vertex 24.85 12.4 -1
      vertex 24.85 3.57583 1
      vertex 24.85 3.57583 -1
    endloop
  endfacet
  facet normal 0 1 -0
    outer loop
      vertex 24.85 12.4 -1
      vertex 5.5 12.4 1
      vertex 24.85 12.4 1
    endloop
  endfacet
  facet normal 0 1 0
    outer loop
      vertex 5.5 12.4 1
      vertex 24.85 12.4 -1
      vertex 5.5 12.4 -1
    endloop
  endfacet
  facet normal 0 1 -0
    outer loop
      vertex -5.5 12.4 -1
      vertex -24.85 12.4 1
      vertex -5.5 12.4 1
    endloop
  endfacet
  facet normal 0 1 0
    outer loop
      vertex -24.85 12.4 1
      vertex -5.5 12.4 -1
      vertex -24.85 12.4 -1
    endloop
  endfacet
  facet normal 0 0 -1
    outer loop
      vertex -25.5 2.75 -1
      vertex -24.85 3.57583 -1
      vertex -24.4476 2.54067 -1
    endloop
  endfacet
  facet normal 0 0 -1
    outer loop
      vertex -25.5 2.75 -1
      vertex -25.5 3.75 -1
      vertex -24.85 3.57583 -1
    endloop
  endfacet
  facet normal 0 0 -1
    outer loop
      vertex -26.5524 2.54067 -1
      vertex -25.5 3.75 -1
      vertex -25.5 2.75 -1
    endloop
  endfacet
  facet normal 0 0 -1
    outer loop
      vertex -26.5524 2.54067 -1
      vertex -27.375 3.24759 -1
      vertex -25.5 3.75 -1
    endloop
  endfacet
  facet normal 0 0 -1
    outer loop
      vertex -27.4445 1.94454 -1
      vertex -27.375 3.24759 -1
      vertex -26.5524 2.54067 -1
    endloop
  endfacet
  facet normal 0 0 -1
    outer loop
      vertex -28.7476 1.875 -1
      vertex -27.4445 1.94454 -1
      vertex -28.0407 1.05238 -1
    endloop
  endfacet
  facet normal 0 0 -1
    outer loop
      vertex -28.0407 -1.05238 -1
      vertex -29.25 0 -1
      vertex -28.25 0 -1
    endloop
  endfacet
  facet normal -0 0 -1
    outer loop
      vertex -27.4445 1.94454 -1
      vertex -28.7476 1.875 -1
      vertex -27.375 3.24759 -1
    endloop
  endfacet
  facet normal 0 0 -1
    outer loop
      vertex -28.25 0 -1
      vertex -29.25 0 -1
      vertex -28.0407 1.05238 -1
    endloop
  endfacet
  facet normal -0 0 -1
    outer loop
      vertex -28.0407 1.05238 -1
      vertex -29.25 0 -1
      vertex -28.7476 1.875 -1
    endloop
  endfacet
  facet normal 0 0 -1
    outer loop
      vertex 23.5555 -1.94454 -1
      vertex 24.85 -3.57583 -1
      vertex 24.85 -12.4 -1
    endloop
  endfacet
  facet normal 0 0 -1
    outer loop
      vertex 24.85 -3.57583 -1
      vertex 23.5555 -1.94454 -1
      vertex 24.4476 -2.54067 -1
    endloop
  endfacet
  facet normal 0 0 -1
    outer loop
      vertex 24.85 -12.4 -1
      vertex 22.9593 -1.05238 -1
      vertex 23.5555 -1.94454 -1
    endloop
  endfacet
  facet normal 0 0 -1
    outer loop
      vertex 5.5 7.4 -1
      vertex 22.9593 -1.05238 -1
      vertex 24.85 -12.4 -1
    endloop
  endfacet
  facet normal 0 0 -1
    outer loop
      vertex 22.9593 -1.05238 -1
      vertex 5.5 7.4 -1
      vertex 22.75 0 -1
    endloop
  endfacet
  facet normal 0 0 -1
    outer loop
      vertex 24.85 -12.4 -1
      vertex -5.5 7.4 -1
      vertex 5.5 7.4 -1
    endloop
  endfacet
  facet normal 0 0 -1
    outer loop
      vertex -22.9593 1.05238 -1
      vertex -5.5 7.4 -1
      vertex -22.75 0 -1
    endloop
  endfacet
  facet normal 0 0 -1
    outer loop
      vertex -24.85 -12.4 -1
      vertex -5.5 7.4 -1
      vertex 24.85 -12.4 -1
    endloop
  endfacet
  facet normal 0 0 -1
    outer loop
      vertex -5.5 7.4 -1
      vertex -22.9593 -1.05238 -1
      vertex -22.75 0 -1
    endloop
  endfacet
  facet normal 0 0 -1
    outer loop
      vertex -5.5 7.4 -1
      vertex -24.85 -12.4 -1
      vertex -22.9593 -1.05238 -1
    endloop
  endfacet
  facet normal 0 0 -1
    outer loop
      vertex -22.9593 -1.05238 -1
      vertex -24.85 -12.4 -1
      vertex -23.5555 -1.94454 -1
    endloop
  endfacet
  facet normal 0 0 -1
    outer loop
      vertex -24.85 -3.57583 -1
      vertex -23.5555 -1.94454 -1
      vertex -24.85 -12.4 -1
    endloop
  endfacet
  facet normal 0 0 -1
    outer loop
      vertex -23.5555 -1.94454 -1
      vertex -24.85 -3.57583 -1
      vertex -24.4476 -2.54067 -1
    endloop
  endfacet
  facet normal 0 0 -1
    outer loop
      vertex -25.5 -2.75 -1
      vertex -24.85 -3.57583 -1
      vertex -25.5 -3.75 -1
    endloop
  endfacet
  facet normal 0 0 -1
    outer loop
      vertex -24.85 -3.57583 -1
      vertex -25.5 -2.75 -1
      vertex -24.4476 -2.54067 -1
    endloop
  endfacet
  facet normal 0 0 -1
    outer loop
      vertex -25.5 -3.75 -1
      vertex -26.5524 -2.54067 -1
      vertex -25.5 -2.75 -1
    endloop
  endfacet
  facet normal 0 0 -1
    outer loop
      vertex -27.375 -3.24759 -1
      vertex -26.5524 -2.54067 -1
      vertex -25.5 -3.75 -1
    endloop
  endfacet
  facet normal 0 0 -1
    outer loop
      vertex -27.375 -3.24759 -1
      vertex -27.4445 -1.94454 -1
      vertex -26.5524 -2.54067 -1
    endloop
  endfacet
  facet normal 0 0 -1
    outer loop
      vertex -28.7476 -1.875 -1
      vertex -27.4445 -1.94454 -1
      vertex -27.375 -3.24759 -1
    endloop
  endfacet
  facet normal 0 0 -1
    outer loop
      vertex -29.25 0 -1
      vertex -28.0407 -1.05238 -1
      vertex -28.7476 -1.875 -1
    endloop
  endfacet
  facet normal 0 0 -1
    outer loop
      vertex -27.4445 -1.94454 -1
      vertex -28.7476 -1.875 -1
      vertex -28.0407 -1.05238 -1
    endloop
  endfacet
  facet normal 0 0 -1
    outer loop
      vertex 28.0407 -1.05238 -1
      vertex 29.25 0 -1
      vertex 28.7476 -1.875 -1
    endloop
  endfacet
  facet normal 0 0 -1
    outer loop
      vertex 28.0407 1.05238 -1
      vertex 29.25 0 -1
      vertex 28.25 0 -1
    endloop
  endfacet
  facet normal -0 0 -1
    outer loop
      vertex 29.25 0 -1
      vertex 28.0407 -1.05238 -1
      vertex 28.25 0 -1
    endloop
  endfacet
  facet normal -0 0 -1
    outer loop
      vertex 28.7476 -1.875 -1
      vertex 27.4445 -1.94454 -1
      vertex 28.0407 -1.05238 -1
    endloop
  endfacet
  facet normal 0 0 -1
    outer loop
      vertex 27.375 -3.24759 -1
      vertex 27.4445 -1.94454 -1
      vertex 28.7476 -1.875 -1
    endloop
  endfacet
  facet normal 0 0 -1
    outer loop
      vertex 27.375 -3.24759 -1
      vertex 26.5524 -2.54067 -1
      vertex 27.4445 -1.94454 -1
    endloop
  endfacet
  facet normal 0 0 -1
    outer loop
      vertex 25.5 -3.75 -1
      vertex 26.5524 -2.54067 -1
      vertex 27.375 -3.24759 -1
    endloop
  endfacet
  facet normal 0 0 -1
    outer loop
      vertex 25.5 -3.75 -1
      vertex 25.5 -2.75 -1
      vertex 26.5524 -2.54067 -1
    endloop
  endfacet
  facet normal 0 0 -1
    outer loop
      vertex 24.85 -3.57583 -1
      vertex 25.5 -2.75 -1
      vertex 25.5 -3.75 -1
    endloop
  endfacet
  facet normal -0 0 -1
    outer loop
      vertex 25.5 -2.75 -1
      vertex 24.85 -3.57583 -1
      vertex 24.4476 -2.54067 -1
    endloop
  endfacet
  facet normal 0 0 -1
    outer loop
      vertex 29.25 0 -1
      vertex 28.0407 1.05238 -1
      vertex 28.7476 1.875 -1
    endloop
  endfacet
  facet normal 0 0 -1
    outer loop
      vertex 27.4445 1.94454 -1
      vertex 28.7476 1.875 -1
      vertex 28.0407 1.05238 -1
    endloop
  endfacet
  facet normal 0 0 -1
    outer loop
      vertex 27.4445 1.94454 -1
      vertex 27.375 3.24759 -1
      vertex 28.7476 1.875 -1
    endloop
  endfacet
  facet normal 0 0 -1
    outer loop
      vertex 26.5524 2.54067 -1
      vertex 27.375 3.24759 -1
      vertex 27.4445 1.94454 -1
    endloop
  endfacet
  facet normal 0 0 -1
    outer loop
      vertex 25.5 3.75 -1
      vertex 26.5524 2.54067 -1
      vertex 25.5 2.75 -1
    endloop
  endfacet
  facet normal 0 0 -1
    outer loop
      vertex 26.5524 2.54067 -1
      vertex 25.5 3.75 -1
      vertex 27.375 3.24759 -1
    endloop
  endfacet
  facet normal 0 0 -1
    outer loop
      vertex 25.5 2.75 -1
      vertex 24.85 3.57583 -1
      vertex 25.5 3.75 -1
    endloop
  endfacet
  facet normal 0 0 -1
    outer loop
      vertex 24.4476 2.54067 -1
      vertex 24.85 3.57583 -1
      vertex 25.5 2.75 -1
    endloop
  endfacet
  facet normal 0 0 -1
    outer loop
      vertex 23.5555 1.94454 -1
      vertex 24.85 3.57583 -1
      vertex 24.4476 2.54067 -1
    endloop
  endfacet
  facet normal -0 0 -1
    outer loop
      vertex 24.85 3.57583 -1
      vertex 23.5555 1.94454 -1
      vertex 24.85 12.4 -1
    endloop
  endfacet
  facet normal 0 0 -1
    outer loop
      vertex 5.5 7.4 -1
      vertex 23.5555 1.94454 -1
      vertex 22.9593 1.05238 -1
    endloop
  endfacet
  facet normal 0 0 -1
    outer loop
      vertex 5.5 7.4 -1
      vertex 22.9593 1.05238 -1
      vertex 22.75 0 -1
    endloop
  endfacet
  facet normal 0 0 -1
    outer loop
      vertex 23.5555 1.94454 -1
      vertex 5.5 7.4 -1
      vertex 24.85 12.4 -1
    endloop
  endfacet
  facet normal -0 0 -1
    outer loop
      vertex 24.85 12.4 -1
      vertex 5.5 7.4 -1
      vertex 5.5 12.4 -1
    endloop
  endfacet
  facet normal 0 0 -1
    outer loop
      vertex -23.5555 1.94454 -1
      vertex -5.5 7.4 -1
      vertex -22.9593 1.05238 -1
    endloop
  endfacet
  facet normal 0 0 -1
    outer loop
      vertex -24.85 12.4 -1
      vertex -5.5 7.4 -1
      vertex -23.5555 1.94454 -1
    endloop
  endfacet
  facet normal 0 0 -1
    outer loop
      vertex -24.85 3.57583 -1
      vertex -23.5555 1.94454 -1
      vertex -24.4476 2.54067 -1
    endloop
  endfacet
  facet normal 0 0 -1
    outer loop
      vertex -24.85 12.4 -1
      vertex -23.5555 1.94454 -1
      vertex -24.85 3.57583 -1
    endloop
  endfacet
  facet normal 0 0 -1
    outer loop
      vertex -5.5 7.4 -1
      vertex -24.85 12.4 -1
      vertex -5.5 12.4 -1
    endloop
  endfacet
  facet normal 0 -1 0
    outer loop
      vertex -24.85 -12.4 -1
      vertex 24.85 -12.4 1
      vertex -24.85 -12.4 1
    endloop
  endfacet
  facet normal 0 -1 -0
    outer loop
      vertex 24.85 -12.4 1
      vertex -24.85 -12.4 -1
      vertex 24.85 -12.4 -1
    endloop
  endfacet
  facet normal -1 0 0
    outer loop
      vertex -23.85 -11.4 1
      vertex -23.85 11.4 2
      vertex -23.85 11.4 1
    endloop
  endfacet
  facet normal -1 -0 0
    outer loop
      vertex -23.85 11.4 2
      vertex -23.85 -11.4 1
      vertex -23.85 -11.4 2
    endloop
  endfacet
  facet normal 0 0 1
    outer loop
      vertex -5.5 11.4 2
      vertex -23.85 11.4 2
      vertex -5.5 7.4 2
    endloop
  endfacet
  facet normal 0 0 1
    outer loop
      vertex 5.5 7.4 2
      vertex 23.85 11.4 2
      vertex 5.5 11.4 2
    endloop
  endfacet
  facet normal 0 0 1
    outer loop
      vertex 23.85 11.4 2
      vertex 5.5 7.4 2
      vertex 23.85 -11.4 2
    endloop
  endfacet
  facet normal -0 0 1
    outer loop
      vertex -5.5 7.4 2
      vertex 23.85 -11.4 2
      vertex 5.5 7.4 2
    endloop
  endfacet
  facet normal 0 0 1
    outer loop
      vertex -23.85 -11.4 2
      vertex -5.5 7.4 2
      vertex -23.85 11.4 2
    endloop
  endfacet
  facet normal 0 0 1
    outer loop
      vertex -5.5 7.4 2
      vertex -23.85 -11.4 2
      vertex 23.85 -11.4 2
    endloop
  endfacet
  facet normal 1 -0 0
    outer loop
      vertex 23.85 -11.4 2
      vertex 23.85 11.4 1
      vertex 23.85 11.4 2
    endloop
  endfacet
  facet normal 1 0 0
    outer loop
      vertex 23.85 11.4 1
      vertex 23.85 -11.4 2
      vertex 23.85 -11.4 1
    endloop
  endfacet
  facet normal 0 -1 0
    outer loop
      vertex -23.85 -11.4 1
      vertex 23.85 -11.4 2
      vertex -23.85 -11.4 2
    endloop
  endfacet
  facet normal 0 -1 -0
    outer loop
      vertex 23.85 -11.4 2
      vertex -23.85 -11.4 1
      vertex 23.85 -11.4 1
    endloop
  endfacet
  facet normal 0 1 -0
    outer loop
      vertex 23.85 11.4 1
      vertex 5.5 11.4 2
      vertex 23.85 11.4 2
    endloop
  endfacet
  facet normal 0 1 0
    outer loop
      vertex 5.5 11.4 2
      vertex 23.85 11.4 1
      vertex 5.5 11.4 1
    endloop
  endfacet
  facet normal 0 1 -0
    outer loop
      vertex -5.5 11.4 1
      vertex -23.85 11.4 2
      vertex -5.5 11.4 2
    endloop
  endfacet
  facet normal 0 1 0
    outer loop
      vertex -23.85 11.4 2
      vertex -5.5 11.4 1
      vertex -23.85 11.4 1
    endloop
  endfacet
  facet normal 0.965926 0.258819 0
    outer loop
      vertex 29.25 0 1
      vertex 28.7476 1.875 -1
      vertex 28.7476 1.875 1
    endloop
  endfacet
  facet normal 0.965926 0.258819 0
    outer loop
      vertex 28.7476 1.875 -1
      vertex 29.25 0 1
      vertex 29.25 0 -1
    endloop
  endfacet
  facet normal 0.258819 -0.965926 0
    outer loop
      vertex 25.5 -3.75 -1
      vertex 27.375 -3.24759 1
      vertex 25.5 -3.75 1
    endloop
  endfacet
  facet normal 0.258819 -0.965926 0
    outer loop
      vertex 27.375 -3.24759 1
      vertex 25.5 -3.75 -1
      vertex 27.375 -3.24759 -1
    endloop
  endfacet
  facet normal -0.258819 0.965926 0
    outer loop
      vertex 25.5 3.75 -1
      vertex 24.85 3.57583 1
      vertex 25.5 3.75 1
    endloop
  endfacet
  facet normal -0.258819 0.965926 0
    outer loop
      vertex 24.85 3.57583 1
      vertex 25.5 3.75 -1
      vertex 24.85 3.57583 -1
    endloop
  endfacet
  facet normal 0.258819 0.965926 -0
    outer loop
      vertex 27.375 3.24759 -1
      vertex 25.5 3.75 1
      vertex 27.375 3.24759 1
    endloop
  endfacet
  facet normal 0.258819 0.965926 0
    outer loop
      vertex 25.5 3.75 1
      vertex 27.375 3.24759 -1
      vertex 25.5 3.75 -1
    endloop
  endfacet
  facet normal 0.707107 0.707107 0
    outer loop
      vertex 28.7476 1.875 1
      vertex 27.375 3.24759 -1
      vertex 27.375 3.24759 1
    endloop
  endfacet
  facet normal 0.707107 0.707107 0
    outer loop
      vertex 27.375 3.24759 -1
      vertex 28.7476 1.875 1
      vertex 28.7476 1.875 -1
    endloop
  endfacet
  facet normal 0.707107 -0.707107 0
    outer loop
      vertex 27.375 -3.24759 1
      vertex 28.7476 -1.875 -1
      vertex 28.7476 -1.875 1
    endloop
  endfacet
  facet normal 0.707107 -0.707107 0
    outer loop
      vertex 28.7476 -1.875 -1
      vertex 27.375 -3.24759 1
      vertex 27.375 -3.24759 -1
    endloop
  endfacet
  facet normal -0.258819 -0.965926 0
    outer loop
      vertex 24.85 -3.57583 -1
      vertex 25.5 -3.75 1
      vertex 24.85 -3.57583 1
    endloop
  endfacet
  facet normal -0.258819 -0.965926 -0
    outer loop
      vertex 25.5 -3.75 1
      vertex 24.85 -3.57583 -1
      vertex 25.5 -3.75 -1
    endloop
  endfacet
  facet normal 0.965926 -0.258819 0
    outer loop
      vertex 28.7476 -1.875 1
      vertex 29.25 0 -1
      vertex 29.25 0 1
    endloop
  endfacet
  facet normal 0.965926 -0.258819 0
    outer loop
      vertex 29.25 0 -1
      vertex 28.7476 -1.875 1
      vertex 28.7476 -1.875 -1
    endloop
  endfacet
  facet normal -0.965926 0.258819 0
    outer loop
      vertex -29.25 0 -1
      vertex -28.7476 1.875 1
      vertex -28.7476 1.875 -1
    endloop
  endfacet
  facet normal -0.965926 0.258819 0
    outer loop
      vertex -28.7476 1.875 1
      vertex -29.25 0 -1
      vertex -29.25 0 1
    endloop
  endfacet
  facet normal 0.258819 0.965926 -0
    outer loop
      vertex -24.85 3.57583 -1
      vertex -25.5 3.75 1
      vertex -24.85 3.57583 1
    endloop
  endfacet
  facet normal 0.258819 0.965926 0
    outer loop
      vertex -25.5 3.75 1
      vertex -24.85 3.57583 -1
      vertex -25.5 3.75 -1
    endloop
  endfacet
  facet normal -0.258819 0.965926 0
    outer loop
      vertex -25.5 3.75 -1
      vertex -27.375 3.24759 1
      vertex -25.5 3.75 1
    endloop
  endfacet
  facet normal -0.258819 0.965926 0
    outer loop
      vertex -27.375 3.24759 1
      vertex -25.5 3.75 -1
      vertex -27.375 3.24759 -1
    endloop
  endfacet
  facet normal -0.707107 0.707107 0
    outer loop
      vertex -28.7476 1.875 -1
      vertex -27.375 3.24759 1
      vertex -27.375 3.24759 -1
    endloop
  endfacet
  facet normal -0.707107 0.707107 0
    outer loop
      vertex -27.375 3.24759 1
      vertex -28.7476 1.875 -1
      vertex -28.7476 1.875 1
    endloop
  endfacet
  facet normal 0.258819 -0.965926 0
    outer loop
      vertex -25.5 -3.75 -1
      vertex -24.85 -3.57583 1
      vertex -25.5 -3.75 1
    endloop
  endfacet
  facet normal 0.258819 -0.965926 0
    outer loop
      vertex -24.85 -3.57583 1
      vertex -25.5 -3.75 -1
      vertex -24.85 -3.57583 -1
    endloop
  endfacet
  facet normal -0.258819 -0.965926 0
    outer loop
      vertex -27.375 -3.24759 -1
      vertex -25.5 -3.75 1
      vertex -27.375 -3.24759 1
    endloop
  endfacet
  facet normal -0.258819 -0.965926 -0
    outer loop
      vertex -25.5 -3.75 1
      vertex -27.375 -3.24759 -1
      vertex -25.5 -3.75 -1
    endloop
  endfacet
  facet normal -0.965926 -0.258819 0
    outer loop
      vertex -28.7476 -1.875 -1
      vertex -29.25 0 1
      vertex -29.25 0 -1
    endloop
  endfacet
  facet normal -0.965926 -0.258819 0
    outer loop
      vertex -29.25 0 1
      vertex -28.7476 -1.875 -1
      vertex -28.7476 -1.875 1
    endloop
  endfacet
  facet normal -0.707107 -0.707107 0
    outer loop
      vertex -27.375 -3.24759 -1
      vertex -28.7476 -1.875 1
      vertex -28.7476 -1.875 -1
    endloop
  endfacet
  facet normal -0.707107 -0.707107 0
    outer loop
      vertex -28.7476 -1.875 1
      vertex -27.375 -3.24759 -1
      vertex -27.375 -3.24759 1
    endloop
  endfacet
  facet normal 1 0 0
    outer loop
      vertex -5.5 11.4 2
      vertex -5.5 7.4 2
      vertex -5.5 11.4 1
    endloop
  endfacet
  facet normal 1 -0 0
    outer loop
      vertex -5.5 11.4 1
      vertex -5.5 12.4 -1
      vertex -5.5 12.4 1
    endloop
  endfacet
  facet normal 1 0 0
    outer loop
      vertex -5.5 7.4 -1
      vertex -5.5 11.4 1
      vertex -5.5 7.4 2
    endloop
  endfacet
  facet normal 1 0 0
    outer loop
      vertex -5.5 11.4 1
      vertex -5.5 7.4 -1
      vertex -5.5 12.4 -1
    endloop
  endfacet
  facet normal -1 0 0
    outer loop
      vertex 5.5 12.4 -1
      vertex 5.5 11.4 1
      vertex 5.5 12.4 1
    endloop
  endfacet
  facet normal -1 0 0
    outer loop
      vertex 5.5 7.4 -1
      vertex 5.5 11.4 1
      vertex 5.5 12.4 -1
    endloop
  endfacet
  facet normal -1 0 0
    outer loop
      vertex 5.5 7.4 2
      vertex 5.5 11.4 1
      vertex 5.5 7.4 -1
    endloop
  endfacet
  facet normal -1 0 0
    outer loop
      vertex 5.5 11.4 1
      vertex 5.5 7.4 2
      vertex 5.5 11.4 2
    endloop
  endfacet
  facet normal 0 1 -0
    outer loop
      vertex 5.5 7.4 -1
      vertex -5.5 7.4 2
      vertex 5.5 7.4 2
    endloop
  endfacet
  facet normal 0 1 0
    outer loop
      vertex -5.5 7.4 2
      vertex 5.5 7.4 -1
      vertex -5.5 7.4 -1
    endloop
  endfacet
  facet normal -0.827021 -0.164505 -0.537563
    outer loop
      vertex 28.0407 1.05238 -1
      vertex 28.25 0 -1
      vertex 26.95 0 1
    endloop
  endfacet
  facet normal -0.701114 -0.468471 -0.537563
    outer loop
      vertex 27.4445 1.94454 -1
      vertex 28.0407 1.05238 -1
      vertex 26.5253 1.0253 1
    endloop
  endfacet
  facet normal 0.701115 0.468469 -0.537563
    outer loop
      vertex 24.1604 -0.554891 1
      vertex 24.4747 -1.0253 1
      vertex 22.9593 -1.05238 -1
    endloop
  endfacet
  facet normal 0.164505 -0.827021 -0.537564
    outer loop
      vertex 25.5 2.75 -1
      vertex 25.5 1.45 1
      vertex 24.4476 2.54067 -1
    endloop
  endfacet
  facet normal -0.164505 0.827021 -0.537564
    outer loop
      vertex 25.5 -1.45 1
      vertex 26.5524 -2.54067 -1
      vertex 25.5 -2.75 -1
    endloop
  endfacet
  facet normal 0.46847 -0.701115 -0.537563
    outer loop
      vertex 24.4476 2.54067 -1
      vertex 24.4747 1.0253 1
      vertex 23.5555 1.94454 -1
    endloop
  endfacet
  facet normal -0.468471 -0.701114 -0.537563
    outer loop
      vertex 26.5524 2.54067 -1
      vertex 27.4445 1.94454 -1
      vertex 26.5253 1.0253 1
    endloop
  endfacet
  facet normal -0.164506 -0.82702 -0.537564
    outer loop
      vertex 26.5524 2.54067 -1
      vertex 26.0549 1.33962 1
      vertex 25.5 1.45 1
    endloop
  endfacet
  facet normal -0.164506 0.82702 -0.537564
    outer loop
      vertex 26.0549 -1.33962 1
      vertex 26.5524 -2.54067 -1
      vertex 25.5 -1.45 1
    endloop
  endfacet
  facet normal -0.827021 0.164505 -0.537563
    outer loop
      vertex 28.25 0 -1
      vertex 28.0407 -1.05238 -1
      vertex 26.95 0 1
    endloop
  endfacet
  facet normal 0.827021 -0.164505 -0.537563
    outer loop
      vertex 24.1604 0.554891 1
      vertex 24.05 0 1
      vertex 22.9593 1.05238 -1
    endloop
  endfacet
  facet normal 0.701115 -0.468469 -0.537563
    outer loop
      vertex 24.4747 1.0253 1
      vertex 24.1604 0.554891 1
      vertex 22.9593 1.05238 -1
    endloop
  endfacet
  facet normal 0.701115 -0.46847 -0.537563
    outer loop
      vertex 23.5555 1.94454 -1
      vertex 24.4747 1.0253 1
      vertex 22.9593 1.05238 -1
    endloop
  endfacet
  facet normal 0.827021 -0.164505 -0.537563
    outer loop
      vertex 22.9593 1.05238 -1
      vertex 24.05 0 1
      vertex 22.75 0 -1
    endloop
  endfacet
  facet normal 0.827021 0.164505 -0.537563
    outer loop
      vertex 24.05 0 1
      vertex 22.9593 -1.05238 -1
      vertex 22.75 0 -1
    endloop
  endfacet
  facet normal -0.164505 -0.827021 -0.537564
    outer loop
      vertex 25.5 2.75 -1
      vertex 26.5524 2.54067 -1
      vertex 25.5 1.45 1
    endloop
  endfacet
  facet normal 0.468468 -0.701116 -0.537564
    outer loop
      vertex 24.9451 1.33962 1
      vertex 24.4747 1.0253 1
      vertex 24.4476 2.54067 -1
    endloop
  endfacet
  facet normal -0.701115 -0.468469 -0.537564
    outer loop
      vertex 28.0407 1.05238 -1
      vertex 26.8396 0.554891 1
      vertex 26.5253 1.0253 1
    endloop
  endfacet
  facet normal -0.468468 0.701115 -0.537564
    outer loop
      vertex 26.5253 -1.0253 1
      vertex 26.5524 -2.54067 -1
      vertex 26.0549 -1.33962 1
    endloop
  endfacet
  facet normal -0.468471 0.701114 -0.537563
    outer loop
      vertex 27.4445 -1.94454 -1
      vertex 26.5524 -2.54067 -1
      vertex 26.5253 -1.0253 1
    endloop
  endfacet
  facet normal 0.827021 0.164505 -0.537563
    outer loop
      vertex 24.05 0 1
      vertex 24.1604 -0.554891 1
      vertex 22.9593 -1.05238 -1
    endloop
  endfacet
  facet normal 0.46847 0.701115 -0.537563
    outer loop
      vertex 24.4747 -1.0253 1
      vertex 24.4476 -2.54067 -1
      vertex 23.5555 -1.94454 -1
    endloop
  endfacet
  facet normal 0.701115 0.46847 -0.537563
    outer loop
      vertex 24.4747 -1.0253 1
      vertex 23.5555 -1.94454 -1
      vertex 22.9593 -1.05238 -1
    endloop
  endfacet
  facet normal 0.164506 -0.827021 -0.537564
    outer loop
      vertex 25.5 1.45 1
      vertex 24.9451 1.33962 1
      vertex 24.4476 2.54067 -1
    endloop
  endfacet
  facet normal -0.468468 -0.701115 -0.537564
    outer loop
      vertex 26.5524 2.54067 -1
      vertex 26.5253 1.0253 1
      vertex 26.0549 1.33962 1
    endloop
  endfacet
  facet normal -0.82702 -0.164507 -0.537564
    outer loop
      vertex 28.0407 1.05238 -1
      vertex 26.95 0 1
      vertex 26.8396 0.554891 1
    endloop
  endfacet
  facet normal 0.468468 0.701116 -0.537564
    outer loop
      vertex 24.4747 -1.0253 1
      vertex 24.9451 -1.33962 1
      vertex 24.4476 -2.54067 -1
    endloop
  endfacet
  facet normal 0.164505 0.827021 -0.537564
    outer loop
      vertex 25.5 -1.45 1
      vertex 25.5 -2.75 -1
      vertex 24.4476 -2.54067 -1
    endloop
  endfacet
  facet normal -0.701114 0.468471 -0.537563
    outer loop
      vertex 28.0407 -1.05238 -1
      vertex 27.4445 -1.94454 -1
      vertex 26.5253 -1.0253 1
    endloop
  endfacet
  facet normal 0.164506 0.827021 -0.537564
    outer loop
      vertex 24.9451 -1.33962 1
      vertex 25.5 -1.45 1
      vertex 24.4476 -2.54067 -1
    endloop
  endfacet
  facet normal -0.701115 0.468469 -0.537564
    outer loop
      vertex 26.8396 -0.554891 1
      vertex 28.0407 -1.05238 -1
      vertex 26.5253 -1.0253 1
    endloop
  endfacet
  facet normal -0.82702 0.164507 -0.537564
    outer loop
      vertex 26.95 0 1
      vertex 28.0407 -1.05238 -1
      vertex 26.8396 -0.554891 1
    endloop
  endfacet
  facet normal -0.827021 -0.164505 -0.537563
    outer loop
      vertex -22.9593 1.05238 -1
      vertex -22.75 0 -1
      vertex -24.05 0 1
    endloop
  endfacet
  facet normal -0.701115 -0.46847 -0.537563
    outer loop
      vertex -23.5555 1.94454 -1
      vertex -22.9593 1.05238 -1
      vertex -24.4747 1.0253 1
    endloop
  endfacet
  facet normal -0.164505 -0.827021 -0.537564
    outer loop
      vertex -25.5 2.75 -1
      vertex -24.4476 2.54067 -1
      vertex -25.5 1.45 1
    endloop
  endfacet
  facet normal -0.164505 0.827021 -0.537564
    outer loop
      vertex -25.5 -1.45 1
      vertex -24.4476 -2.54067 -1
      vertex -25.5 -2.75 -1
    endloop
  endfacet
  facet normal 0.468471 -0.701114 -0.537563
    outer loop
      vertex -26.5524 2.54067 -1
      vertex -26.5253 1.0253 1
      vertex -27.4445 1.94454 -1
    endloop
  endfacet
  facet normal -0.46847 -0.701115 -0.537563
    outer loop
      vertex -24.4476 2.54067 -1
      vertex -23.5555 1.94454 -1
      vertex -24.4747 1.0253 1
    endloop
  endfacet
  facet normal -0.164506 -0.827021 -0.537564
    outer loop
      vertex -24.4476 2.54067 -1
      vertex -24.9451 1.33962 1
      vertex -25.5 1.45 1
    endloop
  endfacet
  facet normal -0.164506 0.827021 -0.537564
    outer loop
      vertex -24.9451 -1.33962 1
      vertex -24.4476 -2.54067 -1
      vertex -25.5 -1.45 1
    endloop
  endfacet
  facet normal -0.827021 0.164505 -0.537563
    outer loop
      vertex -22.75 0 -1
      vertex -22.9593 -1.05238 -1
      vertex -24.05 0 1
    endloop
  endfacet
  facet normal 0.701114 -0.468471 -0.537563
    outer loop
      vertex -27.4445 1.94454 -1
      vertex -26.5253 1.0253 1
      vertex -28.0407 1.05238 -1
    endloop
  endfacet
  facet normal 0.164505 -0.827021 -0.537564
    outer loop
      vertex -25.5 2.75 -1
      vertex -25.5 1.45 1
      vertex -26.5524 2.54067 -1
    endloop
  endfacet
  facet normal 0.701115 -0.468469 -0.537564
    outer loop
      vertex -26.5253 1.0253 1
      vertex -26.8396 0.554891 1
      vertex -28.0407 1.05238 -1
    endloop
  endfacet
  facet normal 0.827021 -0.164505 -0.537563
    outer loop
      vertex -28.0407 1.05238 -1
      vertex -26.95 0 1
      vertex -28.25 0 -1
    endloop
  endfacet
  facet normal 0.701114 0.468471 -0.537563
    outer loop
      vertex -26.5253 -1.0253 1
      vertex -27.4445 -1.94454 -1
      vertex -28.0407 -1.05238 -1
    endloop
  endfacet
  facet normal -0.701115 -0.468469 -0.537563
    outer loop
      vertex -22.9593 1.05238 -1
      vertex -24.1604 0.554891 1
      vertex -24.4747 1.0253 1
    endloop
  endfacet
  facet normal -0.468468 0.701116 -0.537564
    outer loop
      vertex -24.4747 -1.0253 1
      vertex -24.4476 -2.54067 -1
      vertex -24.9451 -1.33962 1
    endloop
  endfacet
  facet normal -0.46847 0.701115 -0.537563
    outer loop
      vertex -23.5555 -1.94454 -1
      vertex -24.4476 -2.54067 -1
      vertex -24.4747 -1.0253 1
    endloop
  endfacet
  facet normal 0.164506 -0.82702 -0.537564
    outer loop
      vertex -25.5 1.45 1
      vertex -26.0549 1.33962 1
      vertex -26.5524 2.54067 -1
    endloop
  endfacet
  facet normal 0.468468 -0.701115 -0.537564
    outer loop
      vertex -26.0549 1.33962 1
      vertex -26.5253 1.0253 1
      vertex -26.5524 2.54067 -1
    endloop
  endfacet
  facet normal 0.701115 0.468469 -0.537564
    outer loop
      vertex -26.8396 -0.554891 1
      vertex -26.5253 -1.0253 1
      vertex -28.0407 -1.05238 -1
    endloop
  endfacet
  facet normal 0.82702 -0.164507 -0.537564
    outer loop
      vertex -26.8396 0.554891 1
      vertex -26.95 0 1
      vertex -28.0407 1.05238 -1
    endloop
  endfacet
  facet normal 0.468471 0.701114 -0.537563
    outer loop
      vertex -26.5253 -1.0253 1
      vertex -26.5524 -2.54067 -1
      vertex -27.4445 -1.94454 -1
    endloop
  endfacet
  facet normal -0.468468 -0.701116 -0.537564
    outer loop
      vertex -24.4476 2.54067 -1
      vertex -24.4747 1.0253 1
      vertex -24.9451 1.33962 1
    endloop
  endfacet
  facet normal -0.827021 -0.164505 -0.537563
    outer loop
      vertex -22.9593 1.05238 -1
      vertex -24.05 0 1
      vertex -24.1604 0.554891 1
    endloop
  endfacet
  facet normal 0.468468 0.701115 -0.537564
    outer loop
      vertex -26.5253 -1.0253 1
      vertex -26.0549 -1.33962 1
      vertex -26.5524 -2.54067 -1
    endloop
  endfacet
  facet normal 0.164505 0.827021 -0.537564
    outer loop
      vertex -25.5 -1.45 1
      vertex -25.5 -2.75 -1
      vertex -26.5524 -2.54067 -1
    endloop
  endfacet
  facet normal -0.701115 0.46847 -0.537563
    outer loop
      vertex -22.9593 -1.05238 -1
      vertex -23.5555 -1.94454 -1
      vertex -24.4747 -1.0253 1
    endloop
  endfacet
  facet normal 0.82702 0.164507 -0.537564
    outer loop
      vertex -26.95 0 1
      vertex -26.8396 -0.554891 1
      vertex -28.0407 -1.05238 -1
    endloop
  endfacet
  facet normal 0.827021 0.164505 -0.537563
    outer loop
      vertex -26.95 0 1
      vertex -28.0407 -1.05238 -1
      vertex -28.25 0 -1
    endloop
  endfacet
  facet normal 0.164506 0.82702 -0.537564
    outer loop
      vertex -26.0549 -1.33962 1
      vertex -25.5 -1.45 1
      vertex -26.5524 -2.54067 -1
    endloop
  endfacet
  facet normal -0.701115 0.468469 -0.537563
    outer loop
      vertex -24.1604 -0.554891 1
      vertex -22.9593 -1.05238 -1
      vertex -24.4747 -1.0253 1
    endloop
  endfacet
  facet normal -0.827021 0.164505 -0.537563
    outer loop
      vertex -24.05 0 1
      vertex -22.9593 -1.05238 -1
      vertex -24.1604 -0.554891 1
    endloop
  endfacet
endsolid OpenSCAD_Model
