solid OpenSCAD_Model
  facet normal -1 0 0
    outer loop
      vertex -65 -10 -4
      vertex -65 10 4
      vertex -65 10 -4
    endloop
  endfacet
  facet normal -1 -0 0
    outer loop
      vertex -65 10 4
      vertex -65 -10 -4
      vertex -65 -10 4
    endloop
  endfacet
  facet normal 0 0 1
    outer loop
      vertex -15 10 4
      vertex -52.5 -2.5 4
      vertex -15 -10 4
    endloop
  endfacet
  facet normal 0 0 1
    outer loop
      vertex -15 10 4
      vertex -53.2322 -0.732232 4
      vertex -52.5 -2.5 4
    endloop
  endfacet
  facet normal -0 0 1
    outer loop
      vertex -65 10 4
      vertex -53.2322 -0.732232 4
      vertex -15 10 4
    endloop
  endfacet
  facet normal 0 0 1
    outer loop
      vertex -56.7678 -0.732232 4
      vertex -65 10 4
      vertex -57.5 -2.5 4
    endloop
  endfacet
  facet normal 0 0 1
    outer loop
      vertex -55 0 4
      vertex -65 10 4
      vertex -56.7678 -0.732232 4
    endloop
  endfacet
  facet normal 0 0 1
    outer loop
      vertex -53.2322 -0.732232 4
      vertex -65 10 4
      vertex -55 0 4
    endloop
  endfacet
  facet normal -0 0 1
    outer loop
      vertex -53.2322 -4.26777 4
      vertex -15 -10 4
      vertex -52.5 -2.5 4
    endloop
  endfacet
  facet normal -0 0 1
    outer loop
      vertex -55 -5 4
      vertex -15 -10 4
      vertex -53.2322 -4.26777 4
    endloop
  endfacet
  facet normal 0 0 1
    outer loop
      vertex -65 -10 4
      vertex -57.5 -2.5 4
      vertex -65 10 4
    endloop
  endfacet
  facet normal 0 0 1
    outer loop
      vertex -55 -5 4
      vertex -65 -10 4
      vertex -15 -10 4
    endloop
  endfacet
  facet normal 0 0 1
    outer loop
      vertex -56.7678 -4.26777 4
      vertex -65 -10 4
      vertex -55 -5 4
    endloop
  endfacet
  facet normal 0 0 1
    outer loop
      vertex -57.5 -2.5 4
      vertex -65 -10 4
      vertex -56.7678 -4.26777 4
    endloop
  endfacet
  facet normal 0 0 1
    outer loop
      vertex 65 10 4
      vertex 57.5 -2.5 4
      vertex 65 -10 4
    endloop
  endfacet
  facet normal 0 0 1
    outer loop
      vertex 65 10 4
      vertex 56.7678 -0.732232 4
      vertex 57.5 -2.5 4
    endloop
  endfacet
  facet normal 0 0 1
    outer loop
      vertex 65 10 4
      vertex 55 0 4
      vertex 56.7678 -0.732232 4
    endloop
  endfacet
  facet normal 0 0 1
    outer loop
      vertex 65 10 4
      vertex 53.2322 -0.732232 4
      vertex 55 0 4
    endloop
  endfacet
  facet normal 0 0 1
    outer loop
      vertex 53.2322 -0.732232 4
      vertex 15 10 4
      vertex 52.5 -2.5 4
    endloop
  endfacet
  facet normal -0 0 1
    outer loop
      vertex 15 10 4
      vertex 53.2322 -0.732232 4
      vertex 65 10 4
    endloop
  endfacet
  facet normal -0 0 1
    outer loop
      vertex 56.7678 -4.26777 4
      vertex 65 -10 4
      vertex 57.5 -2.5 4
    endloop
  endfacet
  facet normal -0 0 1
    outer loop
      vertex 55 -5 4
      vertex 65 -10 4
      vertex 56.7678 -4.26777 4
    endloop
  endfacet
  facet normal 0 0 1
    outer loop
      vertex 15 -10 4
      vertex 55 -5 4
      vertex 53.2322 -4.26777 4
    endloop
  endfacet
  facet normal 0 0 1
    outer loop
      vertex 15 -10 4
      vertex 52.5 -2.5 4
      vertex 15 10 4
    endloop
  endfacet
  facet normal 0 0 1
    outer loop
      vertex 52.5 -2.5 4
      vertex 15 -10 4
      vertex 53.2322 -4.26777 4
    endloop
  endfacet
  facet normal 0 0 1
    outer loop
      vertex 55 -5 4
      vertex 15 -10 4
      vertex 65 -10 4
    endloop
  endfacet
  facet normal 1 -0 0
    outer loop
      vertex 65 -10 4
      vertex 65 10 -4
      vertex 65 10 4
    endloop
  endfacet
  facet normal 1 0 0
    outer loop
      vertex 65 10 -4
      vertex 65 -10 4
      vertex 65 -10 -4
    endloop
  endfacet
  facet normal 0 1 0
    outer loop
      vertex 65 10 4
      vertex 15 10 0
      vertex 15 10 4
    endloop
  endfacet
  facet normal 0 1 0
    outer loop
      vertex 15 10 0
      vertex 65 10 -4
      vertex -15 10 0
    endloop
  endfacet
  facet normal 0 1 -0
    outer loop
      vertex 65 10 -4
      vertex 15 10 0
      vertex 65 10 4
    endloop
  endfacet
  facet normal 0 1 -0
    outer loop
      vertex -15 10 0
      vertex -65 10 4
      vertex -15 10 4
    endloop
  endfacet
  facet normal 0 1 0
    outer loop
      vertex -15 10 0
      vertex -65 10 -4
      vertex -65 10 4
    endloop
  endfacet
  facet normal 0 1 0
    outer loop
      vertex -65 10 -4
      vertex -15 10 0
      vertex 65 10 -4
    endloop
  endfacet
  facet normal 0 0 -1
    outer loop
      vertex 65 -10 -4
      vertex 57.5 -2.5 -4
      vertex 65 10 -4
    endloop
  endfacet
  facet normal 0 0 -1
    outer loop
      vertex 65 -10 -4
      vertex 56.7678 -4.26777 -4
      vertex 57.5 -2.5 -4
    endloop
  endfacet
  facet normal 0 0 -1
    outer loop
      vertex 65 -10 -4
      vertex 55 -5 -4
      vertex 56.7678 -4.26777 -4
    endloop
  endfacet
  facet normal 0 0 -1
    outer loop
      vertex 65 -10 -4
      vertex 53.2322 -4.26777 -4
      vertex 55 -5 -4
    endloop
  endfacet
  facet normal 0 0 -1
    outer loop
      vertex 53.2322 -4.26777 -4
      vertex -52.5 -2.5 -4
      vertex 52.5 -2.5 -4
    endloop
  endfacet
  facet normal 0 0 -1
    outer loop
      vertex -53.2322 -4.26777 -4
      vertex 53.2322 -4.26777 -4
      vertex 65 -10 -4
    endloop
  endfacet
  facet normal 0 0 -1
    outer loop
      vertex 53.2322 -4.26777 -4
      vertex -53.2322 -4.26777 -4
      vertex -52.5 -2.5 -4
    endloop
  endfacet
  facet normal 0 0 -1
    outer loop
      vertex -65 -10 -4
      vertex -53.2322 -4.26777 -4
      vertex 65 -10 -4
    endloop
  endfacet
  facet normal -0 0 -1
    outer loop
      vertex -56.7678 -4.26777 -4
      vertex -65 -10 -4
      vertex -57.5 -2.5 -4
    endloop
  endfacet
  facet normal -0 0 -1
    outer loop
      vertex -55 -5 -4
      vertex -65 -10 -4
      vertex -56.7678 -4.26777 -4
    endloop
  endfacet
  facet normal 0 0 -1
    outer loop
      vertex -53.2322 -4.26777 -4
      vertex -65 -10 -4
      vertex -55 -5 -4
    endloop
  endfacet
  facet normal 0 0 -1
    outer loop
      vertex 56.7678 -0.732232 -4
      vertex 65 10 -4
      vertex 57.5 -2.5 -4
    endloop
  endfacet
  facet normal 0 0 -1
    outer loop
      vertex 55 0 -4
      vertex 65 10 -4
      vertex 56.7678 -0.732232 -4
    endloop
  endfacet
  facet normal 0 0 -1
    outer loop
      vertex 53.2322 -0.732232 -4
      vertex 65 10 -4
      vertex 55 0 -4
    endloop
  endfacet
  facet normal 0 0 -1
    outer loop
      vertex -52.5 -2.5 -4
      vertex 53.2322 -0.732232 -4
      vertex 52.5 -2.5 -4
    endloop
  endfacet
  facet normal 0 0 -1
    outer loop
      vertex -53.2322 -0.732232 -4
      vertex 53.2322 -0.732232 -4
      vertex -52.5 -2.5 -4
    endloop
  endfacet
  facet normal 0 0 -1
    outer loop
      vertex 53.2322 -0.732232 -4
      vertex -53.2322 -0.732232 -4
      vertex 65 10 -4
    endloop
  endfacet
  facet normal 0 0 -1
    outer loop
      vertex -65 10 -4
      vertex -53.2322 -0.732232 -4
      vertex -55 0 -4
    endloop
  endfacet
  facet normal 0 0 -1
    outer loop
      vertex -65 10 -4
      vertex -57.5 -2.5 -4
      vertex -65 -10 -4
    endloop
  endfacet
  facet normal 0 0 -1
    outer loop
      vertex -53.2322 -0.732232 -4
      vertex -65 10 -4
      vertex 65 10 -4
    endloop
  endfacet
  facet normal 0 0 -1
    outer loop
      vertex -56.7678 -0.732232 -4
      vertex -65 10 -4
      vertex -55 0 -4
    endloop
  endfacet
  facet normal 0 0 -1
    outer loop
      vertex -57.5 -2.5 -4
      vertex -65 10 -4
      vertex -56.7678 -0.732232 -4
    endloop
  endfacet
  facet normal 0 -1 0
    outer loop
      vertex -65 -10 4
      vertex -15 -10 0
      vertex -15 -10 4
    endloop
  endfacet
  facet normal 0 -1 -0
    outer loop
      vertex -15 -10 0
      vertex -65 -10 -4
      vertex 15 -10 0
    endloop
  endfacet
  facet normal 0 -1 0
    outer loop
      vertex -65 -10 -4
      vertex -15 -10 0
      vertex -65 -10 4
    endloop
  endfacet
  facet normal 0 -1 0
    outer loop
      vertex 15 -10 0
      vertex 65 -10 4
      vertex 15 -10 4
    endloop
  endfacet
  facet normal 0 -1 0
    outer loop
      vertex 15 -10 0
      vertex 65 -10 -4
      vertex 65 -10 4
    endloop
  endfacet
  facet normal 0 -1 0
    outer loop
      vertex 65 -10 -4
      vertex 15 -10 0
      vertex -65 -10 -4
    endloop
  endfacet
  facet normal -0.92388 -0.382682 0
    outer loop
      vertex 57.5 -2.5 -4
      vertex 56.7678 -0.732232 4
      vertex 56.7678 -0.732232 -4
    endloop
  endfacet
  facet normal -0.92388 -0.382682 0
    outer loop
      vertex 56.7678 -0.732232 4
      vertex 57.5 -2.5 -4
      vertex 57.5 -2.5 4
    endloop
  endfacet
  facet normal 0.382683 -0.92388 0
    outer loop
      vertex 53.2322 -0.732232 -4
      vertex 55 0 4
      vertex 53.2322 -0.732232 4
    endloop
  endfacet
  facet normal 0.382683 -0.92388 0
    outer loop
      vertex 55 0 4
      vertex 53.2322 -0.732232 -4
      vertex 55 0 -4
    endloop
  endfacet
  facet normal -0.382683 -0.92388 0
    outer loop
      vertex 55 0 -4
      vertex 56.7678 -0.732232 4
      vertex 55 0 4
    endloop
  endfacet
  facet normal -0.382683 -0.92388 -0
    outer loop
      vertex 56.7678 -0.732232 4
      vertex 55 0 -4
      vertex 56.7678 -0.732232 -4
    endloop
  endfacet
  facet normal 0.92388 -0.382683 0
    outer loop
      vertex 52.5 -2.5 4
      vertex 53.2322 -0.732232 -4
      vertex 53.2322 -0.732232 4
    endloop
  endfacet
  facet normal 0.92388 -0.382683 0
    outer loop
      vertex 53.2322 -0.732232 -4
      vertex 52.5 -2.5 4
      vertex 52.5 -2.5 -4
    endloop
  endfacet
  facet normal -0.92388 0.382683 0
    outer loop
      vertex 56.7678 -4.26777 -4
      vertex 57.5 -2.5 4
      vertex 57.5 -2.5 -4
    endloop
  endfacet
  facet normal -0.92388 0.382683 0
    outer loop
      vertex 57.5 -2.5 4
      vertex 56.7678 -4.26777 -4
      vertex 56.7678 -4.26777 4
    endloop
  endfacet
  facet normal 0.92388 0.382682 0
    outer loop
      vertex 53.2322 -4.26777 4
      vertex 52.5 -2.5 -4
      vertex 52.5 -2.5 4
    endloop
  endfacet
  facet normal 0.92388 0.382682 0
    outer loop
      vertex 52.5 -2.5 -4
      vertex 53.2322 -4.26777 4
      vertex 53.2322 -4.26777 -4
    endloop
  endfacet
  facet normal -0.382683 0.92388 0
    outer loop
      vertex 56.7678 -4.26777 -4
      vertex 55 -5 4
      vertex 56.7678 -4.26777 4
    endloop
  endfacet
  facet normal -0.382683 0.92388 0
    outer loop
      vertex 55 -5 4
      vertex 56.7678 -4.26777 -4
      vertex 55 -5 -4
    endloop
  endfacet
  facet normal 0.382683 0.92388 -0
    outer loop
      vertex 55 -5 -4
      vertex 53.2322 -4.26777 4
      vertex 55 -5 4
    endloop
  endfacet
  facet normal 0.382683 0.92388 0
    outer loop
      vertex 53.2322 -4.26777 4
      vertex 55 -5 -4
      vertex 53.2322 -4.26777 -4
    endloop
  endfacet
  facet normal -0.92388 -0.382682 0
    outer loop
      vertex -52.5 -2.5 -4
      vertex -53.2322 -0.732232 4
      vertex -53.2322 -0.732232 -4
    endloop
  endfacet
  facet normal -0.92388 -0.382682 0
    outer loop
      vertex -53.2322 -0.732232 4
      vertex -52.5 -2.5 -4
      vertex -52.5 -2.5 4
    endloop
  endfacet
  facet normal 0.92388 -0.382683 0
    outer loop
      vertex -57.5 -2.5 4
      vertex -56.7678 -0.732232 -4
      vertex -56.7678 -0.732232 4
    endloop
  endfacet
  facet normal 0.92388 -0.382683 0
    outer loop
      vertex -56.7678 -0.732232 -4
      vertex -57.5 -2.5 4
      vertex -57.5 -2.5 -4
    endloop
  endfacet
  facet normal 0.382683 -0.92388 0
    outer loop
      vertex -56.7678 -0.732232 -4
      vertex -55 0 4
      vertex -56.7678 -0.732232 4
    endloop
  endfacet
  facet normal 0.382683 -0.92388 0
    outer loop
      vertex -55 0 4
      vertex -56.7678 -0.732232 -4
      vertex -55 0 -4
    endloop
  endfacet
  facet normal -0.382683 -0.92388 0
    outer loop
      vertex -55 0 -4
      vertex -53.2322 -0.732232 4
      vertex -55 0 4
    endloop
  endfacet
  facet normal -0.382683 -0.92388 -0
    outer loop
      vertex -53.2322 -0.732232 4
      vertex -55 0 -4
      vertex -53.2322 -0.732232 -4
    endloop
  endfacet
  facet normal -0.382683 0.92388 0
    outer loop
      vertex -53.2322 -4.26777 -4
      vertex -55 -5 4
      vertex -53.2322 -4.26777 4
    endloop
  endfacet
  facet normal -0.382683 0.92388 0
    outer loop
      vertex -55 -5 4
      vertex -53.2322 -4.26777 -4
      vertex -55 -5 -4
    endloop
  endfacet
  facet normal 0.92388 0.382682 0
    outer loop
      vertex -56.7678 -4.26777 4
      vertex -57.5 -2.5 -4
      vertex -57.5 -2.5 4
    endloop
  endfacet
  facet normal 0.92388 0.382682 0
    outer loop
      vertex -57.5 -2.5 -4
      vertex -56.7678 -4.26777 4
      vertex -56.7678 -4.26777 -4
    endloop
  endfacet
  facet normal -0.92388 0.382683 0
    outer loop
      vertex -53.2322 -4.26777 -4
      vertex -52.5 -2.5 4
      vertex -52.5 -2.5 -4
    endloop
  endfacet
  facet normal -0.92388 0.382683 0
    outer loop
      vertex -52.5 -2.5 4
      vertex -53.2322 -4.26777 -4
      vertex -53.2322 -4.26777 4
    endloop
  endfacet
  facet normal 0.382683 0.92388 -0
    outer loop
      vertex -55 -5 -4
      vertex -56.7678 -4.26777 4
      vertex -55 -5 4
    endloop
  endfacet
  facet normal 0.382683 0.92388 0
    outer loop
      vertex -56.7678 -4.26777 4
      vertex -55 -5 -4
      vertex -56.7678 -4.26777 -4
    endloop
  endfacet
  facet normal 1 -0 0
    outer loop
      vertex -15 -10 4
      vertex -15 10 0
      vertex -15 10 4
    endloop
  endfacet
  facet normal 1 0 0
    outer loop
      vertex -15 10 0
      vertex -15 -10 4
      vertex -15 -10 0
    endloop
  endfacet
  facet normal -1 0 0
    outer loop
      vertex 15 -10 0
      vertex 15 10 4
      vertex 15 10 0
    endloop
  endfacet
  facet normal -1 -0 0
    outer loop
      vertex 15 10 4
      vertex 15 -10 0
      vertex 15 -10 4
    endloop
  endfacet
  facet normal -0 0 1
    outer loop
      vertex -15 10 0
      vertex 15 -10 0
      vertex 15 10 0
    endloop
  endfacet
  facet normal 0 0 1
    outer loop
      vertex 15 -10 0
      vertex -15 10 0
      vertex -15 -10 0
    endloop
  endfacet
endsolid OpenSCAD_Model
